ISO-10303-21;
HEADER;
FILE_DESCRIPTION((''),'2;1');
FILE_NAME('322000140','2026-07-27T17:09:14',('EDY'),(''),
'CREO PARAMETRIC BY PTC INC, 2021284','CREO PARAMETRIC BY PTC INC, 2021284','');
FILE_SCHEMA(('CONFIG_CONTROL_DESIGN'));
ENDSEC;
DATA;
#2=DIRECTION('',(0.E0,1.E0,0.E0));
#3=VECTOR('',#2,2.870854439131E1);
#4=CARTESIAN_POINT('',(3.189508880630E1,2.064145560869E1,4.5E2));
#5=LINE('',#4,#3);
#6=DIRECTION('',(0.E0,0.E0,-1.E0));
#7=VECTOR('',#6,1.5E1);
#8=CARTESIAN_POINT('',(3.189508880630E1,2.064145560869E1,4.65E2));
#9=LINE('',#8,#7);
#10=DIRECTION('',(0.E0,1.E0,0.E0));
#11=VECTOR('',#10,3.25E1);
#12=CARTESIAN_POINT('',(3.E1,1.875E1,4.5E2));
#13=LINE('',#12,#11);
#14=DIRECTION('',(-1.E0,0.E0,0.E0));
#15=VECTOR('',#14,6.E1);
#16=CARTESIAN_POINT('',(9.E1,1.875E1,4.5E2));
#17=LINE('',#16,#15);
#18=DIRECTION('',(0.E0,-1.E0,0.E0));
#19=VECTOR('',#18,3.25E1);
#20=CARTESIAN_POINT('',(9.E1,5.125E1,4.5E2));
#21=LINE('',#20,#19);
#22=DIRECTION('',(1.E0,0.E0,0.E0));
#23=VECTOR('',#22,6.E1);
#24=CARTESIAN_POINT('',(3.E1,5.125E1,4.5E2));
#25=LINE('',#24,#23);
#26=DIRECTION('',(6.646159823768E-2,4.153849889855E-2,9.969239735652E-1));
#27=VECTOR('',#26,1.469391591816E2);
#28=CARTESIAN_POINT('',(3.E1,1.875E1,4.5E2));
#29=LINE('',#28,#27);
#30=DIRECTION('',(-6.530221248857E-2,1.903952624567E-1,-9.795331873286E-1));
#31=VECTOR('',#30,6.329458622668E1);
#32=CARTESIAN_POINT('',(3.976581136291E1,3.567867636593E1,5.964871704436E2));
#33=LINE('',#32,#31);
#34=DIRECTION('',(-6.646159823768E-2,4.153849889855E-2,9.969239735652E-1));
#35=VECTOR('',#34,1.465847010947E2);
#36=CARTESIAN_POINT('',(9.E1,1.875E1,4.5E2));
#37=LINE('',#36,#35);
#38=DIRECTION('',(-9.999618569622E-1,3.636056217288E-4,8.726534921491E-3));
#39=VECTOR('',#38,1.243009037174E1);
#40=CARTESIAN_POINT('',(5.254854066799E1,2.501565706536E1,6.003757695685E2));
#41=LINE('',#40,#39);
#42=DIRECTION('',(9.999618569622E-1,-3.636056217312E-4,-8.726534921503E-3));
#43=VECTOR('',#42,5.726179985022E0);
#44=CARTESIAN_POINT('',(4.451394013833E1,2.485191034945E1,5.964458483867E2));
#45=LINE('',#44,#43);
#46=DIRECTION('',(-9.999618404653E-1,1.821178728179E-4,8.734096768302E-3));
#47=VECTOR('',#46,5.626179514322E0);
#48=CARTESIAN_POINT('',(5.009155060598E1,2.414152191604E1,5.793965259851E2));
#49=LINE('',#48,#47);
#50=DIRECTION('',(-9.999618569622E-1,3.636056217298E-4,8.726534921508E-3));
#51=VECTOR('',#50,2.800000185100E1);
#52=CARTESIAN_POINT('',(7.807303138078E1,2.404801079771E1,5.771522591449E2));
#53=LINE('',#52,#51);
#54=DIRECTION('',(-9.999616614800E-1,7.233174490756E-4,8.726533215570E-3));
#55=VECTOR('',#54,4.043298510263E0);
#56=CARTESIAN_POINT('',(7.999079263553E1,2.500567852766E1,6.001362846637E2));
#57=LINE('',#56,#55);
#58=DIRECTION('',(-6.530204479966E-2,-1.904082602363E-1,9.795306719949E-1));
#59=VECTOR('',#58,6.290035528685E1);
#60=CARTESIAN_POINT('',(8.436526830691E1,4.772829269182E1,5.345209753964E2));
#61=LINE('',#60,#59);
#62=DIRECTION('',(-6.646159823768E-2,-4.153849889855E-2,9.969239735652E-1));
#63=VECTOR('',#62,8.478176635086E1);
#64=CARTESIAN_POINT('',(9.E1,5.125E1,4.5E2));
#65=LINE('',#64,#63);
#66=DIRECTION('',(9.999997709846E-1,-2.817470765534E-5,6.761929837224E-4));
#67=VECTOR('',#66,4.873274462370E1);
#68=CARTESIAN_POINT('',(3.563253484376E1,4.772966572265E1,5.344880226564E2));
#69=LINE('',#68,#67);
#70=DIRECTION('',(6.646159823768E-2,-4.153849889855E-2,9.969239735652E-1));
#71=VECTOR('',#70,8.474871193461E1);
#72=CARTESIAN_POINT('',(3.E1,5.125E1,4.5E2));
#73=LINE('',#72,#71);
#74=CARTESIAN_POINT('',(4.010456591215E1,3.566896169235E1,5.964845100189E2));
#75=CARTESIAN_POINT('',(3.999161624332E1,3.566875842862E1,5.964854957157E2));
#76=CARTESIAN_POINT('',(3.987876103173E1,3.567887962966E1,5.964861847468E2));
#77=CARTESIAN_POINT('',(3.976581136291E1,3.567867636593E1,5.964871704436E2));
#79=DIRECTION('',(9.999618569622E-1,-3.636056217522E-4,-8.726534921338E-3));
#80=VECTOR('',#79,3.178972680832E-1);
#81=CARTESIAN_POINT('',(3.976581136291E1,2.485363210182E1,5.964871704436E2));
#82=LINE('',#81,#80);
#83=DIRECTION('',(0.E0,-1.E0,1.050220534419E-14));
#84=VECTOR('',#83,1.082504426411E1);
#85=CARTESIAN_POINT('',(3.976581136291E1,3.567867636593E1,5.964871704436E2));
#86=LINE('',#85,#84);
#87=DIRECTION('',(9.999597201346E-1,-2.067963664617E-3,-8.733935800078E-3));
#88=VECTOR('',#87,3.987335503730E1);
#89=CARTESIAN_POINT('',(4.010456591215E1,3.566896169235E1,5.964845100189E2));
#90=LINE('',#89,#88);
#91=DIRECTION('',(-9.999597439500E-1,-2.056635498721E-3,8.733884005002E-3));
#92=VECTOR('',#91,4.015479704942E1);
#93=CARTESIAN_POINT('',(8.025774648805E1,3.575154547340E1,5.961338026792E2));
#94=LINE('',#93,#92);
#95=DIRECTION('',(0.E0,1.E0,-1.041790700317E-14));
#96=VECTOR('',#95,1.091263702844E1);
#97=CARTESIAN_POINT('',(8.025774648805E1,2.483890844497E1,5.961338026792E2));
#98=LINE('',#97,#96);
#99=DIRECTION('',(9.999618569622E-1,-3.636056217892E-4,-8.726534921905E-3));
#100=VECTOR('',#99,3.021932913264E-1);
#101=CARTESIAN_POINT('',(7.995556472330E1,2.483901832415E1,5.961364397795E2));
#102=LINE('',#101,#100);
#103=DIRECTION('',(8.799343614375E-3,4.162893298675E-2,9.990943916820E-1));
#104=VECTOR('',#103,4.003470460360E0);
#105=CARTESIAN_POINT('',(4.008369650543E1,2.485351651258E1,5.964843963020E2));
#106=LINE('',#105,#104);
#107=DIRECTION('',(-1.929589353130E-3,-9.999981382855E-1,-1.051428234812E-5));
#108=VECTOR('',#107,1.081546531507E1);
#109=CARTESIAN_POINT('',(4.010456591215E1,3.566896169235E1,5.964845100189E2));
#110=LINE('',#109,#108);
#111=DIRECTION('',(-8.727515607965E-3,1.367737742778E-3,-9.999609791211E-1));
#112=VECTOR('',#111,3.999707910999E0);
#113=CARTESIAN_POINT('',(4.013947342537E1,3.566349114088E1,6.004840618578E2));
#114=LINE('',#113,#112);
#115=DIRECTION('',(1.930692694860E-3,9.999981360692E-1,-1.684889988563E-5));
#116=VECTOR('',#115,1.064333426322E1);
#117=CARTESIAN_POINT('',(4.011892441766E1,2.502017671609E1,6.004842411862E2));
#118=LINE('',#117,#116);
#119=DIRECTION('',(-8.726535498379E-3,0.E0,-9.999619230642E-1));
#120=VECTOR('',#119,4.E0);
#121=CARTESIAN_POINT('',(8.001122099806E1,3.558650504294E1,6.001361063881E2));
#122=LINE('',#121,#120);
#123=DIRECTION('',(-9.999600592043E-1,1.930766212521E-3,8.726519232717E-3));
#124=VECTOR('',#123,3.987334014563E1);
#125=CARTESIAN_POINT('',(8.001122099806E1,3.558650504294E1,6.001361063881E2));
#126=LINE('',#125,#124);
#127=DIRECTION('',(9.999619065387E-1,-1.818028078691E-4,-8.726535354152E-3));
#128=VECTOR('',#127,7.999999603831E0);
#129=CARTESIAN_POINT('',(6.794795428319E1,2.501005753841E1,6.002413809219E2));
#130=LINE('',#129,#128);
#131=DIRECTION('',(8.726535500344E-3,-1.265569212579E-11,9.999619230642E-1));
#132=VECTOR('',#131,1.699987901273E1);
#133=CARTESIAN_POINT('',(6.776469803456E1,2.501005753868E1,5.792422947640E2));
#134=LINE('',#133,#132);
#135=DIRECTION('',(-8.726527384256E-3,-8.888185055298E-5,-9.999619191848E-1));
#136=VECTOR('',#135,2.099988585209E1);
#137=CARTESIAN_POINT('',(5.254854066799E1,2.501565706536E1,6.003757695685E2));
#138=LINE('',#137,#136);
#139=DIRECTION('',(-9.999618569622E-1,3.636056217307E-4,8.726534921523E-3));
#140=VECTOR('',#139,1.540000101802E1);
#141=CARTESIAN_POINT('',(6.794795428319E1,2.501005753841E1,6.002413809219E2));
#142=LINE('',#141,#140);
#143=DIRECTION('',(8.726535489990E-3,-1.264675115645E-11,9.999619230642E-1));
#144=VECTOR('',#143,4.000006756411E0);
#145=CARTESIAN_POINT('',(6.791304808227E1,2.501005753846E1,5.962415264735E2));
#146=LINE('',#145,#144);
#147=DIRECTION('',(9.999619230642E-1,1.158825062611E-14,-8.726535498369E-3));
#148=VECTOR('',#147,2.330000000003E1);
#149=CARTESIAN_POINT('',(4.461393527484E1,2.501005753846E1,5.964448547506E2));
#150=LINE('',#149,#148);
#151=DIRECTION('',(8.726535380018E-3,-1.646931515014E-4,9.999619095028E-1));
#152=VECTOR('',#151,1.699987924328E1);
#153=CARTESIAN_POINT('',(4.446558522717E1,2.501285730215E1,5.794456230411E2));
#154=LINE('',#153,#152);
#155=DIRECTION('',(-9.999618936855E-1,2.424037593898E-4,8.726535241991E-3));
#156=VECTOR('',#155,1.540000028278E1);
#157=CARTESIAN_POINT('',(6.776469803456E1,2.501005753868E1,5.792422947640E2));
#158=LINE('',#157,#156);
#159=DIRECTION('',(1.574509166160E-6,9.999999835622E-1,-1.813097167983E-4));
#160=VECTOR('',#159,1.673889314184E-1);
#161=CARTESIAN_POINT('',(7.591274320319E1,2.484266860979E1,5.961717445387E2));
#162=LINE('',#161,#160);
#163=DIRECTION('',(9.999619312190E-1,-2.316802211245E-5,-8.725570235272E-3));
#164=VECTOR('',#163,3.129999948003E1);
#165=CARTESIAN_POINT('',(4.461393527599E1,2.484339376887E1,5.964448548825E2));
#166=LINE('',#165,#164);
#167=DIRECTION('',(6.910091376377E-9,-9.999999999997E-1,7.918205332895E-7));
#168=VECTOR('',#167,1.666637695866E-1);
#169=CARTESIAN_POINT('',(4.461393527484E1,2.501005753846E1,5.964448547506E2));
#170=LINE('',#169,#168);
#171=DIRECTION('',(-9.999619230642E-1,0.E0,8.726535498348E-3));
#172=VECTOR('',#171,7.999999999966E0);
#173=CARTESIAN_POINT('',(7.591274346675E1,2.501005753846E1,5.961717141895E2));
#174=LINE('',#173,#172);
#175=DIRECTION('',(-8.726402832302E-3,3.636049721857E-4,-9.999618581151E-1));
#176=VECTOR('',#175,4.000007020828E0);
#177=CARTESIAN_POINT('',(7.594764913934E1,2.500860311602E1,6.001715686425E2));
#178=LINE('',#177,#176);
#179=DIRECTION('',(8.719036380818E-3,4.144822216905E-2,9.991026089865E-1));
#180=VECTOR('',#179,4.003416733982E0);
#181=CARTESIAN_POINT('',(7.591274320319E1,2.484266860979E1,5.961717445387E2));
#182=LINE('',#181,#180);
#183=DIRECTION('',(9.999619230550E-1,-1.267619435617E-7,-8.726536553359E-3));
#184=VECTOR('',#183,3.13E1);
#185=CARTESIAN_POINT('',(4.446558522832E1,2.413509244765E1,5.794456231731E2));
#186=LINE('',#185,#184);
#187=DIRECTION('',(-9.995889209824E-1,2.794295239660E-2,6.417200374440E-3));
#188=VECTOR('',#187,2.619029913920E-2);
#189=CARTESIAN_POINT('',(7.593892273605E1,2.484193677551E1,5.961715764703E2));
#190=LINE('',#189,#188);
#191=DIRECTION('',(-9.999618859016E-1,9.105903150743E-5,8.730318002634E-3));
#192=VECTOR('',#191,2.617960660386E-2);
#193=CARTESIAN_POINT('',(7.579057202873E1,2.413508609611E1,5.791722540227E2));
#194=LINE('',#193,#192);
#195=DIRECTION('',(8.718970805296E-3,4.162896229570E-2,9.990950950967E-1));
#196=VECTOR('',#195,1.701462833004E1);
#197=CARTESIAN_POINT('',(4.446558522832E1,2.413509244765E1,5.794456231731E2));
#198=LINE('',#197,#196);
#199=DIRECTION('',(1.311958227533E-9,-1.E0,1.503350390225E-7));
#200=VECTOR('',#199,8.777648545007E-1);
#201=CARTESIAN_POINT('',(4.446558522717E1,2.501285730215E1,5.794456230411E2));
#202=LINE('',#201,#200);
#203=DIRECTION('',(-8.718994029662E-3,-4.154362972019E-2,-9.990986467676E-1));
#204=VECTOR('',#203,1.701465866521E1);
#205=CARTESIAN_POINT('',(7.593892273605E1,2.484193677551E1,5.961715764703E2));
#206=LINE('',#205,#204);
#207=DIRECTION('',(-8.747031048032E-8,9.999999999777E-1,-6.677951551515E-6));
#208=VECTOR('',#207,4.529009153739E0);
#209=CARTESIAN_POINT('',(7.593892313220E1,2.031292762187E1,5.961716067148E2));
#210=LINE('',#209,#208);
#211=DIRECTION('',(-3.718018185535E-14,-1.E0,-4.253412804252E-12));
#212=VECTOR('',#211,3.822158474235E0);
#213=CARTESIAN_POINT('',(7.579057202873E1,2.413508609611E1,5.791722540227E2));
#214=LINE('',#213,#212);
#215=DIRECTION('',(-9.999615423318E-1,9.954148324486E-4,8.713380895892E-3));
#216=VECTOR('',#215,2.300001271887E0);
#217=CARTESIAN_POINT('',(7.823883555525E1,2.483964732013E1,5.961515356832E2));
#218=LINE('',#217,#216);
#219=DIRECTION('',(0.E0,1.E0,1.665321600221E-14));
#220=VECTOR('',#219,6.826719698257E0);
#221=CARTESIAN_POINT('',(7.823883555525E1,1.801292762187E1,5.961515356832E2));
#222=LINE('',#221,#220);
#223=DIRECTION('',(1.235726496974E-14,1.E0,4.942905987896E-14));
#224=VECTOR('',#223,2.3E0);
#225=CARTESIAN_POINT('',(7.343901832454E1,1.801292762187E1,5.961934230536E2));
#226=LINE('',#225,#224);
#227=DIRECTION('',(4.572188038804E-13,-1.E0,5.259251971122E-11));
#228=VECTOR('',#227,2.3E0);
#229=CARTESIAN_POINT('',(7.329066722107E1,2.031292762187E1,5.791940703615E2));
#230=LINE('',#229,#228);
#231=DIRECTION('',(8.726535498369E-3,0.E0,9.999619230642E-1));
#232=VECTOR('',#231,1.699999999992E1);
#233=CARTESIAN_POINT('',(7.329066722107E1,2.031292762187E1,5.791940703615E2));
#234=LINE('',#233,#232);
#235=DIRECTION('',(-9.999619230637E-1,0.E0,8.726535550659E-3));
#236=VECTOR('',#235,2.5E0);
#237=CARTESIAN_POINT('',(7.579057202873E1,2.031292762187E1,5.791722540227E2));
#238=LINE('',#237,#236);
#239=DIRECTION('',(-8.726535498368E-3,0.E0,-9.999619230642E-1));
#240=VECTOR('',#239,1.700000000005E1);
#241=CARTESIAN_POINT('',(7.593892313220E1,2.031292762187E1,5.961716067148E2));
#242=LINE('',#241,#240);
#243=DIRECTION('',(9.999619230642E-1,0.E0,-8.726535498226E-3));
#244=VECTOR('',#243,2.5E0);
#245=CARTESIAN_POINT('',(7.343901832454E1,2.031292762187E1,5.961934230536E2));
#246=LINE('',#245,#244);
#247=DIRECTION('',(8.726535498367E-3,0.E0,9.999619230642E-1));
#248=VECTOR('',#247,1.700000000011E1);
#249=CARTESIAN_POINT('',(4.689167245218E1,1.801292762187E1,5.794244508985E2));
#250=LINE('',#249,#248);
#251=DIRECTION('',(-9.999619230643E-1,0.E0,8.726535486670E-3));
#252=VECTOR('',#251,2.64E1);
#253=CARTESIAN_POINT('',(7.329066722107E1,1.801292762187E1,5.791940703617E2));
#254=LINE('',#253,#252);
#255=DIRECTION('',(-8.726535498368E-3,0.E0,-9.999619230642E-1));
#256=VECTOR('',#255,1.699999999980E1);
#257=CARTESIAN_POINT('',(7.343901832454E1,1.801292762187E1,5.961934230536E2));
#258=LINE('',#257,#256);
#259=DIRECTION('',(-9.999619230642E-1,0.E0,8.726535498364E-3));
#260=VECTOR('',#259,4.8E0);
#261=CARTESIAN_POINT('',(7.823883555525E1,1.801292762187E1,5.961515356832E2));
#262=LINE('',#261,#260);
#263=DIRECTION('',(8.726535498372E-3,0.E0,9.999619230642E-1));
#264=VECTOR('',#263,1.9E1);
#265=CARTESIAN_POINT('',(7.807303138078E1,1.801292762187E1,5.771522591449E2));
#266=LINE('',#265,#264);
#267=DIRECTION('',(9.999619230642E-1,0.E0,-8.726535498365E-3));
#268=VECTOR('',#267,3.6E1);
#269=CARTESIAN_POINT('',(4.207440215047E1,1.801292762187E1,5.774664144229E2));
#270=LINE('',#269,#268);
#271=DIRECTION('',(-8.726535498371E-3,0.E0,-9.999619230642E-1));
#272=VECTOR('',#271,1.9E1);
#273=CARTESIAN_POINT('',(4.224020632494E1,1.801292762187E1,5.964656909611E2));
#274=LINE('',#273,#272);
#275=DIRECTION('',(-9.999619230642E-1,0.E0,8.726535498388E-3));
#276=VECTOR('',#275,4.8E0);
#277=CARTESIAN_POINT('',(4.704002355565E1,1.801292762187E1,5.964238035907E2));
#278=LINE('',#277,#276);
#279=DIRECTION('',(-3.583606841225E-13,1.E0,-3.998810944208E-11));
#280=VECTOR('',#279,2.3E0);
#281=CARTESIAN_POINT('',(4.689167245218E1,1.801292762187E1,5.794244508985E2));
#282=LINE('',#281,#280);
#283=DIRECTION('',(1.235726496974E-14,-1.E0,-4.942905987896E-14));
#284=VECTOR('',#283,2.3E0);
#285=CARTESIAN_POINT('',(4.704002355565E1,2.031292762187E1,5.964238035907E2));
#286=LINE('',#285,#284);
#287=DIRECTION('',(-8.726535498367E-3,0.E0,-9.999619230642E-1));
#288=VECTOR('',#287,1.700000000020E1);
#289=CARTESIAN_POINT('',(4.704002355565E1,2.031292762187E1,5.964238035907E2));
#290=LINE('',#289,#288);
#291=DIRECTION('',(9.999619230642E-1,0.E0,-8.726535498227E-3));
#292=VECTOR('',#291,2.5E0);
#293=CARTESIAN_POINT('',(4.454011874799E1,2.031292762187E1,5.964456199295E2));
#294=LINE('',#293,#292);
#295=DIRECTION('',(8.726535498369E-3,0.E0,9.999619230642E-1));
#296=VECTOR('',#295,1.699999999999E1);
#297=CARTESIAN_POINT('',(4.439176764452E1,2.031292762187E1,5.794462672374E2));
#298=LINE('',#297,#296);
#299=DIRECTION('',(-9.999619230634E-1,0.E0,8.726535581173E-3));
#300=VECTOR('',#299,2.5E0);
#301=CARTESIAN_POINT('',(4.689167245218E1,2.031292762187E1,5.794244508984E2));
#302=LINE('',#301,#300);
#303=DIRECTION('',(0.E0,-1.E0,-1.662841738328E-14));
#304=VECTOR('',#303,6.836900656339E0);
#305=CARTESIAN_POINT('',(4.224020632494E1,2.484982827821E1,5.964656909611E2));
#306=LINE('',#305,#304);
#307=DIRECTION('',(-8.718970805302E-3,-4.162896229570E-2,-9.990950950967E-1));
#308=VECTOR('',#307,1.901648464842E1);
#309=CARTESIAN_POINT('',(4.224020632494E1,2.484982827821E1,5.964656909611E2));
#310=LINE('',#309,#308);
#311=DIRECTION('',(9.999619230642E-1,0.E0,-8.726535498344E-3));
#312=VECTOR('',#311,7.999999999932E0);
#313=CARTESIAN_POINT('',(4.207440215047E1,2.405819175579E1,5.774664144229E2));
#314=LINE('',#313,#312);
#315=DIRECTION('',(0.E0,1.E0,-1.880593390185E-14));
#316=VECTOR('',#315,6.045264133913E0);
#317=CARTESIAN_POINT('',(4.207440215047E1,1.801292762187E1,5.774664144229E2));
#318=LINE('',#317,#316);
#319=DIRECTION('',(-1.177353675266E-14,-1.E0,-1.883765880426E-14));
#320=VECTOR('',#319,6.035083175831E0);
#321=CARTESIAN_POINT('',(7.807303138078E1,2.404801079771E1,5.771522591449E2));
#322=LINE('',#321,#320);
#323=DIRECTION('',(9.999484493589E-1,5.510236037679E-3,-8.528535841213E-3));
#324=VECTOR('',#323,9.127503761311E-2);
#325=CARTESIAN_POINT('',(4.437431545173E1,2.414204359689E1,5.794464440238E2));
#326=LINE('',#325,#324);
#327=DIRECTION('',(-8.206126621682E-3,-4.157415533856E-2,-9.991017210944E-1));
#328=VECTOR('',#327,1.701468829849E1);
#329=CARTESIAN_POINT('',(4.451394013833E1,2.484941489125E1,5.964458483867E2));
#330=LINE('',#329,#328);
#331=DIRECTION('',(9.999619065387E-1,-1.818028198850E-4,-8.726535354157E-3));
#332=VECTOR('',#331,2.273820431082E0);
#333=CARTESIAN_POINT('',(4.224020632494E1,2.484982827821E1,5.964656909611E2));
#334=LINE('',#333,#332);
#335=DIRECTION('',(-8.718970839459E-3,-4.162896229570E-2,-9.990950950964E-1));
#336=VECTOR('',#335,2.001735226194E0);
#337=CARTESIAN_POINT('',(5.009155060598E1,2.414152191604E1,5.793965259851E2));
#338=LINE('',#337,#336);
#339=DIRECTION('',(9.998353620708E-1,-1.590960735322E-2,-8.725431026118E-3));
#340=VECTOR('',#339,2.618292045934E-2);
#341=CARTESIAN_POINT('',(4.451394013833E1,2.484941489125E1,5.964458483867E2));
#342=LINE('',#341,#340);
#343=DIRECTION('',(-2.239365213025E-11,-1.E0,1.503770708243E-13));
#344=VECTOR('',#343,4.536070709389E0);
#345=CARTESIAN_POINT('',(4.454011874809E1,2.484899833126E1,5.964456199295E2));
#346=LINE('',#345,#344);
#347=DIRECTION('',(9.744721545520E-3,4.154969884718E-2,9.990889164272E-1));
#348=VECTOR('',#347,1.701467769899E1);
#349=CARTESIAN_POINT('',(4.437431545173E1,2.414204359689E1,5.794464440238E2));
#350=LINE('',#349,#348);
#351=DIRECTION('',(-4.557712960119E-3,9.999896125066E-1,4.616851575234E-5));
#352=VECTOR('',#351,3.829155750344E0);
#353=CARTESIAN_POINT('',(4.439176764452E1,2.031292762187E1,5.794462672374E2));
#354=LINE('',#353,#352);
#355=DIRECTION('',(8.718970805301E-3,4.162896229570E-2,9.990950950967E-1));
#356=VECTOR('',#355,1.901648464842E1);
#357=CARTESIAN_POINT('',(7.807303138078E1,2.404801079771E1,5.771522591449E2));
#358=LINE('',#357,#356);
#359=DIRECTION('',(-8.206076497263E-3,-4.172056543842E-2,-9.990956184110E-1));
#360=VECTOR('',#359,1.701479222774E1);
#361=CARTESIAN_POINT('',(4.451394013833E1,2.485191034945E1,5.964458483867E2));
#362=LINE('',#361,#360);
#363=DIRECTION('',(-1.833363680618E-13,-1.E0,-5.866763777977E-12));
#364=VECTOR('',#363,3.875623496156E-2);
#365=CARTESIAN_POINT('',(4.451394013833E1,2.489066658441E1,5.964458483867E2));
#366=LINE('',#365,#364);
#367=DIRECTION('',(-8.726535498373E-3,0.E0,-9.999619230642E-1));
#368=VECTOR('',#367,9.301850576737E-1);
#369=CARTESIAN_POINT('',(4.452205743126E1,2.489066658441E1,5.973759980258E2));
#370=LINE('',#369,#368);
#371=DIRECTION('',(-8.718970805301E-3,-4.162896229570E-2,-9.990950950967E-1));
#372=VECTOR('',#371,3.002488509331E0);
#373=CARTESIAN_POINT('',(4.454823604092E1,2.501565706536E1,6.003757695686E2));
#374=LINE('',#373,#372);
#375=DIRECTION('',(8.726535498369E-3,-1.265376256033E-11,9.999619230642E-1));
#376=VECTOR('',#375,2.093007082683E1);
#377=CARTESIAN_POINT('',(4.436558903486E1,2.501565706562E1,5.794464956947E2));
#378=LINE('',#377,#376);
#379=DIRECTION('',(-9.988377978174E-3,9.999501131594E-1,5.914319993636E-5));
#380=VECTOR('',#379,8.736570527233E-1);
#381=CARTESIAN_POINT('',(4.437431545173E1,2.414204359689E1,5.794464440238E2));
#382=LINE('',#381,#380);
#383=DIRECTION('',(-3.479785534516E-13,-1.E0,-5.567656855225E-12));
#384=VECTOR('',#383,4.083830619516E-2);
#385=CARTESIAN_POINT('',(5.023990170945E1,2.489066658441E1,5.963958786771E2));
#386=LINE('',#385,#384);
#387=DIRECTION('',(9.999619230642E-1,0.E0,-8.726535498367E-3));
#388=VECTOR('',#387,5.726179606495E0);
#389=CARTESIAN_POINT('',(4.451394013833E1,2.489066658441E1,5.964458483867E2));
#390=LINE('',#389,#388);
#391=DIRECTION('',(-8.718970805304E-3,-4.162896229571E-2,-9.990950950967E-1));
#392=VECTOR('',#391,9.810070667884E-1);
#393=CARTESIAN_POINT('',(5.024845508143E1,2.489066658441E1,5.973759980258E2));
#394=LINE('',#393,#392);
#395=DIRECTION('',(-8.726535498361E-3,0.E0,-9.999619230642E-1));
#396=VECTOR('',#395,9.801566700459E-1);
#397=CARTESIAN_POINT('',(5.024845508143E1,2.489066658441E1,5.973759980258E2));
#398=LINE('',#397,#396);
#399=DIRECTION('',(1.E0,0.E0,3.970623231805E-14));
#400=VECTOR('',#399,5.726397650171E0);
#401=CARTESIAN_POINT('',(4.452205743126E1,2.489066658441E1,5.973759980258E2));
#402=LINE('',#401,#400);
#403=DIRECTION('',(-1.E0,1.114621473739E-13,2.657328644961E-12));
#404=VECTOR('',#403,8.000304627076E0);
#405=CARTESIAN_POINT('',(5.254854066799E1,2.501565706536E1,6.003757695685E2));
#406=LINE('',#405,#404);
#407=DIRECTION('',(9.999619160867E-1,1.181334764934E-4,-8.726535437447E-3));
#408=VECTOR('',#407,7.900000224793E0);
#409=CARTESIAN_POINT('',(4.446558522717E1,2.501285730215E1,5.794456230411E2));
#410=LINE('',#409,#408);
#411=DIRECTION('',(9.995702344716E-1,-2.798666795344E-2,-8.723117285481E-3));
#412=VECTOR('',#411,1.000391856999E-1);
#413=CARTESIAN_POINT('',(4.436558903486E1,2.501565706562E1,5.794464956947E2));
#414=LINE('',#413,#412);
#415=DIRECTION('',(-8.799343614375E-3,-4.162893298675E-2,-9.990943916820E-1));
#416=VECTOR('',#415,4.003470460360E0);
#417=CARTESIAN_POINT('',(7.999079263553E1,2.500567852766E1,6.001362846637E2));
#418=LINE('',#417,#416);
#419=DIRECTION('',(-1.930692694859E-3,-9.999981360692E-1,1.684889990782E-5));
#420=VECTOR('',#419,1.058084623725E1);
#421=CARTESIAN_POINT('',(8.001122099806E1,3.558650504294E1,6.001361063881E2));
#422=LINE('',#421,#420);
#423=DIRECTION('',(1.930692694859E-3,9.999981360692E-1,-1.684889991147E-5));
#424=VECTOR('',#423,1.074750675141E1);
#425=CARTESIAN_POINT('',(7.995556472330E1,2.483901832415E1,5.961364397795E2));
#426=LINE('',#425,#424);
#427=DIRECTION('',(1.E0,0.E0,0.E0));
#428=VECTOR('',#427,5.620491119370E1);
#429=CARTESIAN_POINT('',(3.189508880630E1,4.935E1,4.5E2));
#430=LINE('',#429,#428);
#431=DIRECTION('',(0.E0,0.E0,-1.E0));
#432=VECTOR('',#431,1.5E1);
#433=CARTESIAN_POINT('',(3.189508880630E1,4.935E1,4.65E2));
#434=LINE('',#433,#432);
#435=DIRECTION('',(-1.E0,0.E0,0.E0));
#436=VECTOR('',#435,5.620491119370E1);
#437=CARTESIAN_POINT('',(8.81E1,2.064145560869E1,4.65E2));
#438=LINE('',#437,#436);
#439=DIRECTION('',(0.E0,-1.E0,0.E0));
#440=VECTOR('',#439,2.870854439131E1);
#441=CARTESIAN_POINT('',(8.81E1,4.935E1,4.65E2));
#442=LINE('',#441,#440);
#443=DIRECTION('',(1.E0,0.E0,0.E0));
#444=VECTOR('',#443,5.620491119370E1);
#445=CARTESIAN_POINT('',(3.189508880630E1,4.935E1,4.65E2));
#446=LINE('',#445,#444);
#447=DIRECTION('',(0.E0,1.E0,0.E0));
#448=VECTOR('',#447,2.870854439131E1);
#449=CARTESIAN_POINT('',(3.189508880630E1,2.064145560869E1,4.65E2));
#450=LINE('',#449,#448);
#451=DIRECTION('',(1.E0,0.E0,0.E0));
#452=VECTOR('',#451,5.E1);
#453=CARTESIAN_POINT('',(3.500000053644E1,2.337500069141E1,4.65E2));
#454=LINE('',#453,#452);
#455=DIRECTION('',(0.E0,-1.E0,0.E0));
#456=VECTOR('',#455,2.325E1);
#457=CARTESIAN_POINT('',(3.500000053644E1,4.662500069141E1,4.65E2));
#458=LINE('',#457,#456);
#459=DIRECTION('',(-1.E0,0.E0,0.E0));
#460=VECTOR('',#459,5.E1);
#461=CARTESIAN_POINT('',(8.500000053644E1,4.662500069141E1,4.65E2));
#462=LINE('',#461,#460);
#463=DIRECTION('',(0.E0,1.E0,0.E0));
#464=VECTOR('',#463,2.325E1);
#465=CARTESIAN_POINT('',(8.500000053644E1,2.337500069141E1,4.65E2));
#466=LINE('',#465,#464);
#467=DIRECTION('',(-1.E0,0.E0,0.E0));
#468=VECTOR('',#467,5.620491119370E1);
#469=CARTESIAN_POINT('',(8.81E1,2.064145560869E1,4.5E2));
#470=LINE('',#469,#468);
#471=DIRECTION('',(0.E0,0.E0,-1.E0));
#472=VECTOR('',#471,1.5E1);
#473=CARTESIAN_POINT('',(8.81E1,2.064145560869E1,4.65E2));
#474=LINE('',#473,#472);
#475=DIRECTION('',(0.E0,-1.E0,0.E0));
#476=VECTOR('',#475,2.870854439131E1);
#477=CARTESIAN_POINT('',(8.81E1,4.935E1,4.5E2));
#478=LINE('',#477,#476);
#479=DIRECTION('',(0.E0,0.E0,-1.E0));
#480=VECTOR('',#479,1.5E1);
#481=CARTESIAN_POINT('',(8.81E1,4.935E1,4.65E2));
#482=LINE('',#481,#480);
#483=DIRECTION('',(6.646159922530E-2,4.153849830263E-2,9.969239735241E-1));
#484=VECTOR('',#483,1.232866286129E2);
#485=CARTESIAN_POINT('',(3.500000053644E1,2.337500069141E1,4.65E2));
#486=LINE('',#485,#484);
#487=DIRECTION('',(9.999618569622E-1,-3.636056165286E-4,-8.726534921519E-3));
#488=VECTOR('',#487,3.363319686591E1);
#489=CARTESIAN_POINT('',(4.319382703715E1,2.849614210479E1,5.879073956792E2));
#490=LINE('',#489,#488);
#491=DIRECTION('',(6.646159922202E-2,-4.153849948900E-2,9.969239734749E-1));
#492=VECTOR('',#491,8.259665385081E1);
#493=CARTESIAN_POINT('',(3.500000053644E1,4.662500069141E1,4.65E2));
#494=LINE('',#493,#492);
#495=DIRECTION('',(0.E0,-1.E0,0.E0));
#496=VECTOR('',#495,4.045378038060E0);
#497=CARTESIAN_POINT('',(4.376348621794E1,3.364843714717E1,5.964522832637E2));
#498=LINE('',#497,#496);
#499=DIRECTION('',(-6.530204383073E-2,-1.904082602483E-1,9.795306720572E-1));
#500=VECTOR('',#499,4.981953395550E1);
#501=CARTESIAN_POINT('',(7.950873602572E1,4.319296027197E1,5.473689688882E2));
#502=LINE('',#501,#500);
#503=DIRECTION('',(9.999997709846E-1,-2.817470816879E-5,6.761929863793E-4));
#504=VECTOR('',#503,3.901923871997E1);
#505=CARTESIAN_POINT('',(4.048950624175E1,4.319405962764E1,5.473425843527E2));
#506=LINE('',#505,#504);
#507=DIRECTION('',(-6.530221345750E-2,1.903952624445E-1,-9.795331872664E-1));
#508=VECTOR('',#507,5.013581933665E1);
#509=CARTESIAN_POINT('',(4.376348621794E1,3.364843714717E1,5.964522832637E2));
#510=LINE('',#509,#508);
#511=DIRECTION('',(-9.999603039809E-1,-1.799524143131E-3,8.726521368842E-3));
#512=VECTOR('',#511,3.249322226936E1);
#513=CARTESIAN_POINT('',(7.625541863573E1,3.370690948513E1,5.961687304652E2));
#514=LINE('',#513,#512);
#515=DIRECTION('',(-6.646159725334E-2,4.153849830809E-2,9.969239736554E-1));
#516=VECTOR('',#515,1.229922217264E2);
#517=CARTESIAN_POINT('',(8.500000053644E1,2.337500069141E1,4.65E2));
#518=LINE('',#517,#516);
#519=CARTESIAN_POINT('',(7.625586033213E1,3.011226341650E1,5.961621050192E2));
#520=CARTESIAN_POINT('',(7.625586033213E1,3.130979528638E1,5.961621050192E2));
#521=CARTESIAN_POINT('',(7.625541863573E1,3.250937761524E1,5.961687304652E2));
#522=CARTESIAN_POINT('',(7.625541863573E1,3.370690948513E1,5.961687304652E2));
#524=CARTESIAN_POINT('',(7.625541863573E1,3.008284082169E1,5.961687304652E2));
#525=CARTESIAN_POINT('',(7.625572077760E1,3.009255534561E1,5.961641983371E2));
#526=CARTESIAN_POINT('',(7.625555819026E1,3.010254889258E1,5.961666371473E2));
#527=CARTESIAN_POINT('',(7.625586033213E1,3.011226341650E1,5.961621050192E2));
#529=DIRECTION('',(-5.923883442231E-14,1.E0,0.E0));
#530=VECTOR('',#529,4.797817125804E-1);
#531=CARTESIAN_POINT('',(7.625541863573E1,2.960305910911E1,5.961687304652E2));
#532=LINE('',#531,#530);
#533=DIRECTION('',(-6.646159725006E-2,-4.153849949447E-2,9.969239736062E-1));
#534=VECTOR('',#533,8.262311978544E1);
#535=CARTESIAN_POINT('',(8.500000053644E1,4.662500069141E1,4.65E2));
#536=LINE('',#535,#534);
#537=DIRECTION('',(-9.997499517715E-1,-1.813044313077E-2,1.308896346839E-2));
#538=VECTOR('',#537,1.517225002624E0);
#539=CARTESIAN_POINT('',(7.625586033213E1,3.011226341650E1,5.961621050192E2));
#540=LINE('',#539,#538);
#541=DIRECTION('',(9.999619230642E-1,0.E0,-8.726535498371E-3));
#542=VECTOR('',#541,3.249316965812E1);
#543=CARTESIAN_POINT('',(4.376348621794E1,2.960305910911E1,5.964522832637E2));
#544=LINE('',#543,#542);
#545=DIRECTION('',(6.651901151060E-2,0.E0,9.977851577908E-1));
#546=VECTOR('',#545,8.563855172418E0);
#547=CARTESIAN_POINT('',(4.319382703715E1,2.960305910911E1,5.879073956792E2));
#548=LINE('',#547,#546);
#549=DIRECTION('',(6.651900953695E-2,0.E0,-9.977851579224E-1));
#550=VECTOR('',#549,8.573825722983E0);
#551=CARTESIAN_POINT('',(7.625541863573E1,2.960305910911E1,5.961687304652E2));
#552=LINE('',#551,#550);
#553=DIRECTION('',(9.999619230642E-1,0.E0,-8.726535498383E-3));
#554=VECTOR('',#553,3.363319464261E1);
#555=CARTESIAN_POINT('',(4.319382703715E1,2.960305910911E1,5.879073956792E2));
#556=LINE('',#555,#554);
#557=DIRECTION('',(1.283822965930E-14,1.E0,2.054116745488E-13));
#558=VECTOR('',#557,1.106917004317E0);
#559=CARTESIAN_POINT('',(4.319382703715E1,2.849614210479E1,5.879073956792E2));
#560=LINE('',#559,#558);
#561=DIRECTION('',(2.539588556981E-14,-1.E0,-3.047506268377E-13));
#562=VECTOR('',#561,1.119146223599E0);
#563=CARTESIAN_POINT('',(7.682574103077E1,2.960305910911E1,5.876138944122E2));
#564=LINE('',#563,#562);
#565=DIRECTION('',(-9.999611260588E-1,1.262565154374E-3,8.726528543004E-3));
#566=VECTOR('',#565,1.516462877693E0);
#567=CARTESIAN_POINT('',(7.625541863573E1,3.008284082169E1,5.961687304652E2));
#568=LINE('',#567,#566);
#569=CARTESIAN_POINT('',(3.189508880630E1,2.064145560869E1,4.5E2));
#570=CARTESIAN_POINT('',(3.189508880630E1,4.935E1,4.5E2));
#571=VERTEX_POINT('',#569);
#572=VERTEX_POINT('',#570);
#573=CARTESIAN_POINT('',(3.189508880630E1,4.935E1,4.65E2));
#574=VERTEX_POINT('',#573);
#575=CARTESIAN_POINT('',(3.189508880630E1,2.064145560869E1,4.65E2));
#576=VERTEX_POINT('',#575);
#577=CARTESIAN_POINT('',(8.81E1,4.935E1,4.5E2));
#578=VERTEX_POINT('',#577);
#579=CARTESIAN_POINT('',(8.81E1,4.935E1,4.65E2));
#580=VERTEX_POINT('',#579);
#581=CARTESIAN_POINT('',(8.81E1,2.064145560869E1,4.5E2));
#582=VERTEX_POINT('',#581);
#583=CARTESIAN_POINT('',(8.81E1,2.064145560869E1,4.65E2));
#584=VERTEX_POINT('',#583);
#585=CARTESIAN_POINT('',(3.500000053644E1,2.337500069141E1,4.65E2));
#586=CARTESIAN_POINT('',(8.500000053644E1,2.337500069141E1,4.65E2));
#587=VERTEX_POINT('',#585);
#588=VERTEX_POINT('',#586);
#589=CARTESIAN_POINT('',(8.500000053644E1,4.662500069141E1,4.65E2));
#590=VERTEX_POINT('',#589);
#591=CARTESIAN_POINT('',(3.500000053644E1,4.662500069141E1,4.65E2));
#592=VERTEX_POINT('',#591);
#593=CARTESIAN_POINT('',(7.950873602572E1,4.319296027197E1,5.473689688882E2));
#594=VERTEX_POINT('',#593);
#595=CARTESIAN_POINT('',(4.048950624175E1,4.319405962764E1,5.473425843527E2));
#596=VERTEX_POINT('',#595);
#597=CARTESIAN_POINT('',(3.E1,1.875E1,4.5E2));
#598=CARTESIAN_POINT('',(3.E1,5.125E1,4.5E2));
#599=VERTEX_POINT('',#597);
#600=VERTEX_POINT('',#598);
#601=CARTESIAN_POINT('',(9.E1,5.125E1,4.5E2));
#602=VERTEX_POINT('',#601);
#603=CARTESIAN_POINT('',(9.E1,1.875E1,4.5E2));
#604=VERTEX_POINT('',#603);
#605=CARTESIAN_POINT('',(3.563253484376E1,4.772966572265E1,5.344880226564E2));
#606=VERTEX_POINT('',#605);
#607=CARTESIAN_POINT('',(8.436526830691E1,4.772829269182E1,5.345209753964E2));
#608=VERTEX_POINT('',#607);
#609=CARTESIAN_POINT('',(6.776469803456E1,2.501005753868E1,5.792422947640E2));
#610=CARTESIAN_POINT('',(6.791304808227E1,2.501005753846E1,5.962415264735E2));
#611=VERTEX_POINT('',#609);
#612=VERTEX_POINT('',#610);
#613=CARTESIAN_POINT('',(6.794795428319E1,2.501005753841E1,6.002413809219E2));
#614=VERTEX_POINT('',#613);
#615=CARTESIAN_POINT('',(5.254854066799E1,2.501565706536E1,6.003757695685E2));
#616=VERTEX_POINT('',#615);
#617=CARTESIAN_POINT('',(5.236528458904E1,2.501379055664E1,5.793766834092E2));
#618=VERTEX_POINT('',#617);
#619=CARTESIAN_POINT('',(4.319382703715E1,2.960305910911E1,5.879073956792E2));
#620=CARTESIAN_POINT('',(7.682574103077E1,2.960305910911E1,5.876138944122E2));
#621=VERTEX_POINT('',#619);
#622=VERTEX_POINT('',#620);
#623=CARTESIAN_POINT('',(7.682574103077E1,2.848391288551E1,5.876138944122E2));
#624=VERTEX_POINT('',#623);
#625=CARTESIAN_POINT('',(4.319382703715E1,2.849614210479E1,5.879073956792E2));
#626=VERTEX_POINT('',#625);
#627=CARTESIAN_POINT('',(4.376348621794E1,2.960305910911E1,5.964522832637E2));
#628=CARTESIAN_POINT('',(7.625541863573E1,2.960305910911E1,5.961687304652E2));
#629=VERTEX_POINT('',#627);
#630=VERTEX_POINT('',#628);
#631=CARTESIAN_POINT('',(7.625541863573E1,3.370690948513E1,5.961687304652E2));
#632=CARTESIAN_POINT('',(4.376348621794E1,3.364843714717E1,5.964522832637E2));
#633=VERTEX_POINT('',#631);
#634=VERTEX_POINT('',#632);
#635=VERTEX_POINT('',#519);
#636=CARTESIAN_POINT('',(7.625541863573E1,3.008284082169E1,5.961687304652E2));
#637=CARTESIAN_POINT('',(7.473901470893E1,3.008475545487E1,5.961819639218E2));
#638=VERTEX_POINT('',#636);
#639=VERTEX_POINT('',#637);
#640=CARTESIAN_POINT('',(7.594764913934E1,2.500860311602E1,6.001715686425E2));
#641=VERTEX_POINT('',#640);
#642=CARTESIAN_POINT('',(7.999079263553E1,2.500567852766E1,6.001362846637E2));
#643=VERTEX_POINT('',#642);
#644=CARTESIAN_POINT('',(8.001122099806E1,3.558650504294E1,6.001361063881E2));
#645=VERTEX_POINT('',#644);
#646=CARTESIAN_POINT('',(4.013947342537E1,3.566349114088E1,6.004840618578E2));
#647=VERTEX_POINT('',#646);
#648=CARTESIAN_POINT('',(4.011892441766E1,2.502017671609E1,6.004842411862E2));
#649=VERTEX_POINT('',#648);
#650=CARTESIAN_POINT('',(7.997631485607E1,3.558650504294E1,5.961362586959E2));
#651=VERTEX_POINT('',#650);
#652=CARTESIAN_POINT('',(4.010456591215E1,3.566896169235E1,5.964845100189E2));
#653=VERTEX_POINT('',#652);
#654=CARTESIAN_POINT('',(7.995556472330E1,2.483901832415E1,5.961364397795E2));
#655=VERTEX_POINT('',#654);
#656=CARTESIAN_POINT('',(8.025774648805E1,2.483890844497E1,5.961338026792E2));
#657=VERTEX_POINT('',#656);
#658=CARTESIAN_POINT('',(8.025774648805E1,3.575154547340E1,5.961338026792E2));
#659=VERTEX_POINT('',#658);
#660=CARTESIAN_POINT('',(3.976581136291E1,3.567867636593E1,5.964871704436E2));
#661=CARTESIAN_POINT('',(3.976581136291E1,2.485363210182E1,5.964871704436E2));
#662=VERTEX_POINT('',#660);
#663=VERTEX_POINT('',#661);
#664=CARTESIAN_POINT('',(4.008369650543E1,2.485351651258E1,5.964843963020E2));
#665=VERTEX_POINT('',#664);
#666=CARTESIAN_POINT('',(7.807303138078E1,2.404801079771E1,5.771522591449E2));
#667=CARTESIAN_POINT('',(5.007409753492E1,2.405819175579E1,5.773966021389E2));
#668=VERTEX_POINT('',#666);
#669=VERTEX_POINT('',#667);
#670=CARTESIAN_POINT('',(7.807303138078E1,1.801292762187E1,5.771522591449E2));
#671=VERTEX_POINT('',#670);
#672=CARTESIAN_POINT('',(4.207440215047E1,1.801292762187E1,5.774664144229E2));
#673=VERTEX_POINT('',#672);
#674=CARTESIAN_POINT('',(4.207440215047E1,2.405819175579E1,5.774664144229E2));
#675=VERTEX_POINT('',#674);
#676=CARTESIAN_POINT('',(7.579057202873E1,2.413508609611E1,5.791722540227E2));
#677=CARTESIAN_POINT('',(7.576439341994E1,2.413508848E1,5.791724825790E2));
#678=VERTEX_POINT('',#676);
#679=VERTEX_POINT('',#677);
#680=CARTESIAN_POINT('',(7.593892273605E1,2.484193677551E1,5.961715764703E2));
#681=VERTEX_POINT('',#680);
#682=CARTESIAN_POINT('',(7.591274320319E1,2.484266860979E1,5.961717445387E2));
#683=VERTEX_POINT('',#682);
#684=CARTESIAN_POINT('',(4.461393527599E1,2.484339376887E1,5.964448548825E2));
#685=VERTEX_POINT('',#684);
#686=CARTESIAN_POINT('',(4.446558522832E1,2.413509244765E1,5.794456231731E2));
#687=VERTEX_POINT('',#686);
#688=CARTESIAN_POINT('',(5.009155060598E1,2.414152191604E1,5.793965259851E2));
#689=VERTEX_POINT('',#688);
#690=CARTESIAN_POINT('',(4.224020632494E1,2.484982827821E1,5.964656909611E2));
#691=VERTEX_POINT('',#690);
#692=CARTESIAN_POINT('',(4.451394013833E1,2.484941489125E1,5.964458483867E2));
#693=VERTEX_POINT('',#692);
#694=CARTESIAN_POINT('',(4.689167245218E1,1.801292762187E1,5.794244508985E2));
#695=CARTESIAN_POINT('',(4.704002355565E1,1.801292762187E1,5.964238035907E2));
#696=VERTEX_POINT('',#694);
#697=VERTEX_POINT('',#695);
#698=CARTESIAN_POINT('',(4.224020632494E1,1.801292762187E1,5.964656909611E2));
#699=VERTEX_POINT('',#698);
#700=CARTESIAN_POINT('',(7.823883555525E1,1.801292762187E1,5.961515356832E2));
#701=VERTEX_POINT('',#700);
#702=CARTESIAN_POINT('',(7.343901832454E1,1.801292762187E1,5.961934230536E2));
#703=VERTEX_POINT('',#702);
#704=CARTESIAN_POINT('',(7.329066722107E1,1.801292762187E1,5.791940703617E2));
#705=VERTEX_POINT('',#704);
#706=CARTESIAN_POINT('',(7.343901832454E1,2.031292762187E1,5.961934230536E2));
#707=VERTEX_POINT('',#706);
#708=CARTESIAN_POINT('',(7.823883555525E1,2.483964732013E1,5.961515356832E2));
#709=VERTEX_POINT('',#708);
#710=CARTESIAN_POINT('',(7.593892313220E1,2.031292762187E1,5.961716067148E2));
#711=VERTEX_POINT('',#710);
#712=CARTESIAN_POINT('',(7.579057202873E1,2.031292762187E1,5.791722540227E2));
#713=VERTEX_POINT('',#712);
#714=CARTESIAN_POINT('',(4.454011874809E1,2.484899833126E1,5.964456199295E2));
#715=CARTESIAN_POINT('',(4.454011874799E1,2.031292762187E1,5.964456199295E2));
#716=VERTEX_POINT('',#714);
#717=VERTEX_POINT('',#715);
#718=CARTESIAN_POINT('',(4.439176764452E1,2.031292762187E1,5.794462672374E2));
#719=VERTEX_POINT('',#718);
#720=CARTESIAN_POINT('',(4.437431545173E1,2.414204359689E1,5.794464440238E2));
#721=VERTEX_POINT('',#720);
#722=CARTESIAN_POINT('',(5.024845508143E1,2.489066658441E1,5.973759980258E2));
#723=CARTESIAN_POINT('',(5.023990170945E1,2.489066658441E1,5.963958786771E2));
#724=VERTEX_POINT('',#722);
#725=VERTEX_POINT('',#723);
#726=CARTESIAN_POINT('',(5.023990170945E1,2.484982827821E1,5.963958786771E2));
#727=VERTEX_POINT('',#726);
#728=CARTESIAN_POINT('',(4.454823604092E1,2.501565706536E1,6.003757695686E2));
#729=VERTEX_POINT('',#728);
#730=CARTESIAN_POINT('',(4.436558903486E1,2.501565706562E1,5.794464956947E2));
#731=VERTEX_POINT('',#730);
#732=CARTESIAN_POINT('',(4.451394013833E1,2.489066658441E1,5.964458483867E2));
#733=VERTEX_POINT('',#732);
#734=CARTESIAN_POINT('',(4.452205743126E1,2.489066658441E1,5.973759980258E2));
#735=VERTEX_POINT('',#734);
#736=CARTESIAN_POINT('',(4.451394013833E1,2.485191034945E1,5.964458483867E2));
#737=VERTEX_POINT('',#736);
#738=CARTESIAN_POINT('',(4.446558578405E1,2.414254654389E1,5.794456655814E2));
#739=VERTEX_POINT('',#738);
#740=CARTESIAN_POINT('',(7.591274346675E1,2.501005753846E1,5.961717141895E2));
#741=VERTEX_POINT('',#740);
#742=CARTESIAN_POINT('',(4.446558522717E1,2.501285730215E1,5.794456230411E2));
#743=VERTEX_POINT('',#742);
#744=CARTESIAN_POINT('',(4.689167245218E1,2.031292762187E1,5.794244508984E2));
#745=VERTEX_POINT('',#744);
#746=CARTESIAN_POINT('',(7.329066722107E1,2.031292762187E1,5.791940703615E2));
#747=VERTEX_POINT('',#746);
#748=CARTESIAN_POINT('',(4.461393527484E1,2.501005753846E1,5.964448547506E2));
#749=VERTEX_POINT('',#748);
#750=CARTESIAN_POINT('',(4.704002355565E1,2.031292762187E1,5.964238035907E2));
#751=VERTEX_POINT('',#750);
#752=CARTESIAN_POINT('',(3.189508880630E1,4.935E1,4.5E2));
#753=DIRECTION('',(-1.E0,0.E0,0.E0));
#754=DIRECTION('',(0.E0,-1.E0,0.E0));
#755=AXIS2_PLACEMENT_3D('',#752,#753,#754);
#756=PLANE('',#755);
#758=ORIENTED_EDGE('',*,*,#757,.F.);
#760=ORIENTED_EDGE('',*,*,#759,.F.);
#762=ORIENTED_EDGE('',*,*,#761,.T.);
#764=ORIENTED_EDGE('',*,*,#763,.T.);
#765=EDGE_LOOP('',(#758,#760,#762,#764));
#766=FACE_OUTER_BOUND('',#765,.F.);
#767=ADVANCED_FACE('',(#766),#756,.F.);
#768=CARTESIAN_POINT('',(6.E1,2.407026160666E1,4.5E2));
#769=DIRECTION('',(0.E0,0.E0,1.E0));
#770=DIRECTION('',(1.E0,0.E0,0.E0));
#771=AXIS2_PLACEMENT_3D('',#768,#769,#770);
#772=PLANE('',#771);
#774=ORIENTED_EDGE('',*,*,#773,.F.);
#776=ORIENTED_EDGE('',*,*,#775,.F.);
#778=ORIENTED_EDGE('',*,*,#777,.F.);
#780=ORIENTED_EDGE('',*,*,#779,.F.);
#781=EDGE_LOOP('',(#774,#776,#778,#780));
#782=FACE_OUTER_BOUND('',#781,.F.);
#783=ORIENTED_EDGE('',*,*,#757,.T.);
#785=ORIENTED_EDGE('',*,*,#784,.T.);
#787=ORIENTED_EDGE('',*,*,#786,.T.);
#789=ORIENTED_EDGE('',*,*,#788,.T.);
#790=EDGE_LOOP('',(#783,#785,#787,#789));
#791=FACE_BOUND('',#790,.F.);
#792=ADVANCED_FACE('',(#782,#791),#772,.F.);
#793=CARTESIAN_POINT('',(4.E1,2.5E1,6.E2));
#794=DIRECTION('',(-9.977851578566E-1,0.E0,6.651901052377E-2));
#795=DIRECTION('',(6.651901052377E-2,0.E0,9.977851578566E-1));
#796=AXIS2_PLACEMENT_3D('',#793,#794,#795);
#797=PLANE('',#796);
#799=ORIENTED_EDGE('',*,*,#798,.F.);
#800=ORIENTED_EDGE('',*,*,#773,.T.);
#802=ORIENTED_EDGE('',*,*,#801,.T.);
#804=ORIENTED_EDGE('',*,*,#803,.F.);
#806=ORIENTED_EDGE('',*,*,#805,.T.);
#807=EDGE_LOOP('',(#799,#800,#802,#804,#806));
#808=FACE_OUTER_BOUND('',#807,.F.);
#809=ADVANCED_FACE('',(#808),#797,.T.);
#810=CARTESIAN_POINT('',(8.E1,2.5E1,6.E2));
#811=DIRECTION('',(0.E0,-9.991330730924E-1,4.163054471218E-2));
#812=DIRECTION('',(0.E0,-4.163054471218E-2,-9.991330730924E-1));
#813=AXIS2_PLACEMENT_3D('',#810,#811,#812);
#814=PLANE('',#813);
#816=ORIENTED_EDGE('',*,*,#815,.F.);
#817=ORIENTED_EDGE('',*,*,#775,.T.);
#818=ORIENTED_EDGE('',*,*,#798,.T.);
#820=ORIENTED_EDGE('',*,*,#819,.T.);
#822=ORIENTED_EDGE('',*,*,#821,.T.);
#824=ORIENTED_EDGE('',*,*,#823,.F.);
#826=ORIENTED_EDGE('',*,*,#825,.T.);
#828=ORIENTED_EDGE('',*,*,#827,.T.);
#830=ORIENTED_EDGE('',*,*,#829,.T.);
#832=ORIENTED_EDGE('',*,*,#831,.T.);
#834=ORIENTED_EDGE('',*,*,#833,.F.);
#836=ORIENTED_EDGE('',*,*,#835,.T.);
#838=ORIENTED_EDGE('',*,*,#837,.T.);
#840=ORIENTED_EDGE('',*,*,#839,.F.);
#842=ORIENTED_EDGE('',*,*,#841,.T.);
#844=ORIENTED_EDGE('',*,*,#843,.F.);
#846=ORIENTED_EDGE('',*,*,#845,.T.);
#848=ORIENTED_EDGE('',*,*,#847,.T.);
#850=ORIENTED_EDGE('',*,*,#849,.T.);
#852=ORIENTED_EDGE('',*,*,#851,.T.);
#854=ORIENTED_EDGE('',*,*,#853,.F.);
#856=ORIENTED_EDGE('',*,*,#855,.T.);
#858=ORIENTED_EDGE('',*,*,#857,.T.);
#859=EDGE_LOOP('',(#816,#817,#818,#820,#822,#824,#826,#828,#830,#832,#834,#836,
#838,#840,#842,#844,#846,#848,#850,#852,#854,#856,#858));
#860=FACE_OUTER_BOUND('',#859,.F.);
#861=ADVANCED_FACE('',(#860),#814,.T.);
#862=CARTESIAN_POINT('',(8.E1,4.5E1,6.E2));
#863=DIRECTION('',(9.977851578566E-1,0.E0,6.651901052377E-2));
#864=DIRECTION('',(6.651901052377E-2,0.E0,-9.977851578566E-1));
#865=AXIS2_PLACEMENT_3D('',#862,#863,#864);
#866=PLANE('',#865);
#868=ORIENTED_EDGE('',*,*,#867,.F.);
#870=ORIENTED_EDGE('',*,*,#869,.F.);
#871=ORIENTED_EDGE('',*,*,#777,.T.);
#872=ORIENTED_EDGE('',*,*,#815,.T.);
#874=ORIENTED_EDGE('',*,*,#873,.T.);
#875=EDGE_LOOP('',(#868,#870,#871,#872,#874));
#876=FACE_OUTER_BOUND('',#875,.F.);
#877=ADVANCED_FACE('',(#876),#866,.T.);
#878=CARTESIAN_POINT('',(5.999692537251E1,5.134934186339E1,5.158793508486E2));
#879=DIRECTION('',(-1.013666953627E-4,9.816271705101E-1,1.908090350090E-1));
#880=DIRECTION('',(0.E0,-1.908090359893E-1,9.816271755533E-1));
#881=AXIS2_PLACEMENT_3D('',#878,#879,#880);
#882=PLANE('',#881);
#883=ORIENTED_EDGE('',*,*,#803,.T.);
#885=ORIENTED_EDGE('',*,*,#884,.T.);
#886=ORIENTED_EDGE('',*,*,#867,.T.);
#888=ORIENTED_EDGE('',*,*,#887,.T.);
#890=ORIENTED_EDGE('',*,*,#889,.T.);
#891=EDGE_LOOP('',(#883,#885,#886,#888,#890));
#892=FACE_OUTER_BOUND('',#891,.F.);
#893=ADVANCED_FACE('',(#892),#882,.T.);
#894=CARTESIAN_POINT('',(4.E1,4.5E1,6.E2));
#895=DIRECTION('',(0.E0,9.991330730924E-1,4.163054471218E-2));
#896=DIRECTION('',(0.E0,-4.163054471218E-2,9.991330730924E-1));
#897=AXIS2_PLACEMENT_3D('',#894,#895,#896);
#898=PLANE('',#897);
#899=ORIENTED_EDGE('',*,*,#779,.T.);
#900=ORIENTED_EDGE('',*,*,#869,.T.);
#901=ORIENTED_EDGE('',*,*,#884,.F.);
#902=ORIENTED_EDGE('',*,*,#801,.F.);
#903=EDGE_LOOP('',(#899,#900,#901,#902));
#904=FACE_OUTER_BOUND('',#903,.F.);
#905=ADVANCED_FACE('',(#904),#898,.T.);
#906=CARTESIAN_POINT('',(6.053169029042E1,1.906306904934E1,5.963059493637E2));
#907=DIRECTION('',(-8.726535498374E-3,0.E0,-9.999619230642E-1));
#908=DIRECTION('',(-9.999619230642E-1,0.E0,8.726535498374E-3));
#909=AXIS2_PLACEMENT_3D('',#906,#907,#908);
#910=PLANE('',#909);
#911=ORIENTED_EDGE('',*,*,#889,.F.);
#913=ORIENTED_EDGE('',*,*,#912,.T.);
#914=ORIENTED_EDGE('',*,*,#819,.F.);
#915=ORIENTED_EDGE('',*,*,#805,.F.);
#916=EDGE_LOOP('',(#911,#913,#914,#915));
#917=FACE_OUTER_BOUND('',#916,.F.);
#918=ADVANCED_FACE('',(#917),#910,.F.);
#919=CARTESIAN_POINT('',(6.053169029042E1,1.906306904934E1,5.963059493637E2));
#920=DIRECTION('',(-8.726535498374E-3,0.E0,-9.999619230642E-1));
#921=DIRECTION('',(-9.999619230642E-1,0.E0,8.726535498374E-3));
#922=AXIS2_PLACEMENT_3D('',#919,#920,#921);
#923=PLANE('',#922);
#925=ORIENTED_EDGE('',*,*,#924,.F.);
#926=ORIENTED_EDGE('',*,*,#887,.F.);
#927=ORIENTED_EDGE('',*,*,#873,.F.);
#928=ORIENTED_EDGE('',*,*,#857,.F.);
#930=ORIENTED_EDGE('',*,*,#929,.T.);
#931=EDGE_LOOP('',(#925,#926,#927,#928,#930));
#932=FACE_OUTER_BOUND('',#931,.F.);
#933=ADVANCED_FACE('',(#932),#923,.F.);
#934=CARTESIAN_POINT('',(4.013074688987E1,3.566349114088E1,5.994840999347E2));
#935=DIRECTION('',(-9.999600592043E-1,1.930766212521E-3,8.726519232717E-3));
#936=DIRECTION('',(-1.930692694860E-3,-9.999981360692E-1,1.684889988951E-5));
#937=AXIS2_PLACEMENT_3D('',#934,#935,#936);
#938=PLANE('',#937);
#939=ORIENTED_EDGE('',*,*,#821,.F.);
#940=ORIENTED_EDGE('',*,*,#912,.F.);
#942=ORIENTED_EDGE('',*,*,#941,.F.);
#944=ORIENTED_EDGE('',*,*,#943,.F.);
#945=EDGE_LOOP('',(#939,#940,#942,#944));
#946=FACE_OUTER_BOUND('',#945,.F.);
#947=ADVANCED_FACE('',(#946),#938,.T.);
#948=CARTESIAN_POINT('',(8.000249446256E1,3.558650504294E1,5.991361444651E2));
#949=DIRECTION('',(1.930692694861E-3,9.999981360692E-1,-1.684889989263E-5));
#950=DIRECTION('',(-9.999600592043E-1,1.930766212522E-3,8.726519232715E-3));
#951=AXIS2_PLACEMENT_3D('',#948,#949,#950);
#952=PLANE('',#951);
#954=ORIENTED_EDGE('',*,*,#953,.T.);
#955=ORIENTED_EDGE('',*,*,#941,.T.);
#956=ORIENTED_EDGE('',*,*,#924,.T.);
#958=ORIENTED_EDGE('',*,*,#957,.F.);
#959=EDGE_LOOP('',(#954,#955,#956,#958));
#960=FACE_OUTER_BOUND('',#959,.F.);
#961=ADVANCED_FACE('',(#960),#952,.T.);
#962=CARTESIAN_POINT('',(5.998846604045E1,-5.195250208026E0,6.003108423234E2));
#963=DIRECTION('',(8.726535498375E-3,0.E0,9.999619230642E-1));
#964=DIRECTION('',(9.999619230642E-1,0.E0,-8.726535498375E-3));
#965=AXIS2_PLACEMENT_3D('',#962,#963,#964);
#966=PLANE('',#965);
#968=ORIENTED_EDGE('',*,*,#967,.T.);
#969=ORIENTED_EDGE('',*,*,#823,.T.);
#970=ORIENTED_EDGE('',*,*,#943,.T.);
#971=ORIENTED_EDGE('',*,*,#953,.F.);
#973=ORIENTED_EDGE('',*,*,#972,.T.);
#974=ORIENTED_EDGE('',*,*,#853,.T.);
#976=ORIENTED_EDGE('',*,*,#975,.F.);
#977=EDGE_LOOP('',(#968,#969,#970,#971,#973,#974,#976));
#978=FACE_OUTER_BOUND('',#977,.F.);
#979=ADVANCED_FACE('',(#978),#966,.T.);
#980=CARTESIAN_POINT('',(6.015423000560E1,2.501285817083E1,5.898090530177E2));
#981=DIRECTION('',(-3.635917768518E-4,-9.999999338955E-1,3.173004711588E-6));
#982=DIRECTION('',(0.E0,-3.173004921322E-6,-9.999999999950E-1));
#983=AXIS2_PLACEMENT_3D('',#980,#981,#982);
#984=PLANE('',#983);
#986=ORIENTED_EDGE('',*,*,#985,.F.);
#988=ORIENTED_EDGE('',*,*,#987,.T.);
#990=ORIENTED_EDGE('',*,*,#989,.F.);
#991=ORIENTED_EDGE('',*,*,#967,.F.);
#993=ORIENTED_EDGE('',*,*,#992,.F.);
#994=EDGE_LOOP('',(#986,#988,#990,#991,#993));
#995=FACE_OUTER_BOUND('',#994,.F.);
#996=ADVANCED_FACE('',(#995),#984,.T.);
#997=CARTESIAN_POINT('',(7.591274346675E1,2.501005753846E1,5.961717141895E2));
#998=DIRECTION('',(1.002443588861E-13,1.E0,1.265748733282E-11));
#999=DIRECTION('',(-8.726535498367E-3,1.265788016044E-11,-9.999619230642E-1));
#1000=AXIS2_PLACEMENT_3D('',#997,#998,#999);
#1001=PLANE('',#1000);
#1002=ORIENTED_EDGE('',*,*,#985,.T.);
#1004=ORIENTED_EDGE('',*,*,#1003,.F.);
#1006=ORIENTED_EDGE('',*,*,#1005,.F.);
#1008=ORIENTED_EDGE('',*,*,#1007,.T.);
#1009=ORIENTED_EDGE('',*,*,#987,.F.);
#1010=EDGE_LOOP('',(#1002,#1004,#1006,#1008,#1009));
#1011=FACE_OUTER_BOUND('',#1010,.F.);
#1012=ADVANCED_FACE('',(#1011),#1001,.T.);
#1013=CARTESIAN_POINT('',(7.591274346675E1,2.484339693639E1,5.961717141895E2));
#1014=DIRECTION('',(8.726535498366E-3,-1.279023464954E-11,9.999619230642E-1));
#1015=DIRECTION('',(1.116144367016E-13,1.E0,1.278974763659E-11));
#1016=AXIS2_PLACEMENT_3D('',#1013,#1014,#1015);
#1017=PLANE('',#1016);
#1019=ORIENTED_EDGE('',*,*,#1018,.F.);
#1021=ORIENTED_EDGE('',*,*,#1020,.F.);
#1023=ORIENTED_EDGE('',*,*,#1022,.F.);
#1024=ORIENTED_EDGE('',*,*,#1003,.T.);
#1026=ORIENTED_EDGE('',*,*,#1025,.F.);
#1027=EDGE_LOOP('',(#1019,#1021,#1023,#1024,#1026));
#1028=FACE_OUTER_BOUND('',#1027,.F.);
#1029=ADVANCED_FACE('',(#1028),#1017,.T.);
#1030=CARTESIAN_POINT('',(7.585596496888E1,3.159414820976E1,5.896655427625E2));
#1031=DIRECTION('',(9.999619230642E-1,0.E0,-8.726535498367E-3));
#1032=DIRECTION('',(-8.726535498367E-3,0.E0,-9.999619230642E-1));
#1033=AXIS2_PLACEMENT_3D('',#1030,#1031,#1032);
#1034=PLANE('',#1033);
#1035=ORIENTED_EDGE('',*,*,#1018,.T.);
#1037=ORIENTED_EDGE('',*,*,#1036,.F.);
#1038=ORIENTED_EDGE('',*,*,#851,.F.);
#1039=EDGE_LOOP('',(#1035,#1037,#1038));
#1040=FACE_OUTER_BOUND('',#1039,.F.);
#1041=ADVANCED_FACE('',(#1040),#1034,.F.);
#1042=CARTESIAN_POINT('',(6.776469803456E1,2.501005753868E1,5.792422947640E2));
#1043=DIRECTION('',(1.104283904624E-13,1.E0,1.265384019905E-11));
#1044=DIRECTION('',(8.726535498371E-3,-1.265432203686E-11,9.999619230642E-1));
#1045=AXIS2_PLACEMENT_3D('',#1042,#1043,#1044);
#1046=PLANE('',#1045);
#1047=ORIENTED_EDGE('',*,*,#1025,.T.);
#1048=ORIENTED_EDGE('',*,*,#992,.T.);
#1049=ORIENTED_EDGE('',*,*,#975,.T.);
#1050=ORIENTED_EDGE('',*,*,#1036,.T.);
#1051=EDGE_LOOP('',(#1047,#1048,#1049,#1050));
#1052=FACE_OUTER_BOUND('',#1051,.F.);
#1053=ADVANCED_FACE('',(#1052),#1046,.F.);
#1054=CARTESIAN_POINT('',(6.779087664422E1,2.413508609611E1,5.792420663066E2));
#1055=DIRECTION('',(-3.632766172336E-4,9.991331390251E-1,-4.162737719237E-2));
#1056=DIRECTION('',(8.718970805301E-3,4.162896229570E-2,9.990950950967E-1));
#1057=AXIS2_PLACEMENT_3D('',#1054,#1055,#1056);
#1058=PLANE('',#1057);
#1060=ORIENTED_EDGE('',*,*,#1059,.T.);
#1062=ORIENTED_EDGE('',*,*,#1061,.F.);
#1064=ORIENTED_EDGE('',*,*,#1063,.T.);
#1065=ORIENTED_EDGE('',*,*,#1020,.T.);
#1066=ORIENTED_EDGE('',*,*,#849,.F.);
#1068=ORIENTED_EDGE('',*,*,#1067,.T.);
#1069=EDGE_LOOP('',(#1060,#1062,#1064,#1065,#1066,#1068));
#1070=FACE_OUTER_BOUND('',#1069,.F.);
#1071=ADVANCED_FACE('',(#1070),#1058,.F.);
#1072=CARTESIAN_POINT('',(6.009116983662E1,2.251292762210E1,5.793092606301E2));
#1073=DIRECTION('',(-8.726535498371E-3,1.265432203468E-11,-9.999619230642E-1));
#1074=DIRECTION('',(-9.999619230642E-1,0.E0,8.726535498371E-3));
#1075=AXIS2_PLACEMENT_3D('',#1072,#1073,#1074);
#1076=PLANE('',#1075);
#1078=ORIENTED_EDGE('',*,*,#1077,.T.);
#1079=ORIENTED_EDGE('',*,*,#1061,.T.);
#1080=ORIENTED_EDGE('',*,*,#1059,.F.);
#1082=ORIENTED_EDGE('',*,*,#1081,.T.);
#1084=ORIENTED_EDGE('',*,*,#1083,.T.);
#1086=ORIENTED_EDGE('',*,*,#1085,.T.);
#1088=ORIENTED_EDGE('',*,*,#1087,.T.);
#1090=ORIENTED_EDGE('',*,*,#1089,.T.);
#1092=ORIENTED_EDGE('',*,*,#1091,.T.);
#1094=ORIENTED_EDGE('',*,*,#1093,.T.);
#1096=ORIENTED_EDGE('',*,*,#1095,.T.);
#1098=ORIENTED_EDGE('',*,*,#1097,.T.);
#1099=EDGE_LOOP('',(#1078,#1079,#1080,#1082,#1084,#1086,#1088,#1090,#1092,#1094,
#1096,#1098));
#1100=FACE_OUTER_BOUND('',#1099,.F.);
#1101=ADVANCED_FACE('',(#1100),#1076,.F.);
#1102=CARTESIAN_POINT('',(4.453976025100E1,2.457257657692E1,5.879452388958E2));
#1103=DIRECTION('',(-9.999619230642E-1,-1.021547064192E-14,8.726535498366E-3));
#1104=DIRECTION('',(8.726535498366E-3,0.E0,9.999619230642E-1));
#1105=AXIS2_PLACEMENT_3D('',#1102,#1103,#1104);
#1106=PLANE('',#1105);
#1107=ORIENTED_EDGE('',*,*,#1063,.F.);
#1108=ORIENTED_EDGE('',*,*,#1077,.F.);
#1109=ORIENTED_EDGE('',*,*,#1005,.T.);
#1110=ORIENTED_EDGE('',*,*,#1022,.T.);
#1111=EDGE_LOOP('',(#1107,#1108,#1109,#1110));
#1112=FACE_OUTER_BOUND('',#1111,.F.);
#1113=ADVANCED_FACE('',(#1112),#1106,.T.);
#1114=CARTESIAN_POINT('',(7.594764966770E1,2.501005753841E1,5.971715686378E2));
#1115=DIRECTION('',(9.999619230642E-1,0.E0,-8.726535498364E-3));
#1116=DIRECTION('',(-8.726535498364E-3,0.E0,-9.999619230642E-1));
#1117=AXIS2_PLACEMENT_3D('',#1114,#1115,#1116);
#1118=PLANE('',#1117);
#1119=ORIENTED_EDGE('',*,*,#1067,.F.);
#1121=ORIENTED_EDGE('',*,*,#1120,.F.);
#1123=ORIENTED_EDGE('',*,*,#1122,.T.);
#1124=ORIENTED_EDGE('',*,*,#1081,.F.);
#1125=EDGE_LOOP('',(#1119,#1121,#1123,#1124));
#1126=FACE_OUTER_BOUND('',#1125,.F.);
#1127=ADVANCED_FACE('',(#1126),#1118,.F.);
#1128=CARTESIAN_POINT('',(5.997973950495E1,-5.195250208026E0,5.963108804004E2));
#1129=DIRECTION('',(-8.726535498375E-3,0.E0,-9.999619230642E-1));
#1130=DIRECTION('',(-9.999619230642E-1,0.E0,8.726535498375E-3));
#1131=AXIS2_PLACEMENT_3D('',#1128,#1129,#1130);
#1132=PLANE('',#1131);
#1134=ORIENTED_EDGE('',*,*,#1133,.T.);
#1136=ORIENTED_EDGE('',*,*,#1135,.T.);
#1137=ORIENTED_EDGE('',*,*,#1120,.T.);
#1138=ORIENTED_EDGE('',*,*,#847,.F.);
#1140=ORIENTED_EDGE('',*,*,#1139,.F.);
#1142=ORIENTED_EDGE('',*,*,#1141,.T.);
#1143=EDGE_LOOP('',(#1134,#1136,#1137,#1138,#1140,#1142));
#1144=FACE_OUTER_BOUND('',#1143,.F.);
#1145=ADVANCED_FACE('',(#1144),#1132,.F.);
#1146=CARTESIAN_POINT('',(7.344774486004E1,2.231292762187E1,5.971933849769E2));
#1147=DIRECTION('',(9.999619230642E-1,0.E0,-8.726535498367E-3));
#1148=DIRECTION('',(-8.726535498367E-3,0.E0,-9.999619230642E-1));
#1149=AXIS2_PLACEMENT_3D('',#1146,#1147,#1148);
#1150=PLANE('',#1149);
#1152=ORIENTED_EDGE('',*,*,#1151,.T.);
#1153=ORIENTED_EDGE('',*,*,#1133,.F.);
#1155=ORIENTED_EDGE('',*,*,#1154,.T.);
#1156=ORIENTED_EDGE('',*,*,#1085,.F.);
#1157=EDGE_LOOP('',(#1152,#1153,#1155,#1156));
#1158=FACE_OUTER_BOUND('',#1157,.F.);
#1159=ADVANCED_FACE('',(#1158),#1150,.F.);
#1160=CARTESIAN_POINT('',(6.794795428319E1,2.031292762187E1,5.972413809218E2));
#1161=DIRECTION('',(0.E0,-1.E0,0.E0));
#1162=DIRECTION('',(0.E0,0.E0,-1.E0));
#1163=AXIS2_PLACEMENT_3D('',#1160,#1161,#1162);
#1164=PLANE('',#1163);
#1165=ORIENTED_EDGE('',*,*,#1151,.F.);
#1166=ORIENTED_EDGE('',*,*,#1083,.F.);
#1167=ORIENTED_EDGE('',*,*,#1122,.F.);
#1168=ORIENTED_EDGE('',*,*,#1135,.F.);
#1169=EDGE_LOOP('',(#1165,#1166,#1167,#1168));
#1170=FACE_OUTER_BOUND('',#1169,.F.);
#1171=ADVANCED_FACE('',(#1170),#1164,.F.);
#1172=CARTESIAN_POINT('',(7.024786670624E1,1.801292762187E1,5.972213098902E2));
#1173=DIRECTION('',(0.E0,-1.E0,0.E0));
#1174=DIRECTION('',(0.E0,0.E0,-1.E0));
#1175=AXIS2_PLACEMENT_3D('',#1172,#1173,#1174);
#1176=PLANE('',#1175);
#1178=ORIENTED_EDGE('',*,*,#1177,.F.);
#1179=ORIENTED_EDGE('',*,*,#1087,.F.);
#1180=ORIENTED_EDGE('',*,*,#1154,.F.);
#1181=ORIENTED_EDGE('',*,*,#1141,.F.);
#1183=ORIENTED_EDGE('',*,*,#1182,.F.);
#1185=ORIENTED_EDGE('',*,*,#1184,.F.);
#1187=ORIENTED_EDGE('',*,*,#1186,.F.);
#1189=ORIENTED_EDGE('',*,*,#1188,.F.);
#1190=EDGE_LOOP('',(#1178,#1179,#1180,#1181,#1183,#1185,#1187,#1189));
#1191=FACE_OUTER_BOUND('',#1190,.F.);
#1192=ADVANCED_FACE('',(#1191),#1176,.T.);
#1193=CARTESIAN_POINT('',(4.704875009114E1,2.001292762187E1,5.974237655132E2));
#1194=DIRECTION('',(-9.999619230642E-1,0.E0,8.726535498367E-3));
#1195=DIRECTION('',(8.726535498367E-3,0.E0,9.999619230642E-1));
#1196=AXIS2_PLACEMENT_3D('',#1193,#1194,#1195);
#1197=PLANE('',#1196);
#1199=ORIENTED_EDGE('',*,*,#1198,.T.);
#1200=ORIENTED_EDGE('',*,*,#1089,.F.);
#1201=ORIENTED_EDGE('',*,*,#1177,.T.);
#1203=ORIENTED_EDGE('',*,*,#1202,.F.);
#1204=EDGE_LOOP('',(#1199,#1200,#1201,#1203));
#1205=FACE_OUTER_BOUND('',#1204,.F.);
#1206=ADVANCED_FACE('',(#1205),#1197,.F.);
#1207=CARTESIAN_POINT('',(5.504844547566E1,2.031292762187E1,5.973539532298E2));
#1208=DIRECTION('',(0.E0,-1.E0,0.E0));
#1209=DIRECTION('',(0.E0,0.E0,-1.E0));
#1210=AXIS2_PLACEMENT_3D('',#1207,#1208,#1209);
#1211=PLANE('',#1210);
#1212=ORIENTED_EDGE('',*,*,#1198,.F.);
#1214=ORIENTED_EDGE('',*,*,#1213,.F.);
#1216=ORIENTED_EDGE('',*,*,#1215,.F.);
#1217=ORIENTED_EDGE('',*,*,#1091,.F.);
#1218=EDGE_LOOP('',(#1212,#1214,#1216,#1217));
#1219=FACE_OUTER_BOUND('',#1218,.F.);
#1220=ADVANCED_FACE('',(#1219),#1211,.F.);
#1221=CARTESIAN_POINT('',(6.023952094010E1,2.251292762187E1,5.963086133221E2));
#1222=DIRECTION('',(-8.726535498375E-3,0.E0,-9.999619230642E-1));
#1223=DIRECTION('',(-9.999619230642E-1,0.E0,8.726535498375E-3));
#1224=AXIS2_PLACEMENT_3D('',#1221,#1222,#1223);
#1225=PLANE('',#1224);
#1226=ORIENTED_EDGE('',*,*,#1202,.T.);
#1227=ORIENTED_EDGE('',*,*,#1188,.T.);
#1229=ORIENTED_EDGE('',*,*,#1228,.F.);
#1231=ORIENTED_EDGE('',*,*,#1230,.T.);
#1233=ORIENTED_EDGE('',*,*,#1232,.T.);
#1235=ORIENTED_EDGE('',*,*,#1234,.T.);
#1236=ORIENTED_EDGE('',*,*,#1213,.T.);
#1237=EDGE_LOOP('',(#1226,#1227,#1229,#1231,#1233,#1235,#1236));
#1238=FACE_OUTER_BOUND('',#1237,.F.);
#1239=ADVANCED_FACE('',(#1238),#1225,.F.);
#1240=CARTESIAN_POINT('',(4.224893286044E1,2.001292762187E1,5.974656528842E2));
#1241=DIRECTION('',(-9.999619230642E-1,0.E0,8.726535498364E-3));
#1242=DIRECTION('',(8.726535498364E-3,0.E0,9.999619230642E-1));
#1243=AXIS2_PLACEMENT_3D('',#1240,#1241,#1242);
#1244=PLANE('',#1243);
#1245=ORIENTED_EDGE('',*,*,#1228,.T.);
#1246=ORIENTED_EDGE('',*,*,#1186,.T.);
#1248=ORIENTED_EDGE('',*,*,#1247,.T.);
#1250=ORIENTED_EDGE('',*,*,#1249,.F.);
#1251=EDGE_LOOP('',(#1245,#1246,#1248,#1250));
#1252=FACE_OUTER_BOUND('',#1251,.F.);
#1253=ADVANCED_FACE('',(#1252),#1244,.T.);
#1254=CARTESIAN_POINT('',(6.007371676563E1,2.251292762187E1,5.773093367839E2));
#1255=DIRECTION('',(-8.726535498375E-3,0.E0,-9.999619230642E-1));
#1256=DIRECTION('',(-9.999619230642E-1,0.E0,8.726535498375E-3));
#1257=AXIS2_PLACEMENT_3D('',#1254,#1255,#1256);
#1258=PLANE('',#1257);
#1259=ORIENTED_EDGE('',*,*,#843,.T.);
#1261=ORIENTED_EDGE('',*,*,#1260,.F.);
#1262=ORIENTED_EDGE('',*,*,#1247,.F.);
#1263=ORIENTED_EDGE('',*,*,#1184,.T.);
#1265=ORIENTED_EDGE('',*,*,#1264,.F.);
#1266=EDGE_LOOP('',(#1259,#1261,#1262,#1263,#1265));
#1267=FACE_OUTER_BOUND('',#1266,.F.);
#1268=ADVANCED_FACE('',(#1267),#1258,.T.);
#1269=CARTESIAN_POINT('',(5.023990170945E1,2.484982827821E1,5.963958786771E2));
#1270=DIRECTION('',(-3.632766172336E-4,9.991331390251E-1,-4.162737719237E-2));
#1271=DIRECTION('',(-8.718970805306E-3,-4.162896229570E-2,-9.990950950967E-1));
#1272=AXIS2_PLACEMENT_3D('',#1269,#1270,#1271);
#1273=PLANE('',#1272);
#1274=ORIENTED_EDGE('',*,*,#837,.F.);
#1276=ORIENTED_EDGE('',*,*,#1275,.F.);
#1277=ORIENTED_EDGE('',*,*,#1230,.F.);
#1278=ORIENTED_EDGE('',*,*,#1249,.T.);
#1279=ORIENTED_EDGE('',*,*,#1260,.T.);
#1280=ORIENTED_EDGE('',*,*,#841,.F.);
#1281=ORIENTED_EDGE('',*,*,#839,.T.);
#1282=EDGE_LOOP('',(#1274,#1276,#1277,#1278,#1279,#1280,#1281));
#1283=FACE_OUTER_BOUND('',#1282,.F.);
#1284=ADVANCED_FACE('',(#1283),#1273,.T.);
#1285=CARTESIAN_POINT('',(5.236528441937E1,2.414069514211E1,5.793766834107E2));
#1286=DIRECTION('',(3.632766172336E-4,-9.991331390251E-1,4.162737719237E-2));
#1287=DIRECTION('',(8.718970805301E-3,4.162896229570E-2,9.990950950967E-1));
#1288=AXIS2_PLACEMENT_3D('',#1285,#1286,#1287);
#1289=PLANE('',#1288);
#1290=ORIENTED_EDGE('',*,*,#1275,.T.);
#1292=ORIENTED_EDGE('',*,*,#1291,.T.);
#1293=ORIENTED_EDGE('',*,*,#1232,.F.);
#1294=EDGE_LOOP('',(#1290,#1292,#1293));
#1295=FACE_OUTER_BOUND('',#1294,.F.);
#1296=ADVANCED_FACE('',(#1295),#1289,.F.);
#1297=CARTESIAN_POINT('',(4.454884528349E1,2.231292762187E1,5.974455818525E2));
#1298=DIRECTION('',(-9.999619230642E-1,0.E0,8.726535498364E-3));
#1299=DIRECTION('',(8.726535498364E-3,0.E0,9.999619230642E-1));
#1300=AXIS2_PLACEMENT_3D('',#1297,#1298,#1299);
#1301=PLANE('',#1300);
#1302=ORIENTED_EDGE('',*,*,#1234,.F.);
#1303=ORIENTED_EDGE('',*,*,#1291,.F.);
#1304=ORIENTED_EDGE('',*,*,#1093,.F.);
#1305=ORIENTED_EDGE('',*,*,#1215,.T.);
#1306=EDGE_LOOP('',(#1302,#1303,#1304,#1305));
#1307=FACE_OUTER_BOUND('',#1306,.F.);
#1308=ADVANCED_FACE('',(#1307),#1301,.F.);
#1309=CARTESIAN_POINT('',(7.824756209075E1,2.500922124543E1,5.971514976062E2));
#1310=DIRECTION('',(9.999619230642E-1,0.E0,-8.726535498364E-3));
#1311=DIRECTION('',(-8.726535498364E-3,0.E0,-9.999619230642E-1));
#1312=AXIS2_PLACEMENT_3D('',#1309,#1310,#1311);
#1313=PLANE('',#1312);
#1314=ORIENTED_EDGE('',*,*,#845,.F.);
#1315=ORIENTED_EDGE('',*,*,#1264,.T.);
#1316=ORIENTED_EDGE('',*,*,#1182,.T.);
#1317=ORIENTED_EDGE('',*,*,#1139,.T.);
#1318=EDGE_LOOP('',(#1314,#1315,#1316,#1317));
#1319=FACE_OUTER_BOUND('',#1318,.F.);
#1320=ADVANCED_FACE('',(#1319),#1313,.T.);
#1321=CARTESIAN_POINT('',(4.454884528349E1,2.231292762187E1,6.004455818525E2));
#1322=DIRECTION('',(-9.999619230642E-1,0.E0,8.726535498367E-3));
#1323=DIRECTION('',(8.726535498367E-3,0.E0,9.999619230642E-1));
#1324=AXIS2_PLACEMENT_3D('',#1321,#1322,#1323);
#1325=PLANE('',#1324);
#1326=ORIENTED_EDGE('',*,*,#835,.F.);
#1328=ORIENTED_EDGE('',*,*,#1327,.F.);
#1330=ORIENTED_EDGE('',*,*,#1329,.F.);
#1331=ORIENTED_EDGE('',*,*,#827,.F.);
#1333=ORIENTED_EDGE('',*,*,#1332,.F.);
#1334=ORIENTED_EDGE('',*,*,#1095,.F.);
#1335=EDGE_LOOP('',(#1326,#1328,#1330,#1331,#1333,#1334));
#1336=FACE_OUTER_BOUND('',#1335,.F.);
#1337=ADVANCED_FACE('',(#1336),#1325,.F.);
#1338=CARTESIAN_POINT('',(5.251363552285E1,2.484900150428E1,5.963760361027E2));
#1339=DIRECTION('',(8.726535498367E-3,0.E0,9.999619230642E-1));
#1340=DIRECTION('',(0.E0,1.E0,0.E0));
#1341=AXIS2_PLACEMENT_3D('',#1338,#1339,#1340);
#1342=PLANE('',#1341);
#1343=ORIENTED_EDGE('',*,*,#833,.T.);
#1345=ORIENTED_EDGE('',*,*,#1344,.F.);
#1347=ORIENTED_EDGE('',*,*,#1346,.F.);
#1348=ORIENTED_EDGE('',*,*,#1327,.T.);
#1349=EDGE_LOOP('',(#1343,#1345,#1347,#1348));
#1350=FACE_OUTER_BOUND('',#1349,.F.);
#1351=ADVANCED_FACE('',(#1350),#1342,.F.);
#1352=CARTESIAN_POINT('',(5.024862824495E1,2.001292762187E1,5.973958406002E2));
#1353=DIRECTION('',(-9.999619230642E-1,0.E0,8.726535498375E-3));
#1354=DIRECTION('',(0.E0,1.E0,0.E0));
#1355=AXIS2_PLACEMENT_3D('',#1352,#1353,#1354);
#1356=PLANE('',#1355);
#1358=ORIENTED_EDGE('',*,*,#1357,.T.);
#1359=ORIENTED_EDGE('',*,*,#1344,.T.);
#1360=ORIENTED_EDGE('',*,*,#831,.F.);
#1361=EDGE_LOOP('',(#1358,#1359,#1360));
#1362=FACE_OUTER_BOUND('',#1361,.F.);
#1363=ADVANCED_FACE('',(#1362),#1356,.F.);
#1364=CARTESIAN_POINT('',(5.251363552285E1,2.489066658441E1,5.963760361027E2));
#1365=DIRECTION('',(0.E0,-1.E0,0.E0));
#1366=DIRECTION('',(8.726535498371E-3,0.E0,9.999619230642E-1));
#1367=AXIS2_PLACEMENT_3D('',#1364,#1365,#1366);
#1368=PLANE('',#1367);
#1369=ORIENTED_EDGE('',*,*,#1357,.F.);
#1370=ORIENTED_EDGE('',*,*,#829,.F.);
#1371=ORIENTED_EDGE('',*,*,#1329,.T.);
#1372=ORIENTED_EDGE('',*,*,#1346,.T.);
#1373=EDGE_LOOP('',(#1369,#1370,#1371,#1372));
#1374=FACE_OUTER_BOUND('',#1373,.F.);
#1375=ADVANCED_FACE('',(#1374),#1368,.F.);
#1376=CARTESIAN_POINT('',(5.254854066800E1,2.501565706536E1,6.003757695685E2));
#1377=DIRECTION('',(1.104283904624E-13,1.E0,1.265384019905E-11));
#1378=DIRECTION('',(-8.726535498371E-3,1.265432203686E-11,-9.999619230642E-1));
#1379=AXIS2_PLACEMENT_3D('',#1376,#1377,#1378);
#1380=PLANE('',#1379);
#1381=ORIENTED_EDGE('',*,*,#825,.F.);
#1382=ORIENTED_EDGE('',*,*,#989,.T.);
#1383=ORIENTED_EDGE('',*,*,#1007,.F.);
#1384=ORIENTED_EDGE('',*,*,#1097,.F.);
#1385=ORIENTED_EDGE('',*,*,#1332,.T.);
#1386=EDGE_LOOP('',(#1381,#1382,#1383,#1384,#1385));
#1387=FACE_OUTER_BOUND('',#1386,.F.);
#1388=ADVANCED_FACE('',(#1387),#1380,.F.);
#1389=CARTESIAN_POINT('',(7.990234798224E1,-1.628414942232E1,5.991370184301E2));
#1390=DIRECTION('',(9.999600592043E-1,-1.930766212522E-3,-8.726519232717E-3));
#1391=DIRECTION('',(1.930692694861E-3,9.999981360692E-1,-1.684889989267E-5));
#1392=AXIS2_PLACEMENT_3D('',#1389,#1390,#1391);
#1393=PLANE('',#1392);
#1394=ORIENTED_EDGE('',*,*,#855,.F.);
#1395=ORIENTED_EDGE('',*,*,#972,.F.);
#1396=ORIENTED_EDGE('',*,*,#957,.T.);
#1397=ORIENTED_EDGE('',*,*,#929,.F.);
#1398=EDGE_LOOP('',(#1394,#1395,#1396,#1397));
#1399=FACE_OUTER_BOUND('',#1398,.F.);
#1400=ADVANCED_FACE('',(#1399),#1393,.T.);
#1401=CARTESIAN_POINT('',(8.81E1,4.935E1,4.5E2));
#1402=DIRECTION('',(0.E0,1.E0,0.E0));
#1403=DIRECTION('',(-1.E0,0.E0,0.E0));
#1404=AXIS2_PLACEMENT_3D('',#1401,#1402,#1403);
#1405=PLANE('',#1404);
#1406=ORIENTED_EDGE('',*,*,#784,.F.);
#1407=ORIENTED_EDGE('',*,*,#763,.F.);
#1409=ORIENTED_EDGE('',*,*,#1408,.T.);
#1411=ORIENTED_EDGE('',*,*,#1410,.T.);
#1412=EDGE_LOOP('',(#1406,#1407,#1409,#1411));
#1413=FACE_OUTER_BOUND('',#1412,.F.);
#1414=ADVANCED_FACE('',(#1413),#1405,.F.);
#1415=CARTESIAN_POINT('',(6.E1,3.5E1,4.65E2));
#1416=DIRECTION('',(0.E0,0.E0,1.E0));
#1417=DIRECTION('',(1.E0,0.E0,0.E0));
#1418=AXIS2_PLACEMENT_3D('',#1415,#1416,#1417);
#1419=PLANE('',#1418);
#1421=ORIENTED_EDGE('',*,*,#1420,.F.);
#1423=ORIENTED_EDGE('',*,*,#1422,.F.);
#1424=ORIENTED_EDGE('',*,*,#1408,.F.);
#1425=ORIENTED_EDGE('',*,*,#761,.F.);
#1426=EDGE_LOOP('',(#1421,#1423,#1424,#1425));
#1427=FACE_OUTER_BOUND('',#1426,.F.);
#1429=ORIENTED_EDGE('',*,*,#1428,.F.);
#1431=ORIENTED_EDGE('',*,*,#1430,.F.);
#1433=ORIENTED_EDGE('',*,*,#1432,.F.);
#1435=ORIENTED_EDGE('',*,*,#1434,.F.);
#1436=EDGE_LOOP('',(#1429,#1431,#1433,#1435));
#1437=FACE_BOUND('',#1436,.F.);
#1438=ADVANCED_FACE('',(#1427,#1437),#1419,.F.);
#1439=CARTESIAN_POINT('',(3.189508880630E1,2.064145560869E1,4.5E2));
#1440=DIRECTION('',(0.E0,-1.E0,0.E0));
#1441=DIRECTION('',(1.E0,0.E0,0.E0));
#1442=AXIS2_PLACEMENT_3D('',#1439,#1440,#1441);
#1443=PLANE('',#1442);
#1444=ORIENTED_EDGE('',*,*,#788,.F.);
#1446=ORIENTED_EDGE('',*,*,#1445,.F.);
#1447=ORIENTED_EDGE('',*,*,#1420,.T.);
#1448=ORIENTED_EDGE('',*,*,#759,.T.);
#1449=EDGE_LOOP('',(#1444,#1446,#1447,#1448));
#1450=FACE_OUTER_BOUND('',#1449,.F.);
#1451=ADVANCED_FACE('',(#1450),#1443,.F.);
#1452=CARTESIAN_POINT('',(8.81E1,2.064145560869E1,4.5E2));
#1453=DIRECTION('',(1.E0,0.E0,0.E0));
#1454=DIRECTION('',(0.E0,1.E0,0.E0));
#1455=AXIS2_PLACEMENT_3D('',#1452,#1453,#1454);
#1456=PLANE('',#1455);
#1457=ORIENTED_EDGE('',*,*,#786,.F.);
#1458=ORIENTED_EDGE('',*,*,#1410,.F.);
#1459=ORIENTED_EDGE('',*,*,#1422,.T.);
#1460=ORIENTED_EDGE('',*,*,#1445,.T.);
#1461=EDGE_LOOP('',(#1457,#1458,#1459,#1460));
#1462=FACE_OUTER_BOUND('',#1461,.F.);
#1463=ADVANCED_FACE('',(#1462),#1456,.F.);
#1464=CARTESIAN_POINT('',(7.600000067055E1,2.900000061095E1,6.E2));
#1465=DIRECTION('',(0.E0,-9.991330731171E-1,4.163054411768E-2));
#1466=DIRECTION('',(0.E0,-4.163054411768E-2,-9.991330731171E-1));
#1467=AXIS2_PLACEMENT_3D('',#1464,#1465,#1466);
#1468=PLANE('',#1467);
#1470=ORIENTED_EDGE('',*,*,#1469,.F.);
#1471=ORIENTED_EDGE('',*,*,#1428,.T.);
#1473=ORIENTED_EDGE('',*,*,#1472,.T.);
#1475=ORIENTED_EDGE('',*,*,#1474,.F.);
#1476=EDGE_LOOP('',(#1470,#1471,#1473,#1475));
#1477=FACE_OUTER_BOUND('',#1476,.F.);
#1478=ADVANCED_FACE('',(#1477),#1468,.F.);
#1479=CARTESIAN_POINT('',(4.400000067055E1,2.900000061095E1,6.E2));
#1480=DIRECTION('',(-9.977851577908E-1,0.E0,6.651901151060E-2));
#1481=DIRECTION('',(6.651901151060E-2,0.E0,9.977851577908E-1));
#1482=AXIS2_PLACEMENT_3D('',#1479,#1480,#1481);
#1483=PLANE('',#1482);
#1485=ORIENTED_EDGE('',*,*,#1484,.T.);
#1487=ORIENTED_EDGE('',*,*,#1486,.F.);
#1488=ORIENTED_EDGE('',*,*,#1430,.T.);
#1489=ORIENTED_EDGE('',*,*,#1469,.T.);
#1491=ORIENTED_EDGE('',*,*,#1490,.T.);
#1493=ORIENTED_EDGE('',*,*,#1492,.T.);
#1495=ORIENTED_EDGE('',*,*,#1494,.F.);
#1496=EDGE_LOOP('',(#1485,#1487,#1488,#1489,#1491,#1493,#1495));
#1497=FACE_OUTER_BOUND('',#1496,.F.);
#1498=ADVANCED_FACE('',(#1497),#1483,.F.);
#1499=CARTESIAN_POINT('',(5.999976147204E1,3.940180659551E1,5.668623953706E2));
#1500=DIRECTION('',(1.013666953664E-4,-9.816271705101E-1,-1.908090350090E-1));
#1501=DIRECTION('',(0.E0,1.908090359893E-1,-9.816271755534E-1));
#1502=AXIS2_PLACEMENT_3D('',#1499,#1500,#1501);
#1503=PLANE('',#1502);
#1505=ORIENTED_EDGE('',*,*,#1504,.F.);
#1507=ORIENTED_EDGE('',*,*,#1506,.F.);
#1508=ORIENTED_EDGE('',*,*,#1484,.F.);
#1510=ORIENTED_EDGE('',*,*,#1509,.F.);
#1511=EDGE_LOOP('',(#1505,#1507,#1508,#1510));
#1512=FACE_OUTER_BOUND('',#1511,.F.);
#1513=ADVANCED_FACE('',(#1512),#1503,.T.);
#1514=CARTESIAN_POINT('',(7.600000067055E1,4.100000061095E1,6.E2));
#1515=DIRECTION('',(9.977851579224E-1,0.E0,6.651900953695E-2));
#1516=DIRECTION('',(6.651900953695E-2,0.E0,-9.977851579224E-1));
#1517=AXIS2_PLACEMENT_3D('',#1514,#1515,#1516);
#1518=PLANE('',#1517);
#1519=ORIENTED_EDGE('',*,*,#1472,.F.);
#1520=ORIENTED_EDGE('',*,*,#1434,.T.);
#1522=ORIENTED_EDGE('',*,*,#1521,.T.);
#1523=ORIENTED_EDGE('',*,*,#1504,.T.);
#1525=ORIENTED_EDGE('',*,*,#1524,.F.);
#1527=ORIENTED_EDGE('',*,*,#1526,.F.);
#1529=ORIENTED_EDGE('',*,*,#1528,.F.);
#1531=ORIENTED_EDGE('',*,*,#1530,.T.);
#1533=ORIENTED_EDGE('',*,*,#1532,.T.);
#1534=EDGE_LOOP('',(#1519,#1520,#1522,#1523,#1525,#1527,#1529,#1531,#1533));
#1535=FACE_OUTER_BOUND('',#1534,.F.);
#1536=ADVANCED_FACE('',(#1535),#1518,.F.);
#1537=CARTESIAN_POINT('',(4.400000067055E1,4.100000061095E1,6.E2));
#1538=DIRECTION('',(0.E0,9.991330730676E-1,4.163054530668E-2));
#1539=DIRECTION('',(0.E0,-4.163054530668E-2,9.991330730676E-1));
#1540=AXIS2_PLACEMENT_3D('',#1537,#1538,#1539);
#1541=PLANE('',#1540);
#1542=ORIENTED_EDGE('',*,*,#1432,.T.);
#1543=ORIENTED_EDGE('',*,*,#1486,.T.);
#1544=ORIENTED_EDGE('',*,*,#1506,.T.);
#1545=ORIENTED_EDGE('',*,*,#1521,.F.);
#1546=EDGE_LOOP('',(#1542,#1543,#1544,#1545));
#1547=FACE_OUTER_BOUND('',#1546,.F.);
#1548=ADVANCED_FACE('',(#1547),#1541,.F.);
#1549=CARTESIAN_POINT('',(5.995355989845E1,-5.195250208026E0,5.963109946312E2));
#1550=DIRECTION('',(8.726535498374E-3,0.E0,9.999619230642E-1));
#1551=DIRECTION('',(9.999619230642E-1,0.E0,-8.726535498374E-3));
#1552=AXIS2_PLACEMENT_3D('',#1549,#1550,#1551);
#1553=PLANE('',#1552);
#1554=ORIENTED_EDGE('',*,*,#1509,.T.);
#1555=ORIENTED_EDGE('',*,*,#1494,.T.);
#1557=ORIENTED_EDGE('',*,*,#1556,.T.);
#1558=ORIENTED_EDGE('',*,*,#1528,.T.);
#1560=ORIENTED_EDGE('',*,*,#1559,.T.);
#1562=ORIENTED_EDGE('',*,*,#1561,.F.);
#1563=ORIENTED_EDGE('',*,*,#1524,.T.);
#1564=EDGE_LOOP('',(#1554,#1555,#1557,#1558,#1560,#1562,#1563));
#1565=FACE_OUTER_BOUND('',#1564,.F.);
#1566=ADVANCED_FACE('',(#1565),#1553,.F.);
#1567=CARTESIAN_POINT('',(8.515107105931E1,2.960305910911E1,5.969705279324E2));
#1568=DIRECTION('',(0.E0,1.E0,0.E0));
#1569=DIRECTION('',(-8.726535498374E-3,0.E0,-9.999619230642E-1));
#1570=AXIS2_PLACEMENT_3D('',#1567,#1568,#1569);
#1571=PLANE('',#1570);
#1572=ORIENTED_EDGE('',*,*,#1556,.F.);
#1573=ORIENTED_EDGE('',*,*,#1492,.F.);
#1575=ORIENTED_EDGE('',*,*,#1574,.T.);
#1576=ORIENTED_EDGE('',*,*,#1530,.F.);
#1577=EDGE_LOOP('',(#1572,#1573,#1575,#1576));
#1578=FACE_OUTER_BOUND('',#1577,.F.);
#1579=ADVANCED_FACE('',(#1578),#1571,.T.);
#1580=CARTESIAN_POINT('',(8.506878917973E1,2.960305910911E1,5.875419584208E2));
#1581=DIRECTION('',(-8.726535498374E-3,0.E0,-9.999619230642E-1));
#1582=DIRECTION('',(0.E0,-1.E0,0.E0));
#1583=AXIS2_PLACEMENT_3D('',#1580,#1581,#1582);
#1584=PLANE('',#1583);
#1585=ORIENTED_EDGE('',*,*,#1574,.F.);
#1586=ORIENTED_EDGE('',*,*,#1490,.F.);
#1587=ORIENTED_EDGE('',*,*,#1474,.T.);
#1588=ORIENTED_EDGE('',*,*,#1532,.F.);
#1589=EDGE_LOOP('',(#1585,#1586,#1587,#1588));
#1590=FACE_OUTER_BOUND('',#1589,.F.);
#1591=ADVANCED_FACE('',(#1590),#1584,.T.);
#1592=CARTESIAN_POINT('',(6.049883843933E1,1.170466226712E1,6.048841798903E2));
#1593=DIRECTION('',(8.442669540629E-3,4.225538949325E-1,9.062984757840E-1));
#1594=DIRECTION('',(9.996954135095E-1,1.745240643728E-2,-1.744974835126E-2));
#1595=AXIS2_PLACEMENT_3D('',#1592,#1593,#1594);
#1596=PLANE('',#1595);
#1597=ORIENTED_EDGE('',*,*,#1559,.F.);
#1598=ORIENTED_EDGE('',*,*,#1526,.T.);
#1599=ORIENTED_EDGE('',*,*,#1561,.T.);
#1600=EDGE_LOOP('',(#1597,#1598,#1599));
#1601=FACE_OUTER_BOUND('',#1600,.F.);
#1602=ADVANCED_FACE('',(#1601),#1596,.F.);
#1606=DIMENSIONAL_EXPONENTS(0.E0,0.E0,0.E0,0.E0,0.E0,0.E0,0.E0);
#1608=PLANE_ANGLE_MEASURE_WITH_UNIT(PLANE_ANGLE_MEASURE(1.745329251994E-2),
#1607);
#1609=(CONVERSION_BASED_UNIT('DEGREE',#1608)NAMED_UNIT(*)PLANE_ANGLE_UNIT());
#1611=UNCERTAINTY_MEASURE_WITH_UNIT(LENGTH_MEASURE(1.750583844144E-2),#1605,
'closure',
'Maximum model space distance between geometric entities at asserted connectivities');
#1612=(GEOMETRIC_REPRESENTATION_CONTEXT(3)GLOBAL_UNCERTAINTY_ASSIGNED_CONTEXT((
#1611))GLOBAL_UNIT_ASSIGNED_CONTEXT((#1605,#1609,#1610))REPRESENTATION_CONTEXT(
'ID1','3'));
#1614=APPLICATION_CONTEXT(
'CONFIGURATION CONTROLLED 3D DESIGNS OF MECHANICAL PARTS AND ASSEMBLIES');
#1615=APPLICATION_PROTOCOL_DEFINITION('international standard',
'config_control_design',1994,#1614);
#1616=DESIGN_CONTEXT('',#1614,'design');
#1617=MECHANICAL_CONTEXT('',#1614,'mechanical');
#1618=PRODUCT('322000140','322000140','NOT SPECIFIED',(#1617));
#1619=PRODUCT_DEFINITION_FORMATION_WITH_SPECIFIED_SOURCE('1','LAST_VERSION',
#1618,.MADE.);
#1623=PRODUCT_CATEGORY('part','');
#1624=PRODUCT_RELATED_PRODUCT_CATEGORY('detail','',(#1618));
#1625=PRODUCT_CATEGORY_RELATIONSHIP('','',#1623,#1624);
#1626=SECURITY_CLASSIFICATION_LEVEL('unclassified');
#1627=SECURITY_CLASSIFICATION('','',#1626);
#1628=CC_DESIGN_SECURITY_CLASSIFICATION(#1627,(#1619));
#1629=APPROVAL_STATUS('approved');
#1630=APPROVAL(#1629,'');
#1631=CC_DESIGN_APPROVAL(#1630,(#1627,#1619,#1620));
#1632=CALENDAR_DATE(126,27,7);
#1633=COORDINATED_UNIVERSAL_TIME_OFFSET(8,0,.AHEAD.);
#1634=LOCAL_TIME(17,9,1.4E1,#1633);
#1635=DATE_AND_TIME(#1632,#1634);
#1636=APPROVAL_DATE_TIME(#1635,#1630);
#1637=DATE_TIME_ROLE('creation_date');
#1638=CC_DESIGN_DATE_AND_TIME_ASSIGNMENT(#1635,#1637,(#1620));
#1639=DATE_TIME_ROLE('classification_date');
#1640=CC_DESIGN_DATE_AND_TIME_ASSIGNMENT(#1635,#1639,(#1627));
#1641=PERSON('UNSPECIFIED','UNSPECIFIED',$,$,$,$);
#1642=ORGANIZATION('UNSPECIFIED','UNSPECIFIED','UNSPECIFIED');
#1643=PERSON_AND_ORGANIZATION(#1641,#1642);
#1644=APPROVAL_ROLE('approver');
#1645=APPROVAL_PERSON_ORGANIZATION(#1643,#1630,#1644);
#1646=PERSON_AND_ORGANIZATION_ROLE('creator');
#1647=CC_DESIGN_PERSON_AND_ORGANIZATION_ASSIGNMENT(#1643,#1646,(#1619,#1620));
#1648=PERSON_AND_ORGANIZATION_ROLE('design_supplier');
#1649=CC_DESIGN_PERSON_AND_ORGANIZATION_ASSIGNMENT(#1643,#1648,(#1619));
#1650=PERSON_AND_ORGANIZATION_ROLE('classification_officer');
#1651=CC_DESIGN_PERSON_AND_ORGANIZATION_ASSIGNMENT(#1643,#1650,(#1627));
#1652=PERSON_AND_ORGANIZATION_ROLE('design_owner');
#1653=CC_DESIGN_PERSON_AND_ORGANIZATION_ASSIGNMENT(#1643,#1652,(#1618));
#78=B_SPLINE_CURVE_WITH_KNOTS('',3,(#74,#75,#76,#77),.UNSPECIFIED.,.F.,.F.,(4,
4),(0.E0,1.E0),.UNSPECIFIED.);
#523=B_SPLINE_CURVE_WITH_KNOTS('',3,(#519,#520,#521,#522),.UNSPECIFIED.,.F.,.F.,
(4,4),(0.E0,1.E0),.UNSPECIFIED.);
#528=B_SPLINE_CURVE_WITH_KNOTS('',3,(#524,#525,#526,#527),.UNSPECIFIED.,.F.,.F.,
(4,4),(0.E0,1.E0),.UNSPECIFIED.);
#757=EDGE_CURVE('',#571,#572,#5,.T.);
#759=EDGE_CURVE('',#576,#571,#9,.T.);
#761=EDGE_CURVE('',#576,#574,#450,.T.);
#763=EDGE_CURVE('',#574,#572,#434,.T.);
#773=EDGE_CURVE('',#599,#600,#13,.T.);
#775=EDGE_CURVE('',#604,#599,#17,.T.);
#777=EDGE_CURVE('',#602,#604,#21,.T.);
#779=EDGE_CURVE('',#600,#602,#25,.T.);
#784=EDGE_CURVE('',#572,#578,#430,.T.);
#786=EDGE_CURVE('',#578,#582,#478,.T.);
#788=EDGE_CURVE('',#582,#571,#470,.T.);
#798=EDGE_CURVE('',#599,#663,#29,.T.);
#801=EDGE_CURVE('',#600,#606,#73,.T.);
#803=EDGE_CURVE('',#662,#606,#33,.T.);
#805=EDGE_CURVE('',#662,#663,#86,.T.);
#815=EDGE_CURVE('',#604,#657,#37,.T.);
#819=EDGE_CURVE('',#663,#665,#82,.T.);
#821=EDGE_CURVE('',#665,#649,#106,.T.);
#823=EDGE_CURVE('',#616,#649,#41,.T.);
#825=EDGE_CURVE('',#616,#729,#406,.T.);
#827=EDGE_CURVE('',#729,#735,#374,.T.);
#829=EDGE_CURVE('',#735,#724,#402,.T.);
#831=EDGE_CURVE('',#724,#727,#394,.T.);
#833=EDGE_CURVE('',#737,#727,#45,.T.);
#835=EDGE_CURVE('',#737,#721,#362,.T.);
#837=EDGE_CURVE('',#721,#739,#326,.T.);
#839=EDGE_CURVE('',#689,#739,#49,.T.);
#841=EDGE_CURVE('',#689,#669,#338,.T.);
#843=EDGE_CURVE('',#668,#669,#53,.T.);
#845=EDGE_CURVE('',#668,#709,#358,.T.);
#847=EDGE_CURVE('',#709,#681,#218,.T.);
#849=EDGE_CURVE('',#681,#683,#190,.T.);
#851=EDGE_CURVE('',#683,#641,#182,.T.);
#853=EDGE_CURVE('',#643,#641,#57,.T.);
#855=EDGE_CURVE('',#643,#655,#418,.T.);
#857=EDGE_CURVE('',#655,#657,#102,.T.);
#867=EDGE_CURVE('',#608,#659,#61,.T.);
#869=EDGE_CURVE('',#602,#608,#65,.T.);
#873=EDGE_CURVE('',#657,#659,#98,.T.);
#884=EDGE_CURVE('',#606,#608,#69,.T.);
#887=EDGE_CURVE('',#659,#653,#94,.T.);
#889=EDGE_CURVE('',#653,#662,#78,.T.);
#912=EDGE_CURVE('',#653,#665,#110,.T.);
#924=EDGE_CURVE('',#653,#651,#90,.T.);
#929=EDGE_CURVE('',#655,#651,#426,.T.);
#941=EDGE_CURVE('',#647,#653,#114,.T.);
#943=EDGE_CURVE('',#649,#647,#118,.T.);
#953=EDGE_CURVE('',#645,#647,#126,.T.);
#957=EDGE_CURVE('',#645,#651,#122,.T.);
#967=EDGE_CURVE('',#614,#616,#142,.T.);
#972=EDGE_CURVE('',#645,#643,#422,.T.);
#975=EDGE_CURVE('',#614,#641,#130,.T.);
#985=EDGE_CURVE('',#611,#612,#134,.T.);
#987=EDGE_CURVE('',#611,#618,#158,.T.);
#989=EDGE_CURVE('',#616,#618,#138,.T.);
#992=EDGE_CURVE('',#612,#614,#146,.T.);
#1003=EDGE_CURVE('',#749,#612,#150,.T.);
#1005=EDGE_CURVE('',#743,#749,#154,.T.);
#1007=EDGE_CURVE('',#743,#618,#410,.T.);
#1018=EDGE_CURVE('',#683,#741,#162,.T.);
#1020=EDGE_CURVE('',#685,#683,#166,.T.);
#1022=EDGE_CURVE('',#749,#685,#170,.T.);
#1025=EDGE_CURVE('',#741,#612,#174,.T.);
#1036=EDGE_CURVE('',#641,#741,#178,.T.);
#1059=EDGE_CURVE('',#678,#679,#194,.T.);
#1061=EDGE_CURVE('',#687,#679,#186,.T.);
#1063=EDGE_CURVE('',#687,#685,#198,.T.);
#1067=EDGE_CURVE('',#681,#678,#206,.T.);
#1077=EDGE_CURVE('',#743,#687,#202,.T.);
#1081=EDGE_CURVE('',#678,#713,#214,.T.);
#1083=EDGE_CURVE('',#713,#747,#238,.T.);
#1085=EDGE_CURVE('',#747,#705,#230,.T.);
#1087=EDGE_CURVE('',#705,#696,#254,.T.);
#1089=EDGE_CURVE('',#696,#745,#282,.T.);
#1091=EDGE_CURVE('',#745,#719,#302,.T.);
#1093=EDGE_CURVE('',#719,#721,#354,.T.);
#1095=EDGE_CURVE('',#721,#731,#382,.T.);
#1097=EDGE_CURVE('',#731,#743,#414,.T.);
#1120=EDGE_CURVE('',#711,#681,#210,.T.);
#1122=EDGE_CURVE('',#711,#713,#242,.T.);
#1133=EDGE_CURVE('',#703,#707,#226,.T.);
#1135=EDGE_CURVE('',#707,#711,#246,.T.);
#1139=EDGE_CURVE('',#701,#709,#222,.T.);
#1141=EDGE_CURVE('',#701,#703,#262,.T.);
#1151=EDGE_CURVE('',#747,#707,#234,.T.);
#1154=EDGE_CURVE('',#703,#705,#258,.T.);
#1177=EDGE_CURVE('',#696,#697,#250,.T.);
#1182=EDGE_CURVE('',#671,#701,#266,.T.);
#1184=EDGE_CURVE('',#673,#671,#270,.T.);
#1186=EDGE_CURVE('',#699,#673,#274,.T.);
#1188=EDGE_CURVE('',#697,#699,#278,.T.);
#1198=EDGE_CURVE('',#751,#745,#290,.T.);
#1202=EDGE_CURVE('',#751,#697,#286,.T.);
#1213=EDGE_CURVE('',#717,#751,#294,.T.);
#1215=EDGE_CURVE('',#719,#717,#298,.T.);
#1228=EDGE_CURVE('',#691,#699,#306,.T.);
#1230=EDGE_CURVE('',#691,#693,#334,.T.);
#1232=EDGE_CURVE('',#693,#716,#342,.T.);
#1234=EDGE_CURVE('',#716,#717,#346,.T.);
#1247=EDGE_CURVE('',#673,#675,#318,.T.);
#1249=EDGE_CURVE('',#691,#675,#310,.T.);
#1260=EDGE_CURVE('',#675,#669,#314,.T.);
#1264=EDGE_CURVE('',#668,#671,#322,.T.);
#1275=EDGE_CURVE('',#693,#721,#330,.T.);
#1291=EDGE_CURVE('',#721,#716,#350,.T.);
#1327=EDGE_CURVE('',#733,#737,#366,.T.);
#1329=EDGE_CURVE('',#735,#733,#370,.T.);
#1332=EDGE_CURVE('',#731,#729,#378,.T.);
#1344=EDGE_CURVE('',#725,#727,#386,.T.);
#1346=EDGE_CURVE('',#733,#725,#390,.T.);
#1357=EDGE_CURVE('',#724,#725,#398,.T.);
#1408=EDGE_CURVE('',#574,#580,#446,.T.);
#1410=EDGE_CURVE('',#580,#578,#482,.T.);
#1420=EDGE_CURVE('',#584,#576,#438,.T.);
#1422=EDGE_CURVE('',#580,#584,#442,.T.);
#1428=EDGE_CURVE('',#587,#588,#454,.T.);
#1430=EDGE_CURVE('',#592,#587,#458,.T.);
#1432=EDGE_CURVE('',#590,#592,#462,.T.);
#1434=EDGE_CURVE('',#588,#590,#466,.T.);
#1445=EDGE_CURVE('',#584,#582,#474,.T.);
#1469=EDGE_CURVE('',#587,#626,#486,.T.);
#1472=EDGE_CURVE('',#588,#624,#518,.T.);
#1474=EDGE_CURVE('',#626,#624,#490,.T.);
#1484=EDGE_CURVE('',#634,#596,#510,.T.);
#1486=EDGE_CURVE('',#592,#596,#494,.T.);
#1490=EDGE_CURVE('',#626,#621,#560,.T.);
#1492=EDGE_CURVE('',#621,#629,#548,.T.);
#1494=EDGE_CURVE('',#634,#629,#498,.T.);
#1504=EDGE_CURVE('',#594,#633,#502,.T.);
#1506=EDGE_CURVE('',#596,#594,#506,.T.);
#1509=EDGE_CURVE('',#633,#634,#514,.T.);
#1521=EDGE_CURVE('',#590,#594,#536,.T.);
#1524=EDGE_CURVE('',#635,#633,#523,.T.);
#1526=EDGE_CURVE('',#638,#635,#528,.T.);
#1528=EDGE_CURVE('',#630,#638,#532,.T.);
#1530=EDGE_CURVE('',#630,#622,#552,.T.);
#1532=EDGE_CURVE('',#622,#624,#564,.T.);
#1556=EDGE_CURVE('',#629,#630,#544,.T.);
#1559=EDGE_CURVE('',#638,#639,#568,.T.);
#1561=EDGE_CURVE('',#635,#639,#540,.T.);
#1574=EDGE_CURVE('',#621,#622,#556,.T.);
#1603=CLOSED_SHELL('',(#767,#792,#809,#861,#877,#893,#905,#918,#933,#947,#961,
#979,#996,#1012,#1029,#1041,#1053,#1071,#1101,#1113,#1127,#1145,#1159,#1171,
#1192,#1206,#1220,#1239,#1253,#1268,#1284,#1296,#1308,#1320,#1337,#1351,#1363,
#1375,#1388,#1400,#1414,#1438,#1451,#1463,#1478,#1498,#1513,#1536,#1548,#1566,
#1579,#1591,#1602));
#1604=MANIFOLD_SOLID_BREP('',#1603);
#1605=(LENGTH_UNIT()NAMED_UNIT(*)SI_UNIT(.MILLI.,.METRE.));
#1607=(NAMED_UNIT(*)PLANE_ANGLE_UNIT()SI_UNIT($,.RADIAN.));
#1610=(NAMED_UNIT(*)SI_UNIT($,.STERADIAN.)SOLID_ANGLE_UNIT());
#1613=ADVANCED_BREP_SHAPE_REPRESENTATION('',(#1604),#1612);
#1620=PRODUCT_DEFINITION('design','',#1619,#1616);
#1621=PRODUCT_DEFINITION_SHAPE('','SHAPE FOR 322000140.',#1620);
#1622=SHAPE_DEFINITION_REPRESENTATION(#1621,#1613);
ENDSEC;
END-ISO-10303-21;
