ISO-10303-21;
HEADER;
/* Generated by software containing ST-Developer
 * from STEP Tools, Inc. (www.steptools.com) 
 */

FILE_DESCRIPTION(
/* description */ (''),
/* implementation_level */ '2;1');

FILE_NAME(
/* name */ 'D455f_Mount.step',
/* time_stamp */ '2026-09-07T09:36:41+08:00',
/* author */ (''),
/* organization */ (''),
/* preprocessor_version */ 'ST-DEVELOPER v20.1',
/* originating_system */ 'Autodesk Translation Framework v15.8.0.0',
/* authorisation */ '');

FILE_SCHEMA (('AUTOMOTIVE_DESIGN { 1 0 10303 214 3 1 1 }'));
ENDSEC;

DATA;
#10=MECHANICAL_DESIGN_GEOMETRIC_PRESENTATION_REPRESENTATION('',(#13),#1277);
#11=SHAPE_REPRESENTATION_RELATIONSHIP('SRR','None',#1284,#12);
#12=ADVANCED_BREP_SHAPE_REPRESENTATION('',(#14),#1276);
#13=STYLED_ITEM('',(#1294),#14);
#14=MANIFOLD_SOLID_BREP('\X2\5B9E4F53\X0\2',#739);
#15=ELLIPSE('',#799,10.3527531062553,10.);
#16=ELLIPSE('',#807,10.3527531062553,10.);
#17=ELLIPSE('',#810,2.89877086975148,2.8);
#18=ELLIPSE('',#812,2.89877086975148,2.8);
#19=ELLIPSE('',#814,3.10582593187659,3.);
#20=ELLIPSE('',#816,3.10582593187659,3.);
#21=ELLIPSE('',#818,10.3527531062553,10.);
#22=ELLIPSE('',#821,10.3527531062553,10.);
#23=FACE_BOUND('',#134,.T.);
#24=FACE_BOUND('',#135,.T.);
#25=FACE_BOUND('',#139,.T.);
#26=FACE_BOUND('',#141,.T.);
#27=FACE_BOUND('',#150,.T.);
#28=FACE_BOUND('',#152,.T.);
#29=FACE_BOUND('',#156,.T.);
#30=FACE_BOUND('',#157,.T.);
#31=FACE_BOUND('',#158,.T.);
#32=FACE_BOUND('',#159,.T.);
#33=FACE_BOUND('',#172,.T.);
#34=FACE_BOUND('',#173,.T.);
#35=FACE_BOUND('',#174,.T.);
#36=FACE_BOUND('',#175,.T.);
#37=FACE_BOUND('',#176,.T.);
#38=FACE_BOUND('',#177,.T.);
#39=CIRCLE('',#756,1.35);
#40=CIRCLE('',#757,1.35);
#41=CIRCLE('',#759,1.35);
#42=CIRCLE('',#760,1.35);
#43=CIRCLE('',#765,28.5);
#44=CIRCLE('',#766,28.5);
#45=CIRCLE('',#767,28.5);
#46=CIRCLE('',#768,28.5);
#47=CIRCLE('',#774,2.8);
#48=CIRCLE('',#775,1.6);
#49=CIRCLE('',#777,2.8);
#50=CIRCLE('',#778,1.6);
#51=CIRCLE('',#780,1.6);
#52=CIRCLE('',#782,1.6);
#53=CIRCLE('',#786,10.);
#54=CIRCLE('',#787,10.);
#55=CIRCLE('',#789,1.6);
#56=CIRCLE('',#790,1.6);
#57=CIRCLE('',#792,1.6);
#58=CIRCLE('',#793,1.6);
#59=CIRCLE('',#795,3.);
#60=CIRCLE('',#797,3.);
#61=CIRCLE('',#800,10.);
#62=CIRCLE('',#803,10.);
#63=CIRCLE('',#804,10.);
#64=CIRCLE('',#805,10.);
#65=CYLINDRICAL_SURFACE('',#755,1.35);
#66=CYLINDRICAL_SURFACE('',#758,1.35);
#67=CYLINDRICAL_SURFACE('',#764,28.5);
#68=CYLINDRICAL_SURFACE('',#779,1.6);
#69=CYLINDRICAL_SURFACE('',#781,1.6);
#70=CYLINDRICAL_SURFACE('',#788,1.6);
#71=CYLINDRICAL_SURFACE('',#791,1.6);
#72=CYLINDRICAL_SURFACE('',#798,10.);
#73=CYLINDRICAL_SURFACE('',#806,10.);
#74=CYLINDRICAL_SURFACE('',#809,2.8);
#75=CYLINDRICAL_SURFACE('',#811,2.8);
#76=CYLINDRICAL_SURFACE('',#813,3.);
#77=CYLINDRICAL_SURFACE('',#815,3.);
#78=CYLINDRICAL_SURFACE('',#817,10.);
#79=CYLINDRICAL_SURFACE('',#820,10.);
#80=B_SPLINE_SURFACE_WITH_KNOTS('',3,3,((#1056,#1057,#1058,#1059),(#1060,
#1061,#1062,#1063),(#1064,#1065,#1066,#1067),(#1068,#1069,#1070,#1071)),
 .UNSPECIFIED.,.F.,.F.,.F.,(4,4),(4,4),(-0.0813803650549567,1.58913682241561),
(-0.266673263419231,1.),.UNSPECIFIED.);
#81=B_SPLINE_SURFACE_WITH_KNOTS('',3,3,((#1079,#1080,#1081,#1082),(#1083,
#1084,#1085,#1086),(#1087,#1088,#1089,#1090),(#1091,#1092,#1093,#1094)),
 .UNSPECIFIED.,.F.,.F.,.F.,(4,4),(4,4),(0.,1.),(0.,1.),.UNSPECIFIED.);
#82=FACE_OUTER_BOUND('',#122,.T.);
#83=FACE_OUTER_BOUND('',#123,.T.);
#84=FACE_OUTER_BOUND('',#124,.T.);
#85=FACE_OUTER_BOUND('',#125,.T.);
#86=FACE_OUTER_BOUND('',#126,.T.);
#87=FACE_OUTER_BOUND('',#127,.T.);
#88=FACE_OUTER_BOUND('',#128,.T.);
#89=FACE_OUTER_BOUND('',#129,.T.);
#90=FACE_OUTER_BOUND('',#130,.T.);
#91=FACE_OUTER_BOUND('',#131,.T.);
#92=FACE_OUTER_BOUND('',#132,.T.);
#93=FACE_OUTER_BOUND('',#133,.T.);
#94=FACE_OUTER_BOUND('',#136,.T.);
#95=FACE_OUTER_BOUND('',#137,.T.);
#96=FACE_OUTER_BOUND('',#138,.T.);
#97=FACE_OUTER_BOUND('',#140,.T.);
#98=FACE_OUTER_BOUND('',#142,.T.);
#99=FACE_OUTER_BOUND('',#143,.T.);
#100=FACE_OUTER_BOUND('',#144,.T.);
#101=FACE_OUTER_BOUND('',#145,.T.);
#102=FACE_OUTER_BOUND('',#146,.T.);
#103=FACE_OUTER_BOUND('',#147,.T.);
#104=FACE_OUTER_BOUND('',#148,.T.);
#105=FACE_OUTER_BOUND('',#149,.T.);
#106=FACE_OUTER_BOUND('',#151,.T.);
#107=FACE_OUTER_BOUND('',#153,.T.);
#108=FACE_OUTER_BOUND('',#154,.T.);
#109=FACE_OUTER_BOUND('',#155,.T.);
#110=FACE_OUTER_BOUND('',#160,.T.);
#111=FACE_OUTER_BOUND('',#161,.T.);
#112=FACE_OUTER_BOUND('',#162,.T.);
#113=FACE_OUTER_BOUND('',#163,.T.);
#114=FACE_OUTER_BOUND('',#164,.T.);
#115=FACE_OUTER_BOUND('',#165,.T.);
#116=FACE_OUTER_BOUND('',#166,.T.);
#117=FACE_OUTER_BOUND('',#167,.T.);
#118=FACE_OUTER_BOUND('',#168,.T.);
#119=FACE_OUTER_BOUND('',#169,.T.);
#120=FACE_OUTER_BOUND('',#170,.T.);
#121=FACE_OUTER_BOUND('',#171,.T.);
#122=EDGE_LOOP('',(#476,#477,#478,#479));
#123=EDGE_LOOP('',(#480,#481,#482,#483));
#124=EDGE_LOOP('',(#484,#485,#486,#487,#488));
#125=EDGE_LOOP('',(#489,#490,#491,#492));
#126=EDGE_LOOP('',(#493,#494,#495,#496));
#127=EDGE_LOOP('',(#497,#498,#499,#500));
#128=EDGE_LOOP('',(#501,#502,#503,#504,#505));
#129=EDGE_LOOP('',(#506,#507,#508,#509));
#130=EDGE_LOOP('',(#510,#511,#512,#513));
#131=EDGE_LOOP('',(#514,#515,#516,#517,#518,#519,#520,#521));
#132=EDGE_LOOP('',(#522,#523,#524,#525));
#133=EDGE_LOOP('',(#526,#527,#528,#529));
#134=EDGE_LOOP('',(#530));
#135=EDGE_LOOP('',(#531));
#136=EDGE_LOOP('',(#532,#533,#534,#535,#536,#537,#538,#539));
#137=EDGE_LOOP('',(#540,#541,#542,#543));
#138=EDGE_LOOP('',(#544));
#139=EDGE_LOOP('',(#545));
#140=EDGE_LOOP('',(#546));
#141=EDGE_LOOP('',(#547));
#142=EDGE_LOOP('',(#548,#549,#550,#551));
#143=EDGE_LOOP('',(#552,#553,#554,#555));
#144=EDGE_LOOP('',(#556,#557,#558,#559));
#145=EDGE_LOOP('',(#560,#561,#562,#563));
#146=EDGE_LOOP('',(#564,#565,#566,#567));
#147=EDGE_LOOP('',(#568,#569,#570,#571));
#148=EDGE_LOOP('',(#572,#573,#574,#575));
#149=EDGE_LOOP('',(#576));
#150=EDGE_LOOP('',(#577));
#151=EDGE_LOOP('',(#578));
#152=EDGE_LOOP('',(#579));
#153=EDGE_LOOP('',(#580,#581,#582,#583));
#154=EDGE_LOOP('',(#584,#585,#586,#587));
#155=EDGE_LOOP('',(#588,#589,#590,#591,#592,#593,#594,#595,#596,#597));
#156=EDGE_LOOP('',(#598));
#157=EDGE_LOOP('',(#599));
#158=EDGE_LOOP('',(#600));
#159=EDGE_LOOP('',(#601));
#160=EDGE_LOOP('',(#602,#603,#604,#605,#606,#607));
#161=EDGE_LOOP('',(#608,#609,#610,#611,#612,#613,#614,#615));
#162=EDGE_LOOP('',(#616,#617,#618,#619));
#163=EDGE_LOOP('',(#620,#621,#622,#623));
#164=EDGE_LOOP('',(#624,#625,#626,#627));
#165=EDGE_LOOP('',(#628,#629,#630,#631));
#166=EDGE_LOOP('',(#632,#633,#634,#635,#636,#637));
#167=EDGE_LOOP('',(#638,#639,#640,#641));
#168=EDGE_LOOP('',(#642,#643,#644,#645));
#169=EDGE_LOOP('',(#646,#647,#648,#649));
#170=EDGE_LOOP('',(#650,#651,#652,#653));
#171=EDGE_LOOP('',(#654,#655,#656,#657,#658,#659,#660,#661,#662,#663,#664,
#665,#666,#667,#668,#669));
#172=EDGE_LOOP('',(#670));
#173=EDGE_LOOP('',(#671));
#174=EDGE_LOOP('',(#672));
#175=EDGE_LOOP('',(#673));
#176=EDGE_LOOP('',(#674));
#177=EDGE_LOOP('',(#675));
#178=LINE('',#1041,#244);
#179=LINE('',#1043,#245);
#180=LINE('',#1045,#246);
#181=LINE('',#1046,#247);
#182=LINE('',#1050,#248);
#183=LINE('',#1052,#249);
#184=LINE('',#1054,#250);
#185=LINE('',#1055,#251);
#186=LINE('',#1074,#252);
#187=LINE('',#1076,#253);
#188=LINE('',#1077,#254);
#189=LINE('',#1078,#255);
#190=LINE('',#1096,#256);
#191=LINE('',#1097,#257);
#192=LINE('',#1098,#258);
#193=LINE('',#1103,#259);
#194=LINE('',#1109,#260);
#195=LINE('',#1113,#261);
#196=LINE('',#1115,#262);
#197=LINE('',#1116,#263);
#198=LINE('',#1118,#264);
#199=LINE('',#1122,#265);
#200=LINE('',#1124,#266);
#201=LINE('',#1126,#267);
#202=LINE('',#1127,#268);
#203=LINE('',#1133,#269);
#204=LINE('',#1137,#270);
#205=LINE('',#1140,#271);
#206=LINE('',#1141,#272);
#207=LINE('',#1143,#273);
#208=LINE('',#1145,#274);
#209=LINE('',#1160,#275);
#210=LINE('',#1164,#276);
#211=LINE('',#1168,#277);
#212=LINE('',#1170,#278);
#213=LINE('',#1172,#279);
#214=LINE('',#1173,#280);
#215=LINE('',#1177,#281);
#216=LINE('',#1179,#282);
#217=LINE('',#1181,#283);
#218=LINE('',#1182,#284);
#219=LINE('',#1187,#285);
#220=LINE('',#1193,#286);
#221=LINE('',#1199,#287);
#222=LINE('',#1212,#288);
#223=LINE('',#1215,#289);
#224=LINE('',#1217,#290);
#225=LINE('',#1218,#291);
#226=LINE('',#1224,#292);
#227=LINE('',#1226,#293);
#228=LINE('',#1229,#294);
#229=LINE('',#1233,#295);
#230=LINE('',#1235,#296);
#231=LINE('',#1237,#297);
#232=LINE('',#1238,#298);
#233=LINE('',#1242,#299);
#234=LINE('',#1246,#300);
#235=LINE('',#1250,#301);
#236=LINE('',#1254,#302);
#237=LINE('',#1258,#303);
#238=LINE('',#1261,#304);
#239=LINE('',#1262,#305);
#240=LINE('',#1266,#306);
#241=LINE('',#1269,#307);
#242=LINE('',#1270,#308);
#243=LINE('',#1272,#309);
#244=VECTOR('',#829,10.);
#245=VECTOR('',#830,10.);
#246=VECTOR('',#831,10.);
#247=VECTOR('',#832,10.);
#248=VECTOR('',#835,10.);
#249=VECTOR('',#836,10.);
#250=VECTOR('',#837,10.);
#251=VECTOR('',#838,10.);
#252=VECTOR('',#839,10.);
#253=VECTOR('',#840,10.);
#254=VECTOR('',#841,16.7965330699497);
#255=VECTOR('',#842,9.99999999999999);
#256=VECTOR('',#843,10.);
#257=VECTOR('',#844,10.);
#258=VECTOR('',#845,10.);
#259=VECTOR('',#850,1.35);
#260=VECTOR('',#857,1.35);
#261=VECTOR('',#862,10.);
#262=VECTOR('',#863,10.);
#263=VECTOR('',#864,10.);
#264=VECTOR('',#867,10.);
#265=VECTOR('',#870,10.);
#266=VECTOR('',#871,10.);
#267=VECTOR('',#872,10.);
#268=VECTOR('',#873,10.);
#269=VECTOR('',#880,10.);
#270=VECTOR('',#883,10.);
#271=VECTOR('',#888,10.);
#272=VECTOR('',#889,10.);
#273=VECTOR('',#892,10.);
#274=VECTOR('',#895,10.);
#275=VECTOR('',#914,1.6);
#276=VECTOR('',#919,1.6);
#277=VECTOR('',#922,10.);
#278=VECTOR('',#923,10.);
#279=VECTOR('',#924,10.);
#280=VECTOR('',#925,10.);
#281=VECTOR('',#928,10.);
#282=VECTOR('',#929,10.);
#283=VECTOR('',#930,10.);
#284=VECTOR('',#931,10.);
#285=VECTOR('',#936,10.);
#286=VECTOR('',#943,1.6);
#287=VECTOR('',#950,1.6);
#288=VECTOR('',#967,10.);
#289=VECTOR('',#970,10.);
#290=VECTOR('',#971,10.);
#291=VECTOR('',#972,10.);
#292=VECTOR('',#979,10.);
#293=VECTOR('',#980,10.);
#294=VECTOR('',#983,10.);
#295=VECTOR('',#988,10.);
#296=VECTOR('',#991,10.);
#297=VECTOR('',#992,10.);
#298=VECTOR('',#993,10.);
#299=VECTOR('',#998,2.8);
#300=VECTOR('',#1003,2.8);
#301=VECTOR('',#1008,3.);
#302=VECTOR('',#1013,3.);
#303=VECTOR('',#1018,10.);
#304=VECTOR('',#1021,10.);
#305=VECTOR('',#1022,10.);
#306=VECTOR('',#1027,10.);
#307=VECTOR('',#1030,10.);
#308=VECTOR('',#1031,10.);
#309=VECTOR('',#1034,10.);
#310=VERTEX_POINT('',#1039);
#311=VERTEX_POINT('',#1040);
#312=VERTEX_POINT('',#1042);
#313=VERTEX_POINT('',#1044);
#314=VERTEX_POINT('',#1048);
#315=VERTEX_POINT('',#1049);
#316=VERTEX_POINT('',#1051);
#317=VERTEX_POINT('',#1053);
#318=VERTEX_POINT('',#1072);
#319=VERTEX_POINT('',#1073);
#320=VERTEX_POINT('',#1075);
#321=VERTEX_POINT('',#1095);
#322=VERTEX_POINT('',#1100);
#323=VERTEX_POINT('',#1102);
#324=VERTEX_POINT('',#1106);
#325=VERTEX_POINT('',#1108);
#326=VERTEX_POINT('',#1112);
#327=VERTEX_POINT('',#1114);
#328=VERTEX_POINT('',#1120);
#329=VERTEX_POINT('',#1121);
#330=VERTEX_POINT('',#1123);
#331=VERTEX_POINT('',#1125);
#332=VERTEX_POINT('',#1130);
#333=VERTEX_POINT('',#1132);
#334=VERTEX_POINT('',#1134);
#335=VERTEX_POINT('',#1136);
#336=VERTEX_POINT('',#1148);
#337=VERTEX_POINT('',#1150);
#338=VERTEX_POINT('',#1153);
#339=VERTEX_POINT('',#1155);
#340=VERTEX_POINT('',#1158);
#341=VERTEX_POINT('',#1162);
#342=VERTEX_POINT('',#1166);
#343=VERTEX_POINT('',#1167);
#344=VERTEX_POINT('',#1169);
#345=VERTEX_POINT('',#1171);
#346=VERTEX_POINT('',#1175);
#347=VERTEX_POINT('',#1176);
#348=VERTEX_POINT('',#1178);
#349=VERTEX_POINT('',#1180);
#350=VERTEX_POINT('',#1184);
#351=VERTEX_POINT('',#1186);
#352=VERTEX_POINT('',#1190);
#353=VERTEX_POINT('',#1192);
#354=VERTEX_POINT('',#1196);
#355=VERTEX_POINT('',#1198);
#356=VERTEX_POINT('',#1202);
#357=VERTEX_POINT('',#1205);
#358=VERTEX_POINT('',#1208);
#359=VERTEX_POINT('',#1210);
#360=VERTEX_POINT('',#1214);
#361=VERTEX_POINT('',#1216);
#362=VERTEX_POINT('',#1220);
#363=VERTEX_POINT('',#1223);
#364=VERTEX_POINT('',#1225);
#365=VERTEX_POINT('',#1227);
#366=VERTEX_POINT('',#1231);
#367=VERTEX_POINT('',#1236);
#368=VERTEX_POINT('',#1240);
#369=VERTEX_POINT('',#1244);
#370=VERTEX_POINT('',#1248);
#371=VERTEX_POINT('',#1252);
#372=VERTEX_POINT('',#1256);
#373=VERTEX_POINT('',#1260);
#374=VERTEX_POINT('',#1264);
#375=VERTEX_POINT('',#1268);
#376=EDGE_CURVE('',#310,#311,#178,.T.);
#377=EDGE_CURVE('',#310,#312,#179,.T.);
#378=EDGE_CURVE('',#313,#312,#180,.T.);
#379=EDGE_CURVE('',#311,#313,#181,.T.);
#380=EDGE_CURVE('',#314,#315,#182,.T.);
#381=EDGE_CURVE('',#316,#314,#183,.T.);
#382=EDGE_CURVE('',#317,#316,#184,.T.);
#383=EDGE_CURVE('',#317,#315,#185,.T.);
#384=EDGE_CURVE('',#318,#319,#186,.T.);
#385=EDGE_CURVE('',#320,#319,#187,.F.);
#386=EDGE_CURVE('',#320,#314,#188,.T.);
#387=EDGE_CURVE('',#315,#318,#189,.T.);
#388=EDGE_CURVE('',#321,#320,#190,.T.);
#389=EDGE_CURVE('',#321,#313,#191,.T.);
#390=EDGE_CURVE('',#314,#313,#192,.T.);
#391=EDGE_CURVE('',#322,#322,#39,.T.);
#392=EDGE_CURVE('',#322,#323,#193,.T.);
#393=EDGE_CURVE('',#323,#323,#40,.T.);
#394=EDGE_CURVE('',#324,#324,#41,.T.);
#395=EDGE_CURVE('',#324,#325,#194,.T.);
#396=EDGE_CURVE('',#325,#325,#42,.T.);
#397=EDGE_CURVE('',#321,#326,#195,.T.);
#398=EDGE_CURVE('',#326,#327,#196,.T.);
#399=EDGE_CURVE('',#327,#311,#197,.T.);
#400=EDGE_CURVE('',#319,#326,#198,.T.);
#401=EDGE_CURVE('',#328,#329,#199,.T.);
#402=EDGE_CURVE('',#328,#330,#200,.T.);
#403=EDGE_CURVE('',#331,#330,#201,.T.);
#404=EDGE_CURVE('',#331,#329,#202,.T.);
#405=EDGE_CURVE('',#317,#310,#43,.T.);
#406=EDGE_CURVE('',#316,#332,#44,.T.);
#407=EDGE_CURVE('',#332,#333,#203,.T.);
#408=EDGE_CURVE('',#333,#334,#45,.T.);
#409=EDGE_CURVE('',#334,#335,#204,.T.);
#410=EDGE_CURVE('',#312,#335,#46,.T.);
#411=EDGE_CURVE('',#335,#328,#205,.T.);
#412=EDGE_CURVE('',#330,#334,#206,.T.);
#413=EDGE_CURVE('',#333,#331,#207,.T.);
#414=EDGE_CURVE('',#329,#332,#208,.T.);
#415=EDGE_CURVE('',#336,#336,#47,.T.);
#416=EDGE_CURVE('',#337,#337,#48,.T.);
#417=EDGE_CURVE('',#338,#338,#49,.T.);
#418=EDGE_CURVE('',#339,#339,#50,.T.);
#419=EDGE_CURVE('',#340,#340,#51,.T.);
#420=EDGE_CURVE('',#340,#339,#209,.T.);
#421=EDGE_CURVE('',#341,#341,#52,.T.);
#422=EDGE_CURVE('',#341,#337,#210,.T.);
#423=EDGE_CURVE('',#342,#343,#211,.T.);
#424=EDGE_CURVE('',#344,#342,#212,.T.);
#425=EDGE_CURVE('',#345,#344,#213,.T.);
#426=EDGE_CURVE('',#343,#345,#214,.T.);
#427=EDGE_CURVE('',#346,#347,#215,.T.);
#428=EDGE_CURVE('',#348,#346,#216,.T.);
#429=EDGE_CURVE('',#349,#348,#217,.T.);
#430=EDGE_CURVE('',#347,#349,#218,.T.);
#431=EDGE_CURVE('',#350,#346,#53,.T.);
#432=EDGE_CURVE('',#351,#350,#219,.T.);
#433=EDGE_CURVE('',#348,#351,#54,.T.);
#434=EDGE_CURVE('',#352,#352,#55,.T.);
#435=EDGE_CURVE('',#352,#353,#220,.T.);
#436=EDGE_CURVE('',#353,#353,#56,.T.);
#437=EDGE_CURVE('',#354,#354,#57,.T.);
#438=EDGE_CURVE('',#354,#355,#221,.T.);
#439=EDGE_CURVE('',#355,#355,#58,.T.);
#440=EDGE_CURVE('',#356,#356,#59,.T.);
#441=EDGE_CURVE('',#357,#357,#60,.T.);
#442=EDGE_CURVE('',#343,#358,#15,.T.);
#443=EDGE_CURVE('',#345,#359,#61,.T.);
#444=EDGE_CURVE('',#359,#358,#222,.T.);
#445=EDGE_CURVE('',#358,#360,#223,.T.);
#446=EDGE_CURVE('',#359,#361,#224,.T.);
#447=EDGE_CURVE('',#361,#360,#225,.T.);
#448=EDGE_CURVE('',#347,#362,#62,.T.);
#449=EDGE_CURVE('',#361,#349,#63,.T.);
#450=EDGE_CURVE('',#344,#363,#226,.T.);
#451=EDGE_CURVE('',#363,#364,#227,.T.);
#452=EDGE_CURVE('',#365,#364,#64,.T.);
#453=EDGE_CURVE('',#362,#365,#228,.T.);
#454=EDGE_CURVE('',#360,#366,#16,.T.);
#455=EDGE_CURVE('',#351,#366,#229,.T.);
#456=EDGE_CURVE('',#366,#318,#230,.T.);
#457=EDGE_CURVE('',#350,#367,#231,.T.);
#458=EDGE_CURVE('',#327,#367,#232,.T.);
#459=EDGE_CURVE('',#368,#368,#17,.T.);
#460=EDGE_CURVE('',#368,#336,#233,.T.);
#461=EDGE_CURVE('',#369,#369,#18,.T.);
#462=EDGE_CURVE('',#369,#338,#234,.T.);
#463=EDGE_CURVE('',#370,#370,#19,.T.);
#464=EDGE_CURVE('',#370,#356,#235,.T.);
#465=EDGE_CURVE('',#371,#371,#20,.T.);
#466=EDGE_CURVE('',#371,#357,#236,.T.);
#467=EDGE_CURVE('',#367,#372,#21,.T.);
#468=EDGE_CURVE('',#362,#372,#237,.T.);
#469=EDGE_CURVE('',#372,#373,#238,.T.);
#470=EDGE_CURVE('',#365,#373,#239,.T.);
#471=EDGE_CURVE('',#373,#374,#22,.T.);
#472=EDGE_CURVE('',#374,#364,#240,.T.);
#473=EDGE_CURVE('',#374,#375,#241,.T.);
#474=EDGE_CURVE('',#363,#375,#242,.T.);
#475=EDGE_CURVE('',#375,#342,#243,.T.);
#476=ORIENTED_EDGE('',*,*,#376,.F.);
#477=ORIENTED_EDGE('',*,*,#377,.T.);
#478=ORIENTED_EDGE('',*,*,#378,.F.);
#479=ORIENTED_EDGE('',*,*,#379,.F.);
#480=ORIENTED_EDGE('',*,*,#380,.F.);
#481=ORIENTED_EDGE('',*,*,#381,.F.);
#482=ORIENTED_EDGE('',*,*,#382,.F.);
#483=ORIENTED_EDGE('',*,*,#383,.T.);
#484=ORIENTED_EDGE('',*,*,#384,.T.);
#485=ORIENTED_EDGE('',*,*,#385,.F.);
#486=ORIENTED_EDGE('',*,*,#386,.T.);
#487=ORIENTED_EDGE('',*,*,#380,.T.);
#488=ORIENTED_EDGE('',*,*,#387,.T.);
#489=ORIENTED_EDGE('',*,*,#388,.F.);
#490=ORIENTED_EDGE('',*,*,#389,.T.);
#491=ORIENTED_EDGE('',*,*,#390,.F.);
#492=ORIENTED_EDGE('',*,*,#386,.F.);
#493=ORIENTED_EDGE('',*,*,#391,.F.);
#494=ORIENTED_EDGE('',*,*,#392,.T.);
#495=ORIENTED_EDGE('',*,*,#393,.F.);
#496=ORIENTED_EDGE('',*,*,#392,.F.);
#497=ORIENTED_EDGE('',*,*,#394,.F.);
#498=ORIENTED_EDGE('',*,*,#395,.T.);
#499=ORIENTED_EDGE('',*,*,#396,.F.);
#500=ORIENTED_EDGE('',*,*,#395,.F.);
#501=ORIENTED_EDGE('',*,*,#379,.T.);
#502=ORIENTED_EDGE('',*,*,#389,.F.);
#503=ORIENTED_EDGE('',*,*,#397,.T.);
#504=ORIENTED_EDGE('',*,*,#398,.T.);
#505=ORIENTED_EDGE('',*,*,#399,.T.);
#506=ORIENTED_EDGE('',*,*,#400,.T.);
#507=ORIENTED_EDGE('',*,*,#397,.F.);
#508=ORIENTED_EDGE('',*,*,#388,.T.);
#509=ORIENTED_EDGE('',*,*,#385,.T.);
#510=ORIENTED_EDGE('',*,*,#401,.F.);
#511=ORIENTED_EDGE('',*,*,#402,.T.);
#512=ORIENTED_EDGE('',*,*,#403,.F.);
#513=ORIENTED_EDGE('',*,*,#404,.T.);
#514=ORIENTED_EDGE('',*,*,#405,.F.);
#515=ORIENTED_EDGE('',*,*,#382,.T.);
#516=ORIENTED_EDGE('',*,*,#406,.T.);
#517=ORIENTED_EDGE('',*,*,#407,.T.);
#518=ORIENTED_EDGE('',*,*,#408,.T.);
#519=ORIENTED_EDGE('',*,*,#409,.T.);
#520=ORIENTED_EDGE('',*,*,#410,.F.);
#521=ORIENTED_EDGE('',*,*,#377,.F.);
#522=ORIENTED_EDGE('',*,*,#411,.F.);
#523=ORIENTED_EDGE('',*,*,#409,.F.);
#524=ORIENTED_EDGE('',*,*,#412,.F.);
#525=ORIENTED_EDGE('',*,*,#402,.F.);
#526=ORIENTED_EDGE('',*,*,#413,.T.);
#527=ORIENTED_EDGE('',*,*,#403,.T.);
#528=ORIENTED_EDGE('',*,*,#412,.T.);
#529=ORIENTED_EDGE('',*,*,#408,.F.);
#530=ORIENTED_EDGE('',*,*,#391,.T.);
#531=ORIENTED_EDGE('',*,*,#394,.T.);
#532=ORIENTED_EDGE('',*,*,#414,.T.);
#533=ORIENTED_EDGE('',*,*,#406,.F.);
#534=ORIENTED_EDGE('',*,*,#381,.T.);
#535=ORIENTED_EDGE('',*,*,#390,.T.);
#536=ORIENTED_EDGE('',*,*,#378,.T.);
#537=ORIENTED_EDGE('',*,*,#410,.T.);
#538=ORIENTED_EDGE('',*,*,#411,.T.);
#539=ORIENTED_EDGE('',*,*,#401,.T.);
#540=ORIENTED_EDGE('',*,*,#413,.F.);
#541=ORIENTED_EDGE('',*,*,#407,.F.);
#542=ORIENTED_EDGE('',*,*,#414,.F.);
#543=ORIENTED_EDGE('',*,*,#404,.F.);
#544=ORIENTED_EDGE('',*,*,#415,.F.);
#545=ORIENTED_EDGE('',*,*,#416,.F.);
#546=ORIENTED_EDGE('',*,*,#417,.F.);
#547=ORIENTED_EDGE('',*,*,#418,.F.);
#548=ORIENTED_EDGE('',*,*,#419,.F.);
#549=ORIENTED_EDGE('',*,*,#420,.T.);
#550=ORIENTED_EDGE('',*,*,#418,.T.);
#551=ORIENTED_EDGE('',*,*,#420,.F.);
#552=ORIENTED_EDGE('',*,*,#421,.F.);
#553=ORIENTED_EDGE('',*,*,#422,.T.);
#554=ORIENTED_EDGE('',*,*,#416,.T.);
#555=ORIENTED_EDGE('',*,*,#422,.F.);
#556=ORIENTED_EDGE('',*,*,#423,.F.);
#557=ORIENTED_EDGE('',*,*,#424,.F.);
#558=ORIENTED_EDGE('',*,*,#425,.F.);
#559=ORIENTED_EDGE('',*,*,#426,.F.);
#560=ORIENTED_EDGE('',*,*,#427,.F.);
#561=ORIENTED_EDGE('',*,*,#428,.F.);
#562=ORIENTED_EDGE('',*,*,#429,.F.);
#563=ORIENTED_EDGE('',*,*,#430,.F.);
#564=ORIENTED_EDGE('',*,*,#431,.F.);
#565=ORIENTED_EDGE('',*,*,#432,.F.);
#566=ORIENTED_EDGE('',*,*,#433,.F.);
#567=ORIENTED_EDGE('',*,*,#428,.T.);
#568=ORIENTED_EDGE('',*,*,#434,.T.);
#569=ORIENTED_EDGE('',*,*,#435,.T.);
#570=ORIENTED_EDGE('',*,*,#436,.F.);
#571=ORIENTED_EDGE('',*,*,#435,.F.);
#572=ORIENTED_EDGE('',*,*,#437,.T.);
#573=ORIENTED_EDGE('',*,*,#438,.T.);
#574=ORIENTED_EDGE('',*,*,#439,.F.);
#575=ORIENTED_EDGE('',*,*,#438,.F.);
#576=ORIENTED_EDGE('',*,*,#440,.F.);
#577=ORIENTED_EDGE('',*,*,#434,.F.);
#578=ORIENTED_EDGE('',*,*,#441,.F.);
#579=ORIENTED_EDGE('',*,*,#437,.F.);
#580=ORIENTED_EDGE('',*,*,#442,.F.);
#581=ORIENTED_EDGE('',*,*,#426,.T.);
#582=ORIENTED_EDGE('',*,*,#443,.T.);
#583=ORIENTED_EDGE('',*,*,#444,.T.);
#584=ORIENTED_EDGE('',*,*,#445,.F.);
#585=ORIENTED_EDGE('',*,*,#444,.F.);
#586=ORIENTED_EDGE('',*,*,#446,.T.);
#587=ORIENTED_EDGE('',*,*,#447,.T.);
#588=ORIENTED_EDGE('',*,*,#448,.F.);
#589=ORIENTED_EDGE('',*,*,#430,.T.);
#590=ORIENTED_EDGE('',*,*,#449,.F.);
#591=ORIENTED_EDGE('',*,*,#446,.F.);
#592=ORIENTED_EDGE('',*,*,#443,.F.);
#593=ORIENTED_EDGE('',*,*,#425,.T.);
#594=ORIENTED_EDGE('',*,*,#450,.T.);
#595=ORIENTED_EDGE('',*,*,#451,.T.);
#596=ORIENTED_EDGE('',*,*,#452,.F.);
#597=ORIENTED_EDGE('',*,*,#453,.F.);
#598=ORIENTED_EDGE('',*,*,#421,.T.);
#599=ORIENTED_EDGE('',*,*,#419,.T.);
#600=ORIENTED_EDGE('',*,*,#436,.T.);
#601=ORIENTED_EDGE('',*,*,#439,.T.);
#602=ORIENTED_EDGE('',*,*,#454,.F.);
#603=ORIENTED_EDGE('',*,*,#447,.F.);
#604=ORIENTED_EDGE('',*,*,#449,.T.);
#605=ORIENTED_EDGE('',*,*,#429,.T.);
#606=ORIENTED_EDGE('',*,*,#433,.T.);
#607=ORIENTED_EDGE('',*,*,#455,.T.);
#608=ORIENTED_EDGE('',*,*,#456,.F.);
#609=ORIENTED_EDGE('',*,*,#455,.F.);
#610=ORIENTED_EDGE('',*,*,#432,.T.);
#611=ORIENTED_EDGE('',*,*,#457,.T.);
#612=ORIENTED_EDGE('',*,*,#458,.F.);
#613=ORIENTED_EDGE('',*,*,#398,.F.);
#614=ORIENTED_EDGE('',*,*,#400,.F.);
#615=ORIENTED_EDGE('',*,*,#384,.F.);
#616=ORIENTED_EDGE('',*,*,#459,.F.);
#617=ORIENTED_EDGE('',*,*,#460,.T.);
#618=ORIENTED_EDGE('',*,*,#415,.T.);
#619=ORIENTED_EDGE('',*,*,#460,.F.);
#620=ORIENTED_EDGE('',*,*,#461,.F.);
#621=ORIENTED_EDGE('',*,*,#462,.T.);
#622=ORIENTED_EDGE('',*,*,#417,.T.);
#623=ORIENTED_EDGE('',*,*,#462,.F.);
#624=ORIENTED_EDGE('',*,*,#463,.F.);
#625=ORIENTED_EDGE('',*,*,#464,.T.);
#626=ORIENTED_EDGE('',*,*,#440,.T.);
#627=ORIENTED_EDGE('',*,*,#464,.F.);
#628=ORIENTED_EDGE('',*,*,#465,.F.);
#629=ORIENTED_EDGE('',*,*,#466,.T.);
#630=ORIENTED_EDGE('',*,*,#441,.T.);
#631=ORIENTED_EDGE('',*,*,#466,.F.);
#632=ORIENTED_EDGE('',*,*,#467,.F.);
#633=ORIENTED_EDGE('',*,*,#457,.F.);
#634=ORIENTED_EDGE('',*,*,#431,.T.);
#635=ORIENTED_EDGE('',*,*,#427,.T.);
#636=ORIENTED_EDGE('',*,*,#448,.T.);
#637=ORIENTED_EDGE('',*,*,#468,.T.);
#638=ORIENTED_EDGE('',*,*,#469,.F.);
#639=ORIENTED_EDGE('',*,*,#468,.F.);
#640=ORIENTED_EDGE('',*,*,#453,.T.);
#641=ORIENTED_EDGE('',*,*,#470,.T.);
#642=ORIENTED_EDGE('',*,*,#471,.F.);
#643=ORIENTED_EDGE('',*,*,#470,.F.);
#644=ORIENTED_EDGE('',*,*,#452,.T.);
#645=ORIENTED_EDGE('',*,*,#472,.F.);
#646=ORIENTED_EDGE('',*,*,#473,.F.);
#647=ORIENTED_EDGE('',*,*,#472,.T.);
#648=ORIENTED_EDGE('',*,*,#451,.F.);
#649=ORIENTED_EDGE('',*,*,#474,.T.);
#650=ORIENTED_EDGE('',*,*,#475,.F.);
#651=ORIENTED_EDGE('',*,*,#474,.F.);
#652=ORIENTED_EDGE('',*,*,#450,.F.);
#653=ORIENTED_EDGE('',*,*,#424,.T.);
#654=ORIENTED_EDGE('',*,*,#458,.T.);
#655=ORIENTED_EDGE('',*,*,#467,.T.);
#656=ORIENTED_EDGE('',*,*,#469,.T.);
#657=ORIENTED_EDGE('',*,*,#471,.T.);
#658=ORIENTED_EDGE('',*,*,#473,.T.);
#659=ORIENTED_EDGE('',*,*,#475,.T.);
#660=ORIENTED_EDGE('',*,*,#423,.T.);
#661=ORIENTED_EDGE('',*,*,#442,.T.);
#662=ORIENTED_EDGE('',*,*,#445,.T.);
#663=ORIENTED_EDGE('',*,*,#454,.T.);
#664=ORIENTED_EDGE('',*,*,#456,.T.);
#665=ORIENTED_EDGE('',*,*,#387,.F.);
#666=ORIENTED_EDGE('',*,*,#383,.F.);
#667=ORIENTED_EDGE('',*,*,#405,.T.);
#668=ORIENTED_EDGE('',*,*,#376,.T.);
#669=ORIENTED_EDGE('',*,*,#399,.F.);
#670=ORIENTED_EDGE('',*,*,#396,.T.);
#671=ORIENTED_EDGE('',*,*,#393,.T.);
#672=ORIENTED_EDGE('',*,*,#465,.T.);
#673=ORIENTED_EDGE('',*,*,#463,.T.);
#674=ORIENTED_EDGE('',*,*,#461,.T.);
#675=ORIENTED_EDGE('',*,*,#459,.T.);
#676=PLANE('',#753);
#677=PLANE('',#754);
#678=PLANE('',#761);
#679=PLANE('',#762);
#680=PLANE('',#763);
#681=PLANE('',#769);
#682=PLANE('',#770);
#683=PLANE('',#771);
#684=PLANE('',#772);
#685=PLANE('',#773);
#686=PLANE('',#776);
#687=PLANE('',#783);
#688=PLANE('',#784);
#689=PLANE('',#785);
#690=PLANE('',#794);
#691=PLANE('',#796);
#692=PLANE('',#801);
#693=PLANE('',#802);
#694=PLANE('',#808);
#695=PLANE('',#819);
#696=PLANE('',#822);
#697=PLANE('',#823);
#698=PLANE('',#824);
#699=ADVANCED_FACE('',(#82),#676,.F.);
#700=ADVANCED_FACE('',(#83),#677,.F.);
#701=ADVANCED_FACE('',(#84),#80,.F.);
#702=ADVANCED_FACE('',(#85),#81,.F.);
#703=ADVANCED_FACE('',(#86),#65,.F.);
#704=ADVANCED_FACE('',(#87),#66,.F.);
#705=ADVANCED_FACE('',(#88),#678,.F.);
#706=ADVANCED_FACE('',(#89),#679,.T.);
#707=ADVANCED_FACE('',(#90),#680,.F.);
#708=ADVANCED_FACE('',(#91),#67,.F.);
#709=ADVANCED_FACE('',(#92),#681,.F.);
#710=ADVANCED_FACE('',(#93,#23,#24),#682,.T.);
#711=ADVANCED_FACE('',(#94),#683,.T.);
#712=ADVANCED_FACE('',(#95),#684,.F.);
#713=ADVANCED_FACE('',(#96,#25),#685,.T.);
#714=ADVANCED_FACE('',(#97,#26),#686,.T.);
#715=ADVANCED_FACE('',(#98),#68,.F.);
#716=ADVANCED_FACE('',(#99),#69,.F.);
#717=ADVANCED_FACE('',(#100),#687,.T.);
#718=ADVANCED_FACE('',(#101),#688,.F.);
#719=ADVANCED_FACE('',(#102),#689,.T.);
#720=ADVANCED_FACE('',(#103),#70,.F.);
#721=ADVANCED_FACE('',(#104),#71,.F.);
#722=ADVANCED_FACE('',(#105,#27),#690,.T.);
#723=ADVANCED_FACE('',(#106,#28),#691,.T.);
#724=ADVANCED_FACE('',(#107),#72,.T.);
#725=ADVANCED_FACE('',(#108),#692,.T.);
#726=ADVANCED_FACE('',(#109,#29,#30,#31,#32),#693,.T.);
#727=ADVANCED_FACE('',(#110),#73,.T.);
#728=ADVANCED_FACE('',(#111),#694,.T.);
#729=ADVANCED_FACE('',(#112),#74,.F.);
#730=ADVANCED_FACE('',(#113),#75,.F.);
#731=ADVANCED_FACE('',(#114),#76,.F.);
#732=ADVANCED_FACE('',(#115),#77,.F.);
#733=ADVANCED_FACE('',(#116),#78,.T.);
#734=ADVANCED_FACE('',(#117),#695,.T.);
#735=ADVANCED_FACE('',(#118),#79,.T.);
#736=ADVANCED_FACE('',(#119),#696,.T.);
#737=ADVANCED_FACE('',(#120),#697,.T.);
#738=ADVANCED_FACE('',(#121,#33,#34,#35,#36,#37,#38),#698,.T.);
#739=CLOSED_SHELL('',(#699,#700,#701,#702,#703,#704,#705,#706,#707,#708,
#709,#710,#711,#712,#713,#714,#715,#716,#717,#718,#719,#720,#721,#722,#723,
#724,#725,#726,#727,#728,#729,#730,#731,#732,#733,#734,#735,#736,#737,#738));
#740=DERIVED_UNIT_ELEMENT(#742,1.);
#741=DERIVED_UNIT_ELEMENT(#1279,-3.);
#742=(
MASS_UNIT()
NAMED_UNIT(*)
SI_UNIT(.KILO.,.GRAM.)
);
#743=DERIVED_UNIT((#740,#741));
#744=MEASURE_REPRESENTATION_ITEM('density measure',
POSITIVE_RATIO_MEASURE(7850.),#743);
#745=PROPERTY_DEFINITION_REPRESENTATION(#750,#747);
#746=PROPERTY_DEFINITION_REPRESENTATION(#751,#748);
#747=REPRESENTATION('material name',(#749),#1276);
#748=REPRESENTATION('density',(#744),#1276);
#749=DESCRIPTIVE_REPRESENTATION_ITEM('\X2\94A2\X0\','\X2\94A2\X0\');
#750=PROPERTY_DEFINITION('material property','material name',#1286);
#751=PROPERTY_DEFINITION('material property','density of part',#1286);
#752=AXIS2_PLACEMENT_3D('',#1037,#825,#826);
#753=AXIS2_PLACEMENT_3D('',#1038,#827,#828);
#754=AXIS2_PLACEMENT_3D('',#1047,#833,#834);
#755=AXIS2_PLACEMENT_3D('',#1099,#846,#847);
#756=AXIS2_PLACEMENT_3D('',#1101,#848,#849);
#757=AXIS2_PLACEMENT_3D('',#1104,#851,#852);
#758=AXIS2_PLACEMENT_3D('',#1105,#853,#854);
#759=AXIS2_PLACEMENT_3D('',#1107,#855,#856);
#760=AXIS2_PLACEMENT_3D('',#1110,#858,#859);
#761=AXIS2_PLACEMENT_3D('',#1111,#860,#861);
#762=AXIS2_PLACEMENT_3D('',#1117,#865,#866);
#763=AXIS2_PLACEMENT_3D('',#1119,#868,#869);
#764=AXIS2_PLACEMENT_3D('',#1128,#874,#875);
#765=AXIS2_PLACEMENT_3D('',#1129,#876,#877);
#766=AXIS2_PLACEMENT_3D('',#1131,#878,#879);
#767=AXIS2_PLACEMENT_3D('',#1135,#881,#882);
#768=AXIS2_PLACEMENT_3D('',#1138,#884,#885);
#769=AXIS2_PLACEMENT_3D('',#1139,#886,#887);
#770=AXIS2_PLACEMENT_3D('',#1142,#890,#891);
#771=AXIS2_PLACEMENT_3D('',#1144,#893,#894);
#772=AXIS2_PLACEMENT_3D('',#1146,#896,#897);
#773=AXIS2_PLACEMENT_3D('',#1147,#898,#899);
#774=AXIS2_PLACEMENT_3D('',#1149,#900,#901);
#775=AXIS2_PLACEMENT_3D('',#1151,#902,#903);
#776=AXIS2_PLACEMENT_3D('',#1152,#904,#905);
#777=AXIS2_PLACEMENT_3D('',#1154,#906,#907);
#778=AXIS2_PLACEMENT_3D('',#1156,#908,#909);
#779=AXIS2_PLACEMENT_3D('',#1157,#910,#911);
#780=AXIS2_PLACEMENT_3D('',#1159,#912,#913);
#781=AXIS2_PLACEMENT_3D('',#1161,#915,#916);
#782=AXIS2_PLACEMENT_3D('',#1163,#917,#918);
#783=AXIS2_PLACEMENT_3D('',#1165,#920,#921);
#784=AXIS2_PLACEMENT_3D('',#1174,#926,#927);
#785=AXIS2_PLACEMENT_3D('',#1183,#932,#933);
#786=AXIS2_PLACEMENT_3D('',#1185,#934,#935);
#787=AXIS2_PLACEMENT_3D('',#1188,#937,#938);
#788=AXIS2_PLACEMENT_3D('',#1189,#939,#940);
#789=AXIS2_PLACEMENT_3D('',#1191,#941,#942);
#790=AXIS2_PLACEMENT_3D('',#1194,#944,#945);
#791=AXIS2_PLACEMENT_3D('',#1195,#946,#947);
#792=AXIS2_PLACEMENT_3D('',#1197,#948,#949);
#793=AXIS2_PLACEMENT_3D('',#1200,#951,#952);
#794=AXIS2_PLACEMENT_3D('',#1201,#953,#954);
#795=AXIS2_PLACEMENT_3D('',#1203,#955,#956);
#796=AXIS2_PLACEMENT_3D('',#1204,#957,#958);
#797=AXIS2_PLACEMENT_3D('',#1206,#959,#960);
#798=AXIS2_PLACEMENT_3D('',#1207,#961,#962);
#799=AXIS2_PLACEMENT_3D('',#1209,#963,#964);
#800=AXIS2_PLACEMENT_3D('',#1211,#965,#966);
#801=AXIS2_PLACEMENT_3D('',#1213,#968,#969);
#802=AXIS2_PLACEMENT_3D('',#1219,#973,#974);
#803=AXIS2_PLACEMENT_3D('',#1221,#975,#976);
#804=AXIS2_PLACEMENT_3D('',#1222,#977,#978);
#805=AXIS2_PLACEMENT_3D('',#1228,#981,#982);
#806=AXIS2_PLACEMENT_3D('',#1230,#984,#985);
#807=AXIS2_PLACEMENT_3D('',#1232,#986,#987);
#808=AXIS2_PLACEMENT_3D('',#1234,#989,#990);
#809=AXIS2_PLACEMENT_3D('',#1239,#994,#995);
#810=AXIS2_PLACEMENT_3D('',#1241,#996,#997);
#811=AXIS2_PLACEMENT_3D('',#1243,#999,#1000);
#812=AXIS2_PLACEMENT_3D('',#1245,#1001,#1002);
#813=AXIS2_PLACEMENT_3D('',#1247,#1004,#1005);
#814=AXIS2_PLACEMENT_3D('',#1249,#1006,#1007);
#815=AXIS2_PLACEMENT_3D('',#1251,#1009,#1010);
#816=AXIS2_PLACEMENT_3D('',#1253,#1011,#1012);
#817=AXIS2_PLACEMENT_3D('',#1255,#1014,#1015);
#818=AXIS2_PLACEMENT_3D('',#1257,#1016,#1017);
#819=AXIS2_PLACEMENT_3D('',#1259,#1019,#1020);
#820=AXIS2_PLACEMENT_3D('',#1263,#1023,#1024);
#821=AXIS2_PLACEMENT_3D('',#1265,#1025,#1026);
#822=AXIS2_PLACEMENT_3D('',#1267,#1028,#1029);
#823=AXIS2_PLACEMENT_3D('',#1271,#1032,#1033);
#824=AXIS2_PLACEMENT_3D('',#1273,#1035,#1036);
#825=DIRECTION('axis',(0.,0.,1.));
#826=DIRECTION('refdir',(1.,0.,0.));
#827=DIRECTION('center_axis',(0.999999999769512,-2.14703333562641E-5,0.));
#828=DIRECTION('ref_axis',(2.14703333562641E-5,0.999999999769512,0.));
#829=DIRECTION('',(2.14703333562641E-5,0.999999999769512,0.));
#830=DIRECTION('',(0.,0.,1.));
#831=DIRECTION('',(-2.14703333562641E-5,-0.999999999769512,0.));
#832=DIRECTION('',(-5.55693117849607E-6,-0.258819045098525,0.965925826274155));
#833=DIRECTION('center_axis',(-1.,4.86533014035955E-16,0.));
#834=DIRECTION('ref_axis',(-4.86533014035955E-16,-1.,0.));
#835=DIRECTION('',(1.25924010103637E-16,0.258819045102521,-0.965925826289068));
#836=DIRECTION('',(4.86533014035955E-16,1.,0.));
#837=DIRECTION('',(0.,0.,1.));
#838=DIRECTION('',(4.86533014035955E-16,1.,0.));
#839=DIRECTION('',(1.67364895124948E-6,-0.258816016551795,0.965926637780251));
#840=DIRECTION('',(-0.917578260010971,-0.384007514983891,-0.102899782269623));
#841=DIRECTION('',(-0.893037134355466,-0.433196362365863,0.12176037243357));
#842=DIRECTION('',(0.91241750179149,0.409260677838193,0.));
#843=DIRECTION('',(0.999999999769512,-2.14703333559404E-5,-2.2899873550717E-21));
#844=DIRECTION('',(0.893003481951494,-0.433266827947739,0.121756466040259));
#845=DIRECTION('',(-1.,0.,0.));
#846=DIRECTION('center_axis',(-1.30949382391685E-15,-1.13869028166683E-16,
-1.));
#847=DIRECTION('ref_axis',(1.,-6.93889390390764E-18,-1.30949382391685E-15));
#848=DIRECTION('center_axis',(-1.31897260041008E-15,-1.09721259855533E-16,
-1.));
#849=DIRECTION('ref_axis',(1.,-6.93889390390764E-18,-1.31897260041008E-15));
#850=DIRECTION('',(-1.30949382391685E-15,-1.13869028166683E-16,-1.));
#851=DIRECTION('center_axis',(0.,0.,1.));
#852=DIRECTION('ref_axis',(1.,-6.93889390390764E-18,0.));
#853=DIRECTION('center_axis',(-1.30949382391685E-15,-1.13869028166683E-16,
-1.));
#854=DIRECTION('ref_axis',(1.,-6.93889390390764E-18,-1.30949382391685E-15));
#855=DIRECTION('center_axis',(-1.31897260041008E-15,-1.09721259855533E-16,
-1.));
#856=DIRECTION('ref_axis',(1.,-6.93889390390764E-18,-1.31897260041008E-15));
#857=DIRECTION('',(-1.30949382391685E-15,-1.13869028166683E-16,-1.));
#858=DIRECTION('center_axis',(0.,0.,1.));
#859=DIRECTION('ref_axis',(1.,-6.93889390390764E-18,0.));
#860=DIRECTION('center_axis',(0.397626466525441,0.886282138550372,0.237480870819256));
#861=DIRECTION('ref_axis',(-1.38777878078145E-16,-0.258821371186773,0.96592520301367));
#862=DIRECTION('',(-0.917547379205898,0.384078992903774,0.102908377318906));
#863=DIRECTION('',(1.27922744073657E-5,0.258816016425798,-0.965926637730754));
#864=DIRECTION('',(0.912383406586614,-0.409336682188887,2.70122352625458E-16));
#865=DIRECTION('center_axis',(-5.55693117606418E-6,-0.258819044987208,0.965925826303982));
#866=DIRECTION('ref_axis',(0.999999999983452,-8.470329472543E-22,5.75295848257341E-6));
#867=DIRECTION('',(-0.99999999998456,1.438222790666E-6,-5.36758784746244E-6));
#868=DIRECTION('center_axis',(0.,1.,-1.09721259855533E-16));
#869=DIRECTION('ref_axis',(0.,1.09721259855533E-16,1.));
#870=DIRECTION('',(1.,1.44719335431922E-31,0.));
#871=DIRECTION('',(-1.31897260041008E-15,-1.09721259855533E-16,-1.));
#872=DIRECTION('',(-1.,0.,0.));
#873=DIRECTION('',(1.31897260041008E-15,1.09721259855533E-16,1.));
#874=DIRECTION('center_axis',(0.,0.,-1.));
#875=DIRECTION('ref_axis',(1.,0.,0.));
#876=DIRECTION('center_axis',(0.,0.,1.));
#877=DIRECTION('ref_axis',(1.,0.,0.));
#878=DIRECTION('center_axis',(0.,0.,1.));
#879=DIRECTION('ref_axis',(1.,0.,0.));
#880=DIRECTION('',(0.,0.,-1.));
#881=DIRECTION('center_axis',(1.31897260041008E-15,1.09721259855533E-16,
1.));
#882=DIRECTION('ref_axis',(1.,-1.44719335431922E-31,-1.31897260041008E-15));
#883=DIRECTION('',(0.,0.,1.));
#884=DIRECTION('center_axis',(0.,0.,-1.));
#885=DIRECTION('ref_axis',(1.,0.,0.));
#886=DIRECTION('center_axis',(-1.,0.,0.));
#887=DIRECTION('ref_axis',(0.,0.,1.));
#888=DIRECTION('',(0.,1.,0.));
#889=DIRECTION('',(0.,-1.,1.09721259855533E-16));
#890=DIRECTION('center_axis',(1.31897260041008E-15,1.09721259855533E-16,
1.));
#891=DIRECTION('ref_axis',(1.,-6.93889390390764E-18,-1.31897260041008E-15));
#892=DIRECTION('',(0.,1.,-1.09721259855533E-16));
#893=DIRECTION('center_axis',(0.,0.,1.));
#894=DIRECTION('ref_axis',(1.,0.,0.));
#895=DIRECTION('',(0.,-1.,0.));
#896=DIRECTION('center_axis',(1.,0.,0.));
#897=DIRECTION('ref_axis',(0.,0.,-1.));
#898=DIRECTION('center_axis',(0.,0.258816016446974,-0.965926637809787));
#899=DIRECTION('ref_axis',(-1.,0.,0.));
#900=DIRECTION('center_axis',(0.,-0.258816016446974,0.965926637809787));
#901=DIRECTION('ref_axis',(-1.,0.,0.));
#902=DIRECTION('center_axis',(0.,0.258816016446974,-0.965926637809787));
#903=DIRECTION('ref_axis',(1.,0.,0.));
#904=DIRECTION('center_axis',(0.,0.258816016446974,-0.965926637809787));
#905=DIRECTION('ref_axis',(-1.,0.,0.));
#906=DIRECTION('center_axis',(0.,-0.258816016446974,0.965926637809787));
#907=DIRECTION('ref_axis',(-1.,0.,0.));
#908=DIRECTION('center_axis',(0.,0.258816016446974,-0.965926637809787));
#909=DIRECTION('ref_axis',(1.,0.,0.));
#910=DIRECTION('center_axis',(0.,0.258816016446974,-0.965926637809787));
#911=DIRECTION('ref_axis',(1.,0.,0.));
#912=DIRECTION('center_axis',(0.,0.258816016446974,-0.965926637809787));
#913=DIRECTION('ref_axis',(1.,0.,0.));
#914=DIRECTION('',(0.,0.258816016446974,-0.965926637809787));
#915=DIRECTION('center_axis',(0.,0.258816016446974,-0.965926637809787));
#916=DIRECTION('ref_axis',(1.,0.,0.));
#917=DIRECTION('center_axis',(0.,0.258816016446974,-0.965926637809787));
#918=DIRECTION('ref_axis',(1.,0.,0.));
#919=DIRECTION('',(0.,0.258816016446974,-0.965926637809787));
#920=DIRECTION('center_axis',(0.,0.965926637809787,0.258816016446974));
#921=DIRECTION('ref_axis',(1.,0.,0.));
#922=DIRECTION('',(1.,0.,0.));
#923=DIRECTION('',(0.,0.258816016446974,-0.965926637809787));
#924=DIRECTION('',(-1.,0.,0.));
#925=DIRECTION('',(0.,-0.258816016446974,0.965926637809787));
#926=DIRECTION('center_axis',(0.,-0.965926637809787,-0.258816016446974));
#927=DIRECTION('ref_axis',(0.,0.258816016446974,-0.965926637809787));
#928=DIRECTION('',(0.,0.258816016446974,-0.965926637809787));
#929=DIRECTION('',(-1.,0.,0.));
#930=DIRECTION('',(0.,-0.258816016446974,0.965926637809787));
#931=DIRECTION('',(1.,0.,0.));
#932=DIRECTION('center_axis',(2.74953473457174E-21,-0.258816016446974,0.965926637809787));
#933=DIRECTION('ref_axis',(1.,7.11623627084446E-22,-2.65584884170611E-21));
#934=DIRECTION('center_axis',(-2.74953473457174E-21,0.258816016446974,-0.965926637809787));
#935=DIRECTION('ref_axis',(-0.707106781186548,-0.683013275724022,-0.183010560309344));
#936=DIRECTION('',(-1.,0.,0.));
#937=DIRECTION('center_axis',(-2.74953473457174E-21,0.258816016446974,-0.965926637809787));
#938=DIRECTION('ref_axis',(0.707106781186548,-0.683013275724022,-0.183010560309344));
#939=DIRECTION('center_axis',(0.,-0.258816016446974,0.965926637809787));
#940=DIRECTION('ref_axis',(-1.,0.,0.));
#941=DIRECTION('center_axis',(0.,0.258816016446974,-0.965926637809787));
#942=DIRECTION('ref_axis',(-1.,0.,0.));
#943=DIRECTION('',(0.,-0.258816016446974,0.965926637809787));
#944=DIRECTION('center_axis',(0.,0.258816016446974,-0.965926637809787));
#945=DIRECTION('ref_axis',(-1.,0.,0.));
#946=DIRECTION('center_axis',(0.,-0.258816016446974,0.965926637809787));
#947=DIRECTION('ref_axis',(-1.,0.,0.));
#948=DIRECTION('center_axis',(0.,0.258816016446974,-0.965926637809787));
#949=DIRECTION('ref_axis',(-1.,0.,0.));
#950=DIRECTION('',(0.,-0.258816016446974,0.965926637809787));
#951=DIRECTION('center_axis',(0.,0.258816016446974,-0.965926637809787));
#952=DIRECTION('ref_axis',(-1.,0.,0.));
#953=DIRECTION('center_axis',(0.,0.258816016446974,-0.965926637809787));
#954=DIRECTION('ref_axis',(-1.,0.,0.));
#955=DIRECTION('center_axis',(0.,-0.258816016446974,0.965926637809787));
#956=DIRECTION('ref_axis',(-1.,0.,0.));
#957=DIRECTION('center_axis',(0.,0.258816016446974,-0.965926637809787));
#958=DIRECTION('ref_axis',(-1.,0.,0.));
#959=DIRECTION('center_axis',(0.,-0.258816016446974,0.965926637809787));
#960=DIRECTION('ref_axis',(-1.,0.,0.));
#961=DIRECTION('center_axis',(0.,-0.258816016446974,0.965926637809787));
#962=DIRECTION('ref_axis',(0.707106781186548,0.683013275724022,0.183010560309344));
#963=DIRECTION('center_axis',(0.,0.,-1.));
#964=DIRECTION('ref_axis',(1.76945008910206E-15,1.,0.));
#965=DIRECTION('center_axis',(0.,0.258816016446974,-0.965926637809787));
#966=DIRECTION('ref_axis',(0.707106781186548,0.683013275724022,0.183010560309344));
#967=DIRECTION('',(0.,0.258816016446974,-0.965926637809787));
#968=DIRECTION('center_axis',(1.,0.,0.));
#969=DIRECTION('ref_axis',(0.,0.,-1.));
#970=DIRECTION('',(0.,-1.,0.));
#971=DIRECTION('',(3.18663188450774E-16,-0.965926637809787,-0.258816016446974));
#972=DIRECTION('',(0.,0.258816016446974,-0.965926637809787));
#973=DIRECTION('center_axis',(0.,-0.258816016446974,0.965926637809787));
#974=DIRECTION('ref_axis',(1.,0.,0.));
#975=DIRECTION('center_axis',(0.,0.258816016446974,-0.965926637809787));
#976=DIRECTION('ref_axis',(-0.707106781186548,-0.683013275724022,-0.183010560309344));
#977=DIRECTION('center_axis',(0.,0.258816016446974,-0.965926637809787));
#978=DIRECTION('ref_axis',(0.707106781186548,-0.683013275724022,-0.183010560309344));
#979=DIRECTION('',(0.,-0.965926637809787,-0.258816016446974));
#980=DIRECTION('',(-0.999999796168275,0.000616729906137742,0.000165250207709583));
#981=DIRECTION('center_axis',(0.,0.258816016446974,-0.965926637809787));
#982=DIRECTION('ref_axis',(-0.2,0.946410956638446,0.253586871021946));
#983=DIRECTION('',(0.,0.965926637809787,0.258816016446975));
#984=DIRECTION('center_axis',(0.,0.258816016446974,-0.965926637809787));
#985=DIRECTION('ref_axis',(0.707106781186548,-0.683013275724022,-0.183010560309344));
#986=DIRECTION('center_axis',(0.,0.,-1.));
#987=DIRECTION('ref_axis',(1.76945008910206E-15,-1.,0.));
#988=DIRECTION('',(0.,0.258816016446974,-0.965926637809787));
#989=DIRECTION('center_axis',(0.,-0.965926637809787,-0.258816016446974));
#990=DIRECTION('ref_axis',(-1.,0.,0.));
#991=DIRECTION('',(-1.,0.,0.));
#992=DIRECTION('',(0.,0.258816016446974,-0.965926637809787));
#993=DIRECTION('',(-1.,0.,0.));
#994=DIRECTION('center_axis',(0.,-0.258816016446974,0.965926637809787));
#995=DIRECTION('ref_axis',(-1.,0.,0.));
#996=DIRECTION('center_axis',(0.,0.,1.));
#997=DIRECTION('ref_axis',(0.,-1.,0.));
#998=DIRECTION('',(0.,-0.258816016446974,0.965926637809787));
#999=DIRECTION('center_axis',(0.,-0.258816016446974,0.965926637809787));
#1000=DIRECTION('ref_axis',(-1.,0.,0.));
#1001=DIRECTION('center_axis',(0.,0.,1.));
#1002=DIRECTION('ref_axis',(0.,-1.,0.));
#1003=DIRECTION('',(0.,-0.258816016446974,0.965926637809787));
#1004=DIRECTION('center_axis',(0.,-0.258816016446975,0.965926637809787));
#1005=DIRECTION('ref_axis',(-1.,0.,0.));
#1006=DIRECTION('center_axis',(0.,0.,1.));
#1007=DIRECTION('ref_axis',(0.,-1.,0.));
#1008=DIRECTION('',(0.,-0.258816016446975,0.965926637809787));
#1009=DIRECTION('center_axis',(0.,-0.258816016446975,0.965926637809787));
#1010=DIRECTION('ref_axis',(-1.,0.,0.));
#1011=DIRECTION('center_axis',(0.,0.,1.));
#1012=DIRECTION('ref_axis',(0.,-1.,0.));
#1013=DIRECTION('',(0.,-0.258816016446975,0.965926637809787));
#1014=DIRECTION('center_axis',(0.,-0.258816016446974,0.965926637809787));
#1015=DIRECTION('ref_axis',(-0.707106781186548,-0.683013275724022,-0.183010560309344));
#1016=DIRECTION('center_axis',(0.,0.,-1.));
#1017=DIRECTION('ref_axis',(-1.76945008910206E-15,-1.,0.));
#1018=DIRECTION('',(0.,0.258816016446974,-0.965926637809787));
#1019=DIRECTION('center_axis',(-1.,0.,0.));
#1020=DIRECTION('ref_axis',(0.,0.,1.));
#1021=DIRECTION('',(0.,1.,0.));
#1022=DIRECTION('',(0.,0.258816016446974,-0.965926637809787));
#1023=DIRECTION('center_axis',(0.,-0.258816016446974,0.965926637809787));
#1024=DIRECTION('ref_axis',(-0.2,0.946410956638446,0.253586871021946));
#1025=DIRECTION('center_axis',(0.,0.,-1.));
#1026=DIRECTION('ref_axis',(1.34049249174399E-16,1.,0.));
#1027=DIRECTION('',(0.,-0.258816016446974,0.965926637809787));
#1028=DIRECTION('center_axis',(0.000638485245148804,0.965926440923294,0.258815963692059));
#1029=DIRECTION('ref_axis',(0.999999796168275,-0.000616729906137742,-0.000165250207709583));
#1030=DIRECTION('',(0.999999781534188,-0.000661008000827994,0.));
#1031=DIRECTION('',(0.,0.258816016446974,-0.965926637809787));
#1032=DIRECTION('center_axis',(-1.,0.,0.));
#1033=DIRECTION('ref_axis',(0.,0.965926637809787,0.258816016446974));
#1034=DIRECTION('',(0.,1.,0.));
#1035=DIRECTION('center_axis',(0.,0.,-1.));
#1036=DIRECTION('ref_axis',(-1.,0.,0.));
#1037=CARTESIAN_POINT('',(0.,0.,0.));
#1038=CARTESIAN_POINT('Origin',(-18.00140067914,25.5748381898334,-42.));
#1039=CARTESIAN_POINT('',(-18.0014753886077,22.0951778411796,-22.));
#1040=CARTESIAN_POINT('',(-18.0010564731725,41.6065393159452,-22.));
#1041=CARTESIAN_POINT('',(-18.0010941486466,39.8517703767057,-22.));
#1042=CARTESIAN_POINT('',(-18.0014753886077,22.0951778411796,0.));
#1043=CARTESIAN_POINT('',(-18.0014753886077,22.0951778411796,0.));
#1044=CARTESIAN_POINT('',(-18.0011830382591,35.7116570824605,0.));
#1045=CARTESIAN_POINT('',(-18.0014388377349,23.7975674653102,0.));
#1046=CARTESIAN_POINT('',(-18.0010307662586,42.8038618464353,-26.4684685168359));
#1047=CARTESIAN_POINT('Origin',(18.,90.8127232473117,-42.));
#1048=CARTESIAN_POINT('',(18.,35.7116570824605,0.));
#1049=CARTESIAN_POINT('',(18.,41.6065393159452,-22.));
#1050=CARTESIAN_POINT('',(18.,44.9889037289367,-34.623155838997));
#1051=CARTESIAN_POINT('',(18.,22.0963797939844,0.));
#1052=CARTESIAN_POINT('',(18.,25.5,0.));
#1053=CARTESIAN_POINT('',(18.,22.0963797939844,-22.));
#1054=CARTESIAN_POINT('',(18.,22.0963797939844,0.));
#1055=CARTESIAN_POINT('',(18.,58.1563616236558,-22.));
#1056=CARTESIAN_POINT('Ctrl Pts',(37.,44.6618887579948,-1.5965728777724));
#1057=CARTESIAN_POINT('Ctrl Pts',(30.6666666666666,41.57785173331,-0.688838834169818));
#1058=CARTESIAN_POINT('Ctrl Pts',(24.3333333333333,38.4938147086252,0.218895209432765));
#1059=CARTESIAN_POINT('Ctrl Pts',(18.,35.4097776839404,1.12662925303535));
#1060=CARTESIAN_POINT('Ctrl Pts',(37.0000509533412,46.4842493636564,-8.39771525189653));
#1061=CARTESIAN_POINT('Ctrl Pts',(30.6667006355608,43.4812878739738,-7.79255922281206));
#1062=CARTESIAN_POINT('Ctrl Pts',(24.3333503177804,40.4783263842913,-7.18740319372761));
#1063=CARTESIAN_POINT('Ctrl Pts',(18.,37.4753648946087,-6.58224716464314));
#1064=CARTESIAN_POINT('Ctrl Pts',(37.0001019066824,48.3066099693181,-15.1988576260207));
#1065=CARTESIAN_POINT('Ctrl Pts',(30.6667346044549,45.3847240146377,-14.8962796114543));
#1066=CARTESIAN_POINT('Ctrl Pts',(24.3333673022274,42.4628380599573,-14.593701596888));
#1067=CARTESIAN_POINT('Ctrl Pts',(18.,39.540952105277,-14.2911235823216));
#1068=CARTESIAN_POINT('Ctrl Pts',(37.0001528600236,50.1289705749797,-22.0000000001448));
#1069=CARTESIAN_POINT('Ctrl Pts',(30.666768573349,47.2881601553016,-22.0000000000966));
#1070=CARTESIAN_POINT('Ctrl Pts',(24.3333842866745,44.4473497356234,-22.0000000000483));
#1071=CARTESIAN_POINT('Ctrl Pts',(18.,41.6065393159453,-22.0000000000001));
#1072=CARTESIAN_POINT('',(33.0142154567615,48.3410966682298,-22.0000000000001));
#1073=CARTESIAN_POINT('',(33.0142500345172,42.9938479955589,-2.04354598265732));
#1074=CARTESIAN_POINT('',(33.0142154567616,48.3410966682604,-22.0000000001145));
#1075=CARTESIAN_POINT('',(32.9999277598947,42.9878541087207,-2.04515212218985));
#1076=CARTESIAN_POINT('',(37.,44.6618887579947,-1.5965728777724));
#1077=CARTESIAN_POINT('',(32.9999277598947,42.9878541087207,-2.04515212218985));
#1078=CARTESIAN_POINT('',(18.,41.6065393159453,-22.0000000000001));
#1079=CARTESIAN_POINT('Ctrl Pts',(-33.0010267889159,42.989271171217,-2.04515212218984));
#1080=CARTESIAN_POINT('Ctrl Pts',(-28.0010788720303,40.5633998082982,-1.36343474812656));
#1081=CARTESIAN_POINT('Ctrl Pts',(-23.0011309551447,38.1375284453793,-0.681717374063281));
#1082=CARTESIAN_POINT('Ctrl Pts',(-18.0011830382591,35.7116570824605,6.77726565041776E-21));
#1083=CARTESIAN_POINT('Ctrl Pts',(-11.000708605979,42.9887988170515,-2.04515212218984));
#1084=CARTESIAN_POINT('Ctrl Pts',(-9.33406863471029,40.5630849055212,-1.36343474812656));
#1085=CARTESIAN_POINT('Ctrl Pts',(-7.66742866344153,38.1373709939909,-0.681717374063282));
#1086=CARTESIAN_POINT('Ctrl Pts',(-6.00078869217277,35.7116570824605,-3.38746374076162E-21));
#1087=CARTESIAN_POINT('Ctrl Pts',(10.9996095769578,42.9883264628861,-2.04515212218984));
#1088=CARTESIAN_POINT('Ctrl Pts',(9.33294160260975,40.5627700027442,-1.36343474812656));
#1089=CARTESIAN_POINT('Ctrl Pts',(7.66627362826168,38.1372135426024,-0.681717374063281));
#1090=CARTESIAN_POINT('Ctrl Pts',(5.99960565391361,35.7116570824605,-1.3552193131941E-20));
#1091=CARTESIAN_POINT('Ctrl Pts',(32.9999277598947,42.9878541087207,-2.04515212218984));
#1092=CARTESIAN_POINT('Ctrl Pts',(27.9999518399298,40.5624550999673,-1.36343474812656));
#1093=CARTESIAN_POINT('Ctrl Pts',(22.9999759199649,38.1370560912139,-0.681717374063281));
#1094=CARTESIAN_POINT('Ctrl Pts',(18.,35.7116570824605,-2.37169225231204E-20));
#1095=CARTESIAN_POINT('',(-33.0010267889812,42.9892711701834,-2.04515212236556));
#1096=CARTESIAN_POINT('',(-18.0010267923732,42.9889491162166,-2.04515212218984));
#1097=CARTESIAN_POINT('',(-33.0010267889159,42.989271171217,-2.04515212218985));
#1098=CARTESIAN_POINT('',(-10.,35.7116570824605,0.));
#1099=CARTESIAN_POINT('Origin',(10.7920931067205,29.9992412736477,-4.89999999999998));
#1100=CARTESIAN_POINT('',(9.44209310672044,29.9992412736477,-16.9));
#1101=CARTESIAN_POINT('Origin',(10.7920931067204,29.9992412736477,-16.9));
#1102=CARTESIAN_POINT('',(9.44209310672043,29.9992412736477,-22.));
#1103=CARTESIAN_POINT('',(9.4420931067205,29.9992412736477,-4.89999999999998));
#1104=CARTESIAN_POINT('Origin',(10.7920931067204,29.9992412736477,-22.));
#1105=CARTESIAN_POINT('Origin',(-11.2079068932795,29.9992412736477,-4.89999999999998));
#1106=CARTESIAN_POINT('',(-12.5579068932796,29.9992412736477,-16.8999999999999));
#1107=CARTESIAN_POINT('Origin',(-11.2079068932796,29.9992412736477,-16.8999999999999));
#1108=CARTESIAN_POINT('',(-12.5579068932796,29.9992412736477,-22.));
#1109=CARTESIAN_POINT('',(-12.5579068932795,29.9992412736477,-4.89999999999998));
#1110=CARTESIAN_POINT('Origin',(-11.2079068932796,29.9992412736477,-22.));
#1111=CARTESIAN_POINT('Origin',(-33.0009119895045,48.3361565426973,-22.));
#1112=CARTESIAN_POINT('',(-33.0121874798162,42.9939429570105,-2.04390038516684));
#1113=CARTESIAN_POINT('',(-26.686771095273,40.3461673655473,-2.75333332645335));
#1114=CARTESIAN_POINT('',(-33.011923190695,48.3410966682297,-22.));
#1115=CARTESIAN_POINT('',(-33.0120553393383,45.6674372130979,-12.0216419231036));
#1116=CARTESIAN_POINT('',(-33.0009119895045,48.3361565426973,-22.));
#1117=CARTESIAN_POINT('Origin',(-18.0010267923732,42.9889491162166,-2.04515212218986));
#1118=CARTESIAN_POINT('',(14.9327437441542,42.9938740015177,-2.04364303653665));
#1119=CARTESIAN_POINT('Origin',(12.2920931067204,34.5324829057477,-16.9));
#1120=CARTESIAN_POINT('',(-15.8079068932796,34.5324829057477,0.));
#1121=CARTESIAN_POINT('',(15.3920931067204,34.5324829057477,0.));
#1122=CARTESIAN_POINT('',(-2.7039534466398,34.5324829057477,0.));
#1123=CARTESIAN_POINT('',(-15.8079068932796,34.5324829057477,-16.9));
#1124=CARTESIAN_POINT('',(-15.8079068932796,34.5324829057477,-16.8999999999999));
#1125=CARTESIAN_POINT('',(15.3920931067204,34.5324829057477,-16.9));
#1126=CARTESIAN_POINT('',(-15.0079068932796,34.5324829057477,-16.9));
#1127=CARTESIAN_POINT('',(15.3920931067204,34.5324829057477,-16.9));
#1128=CARTESIAN_POINT('Origin',(0.,0.,0.));
#1129=CARTESIAN_POINT('Origin',(0.,0.,-22.));
#1130=CARTESIAN_POINT('',(15.3920931067204,23.9861099345861,0.));
#1131=CARTESIAN_POINT('Origin',(0.,0.,0.));
#1132=CARTESIAN_POINT('',(15.3920931067204,23.9861099345861,-16.9));
#1133=CARTESIAN_POINT('',(15.3920931067204,23.9861099345861,0.));
#1134=CARTESIAN_POINT('',(-15.8079068932796,23.7141324878943,-16.9));
#1135=CARTESIAN_POINT('Origin',(0.,0.,-16.9));
#1136=CARTESIAN_POINT('',(-15.8079068932796,23.7141324878943,0.));
#1137=CARTESIAN_POINT('',(-15.8079068932796,23.7141324878943,0.));
#1138=CARTESIAN_POINT('Origin',(0.,0.,0.));
#1139=CARTESIAN_POINT('Origin',(-15.8079068932796,31.7324829057478,-16.8999999999999));
#1140=CARTESIAN_POINT('',(-15.8079068932796,28.6162414528739,0.));
#1141=CARTESIAN_POINT('',(-15.8079068932796,34.0324829057477,-16.9));
#1142=CARTESIAN_POINT('Origin',(-0.207906893279564,144.499241273648,-16.9));
#1143=CARTESIAN_POINT('',(15.3920931067204,34.0324829057477,-16.9));
#1144=CARTESIAN_POINT('Origin',(-20.,25.5,0.));
#1145=CARTESIAN_POINT('',(15.3920931067204,24.8104041934739,0.));
#1146=CARTESIAN_POINT('Origin',(15.3920931067204,24.1208083869478,-16.9));
#1147=CARTESIAN_POINT('Origin',(22.4167124852992,61.8717013868396,-16.6555062193208));
#1148=CARTESIAN_POINT('',(25.2167124852992,61.8717013868396,-16.6555062193208));
#1149=CARTESIAN_POINT('Origin',(22.4167124852992,61.8717013868396,-16.6555062193208));
#1150=CARTESIAN_POINT('',(20.8167124852992,61.8717013868396,-16.6555062193208));
#1151=CARTESIAN_POINT('Origin',(22.4167124852992,61.8717013868396,-16.6555062193208));
#1152=CARTESIAN_POINT('Origin',(-22.4984216150612,62.0150768015352,-16.6170893745674));
#1153=CARTESIAN_POINT('',(-19.6984216150612,62.0150768015352,-16.6170893745674));
#1154=CARTESIAN_POINT('Origin',(-22.4984216150612,62.0150768015352,-16.6170893745674));
#1155=CARTESIAN_POINT('',(-24.0984216150612,62.0150768015352,-16.6170893745674));
#1156=CARTESIAN_POINT('Origin',(-22.4984216150612,62.0150768015352,-16.6170893745674));
#1157=CARTESIAN_POINT('Origin',(-22.4984216150612,60.9798127357473,-12.7533828233282));
#1158=CARTESIAN_POINT('',(-24.0984216150612,60.9798127357473,-12.7533828233282));
#1159=CARTESIAN_POINT('Origin',(-22.4984216150612,60.9798127357473,-12.7533828233282));
#1160=CARTESIAN_POINT('',(-24.0984216150612,60.9798127357473,-12.7533828233282));
#1161=CARTESIAN_POINT('Origin',(22.4167124852992,60.8364373210517,-12.7917996680817));
#1162=CARTESIAN_POINT('',(20.8167124852992,60.8364373210517,-12.7917996680817));
#1163=CARTESIAN_POINT('Origin',(22.4167124852992,60.8364373210517,-12.7917996680817));
#1164=CARTESIAN_POINT('',(20.8167124852992,60.8364373210517,-12.7917996680817));
#1165=CARTESIAN_POINT('Origin',(-36.9970889517406,69.9161596558416,5.17020374500938));
#1166=CARTESIAN_POINT('',(-36.9970889517406,77.1963024990781,-22.));
#1167=CARTESIAN_POINT('',(45.8665142809871,77.1963024990714,-22.));
#1168=CARTESIAN_POINT('',(-18.5056494385266,77.1963024990714,-22.));
#1169=CARTESIAN_POINT('',(-36.9970889517406,73.7983999025524,-9.31869582213577));
#1170=CARTESIAN_POINT('',(-36.9970889517406,69.9161596558478,5.17020374501103));
#1171=CARTESIAN_POINT('',(45.8665142809871,73.7983999025462,-9.31869582213743));
#1172=CARTESIAN_POINT('',(-18.5056494385266,73.7983999025462,-9.31869582213743));
#1173=CARTESIAN_POINT('',(45.8665142809871,69.9161596558416,5.17020374500938));
#1174=CARTESIAN_POINT('Origin',(37.,49.6459386913748,-22.1294080082235));
#1175=CARTESIAN_POINT('',(-50.6941548940811,44.1789254390899,-1.72598088599589));
#1176=CARTESIAN_POINT('',(-50.6941548940811,48.0611656857945,-16.2148804531427));
#1177=CARTESIAN_POINT('',(-50.6941548940811,44.1789254390899,-1.72598088599588));
#1178=CARTESIAN_POINT('',(50.6657350434558,44.1789254390899,-1.72598088599589));
#1179=CARTESIAN_POINT('',(-47.8949341316124,44.1789254390899,-1.72598088599589));
#1180=CARTESIAN_POINT('',(50.6657350434558,48.0611656857945,-16.2148804531427));
#1181=CARTESIAN_POINT('',(50.6657350434558,44.1789254390899,-1.72598088599587));
#1182=CARTESIAN_POINT('',(-20.0598809200963,48.0611656857945,-16.2148804531427));
#1183=CARTESIAN_POINT('Origin',(0.00145552431686902,57.3906594862522,1.81404818308209));
#1184=CARTESIAN_POINT('',(-45.8949341316124,42.9938408625405,-2.04351935863884));
#1185=CARTESIAN_POINT('Origin',(-45.8949341316124,52.6531072406384,0.544640805830893));
#1186=CARTESIAN_POINT('',(45.8665142809871,42.9938408625405,-2.04351935863884));
#1187=CARTESIAN_POINT('',(-40.1212173645095,42.9938408625405,-2.04351935863884));
#1188=CARTESIAN_POINT('Origin',(45.8665142809871,52.6531072406384,0.544640805830894));
#1189=CARTESIAN_POINT('Origin',(-47.5405951853244,62.8714629851473,-19.4934501981151));
#1190=CARTESIAN_POINT('',(-45.9405951853244,62.043251732517,-16.4024849571238));
#1191=CARTESIAN_POINT('Origin',(-47.5405951853244,62.043251732517,-16.4024849571238));
#1192=CARTESIAN_POINT('',(-45.9405951853244,61.0597508700185,-12.7319637334466));
#1193=CARTESIAN_POINT('',(-45.9405951853244,62.8714629851473,-19.4934501981151));
#1194=CARTESIAN_POINT('Origin',(-47.5405951853244,61.0597508700185,-12.7319637334466));
#1195=CARTESIAN_POINT('Origin',(47.4588860555624,62.5682113019094,-19.5747052226317));
#1196=CARTESIAN_POINT('',(49.0588860555624,61.7400000492791,-16.4837399816404));
#1197=CARTESIAN_POINT('Origin',(47.4588860555624,61.7400000492791,-16.4837399816404));
#1198=CARTESIAN_POINT('',(49.0588860555624,60.7564991867806,-12.8132187579632));
#1199=CARTESIAN_POINT('',(49.0588860555624,62.5682113019094,-19.5747052226317));
#1200=CARTESIAN_POINT('Origin',(47.4588860555624,60.7564991867806,-12.8132187579632));
#1201=CARTESIAN_POINT('Origin',(-47.5405951853244,62.043251732517,-16.4024849571238));
#1202=CARTESIAN_POINT('',(-44.5405951853244,62.043251732517,-16.4024849571238));
#1203=CARTESIAN_POINT('Origin',(-47.5405951853244,62.043251732517,-16.4024849571238));
#1204=CARTESIAN_POINT('Origin',(47.4588860555624,61.7400000492791,-16.4837399816404));
#1205=CARTESIAN_POINT('',(50.4588860555624,61.7400000492791,-16.4837399816404));
#1206=CARTESIAN_POINT('Origin',(47.4588860555624,61.7400000492791,-16.4837399816404));
#1207=CARTESIAN_POINT('Origin',(45.8665142809871,60.2568932777437,2.58204358053964));
#1208=CARTESIAN_POINT('',(55.8665142809871,66.8435493928162,-22.));
#1209=CARTESIAN_POINT('Origin',(45.8665142809871,66.8435493928162,-22.));
#1210=CARTESIAN_POINT('',(55.8665142809871,64.1391335244483,-11.9068559866072));
#1211=CARTESIAN_POINT('Origin',(45.8665142809871,64.1391335244483,-11.9068559866072));
#1212=CARTESIAN_POINT('',(55.8665142809871,60.2568932777437,2.58204358053964));
#1213=CARTESIAN_POINT('Origin',(55.8665142809871,69.9161596558416,5.17020374500938));
#1214=CARTESIAN_POINT('',(55.8665142809871,58.693849774485,-22.));
#1215=CARTESIAN_POINT('',(55.8665142809871,60.6137783707591,-22.));
#1216=CARTESIAN_POINT('',(55.8665142809871,56.535347487343,-13.9442587613159));
#1217=CARTESIAN_POINT('',(55.8665142809871,62.1931325004401,-12.4282788497115));
#1218=CARTESIAN_POINT('',(55.8665142809871,58.3470596024718,-20.7057452259844));
#1219=CARTESIAN_POINT('Origin',(0.00145552431686902,60.4655100193892,-12.8911880924711));
#1220=CARTESIAN_POINT('',(-55.8949341316124,56.535347487343,-13.9442587613159));
#1221=CARTESIAN_POINT('Origin',(-45.8949341316124,56.535347487343,-13.9442587613159));
#1222=CARTESIAN_POINT('Origin',(45.8665142809871,56.535347487343,-13.9442587613159));
#1223=CARTESIAN_POINT('',(-36.9970889517406,73.7916788741414,-9.32049669368405));
#1224=CARTESIAN_POINT('',(-36.9970889517406,62.1897719862377,-12.4291792854848));
#1225=CARTESIAN_POINT('',(-47.8949341316124,73.7983999025462,-9.31869582213743));
#1226=CARTESIAN_POINT('',(-23.946910614919,73.7836304372401,-9.32265323880444));
#1227=CARTESIAN_POINT('',(-55.8949341316124,64.3342903361618,-11.8545645323569));
#1228=CARTESIAN_POINT('Origin',(-45.8949341316124,64.3342903361618,-11.8545645323569));
#1229=CARTESIAN_POINT('',(-55.8949341316124,50.0153426821269,-15.691266872333));
#1230=CARTESIAN_POINT('Origin',(45.8665142809871,52.6531072406384,0.544640805830906));
#1231=CARTESIAN_POINT('',(45.8665142809871,48.3410966682297,-22.));
#1232=CARTESIAN_POINT('Origin',(45.8665142809871,58.693849774485,-22.));
#1233=CARTESIAN_POINT('',(45.8665142809871,48.6877932243739,-23.2939053904541));
#1234=CARTESIAN_POINT('Origin',(47.8665142809871,42.9938408625405,-2.04351935863884));
#1235=CARTESIAN_POINT('',(23.9261521778372,48.3410966682297,-22.));
#1236=CARTESIAN_POINT('',(-45.8949341316124,48.3410966682297,-22.));
#1237=CARTESIAN_POINT('',(-45.8949341316124,48.6877932243739,-23.2939053904541));
#1238=CARTESIAN_POINT('',(23.9261521778372,48.3410966682297,-22.));
#1239=CARTESIAN_POINT('Origin',(22.4167124852992,62.6481494361805,-19.5532861327502));
#1240=CARTESIAN_POINT('',(25.2167124852992,63.3037362185712,-22.));
#1241=CARTESIAN_POINT('Origin',(22.4167124852992,63.3037362185712,-22.));
#1242=CARTESIAN_POINT('',(25.2167124852992,62.6481494361805,-19.5532861327502));
#1243=CARTESIAN_POINT('Origin',(-22.4984216150612,62.7915248508762,-19.5148692879967));
#1244=CARTESIAN_POINT('',(-19.6984216150612,63.4574052666903,-22.));
#1245=CARTESIAN_POINT('Origin',(-22.4984216150612,63.4574052666903,-22.));
#1246=CARTESIAN_POINT('',(-19.6984216150612,62.7915248508762,-19.5148692879967));
#1247=CARTESIAN_POINT('Origin',(-47.5405951853244,62.8714629851473,-19.4934501981151));
#1248=CARTESIAN_POINT('',(-44.5405951853244,63.5430825568166,-22.));
#1249=CARTESIAN_POINT('Origin',(-47.5405951853244,63.5430825568166,-22.));
#1250=CARTESIAN_POINT('',(-44.5405951853244,62.8714629851473,-19.4934501981151));
#1251=CARTESIAN_POINT('Origin',(47.4588860555624,62.5682113019094,-19.5747052226317));
#1252=CARTESIAN_POINT('',(50.4588860555624,63.2180589284449,-22.));
#1253=CARTESIAN_POINT('Origin',(47.4588860555624,63.2180589284449,-22.));
#1254=CARTESIAN_POINT('',(50.4588860555624,62.5682113019094,-19.5747052226317));
#1255=CARTESIAN_POINT('Origin',(-45.8949341316124,52.6531072406384,0.5446408058309));
#1256=CARTESIAN_POINT('',(-55.8949341316124,58.693849774485,-22.));
#1257=CARTESIAN_POINT('Origin',(-45.8949341316124,58.693849774485,-22.));
#1258=CARTESIAN_POINT('',(-55.8949341316124,52.6531072406384,0.5446408058309));
#1259=CARTESIAN_POINT('Origin',(-55.8949341316124,42.9938408625405,-2.04351935863884));
#1260=CARTESIAN_POINT('',(-55.8949341316124,67.0527174817359,-22.));
#1261=CARTESIAN_POINT('',(-55.8949341316124,47.1526189741086,-22.));
#1262=CARTESIAN_POINT('',(-55.8949341316124,66.1460024512906,-18.6160509970254));
#1263=CARTESIAN_POINT('Origin',(-45.8949341316124,60.4520500894571,2.63433503478991));
#1264=CARTESIAN_POINT('',(-47.8949341316124,77.1963024990715,-22.));
#1265=CARTESIAN_POINT('Origin',(-45.8949341316124,67.0527174817358,-22.));
#1266=CARTESIAN_POINT('',(-47.8949341316124,69.9161596558416,5.17020374500938));
#1267=CARTESIAN_POINT('Origin',(-47.8949341316124,69.9161596558416,5.17020374500938));
#1268=CARTESIAN_POINT('',(-36.9970889517406,77.1890989346421,-22.));
#1269=CARTESIAN_POINT('',(-23.9436213100346,77.1804704862073,-22.));
#1270=CARTESIAN_POINT('',(-36.9970889517406,69.9094386274368,5.16840287346275));
#1271=CARTESIAN_POINT('Origin',(-36.9970889517406,69.9094386274368,5.16840287346274));
#1272=CARTESIAN_POINT('',(-36.9970889517406,60.6104178565567,-22.));
#1273=CARTESIAN_POINT('Origin',(-0.0142099253126426,51.3113970856767,-22.));
#1274=UNCERTAINTY_MEASURE_WITH_UNIT(LENGTH_MEASURE(0.01),#1278,
'DISTANCE_ACCURACY_VALUE',
'Maximum model space distance between geometric entities at asserted c
onnectivities');
#1275=UNCERTAINTY_MEASURE_WITH_UNIT(LENGTH_MEASURE(0.01),#1278,
'DISTANCE_ACCURACY_VALUE',
'Maximum model space distance between geometric entities at asserted c
onnectivities');
#1276=(
GEOMETRIC_REPRESENTATION_CONTEXT(3)
GLOBAL_UNCERTAINTY_ASSIGNED_CONTEXT((#1274))
GLOBAL_UNIT_ASSIGNED_CONTEXT((#1278,#1280,#1281))
REPRESENTATION_CONTEXT('','3D')
);
#1277=(
GEOMETRIC_REPRESENTATION_CONTEXT(3)
GLOBAL_UNCERTAINTY_ASSIGNED_CONTEXT((#1275))
GLOBAL_UNIT_ASSIGNED_CONTEXT((#1278,#1280,#1281))
REPRESENTATION_CONTEXT('','3D')
);
#1278=(
LENGTH_UNIT()
NAMED_UNIT(*)
SI_UNIT(.MILLI.,.METRE.)
);
#1279=(
LENGTH_UNIT()
NAMED_UNIT(*)
SI_UNIT($,.METRE.)
);
#1280=(
NAMED_UNIT(*)
PLANE_ANGLE_UNIT()
SI_UNIT($,.RADIAN.)
);
#1281=(
NAMED_UNIT(*)
SI_UNIT($,.STERADIAN.)
SOLID_ANGLE_UNIT()
);
#1282=SHAPE_DEFINITION_REPRESENTATION(#1283,#1284);
#1283=PRODUCT_DEFINITION_SHAPE('',$,#1286);
#1284=SHAPE_REPRESENTATION('',(#752),#1276);
#1285=PRODUCT_DEFINITION_CONTEXT('part definition',#1290,'design');
#1286=PRODUCT_DEFINITION('2026-04-14-12-16-22-673','D435_Gemini2_Mount',
#1287,#1285);
#1287=PRODUCT_DEFINITION_FORMATION('',$,#1292);
#1288=PRODUCT_RELATED_PRODUCT_CATEGORY('D435_Gemini2_Mount',
'D435_Gemini2_Mount',(#1292));
#1289=APPLICATION_PROTOCOL_DEFINITION('international standard',
'automotive_design',2009,#1290);
#1290=APPLICATION_CONTEXT(
'Core Data for Automotive Mechanical Design Process');
#1291=PRODUCT_CONTEXT('part definition',#1290,'mechanical');
#1292=PRODUCT('2026-04-14-12-16-22-673','D435_Gemini2_Mount',$,(#1291));
#1293=PRESENTATION_STYLE_ASSIGNMENT((#1295));
#1294=PRESENTATION_STYLE_ASSIGNMENT((#1296));
#1295=SURFACE_STYLE_USAGE(.BOTH.,#1297);
#1296=SURFACE_STYLE_USAGE(.BOTH.,#1298);
#1297=SURFACE_SIDE_STYLE('',(#1299));
#1298=SURFACE_SIDE_STYLE('',(#1300));
#1299=SURFACE_STYLE_FILL_AREA(#1301);
#1300=SURFACE_STYLE_FILL_AREA(#1302);
#1301=FILL_AREA_STYLE('\X2\94A2\X0\ - \X2\7F0E5149\X0\',(#1303));
#1302=FILL_AREA_STYLE('Opaque(63,63,63)',(#1304));
#1303=FILL_AREA_STYLE_COLOUR('\X2\94A2\X0\ - \X2\7F0E5149\X0\',#1305);
#1304=FILL_AREA_STYLE_COLOUR('Opaque(63,63,63)',#1306);
#1305=COLOUR_RGB('\X2\94A2\X0\ - \X2\7F0E5149\X0\',0.627450980392157,0.627450980392157,
0.627450980392157);
#1306=COLOUR_RGB('Opaque(63,63,63)',0.247058823529412,0.247058823529412,
0.247058823529412);
ENDSEC;
END-ISO-10303-21;
