ISO-10303-21;
HEADER;
FILE_DESCRIPTION((''),'2;1');
FILE_NAME('322000142300','2026-07-27T19:41:55',('EDY'),(''),
'CREO PARAMETRIC BY PTC INC, 2021284','CREO PARAMETRIC BY PTC INC, 2021284','');
FILE_SCHEMA(('CONFIG_CONTROL_DESIGN'));
ENDSEC;
DATA;
#1=DIRECTION('',(0.E0,-1.E0,0.E0));
#2=VECTOR('',#1,4.1E1);
#3=CARTESIAN_POINT('',(2.2E1,5.55E1,3.E2));
#4=LINE('',#3,#2);
#5=DIRECTION('',(0.E0,0.E0,-1.E0));
#6=VECTOR('',#5,1.5E1);
#7=CARTESIAN_POINT('',(2.2E1,5.55E1,3.15E2));
#8=LINE('',#7,#6);
#9=DIRECTION('',(0.E0,1.E0,0.E0));
#10=VECTOR('',#9,4.1E1);
#11=CARTESIAN_POINT('',(2.2E1,1.45E1,3.15E2));
#12=LINE('',#11,#10);
#13=DIRECTION('',(6.646159823768E-2,-4.153849889855E-2,9.969239735652E-1));
#14=VECTOR('',#13,1.504628276353E2);
#15=CARTESIAN_POINT('',(1.E1,6.375E1,1.5E2));
#16=LINE('',#15,#14);
#17=DIRECTION('',(1.E0,0.E0,0.E0));
#18=VECTOR('',#17,8.E1);
#19=CARTESIAN_POINT('',(2.E1,5.75E1,3.E2));
#20=LINE('',#19,#18);
#21=DIRECTION('',(-1.E0,0.E0,2.471452369482E-14));
#22=VECTOR('',#21,2.300000581145E0);
#23=CARTESIAN_POINT('',(4.430000074506E1,6.05E1,2.28E2));
#24=LINE('',#23,#22);
#25=DIRECTION('',(-1.E0,0.E0,0.E0));
#26=VECTOR('',#25,3.139999774192E1);
#27=CARTESIAN_POINT('',(7.569999848698E1,6.116666666667E1,2.12E2));
#28=LINE('',#27,#26);
#29=DIRECTION('',(6.646159823768E-2,4.153849889855E-2,9.969239735652E-1));
#30=VECTOR('',#29,1.504628276353E2);
#31=CARTESIAN_POINT('',(1.E1,6.25E0,1.5E2));
#32=LINE('',#31,#30);
#33=DIRECTION('',(0.E0,1.E0,0.E0));
#34=VECTOR('',#33,4.5E1);
#35=CARTESIAN_POINT('',(2.E1,1.25E1,3.E2));
#36=LINE('',#35,#34);
#37=DIRECTION('',(-6.646159823768E-2,4.153849889855E-2,9.969239735652E-1));
#38=VECTOR('',#37,1.504628276353E2);
#39=CARTESIAN_POINT('',(1.1E2,6.25E0,1.5E2));
#40=LINE('',#39,#38);
#41=DIRECTION('',(-1.E0,0.E0,0.E0));
#42=VECTOR('',#41,8.E1);
#43=CARTESIAN_POINT('',(1.E2,1.25E1,3.E2));
#44=LINE('',#43,#42);
#45=DIRECTION('',(-6.646159823768E-2,-4.153849889855E-2,9.969239735652E-1));
#46=VECTOR('',#45,1.504628276353E2);
#47=CARTESIAN_POINT('',(1.1E2,6.375E1,1.5E2));
#48=LINE('',#47,#46);
#49=DIRECTION('',(0.E0,-1.E0,0.E0));
#50=VECTOR('',#49,4.5E1);
#51=CARTESIAN_POINT('',(1.E2,5.75E1,3.E2));
#52=LINE('',#51,#50);
#53=DIRECTION('',(1.E0,0.E0,0.E0));
#54=VECTOR('',#53,1.E2);
#55=CARTESIAN_POINT('',(1.E1,6.375E1,1.5E2));
#56=LINE('',#55,#54);
#57=DIRECTION('',(0.E0,1.E0,0.E0));
#58=VECTOR('',#57,5.75E1);
#59=CARTESIAN_POINT('',(1.E1,6.25E0,1.5E2));
#60=LINE('',#59,#58);
#61=DIRECTION('',(-1.E0,0.E0,0.E0));
#62=VECTOR('',#61,1.E2);
#63=CARTESIAN_POINT('',(1.1E2,6.25E0,1.5E2));
#64=LINE('',#63,#62);
#65=DIRECTION('',(0.E0,-1.E0,0.E0));
#66=VECTOR('',#65,5.75E1);
#67=CARTESIAN_POINT('',(1.1E2,6.375E1,1.5E2));
#68=LINE('',#67,#66);
#69=DIRECTION('',(1.E0,0.E0,0.E0));
#70=VECTOR('',#69,9.606500457234E1);
#71=CARTESIAN_POINT('',(1.196500056831E1,8.210000380455E0,1.65E2));
#72=LINE('',#71,#70);
#73=DIRECTION('',(0.E0,0.E0,1.E0));
#74=VECTOR('',#73,1.5E1);
#75=CARTESIAN_POINT('',(1.196500056831E1,8.210000380455E0,1.5E2));
#76=LINE('',#75,#74);
#77=DIRECTION('',(-1.E0,0.E0,0.E0));
#78=VECTOR('',#77,9.606500457234E1);
#79=CARTESIAN_POINT('',(1.080300051406E2,8.210000380455E0,1.5E2));
#80=LINE('',#79,#78);
#81=DIRECTION('',(0.E0,-1.E0,0.E0));
#82=VECTOR('',#81,5.359000255489E1);
#83=CARTESIAN_POINT('',(1.196500056831E1,6.180000293534E1,1.65E2));
#84=LINE('',#83,#82);
#85=DIRECTION('',(0.E0,0.E0,1.E0));
#86=VECTOR('',#85,1.5E1);
#87=CARTESIAN_POINT('',(1.196500056831E1,6.180000293534E1,1.5E2));
#88=LINE('',#87,#86);
#89=DIRECTION('',(0.E0,1.E0,0.E0));
#90=VECTOR('',#89,5.359000255489E1);
#91=CARTESIAN_POINT('',(1.196500056831E1,8.210000380455E0,1.5E2));
#92=LINE('',#91,#90);
#93=DIRECTION('',(-1.E0,0.E0,0.E0));
#94=VECTOR('',#93,9.606500457234E1);
#95=CARTESIAN_POINT('',(1.080300051406E2,6.180000293534E1,1.65E2));
#96=LINE('',#95,#94);
#97=DIRECTION('',(0.E0,0.E0,1.E0));
#98=VECTOR('',#97,1.5E1);
#99=CARTESIAN_POINT('',(1.080300051406E2,6.180000293534E1,1.5E2));
#100=LINE('',#99,#98);
#101=DIRECTION('',(1.E0,0.E0,0.E0));
#102=VECTOR('',#101,9.606500457234E1);
#103=CARTESIAN_POINT('',(1.196500056831E1,6.180000293534E1,1.5E2));
#104=LINE('',#103,#102);
#105=DIRECTION('',(0.E0,1.E0,0.E0));
#106=VECTOR('',#105,5.359000255489E1);
#107=CARTESIAN_POINT('',(1.080300051406E2,8.210000380455E0,1.65E2));
#108=LINE('',#107,#106);
#109=DIRECTION('',(0.E0,0.E0,1.E0));
#110=VECTOR('',#109,1.5E1);
#111=CARTESIAN_POINT('',(1.080300051406E2,8.210000380455E0,1.5E2));
#112=LINE('',#111,#110);
#113=DIRECTION('',(0.E0,-1.E0,0.E0));
#114=VECTOR('',#113,5.359000255489E1);
#115=CARTESIAN_POINT('',(1.080300051406E2,6.180000293534E1,1.5E2));
#116=LINE('',#115,#114);
#117=DIRECTION('',(0.E0,-1.E0,0.E0));
#118=VECTOR('',#117,4.5875E1);
#119=CARTESIAN_POINT('',(1.031000013740E2,5.793750078321E1,1.65E2));
#120=LINE('',#119,#118);
#121=DIRECTION('',(0.E0,1.E0,0.E0));
#122=VECTOR('',#121,3.575E1);
#123=CARTESIAN_POINT('',(9.5E1,1.7125E1,3.E2));
#124=LINE('',#123,#122);
#125=DIRECTION('',(-5.985038419354E-2,3.740647798884E-2,9.975062340238E-1));
#126=VECTOR('',#125,1.353375000529E2);
#127=CARTESIAN_POINT('',(1.031000013740E2,1.206250078321E1,1.65E2));
#128=LINE('',#127,#126);
#129=DIRECTION('',(1.E0,0.E0,0.E0));
#130=VECTOR('',#129,8.620000115938E1);
#131=CARTESIAN_POINT('',(1.690000021458E1,5.793750078321E1,1.65E2));
#132=LINE('',#131,#130);
#133=DIRECTION('',(-1.E0,0.E0,0.E0));
#134=VECTOR('',#133,7.E1);
#135=CARTESIAN_POINT('',(9.5E1,5.2875E1,3.E2));
#136=LINE('',#135,#134);
#137=DIRECTION('',(-5.985038416763E-2,-3.740648954675E-2,9.975062335919E-1));
#138=VECTOR('',#137,1.353375001115E2);
#139=CARTESIAN_POINT('',(1.031000013740E2,5.793750078321E1,1.65E2));
#140=LINE('',#139,#138);
#141=DIRECTION('',(0.E0,1.E0,0.E0));
#142=VECTOR('',#141,4.5875E1);
#143=CARTESIAN_POINT('',(1.690000021458E1,1.206250078321E1,1.65E2));
#144=LINE('',#143,#142);
#145=DIRECTION('',(0.E0,-1.E0,0.E0));
#146=VECTOR('',#145,3.575E1);
#147=CARTESIAN_POINT('',(2.5E1,5.2875E1,3.E2));
#148=LINE('',#147,#146);
#149=DIRECTION('',(5.985037247207E-2,-3.740648957303E-2,9.975062342927E-1));
#150=VECTOR('',#149,1.353375000165E2);
#151=CARTESIAN_POINT('',(1.690000021458E1,5.793750078321E1,1.65E2));
#152=LINE('',#151,#150);
#153=DIRECTION('',(-1.E0,0.E0,0.E0));
#154=VECTOR('',#153,8.620000115938E1);
#155=CARTESIAN_POINT('',(1.031000013740E2,1.206250078321E1,1.65E2));
#156=LINE('',#155,#154);
#157=DIRECTION('',(1.E0,0.E0,0.E0));
#158=VECTOR('',#157,7.E1);
#159=CARTESIAN_POINT('',(2.5E1,1.7125E1,3.E2));
#160=LINE('',#159,#158);
#161=DIRECTION('',(5.985037249798E-2,3.740647801512E-2,9.975062347246E-1));
#162=VECTOR('',#161,1.353374999579E2);
#163=CARTESIAN_POINT('',(1.690000021458E1,1.206250078321E1,1.65E2));
#164=LINE('',#163,#162);
#165=DIRECTION('',(1.E0,0.E0,0.E0));
#166=VECTOR('',#165,7.E1);
#167=CARTESIAN_POINT('',(2.5E1,1.7125E1,3.15E2));
#168=LINE('',#167,#166);
#169=DIRECTION('',(0.E0,0.E0,1.E0));
#170=VECTOR('',#169,1.5E1);
#171=CARTESIAN_POINT('',(2.5E1,1.7125E1,3.E2));
#172=LINE('',#171,#170);
#173=DIRECTION('',(0.E0,1.E0,0.E0));
#174=VECTOR('',#173,3.575E1);
#175=CARTESIAN_POINT('',(9.5E1,1.7125E1,3.15E2));
#176=LINE('',#175,#174);
#177=DIRECTION('',(0.E0,0.E0,1.E0));
#178=VECTOR('',#177,1.5E1);
#179=CARTESIAN_POINT('',(9.5E1,1.7125E1,3.E2));
#180=LINE('',#179,#178);
#181=DIRECTION('',(-1.E0,0.E0,0.E0));
#182=VECTOR('',#181,7.E1);
#183=CARTESIAN_POINT('',(9.5E1,5.2875E1,3.15E2));
#184=LINE('',#183,#182);
#185=DIRECTION('',(0.E0,0.E0,1.E0));
#186=VECTOR('',#185,1.5E1);
#187=CARTESIAN_POINT('',(9.5E1,5.2875E1,3.E2));
#188=LINE('',#187,#186);
#189=DIRECTION('',(0.E0,-1.E0,0.E0));
#190=VECTOR('',#189,3.575E1);
#191=CARTESIAN_POINT('',(2.5E1,5.2875E1,3.15E2));
#192=LINE('',#191,#190);
#193=DIRECTION('',(0.E0,0.E0,1.E0));
#194=VECTOR('',#193,1.5E1);
#195=CARTESIAN_POINT('',(2.5E1,5.2875E1,3.E2));
#196=LINE('',#195,#194);
#197=DIRECTION('',(-1.E0,0.E0,0.E0));
#198=VECTOR('',#197,7.6E1);
#199=CARTESIAN_POINT('',(9.8E1,5.55E1,3.E2));
#200=LINE('',#199,#198);
#201=DIRECTION('',(0.E0,0.E0,-1.E0));
#202=VECTOR('',#201,1.5E1);
#203=CARTESIAN_POINT('',(9.8E1,5.55E1,3.15E2));
#204=LINE('',#203,#202);
#205=DIRECTION('',(1.E0,0.E0,0.E0));
#206=VECTOR('',#205,7.6E1);
#207=CARTESIAN_POINT('',(2.2E1,5.55E1,3.15E2));
#208=LINE('',#207,#206);
#209=DIRECTION('',(0.E0,1.E0,0.E0));
#210=VECTOR('',#209,4.1E1);
#211=CARTESIAN_POINT('',(9.8E1,1.45E1,3.E2));
#212=LINE('',#211,#210);
#213=DIRECTION('',(0.E0,0.E0,-1.E0));
#214=VECTOR('',#213,1.5E1);
#215=CARTESIAN_POINT('',(9.8E1,1.45E1,3.15E2));
#216=LINE('',#215,#214);
#217=DIRECTION('',(0.E0,-1.E0,0.E0));
#218=VECTOR('',#217,4.1E1);
#219=CARTESIAN_POINT('',(9.8E1,5.55E1,3.15E2));
#220=LINE('',#219,#218);
#221=DIRECTION('',(1.E0,0.E0,0.E0));
#222=VECTOR('',#221,7.6E1);
#223=CARTESIAN_POINT('',(2.2E1,1.45E1,3.E2));
#224=LINE('',#223,#222);
#225=DIRECTION('',(0.E0,0.E0,-1.E0));
#226=VECTOR('',#225,1.5E1);
#227=CARTESIAN_POINT('',(2.2E1,1.45E1,3.15E2));
#228=LINE('',#227,#226);
#229=DIRECTION('',(-1.E0,0.E0,0.E0));
#230=VECTOR('',#229,7.6E1);
#231=CARTESIAN_POINT('',(9.8E1,1.45E1,3.15E2));
#232=LINE('',#231,#230);
#233=DIRECTION('',(-1.E0,0.E0,0.E0));
#234=VECTOR('',#233,3.6E1);
#235=CARTESIAN_POINT('',(7.800000016391E1,6.125E1,2.1E2));
#236=LINE('',#235,#234);
#237=DIRECTION('',(0.E0,-1.E0,0.E0));
#238=VECTOR('',#237,6.249999999835E0);
#239=CARTESIAN_POINT('',(7.800000016391E1,6.749999999983E1,2.1E2));
#240=LINE('',#239,#238);
#241=DIRECTION('',(1.E0,0.E0,0.E0));
#242=VECTOR('',#241,3.6E1);
#243=CARTESIAN_POINT('',(4.200000016391E1,6.749999999983E1,2.1E2));
#244=LINE('',#243,#242);
#245=DIRECTION('',(0.E0,4.163054471218E-2,-9.991330730924E-1));
#246=VECTOR('',#245,1.801561822420E1);
#247=CARTESIAN_POINT('',(7.800000016391E1,6.05E1,2.28E2));
#248=LINE('',#247,#246);
#249=DIRECTION('',(0.E0,-1.E0,0.E0));
#250=VECTOR('',#249,6.999999999835E0);
#251=CARTESIAN_POINT('',(7.800000016391E1,6.749999999983E1,2.3E2));
#252=LINE('',#251,#250);
#253=DIRECTION('',(0.E0,0.E0,1.E0));
#254=VECTOR('',#253,2.E1);
#255=CARTESIAN_POINT('',(7.800000016391E1,6.749999999983E1,2.1E2));
#256=LINE('',#255,#254);
#257=DIRECTION('',(-1.E0,0.E0,0.E0));
#258=VECTOR('',#257,2.300001676741E0);
#259=CARTESIAN_POINT('',(7.800000016391E1,6.05E1,2.3E2));
#260=LINE('',#259,#258);
#261=DIRECTION('',(0.E0,0.E0,1.E0));
#262=VECTOR('',#261,2.E0);
#263=CARTESIAN_POINT('',(7.800000016391E1,6.05E1,2.28E2));
#264=LINE('',#263,#262);
#265=DIRECTION('',(1.E0,0.E0,-7.414353576648E-14));
#266=VECTOR('',#265,2.300001676741E0);
#267=CARTESIAN_POINT('',(7.569999848717E1,6.05E1,2.28E2));
#268=LINE('',#267,#266);
#269=DIRECTION('',(1.200219906889E-11,-4.163054471218E-2,9.991330730924E-1));
#270=VECTOR('',#269,1.601388286595E1);
#271=CARTESIAN_POINT('',(7.569999848698E1,6.116666666667E1,2.12E2));
#272=LINE('',#271,#270);
#273=DIRECTION('',(0.E0,-1.E0,0.E0));
#274=VECTOR('',#273,4.033331920703E0);
#275=CARTESIAN_POINT('',(7.569999848698E1,6.519999858737E1,2.12E2));
#276=LINE('',#275,#274);
#277=DIRECTION('',(-4.089401442366E-11,1.E0,0.E0));
#278=VECTOR('',#277,4.699998587370E0);
#279=CARTESIAN_POINT('',(7.569999848717E1,6.05E1,2.3E2));
#280=LINE('',#279,#278);
#281=DIRECTION('',(0.E0,0.E0,1.E0));
#282=VECTOR('',#281,2.E0);
#283=CARTESIAN_POINT('',(7.569999848717E1,6.05E1,2.28E2));
#284=LINE('',#283,#282);
#285=DIRECTION('',(-1.E0,0.E0,0.E0));
#286=VECTOR('',#285,2.639999976754E1);
#287=CARTESIAN_POINT('',(7.319999854267E1,6.749999999983E1,2.12E2));
#288=LINE('',#287,#286);
#289=DIRECTION('',(0.E0,4.163054471218E-2,-9.991330730924E-1));
#290=VECTOR('',#289,1.601388286595E1);
#291=CARTESIAN_POINT('',(4.430000074506E1,6.05E1,2.28E2));
#292=LINE('',#291,#290);
#293=DIRECTION('',(0.E0,0.E0,-1.E0));
#294=VECTOR('',#293,2.E0);
#295=CARTESIAN_POINT('',(4.430000074506E1,6.05E1,2.3E2));
#296=LINE('',#295,#294);
#297=DIRECTION('',(0.E0,-1.E0,0.E0));
#298=VECTOR('',#297,4.700000901520E0);
#299=CARTESIAN_POINT('',(4.430000074506E1,6.520000090152E1,2.3E2));
#300=LINE('',#299,#298);
#301=DIRECTION('',(0.E0,1.E0,0.E0));
#302=VECTOR('',#301,4.033334234854E0);
#303=CARTESIAN_POINT('',(4.430000074506E1,6.116666666667E1,2.12E2));
#304=LINE('',#303,#302);
#305=DIRECTION('',(0.E0,0.E0,-1.E0));
#306=VECTOR('',#305,2.E0);
#307=CARTESIAN_POINT('',(4.200000016391E1,6.05E1,2.3E2));
#308=LINE('',#307,#306);
#309=DIRECTION('',(0.E0,-4.163054471218E-2,9.991330730924E-1));
#310=VECTOR('',#309,1.801561822420E1);
#311=CARTESIAN_POINT('',(4.200000016391E1,6.125E1,2.1E2));
#312=LINE('',#311,#310);
#313=DIRECTION('',(0.E0,-1.E0,0.E0));
#314=VECTOR('',#313,6.249999999835E0);
#315=CARTESIAN_POINT('',(4.200000016391E1,6.749999999983E1,2.1E2));
#316=LINE('',#315,#314);
#317=DIRECTION('',(0.E0,0.E0,-1.E0));
#318=VECTOR('',#317,2.E1);
#319=CARTESIAN_POINT('',(4.200000016391E1,6.749999999983E1,2.3E2));
#320=LINE('',#319,#318);
#321=DIRECTION('',(0.E0,-1.E0,0.E0));
#322=VECTOR('',#321,2.299999098315E0);
#323=CARTESIAN_POINT('',(4.679999877512E1,6.749999999983E1,2.3E2));
#324=LINE('',#323,#322);
#325=DIRECTION('',(0.E0,0.E0,1.E0));
#326=VECTOR('',#325,1.8E1);
#327=CARTESIAN_POINT('',(4.679999877512E1,6.749999999983E1,2.12E2));
#328=LINE('',#327,#326);
#329=DIRECTION('',(0.E0,1.E0,0.E0));
#330=VECTOR('',#329,2.299999098315E0);
#331=CARTESIAN_POINT('',(4.679999877512E1,6.520000090152E1,2.12E2));
#332=LINE('',#331,#330);
#333=DIRECTION('',(0.E0,0.E0,1.E0));
#334=VECTOR('',#333,1.8E1);
#335=CARTESIAN_POINT('',(4.679999877512E1,6.520000090152E1,2.12E2));
#336=LINE('',#335,#334);
#337=DIRECTION('',(1.E0,0.E0,0.E0));
#338=VECTOR('',#337,2.499998030066E0);
#339=CARTESIAN_POINT('',(4.430000074506E1,6.520000090152E1,2.12E2));
#340=LINE('',#339,#338);
#341=DIRECTION('',(0.E0,0.E0,-1.E0));
#342=VECTOR('',#341,1.8E1);
#343=CARTESIAN_POINT('',(4.430000074506E1,6.520000090152E1,2.3E2));
#344=LINE('',#343,#342);
#345=DIRECTION('',(-1.E0,0.E0,0.E0));
#346=VECTOR('',#345,2.499998030066E0);
#347=CARTESIAN_POINT('',(4.679999877512E1,6.520000090152E1,2.3E2));
#348=LINE('',#347,#346);
#349=DIRECTION('',(1.E0,0.E0,0.E0));
#350=VECTOR('',#349,2.300000581145E0);
#351=CARTESIAN_POINT('',(4.200000016391E1,6.05E1,2.3E2));
#352=LINE('',#351,#350);
#353=DIRECTION('',(0.E0,-1.E0,0.E0));
#354=VECTOR('',#353,6.999999999835E0);
#355=CARTESIAN_POINT('',(4.200000016391E1,6.749999999983E1,2.3E2));
#356=LINE('',#355,#354);
#357=DIRECTION('',(-1.E0,0.E0,0.E0));
#358=VECTOR('',#357,4.799998611212E0);
#359=CARTESIAN_POINT('',(4.679999877512E1,6.749999999983E1,2.3E2));
#360=LINE('',#359,#358);
#361=DIRECTION('',(-1.E0,0.E0,0.E0));
#362=VECTOR('',#361,4.800001621246E0);
#363=CARTESIAN_POINT('',(7.800000016391E1,6.749999999983E1,2.3E2));
#364=LINE('',#363,#362);
#365=DIRECTION('',(0.E0,0.E0,-1.E0));
#366=VECTOR('',#365,1.8E1);
#367=CARTESIAN_POINT('',(7.319999854267E1,6.519999858737E1,2.3E2));
#368=LINE('',#367,#366);
#369=DIRECTION('',(-1.E0,0.E0,0.E0));
#370=VECTOR('',#369,2.499999944313E0);
#371=CARTESIAN_POINT('',(7.569999848698E1,6.519999858737E1,2.3E2));
#372=LINE('',#371,#370);
#373=DIRECTION('',(0.E0,0.E0,1.E0));
#374=VECTOR('',#373,1.8E1);
#375=CARTESIAN_POINT('',(7.569999848698E1,6.519999858737E1,2.12E2));
#376=LINE('',#375,#374);
#377=DIRECTION('',(1.E0,0.E0,0.E0));
#378=VECTOR('',#377,2.499999944313E0);
#379=CARTESIAN_POINT('',(7.319999854267E1,6.519999858737E1,2.12E2));
#380=LINE('',#379,#378);
#381=DIRECTION('',(0.E0,-1.E0,0.E0));
#382=VECTOR('',#381,2.300001412465E0);
#383=CARTESIAN_POINT('',(7.319999854267E1,6.749999999983E1,2.12E2));
#384=LINE('',#383,#382);
#385=DIRECTION('',(0.E0,0.E0,-1.E0));
#386=VECTOR('',#385,1.8E1);
#387=CARTESIAN_POINT('',(7.319999854267E1,6.749999999983E1,2.3E2));
#388=LINE('',#387,#386);
#389=DIRECTION('',(0.E0,1.E0,0.E0));
#390=VECTOR('',#389,2.300001412465E0);
#391=CARTESIAN_POINT('',(7.319999854267E1,6.519999858737E1,2.3E2));
#392=LINE('',#391,#390);
#393=CARTESIAN_POINT('',(7.319999854267E1,6.519999858737E1,2.3E2));
#394=CARTESIAN_POINT('',(7.319999854267E1,6.519999858737E1,2.12E2));
#395=VERTEX_POINT('',#393);
#396=VERTEX_POINT('',#394);
#397=CARTESIAN_POINT('',(7.569999848698E1,6.519999858737E1,2.12E2));
#398=VERTEX_POINT('',#397);
#399=CARTESIAN_POINT('',(7.569999848698E1,6.519999858737E1,2.3E2));
#400=VERTEX_POINT('',#399);
#401=CARTESIAN_POINT('',(7.319999854267E1,6.749999999983E1,2.3E2));
#402=VERTEX_POINT('',#401);
#403=CARTESIAN_POINT('',(7.319999854267E1,6.749999999983E1,2.12E2));
#404=VERTEX_POINT('',#403);
#405=CARTESIAN_POINT('',(4.679999877512E1,6.520000090152E1,2.12E2));
#406=CARTESIAN_POINT('',(4.679999877512E1,6.520000090152E1,2.3E2));
#407=VERTEX_POINT('',#405);
#408=VERTEX_POINT('',#406);
#409=CARTESIAN_POINT('',(4.430000074506E1,6.520000090152E1,2.3E2));
#410=VERTEX_POINT('',#409);
#411=CARTESIAN_POINT('',(4.430000074506E1,6.520000090152E1,2.12E2));
#412=VERTEX_POINT('',#411);
#413=CARTESIAN_POINT('',(4.430000074506E1,6.05E1,2.3E2));
#414=VERTEX_POINT('',#413);
#415=CARTESIAN_POINT('',(4.679999877512E1,6.749999999983E1,2.3E2));
#416=VERTEX_POINT('',#415);
#417=CARTESIAN_POINT('',(4.200000016391E1,6.749999999983E1,2.3E2));
#418=VERTEX_POINT('',#417);
#419=CARTESIAN_POINT('',(4.200000016391E1,6.05E1,2.3E2));
#420=VERTEX_POINT('',#419);
#421=CARTESIAN_POINT('',(4.679999877512E1,6.749999999983E1,2.12E2));
#422=VERTEX_POINT('',#421);
#423=CARTESIAN_POINT('',(7.800000016391E1,6.749999999983E1,2.3E2));
#424=VERTEX_POINT('',#423);
#425=CARTESIAN_POINT('',(7.800000016391E1,6.749999999983E1,2.1E2));
#426=VERTEX_POINT('',#425);
#427=CARTESIAN_POINT('',(4.200000016391E1,6.749999999983E1,2.1E2));
#428=VERTEX_POINT('',#427);
#429=CARTESIAN_POINT('',(7.569999848717E1,6.05E1,2.3E2));
#430=VERTEX_POINT('',#429);
#431=CARTESIAN_POINT('',(7.800000016391E1,6.05E1,2.3E2));
#432=VERTEX_POINT('',#431);
#433=CARTESIAN_POINT('',(7.569999848698E1,6.116666666667E1,2.12E2));
#434=CARTESIAN_POINT('',(7.569999848717E1,6.05E1,2.28E2));
#435=VERTEX_POINT('',#433);
#436=VERTEX_POINT('',#434);
#437=CARTESIAN_POINT('',(7.800000016391E1,6.05E1,2.28E2));
#438=VERTEX_POINT('',#437);
#439=CARTESIAN_POINT('',(4.430000074506E1,6.05E1,2.28E2));
#440=CARTESIAN_POINT('',(4.430000074506E1,6.116666666667E1,2.12E2));
#441=VERTEX_POINT('',#439);
#442=VERTEX_POINT('',#440);
#443=CARTESIAN_POINT('',(4.200000016391E1,6.125E1,2.1E2));
#444=CARTESIAN_POINT('',(4.200000016391E1,6.05E1,2.28E2));
#445=VERTEX_POINT('',#443);
#446=VERTEX_POINT('',#444);
#447=CARTESIAN_POINT('',(7.800000016391E1,6.125E1,2.1E2));
#448=VERTEX_POINT('',#447);
#449=CARTESIAN_POINT('',(1.196500056831E1,6.180000293534E1,1.65E2));
#450=CARTESIAN_POINT('',(1.196500056831E1,8.210000380455E0,1.65E2));
#451=VERTEX_POINT('',#449);
#452=VERTEX_POINT('',#450);
#453=CARTESIAN_POINT('',(1.196500056831E1,8.210000380455E0,1.5E2));
#454=VERTEX_POINT('',#453);
#455=CARTESIAN_POINT('',(1.196500056831E1,6.180000293534E1,1.5E2));
#456=VERTEX_POINT('',#455);
#457=CARTESIAN_POINT('',(1.080300051406E2,6.180000293534E1,1.65E2));
#458=VERTEX_POINT('',#457);
#459=CARTESIAN_POINT('',(1.080300051406E2,6.180000293534E1,1.5E2));
#460=VERTEX_POINT('',#459);
#461=CARTESIAN_POINT('',(1.080300051406E2,8.210000380455E0,1.65E2));
#462=VERTEX_POINT('',#461);
#463=CARTESIAN_POINT('',(1.080300051406E2,8.210000380455E0,1.5E2));
#464=VERTEX_POINT('',#463);
#465=CARTESIAN_POINT('',(1.E1,6.375E1,1.5E2));
#466=CARTESIAN_POINT('',(2.E1,5.75E1,3.E2));
#467=VERTEX_POINT('',#465);
#468=VERTEX_POINT('',#466);
#469=CARTESIAN_POINT('',(1.E2,5.75E1,3.E2));
#470=VERTEX_POINT('',#469);
#471=CARTESIAN_POINT('',(1.1E2,6.375E1,1.5E2));
#472=VERTEX_POINT('',#471);
#473=CARTESIAN_POINT('',(1.1E2,6.25E0,1.5E2));
#474=VERTEX_POINT('',#473);
#475=CARTESIAN_POINT('',(1.E1,6.25E0,1.5E2));
#476=VERTEX_POINT('',#475);
#477=CARTESIAN_POINT('',(9.5E1,5.2875E1,3.E2));
#478=CARTESIAN_POINT('',(2.5E1,5.2875E1,3.E2));
#479=VERTEX_POINT('',#477);
#480=VERTEX_POINT('',#478);
#481=CARTESIAN_POINT('',(9.5E1,5.2875E1,3.15E2));
#482=VERTEX_POINT('',#481);
#483=CARTESIAN_POINT('',(2.5E1,5.2875E1,3.15E2));
#484=VERTEX_POINT('',#483);
#485=CARTESIAN_POINT('',(2.5E1,1.7125E1,3.E2));
#486=VERTEX_POINT('',#485);
#487=CARTESIAN_POINT('',(2.5E1,1.7125E1,3.15E2));
#488=VERTEX_POINT('',#487);
#489=CARTESIAN_POINT('',(9.5E1,1.7125E1,3.E2));
#490=VERTEX_POINT('',#489);
#491=CARTESIAN_POINT('',(9.5E1,1.7125E1,3.15E2));
#492=VERTEX_POINT('',#491);
#493=CARTESIAN_POINT('',(9.8E1,1.45E1,3.E2));
#494=CARTESIAN_POINT('',(9.8E1,5.55E1,3.E2));
#495=VERTEX_POINT('',#493);
#496=VERTEX_POINT('',#494);
#497=CARTESIAN_POINT('',(9.8E1,5.55E1,3.15E2));
#498=VERTEX_POINT('',#497);
#499=CARTESIAN_POINT('',(9.8E1,1.45E1,3.15E2));
#500=VERTEX_POINT('',#499);
#501=CARTESIAN_POINT('',(2.2E1,1.45E1,3.E2));
#502=VERTEX_POINT('',#501);
#503=CARTESIAN_POINT('',(2.2E1,1.45E1,3.15E2));
#504=VERTEX_POINT('',#503);
#505=CARTESIAN_POINT('',(2.2E1,5.55E1,3.E2));
#506=VERTEX_POINT('',#505);
#507=CARTESIAN_POINT('',(2.2E1,5.55E1,3.15E2));
#508=VERTEX_POINT('',#507);
#509=CARTESIAN_POINT('',(1.E2,1.25E1,3.E2));
#510=VERTEX_POINT('',#509);
#511=CARTESIAN_POINT('',(2.E1,1.25E1,3.E2));
#512=VERTEX_POINT('',#511);
#513=CARTESIAN_POINT('',(1.690000021458E1,1.206250078321E1,1.65E2));
#514=CARTESIAN_POINT('',(1.690000021458E1,5.793750078321E1,1.65E2));
#515=VERTEX_POINT('',#513);
#516=VERTEX_POINT('',#514);
#517=CARTESIAN_POINT('',(1.031000013740E2,1.206250078321E1,1.65E2));
#518=VERTEX_POINT('',#517);
#519=CARTESIAN_POINT('',(1.031000013740E2,5.793750078321E1,1.65E2));
#520=VERTEX_POINT('',#519);
#521=CARTESIAN_POINT('',(2.2E1,5.55E1,3.E2));
#522=DIRECTION('',(-1.E0,0.E0,0.E0));
#523=DIRECTION('',(0.E0,-1.E0,0.E0));
#524=AXIS2_PLACEMENT_3D('',#521,#522,#523);
#525=PLANE('',#524);
#527=ORIENTED_EDGE('',*,*,#526,.F.);
#529=ORIENTED_EDGE('',*,*,#528,.F.);
#531=ORIENTED_EDGE('',*,*,#530,.F.);
#533=ORIENTED_EDGE('',*,*,#532,.T.);
#534=EDGE_LOOP('',(#527,#529,#531,#533));
#535=FACE_OUTER_BOUND('',#534,.F.);
#536=ADVANCED_FACE('',(#535),#525,.T.);
#537=CARTESIAN_POINT('',(6.E1,3.5E1,3.E2));
#538=DIRECTION('',(0.E0,0.E0,1.E0));
#539=DIRECTION('',(1.E0,0.E0,0.E0));
#540=AXIS2_PLACEMENT_3D('',#537,#538,#539);
#541=PLANE('',#540);
#543=ORIENTED_EDGE('',*,*,#542,.T.);
#545=ORIENTED_EDGE('',*,*,#544,.T.);
#547=ORIENTED_EDGE('',*,*,#546,.T.);
#549=ORIENTED_EDGE('',*,*,#548,.T.);
#550=EDGE_LOOP('',(#543,#545,#547,#549));
#551=FACE_OUTER_BOUND('',#550,.F.);
#553=ORIENTED_EDGE('',*,*,#552,.T.);
#555=ORIENTED_EDGE('',*,*,#554,.T.);
#556=ORIENTED_EDGE('',*,*,#526,.T.);
#558=ORIENTED_EDGE('',*,*,#557,.T.);
#559=EDGE_LOOP('',(#553,#555,#556,#558));
#560=FACE_BOUND('',#559,.F.);
#561=ADVANCED_FACE('',(#551,#560),#541,.T.);
#562=CARTESIAN_POINT('',(9.E1,5.125E1,4.5E2));
#563=DIRECTION('',(0.E0,-9.991330730924E-1,-4.163054471218E-2));
#564=DIRECTION('',(0.E0,4.163054471218E-2,-9.991330730924E-1));
#565=AXIS2_PLACEMENT_3D('',#562,#563,#564);
#566=PLANE('',#565);
#568=ORIENTED_EDGE('',*,*,#567,.F.);
#570=ORIENTED_EDGE('',*,*,#569,.T.);
#572=ORIENTED_EDGE('',*,*,#571,.T.);
#573=ORIENTED_EDGE('',*,*,#542,.F.);
#574=EDGE_LOOP('',(#568,#570,#572,#573));
#575=FACE_OUTER_BOUND('',#574,.F.);
#577=ORIENTED_EDGE('',*,*,#576,.T.);
#579=ORIENTED_EDGE('',*,*,#578,.T.);
#581=ORIENTED_EDGE('',*,*,#580,.F.);
#583=ORIENTED_EDGE('',*,*,#582,.T.);
#585=ORIENTED_EDGE('',*,*,#584,.F.);
#587=ORIENTED_EDGE('',*,*,#586,.T.);
#589=ORIENTED_EDGE('',*,*,#588,.T.);
#591=ORIENTED_EDGE('',*,*,#590,.T.);
#592=EDGE_LOOP('',(#577,#579,#581,#583,#585,#587,#589,#591));
#593=FACE_BOUND('',#592,.F.);
#594=ADVANCED_FACE('',(#575,#593),#566,.F.);
#595=CARTESIAN_POINT('',(3.E1,5.125E1,4.5E2));
#596=DIRECTION('',(9.977851578566E-1,0.E0,-6.651901052377E-2));
#597=DIRECTION('',(-6.651901052377E-2,0.E0,-9.977851578566E-1));
#598=AXIS2_PLACEMENT_3D('',#595,#596,#597);
#599=PLANE('',#598);
#601=ORIENTED_EDGE('',*,*,#600,.F.);
#603=ORIENTED_EDGE('',*,*,#602,.T.);
#604=ORIENTED_EDGE('',*,*,#567,.T.);
#605=ORIENTED_EDGE('',*,*,#548,.F.);
#606=EDGE_LOOP('',(#601,#603,#604,#605));
#607=FACE_OUTER_BOUND('',#606,.F.);
#608=ADVANCED_FACE('',(#607),#599,.F.);
#609=CARTESIAN_POINT('',(3.E1,1.875E1,4.5E2));
#610=DIRECTION('',(0.E0,9.991330730924E-1,-4.163054471218E-2));
#611=DIRECTION('',(0.E0,4.163054471218E-2,9.991330730924E-1));
#612=AXIS2_PLACEMENT_3D('',#609,#610,#611);
#613=PLANE('',#612);
#615=ORIENTED_EDGE('',*,*,#614,.F.);
#617=ORIENTED_EDGE('',*,*,#616,.T.);
#618=ORIENTED_EDGE('',*,*,#600,.T.);
#619=ORIENTED_EDGE('',*,*,#546,.F.);
#620=EDGE_LOOP('',(#615,#617,#618,#619));
#621=FACE_OUTER_BOUND('',#620,.F.);
#622=ADVANCED_FACE('',(#621),#613,.F.);
#623=CARTESIAN_POINT('',(9.E1,1.875E1,4.5E2));
#624=DIRECTION('',(-9.977851578566E-1,0.E0,-6.651901052377E-2));
#625=DIRECTION('',(-6.651901052377E-2,0.E0,9.977851578566E-1));
#626=AXIS2_PLACEMENT_3D('',#623,#624,#625);
#627=PLANE('',#626);
#628=ORIENTED_EDGE('',*,*,#571,.F.);
#630=ORIENTED_EDGE('',*,*,#629,.T.);
#631=ORIENTED_EDGE('',*,*,#614,.T.);
#632=ORIENTED_EDGE('',*,*,#544,.F.);
#633=EDGE_LOOP('',(#628,#630,#631,#632));
#634=FACE_OUTER_BOUND('',#633,.F.);
#635=ADVANCED_FACE('',(#634),#627,.F.);
#636=CARTESIAN_POINT('',(6.000000088252E1,3.500000087023E1,1.5E2));
#637=DIRECTION('',(0.E0,0.E0,1.E0));
#638=DIRECTION('',(1.E0,0.E0,0.E0));
#639=AXIS2_PLACEMENT_3D('',#636,#637,#638);
#640=PLANE('',#639);
#641=ORIENTED_EDGE('',*,*,#569,.F.);
#642=ORIENTED_EDGE('',*,*,#602,.F.);
#643=ORIENTED_EDGE('',*,*,#616,.F.);
#644=ORIENTED_EDGE('',*,*,#629,.F.);
#645=EDGE_LOOP('',(#641,#642,#643,#644));
#646=FACE_OUTER_BOUND('',#645,.F.);
#648=ORIENTED_EDGE('',*,*,#647,.T.);
#650=ORIENTED_EDGE('',*,*,#649,.T.);
#652=ORIENTED_EDGE('',*,*,#651,.T.);
#654=ORIENTED_EDGE('',*,*,#653,.T.);
#655=EDGE_LOOP('',(#648,#650,#652,#654));
#656=FACE_BOUND('',#655,.F.);
#657=ADVANCED_FACE('',(#646,#656),#640,.F.);
#658=CARTESIAN_POINT('',(1.196500056831E1,8.210000380455E0,1.65E2));
#659=DIRECTION('',(0.E0,1.E0,0.E0));
#660=DIRECTION('',(1.E0,0.E0,0.E0));
#661=AXIS2_PLACEMENT_3D('',#658,#659,#660);
#662=PLANE('',#661);
#664=ORIENTED_EDGE('',*,*,#663,.F.);
#666=ORIENTED_EDGE('',*,*,#665,.F.);
#667=ORIENTED_EDGE('',*,*,#647,.F.);
#669=ORIENTED_EDGE('',*,*,#668,.T.);
#670=EDGE_LOOP('',(#664,#666,#667,#669));
#671=FACE_OUTER_BOUND('',#670,.F.);
#672=ADVANCED_FACE('',(#671),#662,.T.);
#673=CARTESIAN_POINT('',(5.999750284973E1,3.500500166265E1,1.65E2));
#674=DIRECTION('',(0.E0,0.E0,1.E0));
#675=DIRECTION('',(1.E0,0.E0,0.E0));
#676=AXIS2_PLACEMENT_3D('',#673,#674,#675);
#677=PLANE('',#676);
#679=ORIENTED_EDGE('',*,*,#678,.T.);
#680=ORIENTED_EDGE('',*,*,#663,.T.);
#682=ORIENTED_EDGE('',*,*,#681,.T.);
#684=ORIENTED_EDGE('',*,*,#683,.T.);
#685=EDGE_LOOP('',(#679,#680,#682,#684));
#686=FACE_OUTER_BOUND('',#685,.F.);
#688=ORIENTED_EDGE('',*,*,#687,.T.);
#690=ORIENTED_EDGE('',*,*,#689,.T.);
#692=ORIENTED_EDGE('',*,*,#691,.T.);
#694=ORIENTED_EDGE('',*,*,#693,.T.);
#695=EDGE_LOOP('',(#688,#690,#692,#694));
#696=FACE_BOUND('',#695,.F.);
#697=ADVANCED_FACE('',(#686,#696),#677,.F.);
#698=CARTESIAN_POINT('',(1.196500056831E1,6.180000293534E1,1.65E2));
#699=DIRECTION('',(1.E0,0.E0,0.E0));
#700=DIRECTION('',(0.E0,-1.E0,0.E0));
#701=AXIS2_PLACEMENT_3D('',#698,#699,#700);
#702=PLANE('',#701);
#703=ORIENTED_EDGE('',*,*,#678,.F.);
#705=ORIENTED_EDGE('',*,*,#704,.F.);
#706=ORIENTED_EDGE('',*,*,#649,.F.);
#707=ORIENTED_EDGE('',*,*,#665,.T.);
#708=EDGE_LOOP('',(#703,#705,#706,#707));
#709=FACE_OUTER_BOUND('',#708,.F.);
#710=ADVANCED_FACE('',(#709),#702,.T.);
#711=CARTESIAN_POINT('',(1.080300051406E2,6.180000293534E1,1.65E2));
#712=DIRECTION('',(0.E0,-1.E0,0.E0));
#713=DIRECTION('',(-1.E0,0.E0,0.E0));
#714=AXIS2_PLACEMENT_3D('',#711,#712,#713);
#715=PLANE('',#714);
#716=ORIENTED_EDGE('',*,*,#683,.F.);
#718=ORIENTED_EDGE('',*,*,#717,.F.);
#719=ORIENTED_EDGE('',*,*,#651,.F.);
#720=ORIENTED_EDGE('',*,*,#704,.T.);
#721=EDGE_LOOP('',(#716,#718,#719,#720));
#722=FACE_OUTER_BOUND('',#721,.F.);
#723=ADVANCED_FACE('',(#722),#715,.T.);
#724=CARTESIAN_POINT('',(1.080300051406E2,8.210000380455E0,1.65E2));
#725=DIRECTION('',(-1.E0,0.E0,0.E0));
#726=DIRECTION('',(0.E0,1.E0,0.E0));
#727=AXIS2_PLACEMENT_3D('',#724,#725,#726);
#728=PLANE('',#727);
#729=ORIENTED_EDGE('',*,*,#681,.F.);
#730=ORIENTED_EDGE('',*,*,#668,.F.);
#731=ORIENTED_EDGE('',*,*,#653,.F.);
#732=ORIENTED_EDGE('',*,*,#717,.T.);
#733=EDGE_LOOP('',(#729,#730,#731,#732));
#734=FACE_OUTER_BOUND('',#733,.F.);
#735=ADVANCED_FACE('',(#734),#728,.T.);
#736=CARTESIAN_POINT('',(9.5E1,1.7125E1,3.E2));
#737=DIRECTION('',(-9.982048448584E-1,0.E0,-5.989230085073E-2));
#738=DIRECTION('',(-5.989230085073E-2,0.E0,9.982048448584E-1));
#739=AXIS2_PLACEMENT_3D('',#736,#737,#738);
#740=PLANE('',#739);
#741=ORIENTED_EDGE('',*,*,#687,.F.);
#743=ORIENTED_EDGE('',*,*,#742,.T.);
#745=ORIENTED_EDGE('',*,*,#744,.F.);
#747=ORIENTED_EDGE('',*,*,#746,.F.);
#748=EDGE_LOOP('',(#741,#743,#745,#747));
#749=FACE_OUTER_BOUND('',#748,.F.);
#750=ADVANCED_FACE('',(#749),#740,.T.);
#751=CARTESIAN_POINT('',(9.5E1,5.2875E1,3.E2));
#752=DIRECTION('',(0.E0,-9.992976154921E-1,-3.747366637840E-2));
#753=DIRECTION('',(0.E0,3.747366637840E-2,-9.992976154921E-1));
#754=AXIS2_PLACEMENT_3D('',#751,#752,#753);
#755=PLANE('',#754);
#756=ORIENTED_EDGE('',*,*,#693,.F.);
#758=ORIENTED_EDGE('',*,*,#757,.T.);
#760=ORIENTED_EDGE('',*,*,#759,.F.);
#761=ORIENTED_EDGE('',*,*,#742,.F.);
#762=EDGE_LOOP('',(#756,#758,#760,#761));
#763=FACE_OUTER_BOUND('',#762,.F.);
#764=ADVANCED_FACE('',(#763),#755,.T.);
#765=CARTESIAN_POINT('',(2.5E1,5.2875E1,3.E2));
#766=DIRECTION('',(9.982048455606E-1,0.E0,-5.989228914703E-2));
#767=DIRECTION('',(-5.989228914703E-2,0.E0,-9.982048455606E-1));
#768=AXIS2_PLACEMENT_3D('',#765,#766,#767);
#769=PLANE('',#768);
#770=ORIENTED_EDGE('',*,*,#691,.F.);
#772=ORIENTED_EDGE('',*,*,#771,.T.);
#774=ORIENTED_EDGE('',*,*,#773,.F.);
#775=ORIENTED_EDGE('',*,*,#757,.F.);
#776=EDGE_LOOP('',(#770,#772,#774,#775));
#777=FACE_OUTER_BOUND('',#776,.F.);
#778=ADVANCED_FACE('',(#777),#769,.T.);
#779=CARTESIAN_POINT('',(2.5E1,1.7125E1,3.E2));
#780=DIRECTION('',(0.E0,9.992976159263E-1,-3.747365479979E-2));
#781=DIRECTION('',(0.E0,3.747365479979E-2,9.992976159263E-1));
#782=AXIS2_PLACEMENT_3D('',#779,#780,#781);
#783=PLANE('',#782);
#784=ORIENTED_EDGE('',*,*,#689,.F.);
#785=ORIENTED_EDGE('',*,*,#746,.T.);
#787=ORIENTED_EDGE('',*,*,#786,.F.);
#788=ORIENTED_EDGE('',*,*,#771,.F.);
#789=EDGE_LOOP('',(#784,#785,#787,#788));
#790=FACE_OUTER_BOUND('',#789,.F.);
#791=ADVANCED_FACE('',(#790),#783,.T.);
#792=CARTESIAN_POINT('',(9.5E1,1.7125E1,3.15E2));
#793=DIRECTION('',(0.E0,-1.E0,0.E0));
#794=DIRECTION('',(-1.E0,0.E0,0.E0));
#795=AXIS2_PLACEMENT_3D('',#792,#793,#794);
#796=PLANE('',#795);
#797=ORIENTED_EDGE('',*,*,#786,.T.);
#799=ORIENTED_EDGE('',*,*,#798,.T.);
#801=ORIENTED_EDGE('',*,*,#800,.F.);
#803=ORIENTED_EDGE('',*,*,#802,.F.);
#804=EDGE_LOOP('',(#797,#799,#801,#803));
#805=FACE_OUTER_BOUND('',#804,.F.);
#806=ADVANCED_FACE('',(#805),#796,.F.);
#807=CARTESIAN_POINT('',(9.5E1,5.2875E1,3.15E2));
#808=DIRECTION('',(1.E0,0.E0,0.E0));
#809=DIRECTION('',(0.E0,-1.E0,0.E0));
#810=AXIS2_PLACEMENT_3D('',#807,#808,#809);
#811=PLANE('',#810);
#812=ORIENTED_EDGE('',*,*,#744,.T.);
#814=ORIENTED_EDGE('',*,*,#813,.T.);
#816=ORIENTED_EDGE('',*,*,#815,.F.);
#817=ORIENTED_EDGE('',*,*,#798,.F.);
#818=EDGE_LOOP('',(#812,#814,#816,#817));
#819=FACE_OUTER_BOUND('',#818,.F.);
#820=ADVANCED_FACE('',(#819),#811,.F.);
#821=CARTESIAN_POINT('',(2.5E1,5.2875E1,3.15E2));
#822=DIRECTION('',(0.E0,1.E0,0.E0));
#823=DIRECTION('',(1.E0,0.E0,0.E0));
#824=AXIS2_PLACEMENT_3D('',#821,#822,#823);
#825=PLANE('',#824);
#826=ORIENTED_EDGE('',*,*,#759,.T.);
#828=ORIENTED_EDGE('',*,*,#827,.T.);
#830=ORIENTED_EDGE('',*,*,#829,.F.);
#831=ORIENTED_EDGE('',*,*,#813,.F.);
#832=EDGE_LOOP('',(#826,#828,#830,#831));
#833=FACE_OUTER_BOUND('',#832,.F.);
#834=ADVANCED_FACE('',(#833),#825,.F.);
#835=CARTESIAN_POINT('',(2.5E1,1.7125E1,3.15E2));
#836=DIRECTION('',(-1.E0,0.E0,0.E0));
#837=DIRECTION('',(0.E0,1.E0,0.E0));
#838=AXIS2_PLACEMENT_3D('',#835,#836,#837);
#839=PLANE('',#838);
#840=ORIENTED_EDGE('',*,*,#773,.T.);
#841=ORIENTED_EDGE('',*,*,#802,.T.);
#843=ORIENTED_EDGE('',*,*,#842,.F.);
#844=ORIENTED_EDGE('',*,*,#827,.F.);
#845=EDGE_LOOP('',(#840,#841,#843,#844));
#846=FACE_OUTER_BOUND('',#845,.F.);
#847=ADVANCED_FACE('',(#846),#839,.F.);
#848=CARTESIAN_POINT('',(6.E1,3.5E1,3.15E2));
#849=DIRECTION('',(0.E0,0.E0,1.E0));
#850=DIRECTION('',(1.E0,0.E0,0.E0));
#851=AXIS2_PLACEMENT_3D('',#848,#849,#850);
#852=PLANE('',#851);
#854=ORIENTED_EDGE('',*,*,#853,.T.);
#856=ORIENTED_EDGE('',*,*,#855,.T.);
#858=ORIENTED_EDGE('',*,*,#857,.T.);
#859=ORIENTED_EDGE('',*,*,#530,.T.);
#860=EDGE_LOOP('',(#854,#856,#858,#859));
#861=FACE_OUTER_BOUND('',#860,.F.);
#862=ORIENTED_EDGE('',*,*,#800,.T.);
#863=ORIENTED_EDGE('',*,*,#815,.T.);
#864=ORIENTED_EDGE('',*,*,#829,.T.);
#865=ORIENTED_EDGE('',*,*,#842,.T.);
#866=EDGE_LOOP('',(#862,#863,#864,#865));
#867=FACE_BOUND('',#866,.F.);
#868=ADVANCED_FACE('',(#861,#867),#852,.T.);
#869=CARTESIAN_POINT('',(9.8E1,5.55E1,3.E2));
#870=DIRECTION('',(0.E0,1.E0,0.E0));
#871=DIRECTION('',(-1.E0,0.E0,0.E0));
#872=AXIS2_PLACEMENT_3D('',#869,#870,#871);
#873=PLANE('',#872);
#874=ORIENTED_EDGE('',*,*,#554,.F.);
#876=ORIENTED_EDGE('',*,*,#875,.F.);
#877=ORIENTED_EDGE('',*,*,#853,.F.);
#878=ORIENTED_EDGE('',*,*,#528,.T.);
#879=EDGE_LOOP('',(#874,#876,#877,#878));
#880=FACE_OUTER_BOUND('',#879,.F.);
#881=ADVANCED_FACE('',(#880),#873,.T.);
#882=CARTESIAN_POINT('',(9.8E1,1.45E1,3.E2));
#883=DIRECTION('',(1.E0,0.E0,0.E0));
#884=DIRECTION('',(0.E0,1.E0,0.E0));
#885=AXIS2_PLACEMENT_3D('',#882,#883,#884);
#886=PLANE('',#885);
#887=ORIENTED_EDGE('',*,*,#552,.F.);
#889=ORIENTED_EDGE('',*,*,#888,.F.);
#890=ORIENTED_EDGE('',*,*,#855,.F.);
#891=ORIENTED_EDGE('',*,*,#875,.T.);
#892=EDGE_LOOP('',(#887,#889,#890,#891));
#893=FACE_OUTER_BOUND('',#892,.F.);
#894=ADVANCED_FACE('',(#893),#886,.T.);
#895=CARTESIAN_POINT('',(2.2E1,1.45E1,3.E2));
#896=DIRECTION('',(0.E0,-1.E0,0.E0));
#897=DIRECTION('',(1.E0,0.E0,0.E0));
#898=AXIS2_PLACEMENT_3D('',#895,#896,#897);
#899=PLANE('',#898);
#900=ORIENTED_EDGE('',*,*,#557,.F.);
#901=ORIENTED_EDGE('',*,*,#532,.F.);
#902=ORIENTED_EDGE('',*,*,#857,.F.);
#903=ORIENTED_EDGE('',*,*,#888,.T.);
#904=EDGE_LOOP('',(#900,#901,#902,#903));
#905=FACE_OUTER_BOUND('',#904,.F.);
#906=ADVANCED_FACE('',(#905),#899,.T.);
#907=CARTESIAN_POINT('',(6.000000016391E1,6.3E1,2.1E2));
#908=DIRECTION('',(0.E0,0.E0,-1.E0));
#909=DIRECTION('',(-1.E0,0.E0,0.E0));
#910=AXIS2_PLACEMENT_3D('',#907,#908,#909);
#911=PLANE('',#910);
#912=ORIENTED_EDGE('',*,*,#576,.F.);
#914=ORIENTED_EDGE('',*,*,#913,.F.);
#916=ORIENTED_EDGE('',*,*,#915,.F.);
#918=ORIENTED_EDGE('',*,*,#917,.T.);
#919=EDGE_LOOP('',(#912,#914,#916,#918));
#920=FACE_OUTER_BOUND('',#919,.F.);
#921=ADVANCED_FACE('',(#920),#911,.T.);
#922=CARTESIAN_POINT('',(7.800000016391E1,6.55E1,2.3E2));
#923=DIRECTION('',(1.E0,0.E0,0.E0));
#924=DIRECTION('',(0.E0,0.E0,-1.E0));
#925=AXIS2_PLACEMENT_3D('',#922,#923,#924);
#926=PLANE('',#925);
#927=ORIENTED_EDGE('',*,*,#590,.F.);
#929=ORIENTED_EDGE('',*,*,#928,.T.);
#931=ORIENTED_EDGE('',*,*,#930,.F.);
#933=ORIENTED_EDGE('',*,*,#932,.F.);
#934=ORIENTED_EDGE('',*,*,#913,.T.);
#935=EDGE_LOOP('',(#927,#929,#931,#933,#934));
#936=FACE_OUTER_BOUND('',#935,.F.);
#937=ADVANCED_FACE('',(#936),#926,.T.);
#938=CARTESIAN_POINT('',(7.000000016391E1,6.05E1,2.3E2));
#939=DIRECTION('',(0.E0,-1.E0,0.E0));
#940=DIRECTION('',(-1.E0,0.E0,0.E0));
#941=AXIS2_PLACEMENT_3D('',#938,#939,#940);
#942=PLANE('',#941);
#944=ORIENTED_EDGE('',*,*,#943,.T.);
#946=ORIENTED_EDGE('',*,*,#945,.F.);
#947=ORIENTED_EDGE('',*,*,#928,.F.);
#948=ORIENTED_EDGE('',*,*,#588,.F.);
#949=EDGE_LOOP('',(#944,#946,#947,#948));
#950=FACE_OUTER_BOUND('',#949,.F.);
#951=ADVANCED_FACE('',(#950),#942,.T.);
#952=CARTESIAN_POINT('',(7.569999848736E1,6.319999858737E1,2.3E2));
#953=DIRECTION('',(1.E0,0.E0,0.E0));
#954=DIRECTION('',(0.E0,0.E0,-1.E0));
#955=AXIS2_PLACEMENT_3D('',#952,#953,#954);
#956=PLANE('',#955);
#957=ORIENTED_EDGE('',*,*,#586,.F.);
#959=ORIENTED_EDGE('',*,*,#958,.F.);
#961=ORIENTED_EDGE('',*,*,#960,.T.);
#963=ORIENTED_EDGE('',*,*,#962,.F.);
#964=ORIENTED_EDGE('',*,*,#943,.F.);
#965=EDGE_LOOP('',(#957,#959,#961,#963,#964));
#966=FACE_OUTER_BOUND('',#965,.F.);
#967=ADVANCED_FACE('',(#966),#956,.F.);
#968=CARTESIAN_POINT('',(6.509999854490E1,6.434999856167E1,2.12E2));
#969=DIRECTION('',(0.E0,0.E0,-1.E0));
#970=DIRECTION('',(-1.E0,0.E0,0.E0));
#971=AXIS2_PLACEMENT_3D('',#968,#969,#970);
#972=PLANE('',#971);
#973=ORIENTED_EDGE('',*,*,#584,.T.);
#975=ORIENTED_EDGE('',*,*,#974,.T.);
#977=ORIENTED_EDGE('',*,*,#976,.T.);
#979=ORIENTED_EDGE('',*,*,#978,.T.);
#981=ORIENTED_EDGE('',*,*,#980,.F.);
#983=ORIENTED_EDGE('',*,*,#982,.T.);
#985=ORIENTED_EDGE('',*,*,#984,.T.);
#986=ORIENTED_EDGE('',*,*,#958,.T.);
#987=EDGE_LOOP('',(#973,#975,#977,#979,#981,#983,#985,#986));
#988=FACE_OUTER_BOUND('',#987,.F.);
#989=ADVANCED_FACE('',(#988),#972,.F.);
#990=CARTESIAN_POINT('',(4.430000074506E1,6.050000090152E1,2.3E2));
#991=DIRECTION('',(-1.E0,0.E0,0.E0));
#992=DIRECTION('',(0.E0,0.E0,1.E0));
#993=AXIS2_PLACEMENT_3D('',#990,#991,#992);
#994=PLANE('',#993);
#995=ORIENTED_EDGE('',*,*,#582,.F.);
#997=ORIENTED_EDGE('',*,*,#996,.F.);
#999=ORIENTED_EDGE('',*,*,#998,.F.);
#1001=ORIENTED_EDGE('',*,*,#1000,.T.);
#1002=ORIENTED_EDGE('',*,*,#974,.F.);
#1003=EDGE_LOOP('',(#995,#997,#999,#1001,#1002));
#1004=FACE_OUTER_BOUND('',#1003,.F.);
#1005=ADVANCED_FACE('',(#1004),#994,.F.);
#1006=CARTESIAN_POINT('',(7.000000016391E1,6.05E1,2.3E2));
#1007=DIRECTION('',(0.E0,-1.E0,0.E0));
#1008=DIRECTION('',(-1.E0,0.E0,0.E0));
#1009=AXIS2_PLACEMENT_3D('',#1006,#1007,#1008);
#1010=PLANE('',#1009);
#1011=ORIENTED_EDGE('',*,*,#996,.T.);
#1012=ORIENTED_EDGE('',*,*,#580,.T.);
#1014=ORIENTED_EDGE('',*,*,#1013,.F.);
#1016=ORIENTED_EDGE('',*,*,#1015,.T.);
#1017=EDGE_LOOP('',(#1011,#1012,#1014,#1016));
#1018=FACE_OUTER_BOUND('',#1017,.F.);
#1019=ADVANCED_FACE('',(#1018),#1010,.T.);
#1020=CARTESIAN_POINT('',(4.200000016391E1,6.05E1,2.3E2));
#1021=DIRECTION('',(-1.E0,0.E0,0.E0));
#1022=DIRECTION('',(0.E0,0.E0,1.E0));
#1023=AXIS2_PLACEMENT_3D('',#1020,#1021,#1022);
#1024=PLANE('',#1023);
#1025=ORIENTED_EDGE('',*,*,#578,.F.);
#1026=ORIENTED_EDGE('',*,*,#917,.F.);
#1028=ORIENTED_EDGE('',*,*,#1027,.F.);
#1030=ORIENTED_EDGE('',*,*,#1029,.T.);
#1031=ORIENTED_EDGE('',*,*,#1013,.T.);
#1032=EDGE_LOOP('',(#1025,#1026,#1028,#1030,#1031));
#1033=FACE_OUTER_BOUND('',#1032,.F.);
#1034=ADVANCED_FACE('',(#1033),#1024,.T.);
#1035=CARTESIAN_POINT('',(5.000000016391E1,6.749999999950E1,2.3E2));
#1036=DIRECTION('',(0.E0,1.E0,0.E0));
#1037=DIRECTION('',(0.E0,0.E0,1.E0));
#1038=AXIS2_PLACEMENT_3D('',#1035,#1036,#1037);
#1039=PLANE('',#1038);
#1040=ORIENTED_EDGE('',*,*,#980,.T.);
#1042=ORIENTED_EDGE('',*,*,#1041,.T.);
#1044=ORIENTED_EDGE('',*,*,#1043,.T.);
#1045=ORIENTED_EDGE('',*,*,#1027,.T.);
#1046=ORIENTED_EDGE('',*,*,#915,.T.);
#1047=ORIENTED_EDGE('',*,*,#932,.T.);
#1049=ORIENTED_EDGE('',*,*,#1048,.T.);
#1051=ORIENTED_EDGE('',*,*,#1050,.T.);
#1052=EDGE_LOOP('',(#1040,#1042,#1044,#1045,#1046,#1047,#1049,#1051));
#1053=FACE_OUTER_BOUND('',#1052,.F.);
#1054=ADVANCED_FACE('',(#1053),#1039,.T.);
#1055=CARTESIAN_POINT('',(4.679999877512E1,6.320000090152E1,2.3E2));
#1056=DIRECTION('',(-1.E0,0.E0,0.E0));
#1057=DIRECTION('',(0.E0,0.E0,1.E0));
#1058=AXIS2_PLACEMENT_3D('',#1055,#1056,#1057);
#1059=PLANE('',#1058);
#1061=ORIENTED_EDGE('',*,*,#1060,.T.);
#1063=ORIENTED_EDGE('',*,*,#1062,.F.);
#1064=ORIENTED_EDGE('',*,*,#1041,.F.);
#1065=ORIENTED_EDGE('',*,*,#978,.F.);
#1066=EDGE_LOOP('',(#1061,#1063,#1064,#1065));
#1067=FACE_OUTER_BOUND('',#1066,.F.);
#1068=ADVANCED_FACE('',(#1067),#1059,.F.);
#1069=CARTESIAN_POINT('',(5.230000074506E1,6.520000090152E1,2.3E2));
#1070=DIRECTION('',(0.E0,1.E0,0.E0));
#1071=DIRECTION('',(0.E0,0.E0,1.E0));
#1072=AXIS2_PLACEMENT_3D('',#1069,#1070,#1071);
#1073=PLANE('',#1072);
#1074=ORIENTED_EDGE('',*,*,#1060,.F.);
#1075=ORIENTED_EDGE('',*,*,#976,.F.);
#1076=ORIENTED_EDGE('',*,*,#1000,.F.);
#1078=ORIENTED_EDGE('',*,*,#1077,.F.);
#1079=EDGE_LOOP('',(#1074,#1075,#1076,#1078));
#1080=FACE_OUTER_BOUND('',#1079,.F.);
#1081=ADVANCED_FACE('',(#1080),#1073,.F.);
#1082=CARTESIAN_POINT('',(6.000000016391E1,6.3E1,2.3E2));
#1083=DIRECTION('',(0.E0,0.E0,1.E0));
#1084=DIRECTION('',(-1.E0,0.E0,0.E0));
#1085=AXIS2_PLACEMENT_3D('',#1082,#1083,#1084);
#1086=PLANE('',#1085);
#1087=ORIENTED_EDGE('',*,*,#998,.T.);
#1088=ORIENTED_EDGE('',*,*,#1015,.F.);
#1089=ORIENTED_EDGE('',*,*,#1029,.F.);
#1090=ORIENTED_EDGE('',*,*,#1043,.F.);
#1091=ORIENTED_EDGE('',*,*,#1062,.T.);
#1092=ORIENTED_EDGE('',*,*,#1077,.T.);
#1093=EDGE_LOOP('',(#1087,#1088,#1089,#1090,#1091,#1092));
#1094=FACE_OUTER_BOUND('',#1093,.F.);
#1095=ADVANCED_FACE('',(#1094),#1086,.T.);
#1096=CARTESIAN_POINT('',(6.000000016391E1,6.3E1,2.3E2));
#1097=DIRECTION('',(0.E0,0.E0,1.E0));
#1098=DIRECTION('',(-1.E0,0.E0,0.E0));
#1099=AXIS2_PLACEMENT_3D('',#1096,#1097,#1098);
#1100=PLANE('',#1099);
#1101=ORIENTED_EDGE('',*,*,#962,.T.);
#1103=ORIENTED_EDGE('',*,*,#1102,.T.);
#1105=ORIENTED_EDGE('',*,*,#1104,.T.);
#1106=ORIENTED_EDGE('',*,*,#1048,.F.);
#1107=ORIENTED_EDGE('',*,*,#930,.T.);
#1108=ORIENTED_EDGE('',*,*,#945,.T.);
#1109=EDGE_LOOP('',(#1101,#1103,#1105,#1106,#1107,#1108));
#1110=FACE_OUTER_BOUND('',#1109,.F.);
#1111=ADVANCED_FACE('',(#1110),#1100,.T.);
#1112=CARTESIAN_POINT('',(6.519999854267E1,6.519999858737E1,2.3E2));
#1113=DIRECTION('',(0.E0,1.E0,0.E0));
#1114=DIRECTION('',(0.E0,0.E0,1.E0));
#1115=AXIS2_PLACEMENT_3D('',#1112,#1113,#1114);
#1116=PLANE('',#1115);
#1118=ORIENTED_EDGE('',*,*,#1117,.F.);
#1119=ORIENTED_EDGE('',*,*,#1102,.F.);
#1120=ORIENTED_EDGE('',*,*,#960,.F.);
#1121=ORIENTED_EDGE('',*,*,#984,.F.);
#1122=EDGE_LOOP('',(#1118,#1119,#1120,#1121));
#1123=FACE_OUTER_BOUND('',#1122,.F.);
#1124=ADVANCED_FACE('',(#1123),#1116,.F.);
#1125=CARTESIAN_POINT('',(7.319999854267E1,6.549999999950E1,2.3E2));
#1126=DIRECTION('',(1.E0,0.E0,0.E0));
#1127=DIRECTION('',(0.E0,0.E0,-1.E0));
#1128=AXIS2_PLACEMENT_3D('',#1125,#1126,#1127);
#1129=PLANE('',#1128);
#1130=ORIENTED_EDGE('',*,*,#1117,.T.);
#1131=ORIENTED_EDGE('',*,*,#982,.F.);
#1132=ORIENTED_EDGE('',*,*,#1050,.F.);
#1133=ORIENTED_EDGE('',*,*,#1104,.F.);
#1134=EDGE_LOOP('',(#1130,#1131,#1132,#1133));
#1135=FACE_OUTER_BOUND('',#1134,.F.);
#1136=ADVANCED_FACE('',(#1135),#1129,.F.);
#1138=DIRECTION('',(1.E0,1.084779119218E-10,-5.785488528173E-9));
#1139=VECTOR('',#1138,8.800000129692E1);
#1140=CARTESIAN_POINT('',(1.600000023797E1,5.850000087144E1,1.666666664034E2));
#1141=LINE('',#1140,#1139);
#1142=DIRECTION('',(-1.E0,0.E0,0.E0));
#1143=VECTOR('',#1142,8.800000131130E1);
#1144=CARTESIAN_POINT('',(1.040000015497E2,5.850000087172E1,1.7E2));
#1145=LINE('',#1144,#1143);
#1146=DIRECTION('',(-1.341124438834E-10,-8.381561449082E-11,-1.E0));
#1147=VECTOR('',#1146,3.333333596587E0);
#1148=CARTESIAN_POINT('',(1.600000023842E1,5.850000087172E1,1.7E2));
#1149=LINE('',#1148,#1147);
#1150=DIRECTION('',(5.985037732901E-2,3.740648424831E-2,-9.975062342009E-1));
#1151=VECTOR('',#1150,1.336666674695E2);
#1152=CARTESIAN_POINT('',(9.600000105053E1,5.350000078976E1,3.E2));
#1153=LINE('',#1152,#1151);
#1154=DIRECTION('',(-5.985037494895E-2,3.740648432498E-2,-9.975062343409E-1));
#1155=VECTOR('',#1154,1.336666669404E2);
#1156=CARTESIAN_POINT('',(2.400000037253E1,5.350000078976E1,3.E2));
#1157=LINE('',#1156,#1155);
#1158=DIRECTION('',(5.782918627171E-9,1.E0,1.927639553981E-7));
#1159=VECTOR('',#1158,4.700000052992E1);
#1160=CARTESIAN_POINT('',(1.599999996617E1,1.150000034152E1,1.666666573435E2));
#1161=LINE('',#1160,#1159);
#1162=DIRECTION('',(0.E0,-1.E0,0.E0));
#1163=VECTOR('',#1162,4.700000070035E1);
#1164=CARTESIAN_POINT('',(1.600000023842E1,5.850000087172E1,1.7E2));
#1165=LINE('',#1164,#1163);
#1166=DIRECTION('',(-8.167303651588E-8,5.104563816351E-8,-1.E0));
#1167=VECTOR('',#1166,3.333342656494E0);
#1168=CARTESIAN_POINT('',(1.600000023842E1,1.150000017136E1,1.7E2));
#1169=LINE('',#1168,#1167);
#1170=DIRECTION('',(8.819549763925E-9,1.E0,0.E0));
#1171=VECTOR('',#1170,4.783333333450E1);
#1172=CARTESIAN_POINT('',(1.046666677538E2,1.108333419941E1,1.7E2));
#1173=LINE('',#1172,#1171);
#1174=DIRECTION('',(-1.E0,0.E0,0.E0));
#1175=VECTOR('',#1174,8.933333459894E1);
#1176=CARTESIAN_POINT('',(1.046666681757E2,5.891666753391E1,1.7E2));
#1177=LINE('',#1176,#1175);
#1178=DIRECTION('',(0.E0,-1.E0,0.E0));
#1179=VECTOR('',#1178,4.783333333333E1);
#1180=CARTESIAN_POINT('',(1.533333357672E1,5.891666753391E1,1.7E2));
#1181=LINE('',#1180,#1179);
#1182=DIRECTION('',(1.E0,-1.306008025699E-11,0.E0));
#1183=VECTOR('',#1182,8.933333417707E1);
#1184=CARTESIAN_POINT('',(1.533333357672E1,1.108333420058E1,1.7E2));
#1185=LINE('',#1184,#1183);
#1186=DIRECTION('',(-6.646159981276E-2,4.153849830634E-2,9.969239734848E-1));
#1187=VECTOR('',#1186,1.304011172944E2);
#1188=CARTESIAN_POINT('',(1.046666677538E2,1.108333419941E1,1.7E2));
#1189=LINE('',#1188,#1187);
#1190=DIRECTION('',(4.581100231834E-9,1.E0,0.E0));
#1191=VECTOR('',#1190,3.700000000047E1);
#1192=CARTESIAN_POINT('',(9.600000088103E1,1.650000078929E1,3.E2));
#1193=LINE('',#1192,#1191);
#1194=DIRECTION('',(6.646159922530E-2,4.153849830263E-2,9.969239735241E-1));
#1195=VECTOR('',#1194,1.304011172893E2);
#1196=CARTESIAN_POINT('',(1.533333357672E1,1.108333420058E1,1.7E2));
#1197=LINE('',#1196,#1195);
#1198=DIRECTION('',(1.E0,-6.510495800158E-12,0.E0));
#1199=VECTOR('',#1198,7.200000050850E1);
#1200=CARTESIAN_POINT('',(2.400000037253E1,1.650000078976E1,3.E2));
#1201=LINE('',#1200,#1199);
#1202=DIRECTION('',(6.646159922202E-2,-4.153849948900E-2,9.969239734749E-1));
#1203=VECTOR('',#1202,1.304011172957E2);
#1204=CARTESIAN_POINT('',(1.533333357672E1,5.891666753391E1,1.7E2));
#1205=LINE('',#1204,#1203);
#1206=DIRECTION('',(0.E0,-1.E0,0.E0));
#1207=VECTOR('',#1206,3.7E1);
#1208=CARTESIAN_POINT('',(2.400000037253E1,5.350000078976E1,3.E2));
#1209=LINE('',#1208,#1207);
#1210=DIRECTION('',(-6.646160173627E-2,-4.153849948203E-2,9.969239733076E-1));
#1211=VECTOR('',#1210,1.304011173176E2);
#1212=CARTESIAN_POINT('',(1.046666681757E2,5.891666753391E1,1.7E2));
#1213=LINE('',#1212,#1211);
#1214=DIRECTION('',(-1.E0,0.E0,0.E0));
#1215=VECTOR('',#1214,7.200000067800E1);
#1216=CARTESIAN_POINT('',(9.600000105053E1,5.350000078976E1,3.E2));
#1217=LINE('',#1216,#1215);
#1218=DIRECTION('',(-5.985037292239E-2,-3.740648452991E-2,-9.975062344548E-1));
#1219=VECTOR('',#1218,1.336666760077E2);
#1220=CARTESIAN_POINT('',(2.400000037253E1,1.650000078976E1,3.E2));
#1221=LINE('',#1220,#1219);
#1222=DIRECTION('',(-1.E0,1.084778708800E-10,5.785488492435E-9));
#1223=VECTOR('',#1222,8.800000184052E1);
#1224=CARTESIAN_POINT('',(1.040000018067E2,1.150000033197E1,1.666666568344E2));
#1225=LINE('',#1224,#1223);
#1226=DIRECTION('',(1.E0,0.E0,0.E0));
#1227=VECTOR('',#1226,8.800000131130E1);
#1228=CARTESIAN_POINT('',(1.600000023842E1,1.150000017136E1,1.7E2));
#1229=LINE('',#1228,#1227);
#1230=DIRECTION('',(7.709090395136E-8,4.818182296318E-8,-1.E0));
#1231=VECTOR('',#1230,3.333343165617E0);
#1232=CARTESIAN_POINT('',(1.040000015497E2,1.150000017136E1,1.7E2));
#1233=LINE('',#1232,#1231);
#1234=DIRECTION('',(5.782919191744E-9,-1.E0,-1.927639553198E-7));
#1235=VECTOR('',#1234,4.700000054902E1);
#1236=CARTESIAN_POINT('',(1.040000015349E2,5.850000088098E1,1.666666658943E2));
#1237=LINE('',#1236,#1235);
#1238=DIRECTION('',(0.E0,1.E0,0.E0));
#1239=VECTOR('',#1238,4.700000070035E1);
#1240=CARTESIAN_POINT('',(1.040000015497E2,1.150000017136E1,1.7E2));
#1241=LINE('',#1240,#1239);
#1242=DIRECTION('',(-4.448024916902E-9,2.779998520042E-9,-1.E0));
#1243=VECTOR('',#1242,3.333334105710E0);
#1244=CARTESIAN_POINT('',(1.040000015497E2,5.850000087172E1,1.7E2));
#1245=LINE('',#1244,#1243);
#1246=DIRECTION('',(5.985037656600E-2,-3.740648444691E-2,-9.975062342393E-1));
#1247=VECTOR('',#1246,1.336666765469E2);
#1248=CARTESIAN_POINT('',(9.600000088103E1,1.650000078929E1,3.E2));
#1249=LINE('',#1248,#1247);
#1250=CARTESIAN_POINT('',(1.600000023797E1,5.850000087144E1,1.666666664034E2));
#1251=CARTESIAN_POINT('',(1.040000015349E2,5.850000088098E1,1.666666658943E2));
#1252=VERTEX_POINT('',#1250);
#1253=VERTEX_POINT('',#1251);
#1254=CARTESIAN_POINT('',(1.040000015497E2,5.850000087172E1,1.7E2));
#1255=VERTEX_POINT('',#1254);
#1256=CARTESIAN_POINT('',(1.600000023842E1,5.850000087172E1,1.7E2));
#1257=VERTEX_POINT('',#1256);
#1258=CARTESIAN_POINT('',(1.040000018067E2,1.150000033197E1,1.666666568344E2));
#1259=VERTEX_POINT('',#1258);
#1260=CARTESIAN_POINT('',(1.040000015497E2,1.150000017136E1,1.7E2));
#1261=VERTEX_POINT('',#1260);
#1262=CARTESIAN_POINT('',(1.046666677538E2,1.108333419941E1,1.7E2));
#1263=CARTESIAN_POINT('',(1.046666681757E2,5.891666753391E1,1.7E2));
#1264=VERTEX_POINT('',#1262);
#1265=VERTEX_POINT('',#1263);
#1266=CARTESIAN_POINT('',(1.533333357672E1,5.891666753391E1,1.7E2));
#1267=VERTEX_POINT('',#1266);
#1268=CARTESIAN_POINT('',(1.533333357672E1,1.108333420058E1,1.7E2));
#1269=VERTEX_POINT('',#1268);
#1270=CARTESIAN_POINT('',(1.600000023842E1,1.150000017136E1,1.7E2));
#1271=VERTEX_POINT('',#1270);
#1272=CARTESIAN_POINT('',(1.599999996617E1,1.150000034152E1,1.666666573435E2));
#1273=VERTEX_POINT('',#1272);
#1274=CARTESIAN_POINT('',(2.400000037253E1,1.650000078976E1,3.E2));
#1275=VERTEX_POINT('',#1274);
#1276=CARTESIAN_POINT('',(2.400000037253E1,5.350000078976E1,3.E2));
#1277=VERTEX_POINT('',#1276);
#1278=CARTESIAN_POINT('',(9.600000088103E1,1.650000078929E1,3.E2));
#1279=VERTEX_POINT('',#1278);
#1280=CARTESIAN_POINT('',(9.600000105053E1,5.350000078976E1,3.E2));
#1281=VERTEX_POINT('',#1280);
#1282=CARTESIAN_POINT('',(1.600000023842E1,5.850000087172E1,1.5E2));
#1283=DIRECTION('',(0.E0,-1.E0,0.E0));
#1284=DIRECTION('',(1.E0,0.E0,0.E0));
#1285=AXIS2_PLACEMENT_3D('',#1282,#1283,#1284);
#1286=PLANE('',#1285);
#1288=ORIENTED_EDGE('',*,*,#1287,.T.);
#1290=ORIENTED_EDGE('',*,*,#1289,.F.);
#1292=ORIENTED_EDGE('',*,*,#1291,.T.);
#1294=ORIENTED_EDGE('',*,*,#1293,.T.);
#1295=EDGE_LOOP('',(#1288,#1290,#1292,#1294));
#1296=FACE_OUTER_BOUND('',#1295,.F.);
#1297=ADVANCED_FACE('',(#1296),#1286,.F.);
#1298=CARTESIAN_POINT('',(1.500000023842E1,5.912500087023E1,1.5E2));
#1299=DIRECTION('',(0.E0,-9.992976156891E-1,-3.747366112441E-2));
#1300=DIRECTION('',(0.E0,3.747366112441E-2,-9.992976156891E-1));
#1301=AXIS2_PLACEMENT_3D('',#1298,#1299,#1300);
#1302=PLANE('',#1301);
#1303=ORIENTED_EDGE('',*,*,#1287,.F.);
#1305=ORIENTED_EDGE('',*,*,#1304,.F.);
#1307=ORIENTED_EDGE('',*,*,#1306,.F.);
#1309=ORIENTED_EDGE('',*,*,#1308,.T.);
#1310=EDGE_LOOP('',(#1303,#1305,#1307,#1309));
#1311=FACE_OUTER_BOUND('',#1310,.F.);
#1312=ADVANCED_FACE('',(#1311),#1302,.T.);
#1313=CARTESIAN_POINT('',(1.500000023842E1,1.087500087023E1,1.5E2));
#1314=DIRECTION('',(9.982048454124E-1,0.E0,-5.989229161721E-2));
#1315=DIRECTION('',(-5.989229161721E-2,0.E0,-9.982048454124E-1));
#1316=AXIS2_PLACEMENT_3D('',#1313,#1314,#1315);
#1317=PLANE('',#1316);
#1319=ORIENTED_EDGE('',*,*,#1318,.F.);
#1321=ORIENTED_EDGE('',*,*,#1320,.F.);
#1323=ORIENTED_EDGE('',*,*,#1322,.F.);
#1324=ORIENTED_EDGE('',*,*,#1304,.T.);
#1325=EDGE_LOOP('',(#1319,#1321,#1323,#1324));
#1326=FACE_OUTER_BOUND('',#1325,.F.);
#1327=ADVANCED_FACE('',(#1326),#1317,.T.);
#1328=CARTESIAN_POINT('',(1.600000023842E1,1.150000017136E1,1.5E2));
#1329=DIRECTION('',(1.E0,0.E0,0.E0));
#1330=DIRECTION('',(0.E0,1.E0,0.E0));
#1331=AXIS2_PLACEMENT_3D('',#1328,#1329,#1330);
#1332=PLANE('',#1331);
#1333=ORIENTED_EDGE('',*,*,#1318,.T.);
#1334=ORIENTED_EDGE('',*,*,#1293,.F.);
#1336=ORIENTED_EDGE('',*,*,#1335,.T.);
#1338=ORIENTED_EDGE('',*,*,#1337,.T.);
#1339=EDGE_LOOP('',(#1333,#1334,#1336,#1338));
#1340=FACE_OUTER_BOUND('',#1339,.F.);
#1341=ADVANCED_FACE('',(#1340),#1332,.F.);
#1342=CARTESIAN_POINT('',(5.999750284973E1,3.500500166265E1,1.7E2));
#1343=DIRECTION('',(0.E0,0.E0,1.E0));
#1344=DIRECTION('',(1.E0,0.E0,0.E0));
#1345=AXIS2_PLACEMENT_3D('',#1342,#1343,#1344);
#1346=PLANE('',#1345);
#1348=ORIENTED_EDGE('',*,*,#1347,.T.);
#1350=ORIENTED_EDGE('',*,*,#1349,.T.);
#1352=ORIENTED_EDGE('',*,*,#1351,.T.);
#1354=ORIENTED_EDGE('',*,*,#1353,.T.);
#1355=EDGE_LOOP('',(#1348,#1350,#1352,#1354));
#1356=FACE_OUTER_BOUND('',#1355,.F.);
#1357=ORIENTED_EDGE('',*,*,#1291,.F.);
#1359=ORIENTED_EDGE('',*,*,#1358,.F.);
#1361=ORIENTED_EDGE('',*,*,#1360,.F.);
#1362=ORIENTED_EDGE('',*,*,#1335,.F.);
#1363=EDGE_LOOP('',(#1357,#1359,#1361,#1362));
#1364=FACE_BOUND('',#1363,.F.);
#1365=ADVANCED_FACE('',(#1356,#1364),#1346,.F.);
#1366=CARTESIAN_POINT('',(8.600000052154E1,4.725000070035E1,4.5E2));
#1367=DIRECTION('',(9.977851576231E-1,0.E0,6.651901402700E-2));
#1368=DIRECTION('',(6.651901402700E-2,0.E0,-9.977851576231E-1));
#1369=AXIS2_PLACEMENT_3D('',#1366,#1367,#1368);
#1370=PLANE('',#1369);
#1371=ORIENTED_EDGE('',*,*,#1347,.F.);
#1373=ORIENTED_EDGE('',*,*,#1372,.T.);
#1375=ORIENTED_EDGE('',*,*,#1374,.T.);
#1377=ORIENTED_EDGE('',*,*,#1376,.F.);
#1378=EDGE_LOOP('',(#1371,#1373,#1375,#1377));
#1379=FACE_OUTER_BOUND('',#1378,.F.);
#1380=ADVANCED_FACE('',(#1379),#1370,.T.);
#1381=CARTESIAN_POINT('',(8.600000052154E1,2.275000070035E1,4.5E2));
#1382=DIRECTION('',(0.E0,-9.991330731171E-1,4.163054411768E-2));
#1383=DIRECTION('',(0.E0,-4.163054411768E-2,-9.991330731171E-1));
#1384=AXIS2_PLACEMENT_3D('',#1381,#1382,#1383);
#1385=PLANE('',#1384);
#1386=ORIENTED_EDGE('',*,*,#1353,.F.);
#1388=ORIENTED_EDGE('',*,*,#1387,.T.);
#1390=ORIENTED_EDGE('',*,*,#1389,.T.);
#1391=ORIENTED_EDGE('',*,*,#1372,.F.);
#1392=EDGE_LOOP('',(#1386,#1388,#1390,#1391));
#1393=FACE_OUTER_BOUND('',#1392,.F.);
#1394=ADVANCED_FACE('',(#1393),#1385,.T.);
#1395=CARTESIAN_POINT('',(3.400000052154E1,2.275000070035E1,4.5E2));
#1396=DIRECTION('',(-9.977851577908E-1,0.E0,6.651901151060E-2));
#1397=DIRECTION('',(6.651901151060E-2,0.E0,9.977851577908E-1));
#1398=AXIS2_PLACEMENT_3D('',#1395,#1396,#1397);
#1399=PLANE('',#1398);
#1400=ORIENTED_EDGE('',*,*,#1351,.F.);
#1402=ORIENTED_EDGE('',*,*,#1401,.T.);
#1403=ORIENTED_EDGE('',*,*,#1322,.T.);
#1404=ORIENTED_EDGE('',*,*,#1387,.F.);
#1405=EDGE_LOOP('',(#1400,#1402,#1403,#1404));
#1406=FACE_OUTER_BOUND('',#1405,.F.);
#1407=ADVANCED_FACE('',(#1406),#1399,.T.);
#1408=CARTESIAN_POINT('',(3.400000052154E1,4.725000070035E1,4.5E2));
#1409=DIRECTION('',(0.E0,9.991330730676E-1,4.163054530668E-2));
#1410=DIRECTION('',(0.E0,-4.163054530668E-2,9.991330730676E-1));
#1411=AXIS2_PLACEMENT_3D('',#1408,#1409,#1410);
#1412=PLANE('',#1411);
#1413=ORIENTED_EDGE('',*,*,#1349,.F.);
#1414=ORIENTED_EDGE('',*,*,#1376,.T.);
#1415=ORIENTED_EDGE('',*,*,#1306,.T.);
#1416=ORIENTED_EDGE('',*,*,#1401,.F.);
#1417=EDGE_LOOP('',(#1413,#1414,#1415,#1416));
#1418=FACE_OUTER_BOUND('',#1417,.F.);
#1419=ADVANCED_FACE('',(#1418),#1412,.T.);
#1420=CARTESIAN_POINT('',(1.050000015266E2,1.087500087023E1,1.5E2));
#1421=DIRECTION('',(0.E0,9.992976157293E-1,-3.747366005378E-2));
#1422=DIRECTION('',(0.E0,3.747366005378E-2,9.992976157293E-1));
#1423=AXIS2_PLACEMENT_3D('',#1420,#1421,#1422);
#1424=PLANE('',#1423);
#1426=ORIENTED_EDGE('',*,*,#1425,.F.);
#1428=ORIENTED_EDGE('',*,*,#1427,.F.);
#1429=ORIENTED_EDGE('',*,*,#1389,.F.);
#1430=ORIENTED_EDGE('',*,*,#1320,.T.);
#1431=EDGE_LOOP('',(#1426,#1428,#1429,#1430));
#1432=FACE_OUTER_BOUND('',#1431,.F.);
#1433=ADVANCED_FACE('',(#1432),#1424,.T.);
#1434=CARTESIAN_POINT('',(1.040000015497E2,1.150000017136E1,1.5E2));
#1435=DIRECTION('',(0.E0,1.E0,0.E0));
#1436=DIRECTION('',(-1.E0,0.E0,0.E0));
#1437=AXIS2_PLACEMENT_3D('',#1434,#1435,#1436);
#1438=PLANE('',#1437);
#1439=ORIENTED_EDGE('',*,*,#1425,.T.);
#1440=ORIENTED_EDGE('',*,*,#1337,.F.);
#1441=ORIENTED_EDGE('',*,*,#1360,.T.);
#1443=ORIENTED_EDGE('',*,*,#1442,.T.);
#1444=EDGE_LOOP('',(#1439,#1440,#1441,#1443));
#1445=FACE_OUTER_BOUND('',#1444,.F.);
#1446=ADVANCED_FACE('',(#1445),#1438,.F.);
#1447=CARTESIAN_POINT('',(1.040000015497E2,5.850000087172E1,1.5E2));
#1448=DIRECTION('',(-1.E0,0.E0,0.E0));
#1449=DIRECTION('',(0.E0,-1.E0,0.E0));
#1450=AXIS2_PLACEMENT_3D('',#1447,#1448,#1449);
#1451=PLANE('',#1450);
#1453=ORIENTED_EDGE('',*,*,#1452,.T.);
#1454=ORIENTED_EDGE('',*,*,#1442,.F.);
#1455=ORIENTED_EDGE('',*,*,#1358,.T.);
#1456=ORIENTED_EDGE('',*,*,#1289,.T.);
#1457=EDGE_LOOP('',(#1453,#1454,#1455,#1456));
#1458=FACE_OUTER_BOUND('',#1457,.F.);
#1459=ADVANCED_FACE('',(#1458),#1451,.F.);
#1460=CARTESIAN_POINT('',(1.050000015266E2,5.912500087023E1,1.5E2));
#1461=DIRECTION('',(-9.982048452764E-1,0.E0,-5.989229388483E-2));
#1462=DIRECTION('',(-5.989229388483E-2,0.E0,9.982048452764E-1));
#1463=AXIS2_PLACEMENT_3D('',#1460,#1461,#1462);
#1464=PLANE('',#1463);
#1465=ORIENTED_EDGE('',*,*,#1452,.F.);
#1466=ORIENTED_EDGE('',*,*,#1308,.F.);
#1467=ORIENTED_EDGE('',*,*,#1374,.F.);
#1468=ORIENTED_EDGE('',*,*,#1427,.T.);
#1469=EDGE_LOOP('',(#1465,#1466,#1467,#1468));
#1470=FACE_OUTER_BOUND('',#1469,.F.);
#1471=ADVANCED_FACE('',(#1470),#1464,.T.);
#1473=ORIENTED_CLOSED_SHELL('',*,#1472,.F.);
#1476=DIMENSIONAL_EXPONENTS(0.E0,0.E0,0.E0,0.E0,0.E0,0.E0,0.E0);
#1478=PLANE_ANGLE_MEASURE_WITH_UNIT(PLANE_ANGLE_MEASURE(1.745329251994E-2),
#1477);
#1479=(CONVERSION_BASED_UNIT('DEGREE',#1478)NAMED_UNIT(*)PLANE_ANGLE_UNIT());
#1481=UNCERTAINTY_MEASURE_WITH_UNIT(LENGTH_MEASURE(2.024185871914E-2),#1475,
'closure',
'Maximum model space distance between geometric entities at asserted connectivities');
#1482=(GEOMETRIC_REPRESENTATION_CONTEXT(3)GLOBAL_UNCERTAINTY_ASSIGNED_CONTEXT((
#1481))GLOBAL_UNIT_ASSIGNED_CONTEXT((#1475,#1479,#1480))REPRESENTATION_CONTEXT(
'ID1','3'));
#1484=APPLICATION_CONTEXT(
'CONFIGURATION CONTROLLED 3D DESIGNS OF MECHANICAL PARTS AND ASSEMBLIES');
#1485=APPLICATION_PROTOCOL_DEFINITION('international standard',
'config_control_design',1994,#1484);
#1486=DESIGN_CONTEXT('',#1484,'design');
#1487=MECHANICAL_CONTEXT('',#1484,'mechanical');
#1488=PRODUCT('322000142300','322000142300','NOT SPECIFIED',(#1487));
#1489=PRODUCT_DEFINITION_FORMATION_WITH_SPECIFIED_SOURCE('1','LAST_VERSION',
#1488,.MADE.);
#1493=PRODUCT_CATEGORY('part','');
#1494=PRODUCT_RELATED_PRODUCT_CATEGORY('detail','',(#1488));
#1495=PRODUCT_CATEGORY_RELATIONSHIP('','',#1493,#1494);
#1496=SECURITY_CLASSIFICATION_LEVEL('unclassified');
#1497=SECURITY_CLASSIFICATION('','',#1496);
#1498=CC_DESIGN_SECURITY_CLASSIFICATION(#1497,(#1489));
#1499=APPROVAL_STATUS('approved');
#1500=APPROVAL(#1499,'');
#1501=CC_DESIGN_APPROVAL(#1500,(#1497,#1489,#1490));
#1502=CALENDAR_DATE(126,27,7);
#1503=COORDINATED_UNIVERSAL_TIME_OFFSET(8,0,.AHEAD.);
#1504=LOCAL_TIME(19,41,5.5E1,#1503);
#1505=DATE_AND_TIME(#1502,#1504);
#1506=APPROVAL_DATE_TIME(#1505,#1500);
#1507=DATE_TIME_ROLE('creation_date');
#1508=CC_DESIGN_DATE_AND_TIME_ASSIGNMENT(#1505,#1507,(#1490));
#1509=DATE_TIME_ROLE('classification_date');
#1510=CC_DESIGN_DATE_AND_TIME_ASSIGNMENT(#1505,#1509,(#1497));
#1511=PERSON('UNSPECIFIED','UNSPECIFIED',$,$,$,$);
#1512=ORGANIZATION('UNSPECIFIED','UNSPECIFIED','UNSPECIFIED');
#1513=PERSON_AND_ORGANIZATION(#1511,#1512);
#1514=APPROVAL_ROLE('approver');
#1515=APPROVAL_PERSON_ORGANIZATION(#1513,#1500,#1514);
#1516=PERSON_AND_ORGANIZATION_ROLE('creator');
#1517=CC_DESIGN_PERSON_AND_ORGANIZATION_ASSIGNMENT(#1513,#1516,(#1489,#1490));
#1518=PERSON_AND_ORGANIZATION_ROLE('design_supplier');
#1519=CC_DESIGN_PERSON_AND_ORGANIZATION_ASSIGNMENT(#1513,#1518,(#1489));
#1520=PERSON_AND_ORGANIZATION_ROLE('classification_officer');
#1521=CC_DESIGN_PERSON_AND_ORGANIZATION_ASSIGNMENT(#1513,#1520,(#1497));
#1522=PERSON_AND_ORGANIZATION_ROLE('design_owner');
#1523=CC_DESIGN_PERSON_AND_ORGANIZATION_ASSIGNMENT(#1513,#1522,(#1488));
#526=EDGE_CURVE('',#506,#502,#4,.T.);
#528=EDGE_CURVE('',#508,#506,#8,.T.);
#530=EDGE_CURVE('',#504,#508,#12,.T.);
#532=EDGE_CURVE('',#504,#502,#228,.T.);
#542=EDGE_CURVE('',#468,#470,#20,.T.);
#544=EDGE_CURVE('',#470,#510,#52,.T.);
#546=EDGE_CURVE('',#510,#512,#44,.T.);
#548=EDGE_CURVE('',#512,#468,#36,.T.);
#552=EDGE_CURVE('',#495,#496,#212,.T.);
#554=EDGE_CURVE('',#496,#506,#200,.T.);
#557=EDGE_CURVE('',#502,#495,#224,.T.);
#567=EDGE_CURVE('',#467,#468,#16,.T.);
#569=EDGE_CURVE('',#467,#472,#56,.T.);
#571=EDGE_CURVE('',#472,#470,#48,.T.);
#576=EDGE_CURVE('',#448,#445,#236,.T.);
#578=EDGE_CURVE('',#445,#446,#312,.T.);
#580=EDGE_CURVE('',#441,#446,#24,.T.);
#582=EDGE_CURVE('',#441,#442,#292,.T.);
#584=EDGE_CURVE('',#435,#442,#28,.T.);
#586=EDGE_CURVE('',#435,#436,#272,.T.);
#588=EDGE_CURVE('',#436,#438,#268,.T.);
#590=EDGE_CURVE('',#438,#448,#248,.T.);
#600=EDGE_CURVE('',#476,#512,#32,.T.);
#602=EDGE_CURVE('',#476,#467,#60,.T.);
#614=EDGE_CURVE('',#474,#510,#40,.T.);
#616=EDGE_CURVE('',#474,#476,#64,.T.);
#629=EDGE_CURVE('',#472,#474,#68,.T.);
#647=EDGE_CURVE('',#464,#454,#80,.T.);
#649=EDGE_CURVE('',#454,#456,#92,.T.);
#651=EDGE_CURVE('',#456,#460,#104,.T.);
#653=EDGE_CURVE('',#460,#464,#116,.T.);
#663=EDGE_CURVE('',#452,#462,#72,.T.);
#665=EDGE_CURVE('',#454,#452,#76,.T.);
#668=EDGE_CURVE('',#464,#462,#112,.T.);
#678=EDGE_CURVE('',#451,#452,#84,.T.);
#681=EDGE_CURVE('',#462,#458,#108,.T.);
#683=EDGE_CURVE('',#458,#451,#96,.T.);
#687=EDGE_CURVE('',#520,#518,#120,.T.);
#689=EDGE_CURVE('',#518,#515,#156,.T.);
#691=EDGE_CURVE('',#515,#516,#144,.T.);
#693=EDGE_CURVE('',#516,#520,#132,.T.);
#704=EDGE_CURVE('',#456,#451,#88,.T.);
#717=EDGE_CURVE('',#460,#458,#100,.T.);
#742=EDGE_CURVE('',#520,#479,#140,.T.);
#744=EDGE_CURVE('',#490,#479,#124,.T.);
#746=EDGE_CURVE('',#518,#490,#128,.T.);
#757=EDGE_CURVE('',#516,#480,#152,.T.);
#759=EDGE_CURVE('',#479,#480,#136,.T.);
#771=EDGE_CURVE('',#515,#486,#164,.T.);
#773=EDGE_CURVE('',#480,#486,#148,.T.);
#786=EDGE_CURVE('',#486,#490,#160,.T.);
#798=EDGE_CURVE('',#490,#492,#180,.T.);
#800=EDGE_CURVE('',#488,#492,#168,.T.);
#802=EDGE_CURVE('',#486,#488,#172,.T.);
#813=EDGE_CURVE('',#479,#482,#188,.T.);
#815=EDGE_CURVE('',#492,#482,#176,.T.);
#827=EDGE_CURVE('',#480,#484,#196,.T.);
#829=EDGE_CURVE('',#482,#484,#184,.T.);
#842=EDGE_CURVE('',#484,#488,#192,.T.);
#853=EDGE_CURVE('',#508,#498,#208,.T.);
#855=EDGE_CURVE('',#498,#500,#220,.T.);
#857=EDGE_CURVE('',#500,#504,#232,.T.);
#875=EDGE_CURVE('',#498,#496,#204,.T.);
#888=EDGE_CURVE('',#500,#495,#216,.T.);
#913=EDGE_CURVE('',#426,#448,#240,.T.);
#915=EDGE_CURVE('',#428,#426,#244,.T.);
#917=EDGE_CURVE('',#428,#445,#316,.T.);
#928=EDGE_CURVE('',#438,#432,#264,.T.);
#930=EDGE_CURVE('',#424,#432,#252,.T.);
#932=EDGE_CURVE('',#426,#424,#256,.T.);
#943=EDGE_CURVE('',#436,#430,#284,.T.);
#945=EDGE_CURVE('',#432,#430,#260,.T.);
#958=EDGE_CURVE('',#398,#435,#276,.T.);
#960=EDGE_CURVE('',#398,#400,#376,.T.);
#962=EDGE_CURVE('',#430,#400,#280,.T.);
#974=EDGE_CURVE('',#442,#412,#304,.T.);
#976=EDGE_CURVE('',#412,#407,#340,.T.);
#978=EDGE_CURVE('',#407,#422,#332,.T.);
#980=EDGE_CURVE('',#404,#422,#288,.T.);
#982=EDGE_CURVE('',#404,#396,#384,.T.);
#984=EDGE_CURVE('',#396,#398,#380,.T.);
#996=EDGE_CURVE('',#414,#441,#296,.T.);
#998=EDGE_CURVE('',#410,#414,#300,.T.);
#1000=EDGE_CURVE('',#410,#412,#344,.T.);
#1013=EDGE_CURVE('',#420,#446,#308,.T.);
#1015=EDGE_CURVE('',#420,#414,#352,.T.);
#1027=EDGE_CURVE('',#418,#428,#320,.T.);
#1029=EDGE_CURVE('',#418,#420,#356,.T.);
#1041=EDGE_CURVE('',#422,#416,#328,.T.);
#1043=EDGE_CURVE('',#416,#418,#360,.T.);
#1048=EDGE_CURVE('',#424,#402,#364,.T.);
#1050=EDGE_CURVE('',#402,#404,#388,.T.);
#1060=EDGE_CURVE('',#407,#408,#336,.T.);
#1062=EDGE_CURVE('',#416,#408,#324,.T.);
#1077=EDGE_CURVE('',#408,#410,#348,.T.);
#1102=EDGE_CURVE('',#400,#395,#372,.T.);
#1104=EDGE_CURVE('',#395,#402,#392,.T.);
#1117=EDGE_CURVE('',#395,#396,#368,.T.);
#1137=CLOSED_SHELL('',(#536,#561,#594,#608,#622,#635,#657,#672,#697,#710,#723,
#735,#750,#764,#778,#791,#806,#820,#834,#847,#868,#881,#894,#906,#921,#937,#951,
#967,#989,#1005,#1019,#1034,#1054,#1068,#1081,#1095,#1111,#1124,#1136));
#1287=EDGE_CURVE('',#1252,#1253,#1141,.T.);
#1289=EDGE_CURVE('',#1255,#1253,#1245,.T.);
#1291=EDGE_CURVE('',#1255,#1257,#1145,.T.);
#1293=EDGE_CURVE('',#1257,#1252,#1149,.T.);
#1304=EDGE_CURVE('',#1277,#1252,#1157,.T.);
#1306=EDGE_CURVE('',#1281,#1277,#1217,.T.);
#1308=EDGE_CURVE('',#1281,#1253,#1153,.T.);
#1318=EDGE_CURVE('',#1273,#1252,#1161,.T.);
#1320=EDGE_CURVE('',#1275,#1273,#1221,.T.);
#1322=EDGE_CURVE('',#1277,#1275,#1209,.T.);
#1335=EDGE_CURVE('',#1257,#1271,#1165,.T.);
#1337=EDGE_CURVE('',#1271,#1273,#1169,.T.);
#1347=EDGE_CURVE('',#1264,#1265,#1173,.T.);
#1349=EDGE_CURVE('',#1265,#1267,#1177,.T.);
#1351=EDGE_CURVE('',#1267,#1269,#1181,.T.);
#1353=EDGE_CURVE('',#1269,#1264,#1185,.T.);
#1358=EDGE_CURVE('',#1261,#1255,#1241,.T.);
#1360=EDGE_CURVE('',#1271,#1261,#1229,.T.);
#1372=EDGE_CURVE('',#1264,#1279,#1189,.T.);
#1374=EDGE_CURVE('',#1279,#1281,#1193,.T.);
#1376=EDGE_CURVE('',#1265,#1281,#1213,.T.);
#1387=EDGE_CURVE('',#1269,#1275,#1197,.T.);
#1389=EDGE_CURVE('',#1275,#1279,#1201,.T.);
#1401=EDGE_CURVE('',#1267,#1277,#1205,.T.);
#1425=EDGE_CURVE('',#1259,#1273,#1225,.T.);
#1427=EDGE_CURVE('',#1279,#1259,#1249,.T.);
#1442=EDGE_CURVE('',#1261,#1259,#1233,.T.);
#1452=EDGE_CURVE('',#1253,#1259,#1237,.T.);
#1472=CLOSED_SHELL('',(#1297,#1312,#1327,#1341,#1365,#1380,#1394,#1407,#1419,
#1433,#1446,#1459,#1471));
#1474=BREP_WITH_VOIDS('',#1137,(#1473));
#1475=(LENGTH_UNIT()NAMED_UNIT(*)SI_UNIT(.MILLI.,.METRE.));
#1477=(NAMED_UNIT(*)PLANE_ANGLE_UNIT()SI_UNIT($,.RADIAN.));
#1480=(NAMED_UNIT(*)SI_UNIT($,.STERADIAN.)SOLID_ANGLE_UNIT());
#1483=ADVANCED_BREP_SHAPE_REPRESENTATION('',(#1474),#1482);
#1490=PRODUCT_DEFINITION('design','',#1489,#1486);
#1491=PRODUCT_DEFINITION_SHAPE('','SHAPE FOR 322000142300.',#1490);
#1492=SHAPE_DEFINITION_REPRESENTATION(#1491,#1483);
ENDSEC;
END-ISO-10303-21;
