ISO-10303-21;
HEADER;
FILE_DESCRIPTION((''),'2;1');
FILE_NAME('3320001473_40001','2026-07-28T13:38:41',('EDY'),(''),
'CREO PARAMETRIC BY PTC INC, 2021284','CREO PARAMETRIC BY PTC INC, 2021284','');
FILE_SCHEMA(('CONFIG_CONTROL_DESIGN'));
ENDSEC;
DATA;
#2=DIRECTION('',(-1.E0,0.E0,0.E0));
#3=VECTOR('',#2,3.060000029802E1);
#4=CARTESIAN_POINT('',(7.530000104308E1,5.849895968657E1,2.280083514670E2));
#5=LINE('',#4,#3);
#6=DIRECTION('',(-1.E0,0.E0,0.E0));
#7=VECTOR('',#6,3.060000029802E1);
#8=CARTESIAN_POINT('',(7.530000104308E1,5.916909436289E1,2.119000866927E2));
#9=LINE('',#8,#7);
#10=DIRECTION('',(-1.E0,0.E0,0.E0));
#11=VECTOR('',#10,3.060000029802E1);
#12=CARTESIAN_POINT('',(7.530000104308E1,6.156701373832E1,2.12E2));
#13=LINE('',#12,#11);
#14=DIRECTION('',(0.E0,-1.E0,0.E0));
#15=VECTOR('',#14,1.432984853524E0);
#16=CARTESIAN_POINT('',(7.530000104308E1,6.299999859184E1,2.12E2));
#17=LINE('',#16,#15);
#18=DIRECTION('',(0.E0,-1.E0,0.E0));
#19=VECTOR('',#18,2.500002384186E0);
#20=CARTESIAN_POINT('',(7.279999854714E1,6.550000097603E1,2.12E2));
#21=LINE('',#20,#19);
#22=DIRECTION('',(0.E0,1.E0,0.E0));
#23=VECTOR('',#22,2.500000074506E0);
#24=CARTESIAN_POINT('',(4.720000074506E1,6.300000090152E1,2.12E2));
#25=LINE('',#24,#23);
#26=DIRECTION('',(0.E0,1.E0,0.E0));
#27=VECTOR('',#26,1.432987163204E0);
#28=CARTESIAN_POINT('',(4.470000074506E1,6.156701373832E1,2.12E2));
#29=LINE('',#28,#27);
#30=DIRECTION('',(0.E0,4.156596193410E-2,-9.991357619505E-1));
#31=VECTOR('',#30,1.612219819147E1);
#32=CARTESIAN_POINT('',(7.530000104308E1,5.849895968657E1,2.280083514670E2));
#33=LINE('',#32,#31);
#34=DIRECTION('',(0.E0,-5.227904356405E-4,-9.999998633451E-1));
#35=VECTOR('',#34,1.991648805128E0);
#36=CARTESIAN_POINT('',(7.530000104308E1,5.850000090152E1,2.3E2));
#37=LINE('',#36,#35);
#38=DIRECTION('',(0.E0,-1.E0,0.E0));
#39=VECTOR('',#38,4.499997690320E0);
#40=CARTESIAN_POINT('',(7.530000104308E1,6.299999859184E1,2.3E2));
#41=LINE('',#40,#39);
#42=DIRECTION('',(0.E0,9.991330730924E-1,4.163054471218E-2));
#43=VECTOR('',#42,2.4E0);
#44=CARTESIAN_POINT('',(7.530000104308E1,5.916909436289E1,2.119000866927E2));
#45=LINE('',#44,#43);
#46=DIRECTION('',(-1.E0,0.E0,0.E0));
#47=VECTOR('',#46,4.699999652307E0);
#48=CARTESIAN_POINT('',(8.000000069539E1,5.850000090152E1,2.3E2));
#49=LINE('',#48,#47);
#50=DIRECTION('',(-1.128873431001E-8,9.999999999938E-1,3.521560295252E-6));
#51=VECTOR('',#50,2.199999905773E1);
#52=CARTESIAN_POINT('',(4.000000049671E1,5.850000090152E1,2.3E2));
#53=LINE('',#52,#51);
#54=DIRECTION('',(-1.E0,0.E0,0.E0));
#55=VECTOR('',#54,4.700000248352E0);
#56=CARTESIAN_POINT('',(4.470000074506E1,5.850000090152E1,2.3E2));
#57=LINE('',#56,#55);
#58=DIRECTION('',(0.E0,1.E0,0.E0));
#59=VECTOR('',#58,2.500000074506E0);
#60=CARTESIAN_POINT('',(4.720000074506E1,6.300000090152E1,2.3E2));
#61=LINE('',#60,#59);
#62=DIRECTION('',(0.E0,0.E0,1.E0));
#63=VECTOR('',#62,1.8E1);
#64=CARTESIAN_POINT('',(4.720000074506E1,6.300000090152E1,2.12E2));
#65=LINE('',#64,#63);
#66=DIRECTION('',(1.E0,0.E0,0.E0));
#67=VECTOR('',#66,2.5E0);
#68=CARTESIAN_POINT('',(4.470000074506E1,6.300000090152E1,2.3E2));
#69=LINE('',#68,#67);
#70=DIRECTION('',(0.E0,0.E0,1.E0));
#71=VECTOR('',#70,1.8E1);
#72=CARTESIAN_POINT('',(4.470000074506E1,6.300000090152E1,2.12E2));
#73=LINE('',#72,#71);
#74=DIRECTION('',(-1.E0,0.E0,0.E0));
#75=VECTOR('',#74,2.5E0);
#76=CARTESIAN_POINT('',(4.720000074506E1,6.300000090152E1,2.12E2));
#77=LINE('',#76,#75);
#78=DIRECTION('',(0.E0,5.227904356227E-4,9.999998633451E-1));
#79=VECTOR('',#78,1.991648805128E0);
#80=CARTESIAN_POINT('',(4.470000074506E1,5.849895968657E1,2.280083514670E2));
#81=LINE('',#80,#79);
#82=DIRECTION('',(0.E0,-4.156596193410E-2,9.991357619505E-1));
#83=VECTOR('',#82,1.612219819147E1);
#84=CARTESIAN_POINT('',(4.470000074506E1,5.916909436289E1,2.119000866927E2));
#85=LINE('',#84,#83);
#86=DIRECTION('',(0.E0,-9.991330730924E-1,-4.163054471218E-2));
#87=VECTOR('',#86,2.4E0);
#88=CARTESIAN_POINT('',(4.470000074506E1,6.156701373832E1,2.12E2));
#89=LINE('',#88,#87);
#90=DIRECTION('',(0.E0,1.E0,0.E0));
#91=VECTOR('',#90,4.5E0);
#92=CARTESIAN_POINT('',(4.470000074506E1,5.850000090152E1,2.3E2));
#93=LINE('',#92,#91);
#94=DIRECTION('',(-1.E0,0.E0,0.E0));
#95=VECTOR('',#94,2.559999780208E1);
#96=CARTESIAN_POINT('',(7.279999854714E1,6.550000097603E1,2.12E2));
#97=LINE('',#96,#95);
#98=DIRECTION('',(0.E0,0.E0,-1.E0));
#99=VECTOR('',#98,1.8E1);
#100=CARTESIAN_POINT('',(7.279999854714E1,6.550000097603E1,2.3E2));
#101=LINE('',#100,#99);
#102=DIRECTION('',(1.E0,0.E0,0.E0));
#103=VECTOR('',#102,2.559999780208E1);
#104=CARTESIAN_POINT('',(4.720000074506E1,6.550000097603E1,2.3E2));
#105=LINE('',#104,#103);
#106=DIRECTION('',(0.E0,0.E0,1.E0));
#107=VECTOR('',#106,1.8E1);
#108=CARTESIAN_POINT('',(4.720000074506E1,6.550000097603E1,2.12E2));
#109=LINE('',#108,#107);
#110=DIRECTION('',(0.E0,-1.E0,0.E0));
#111=VECTOR('',#110,2.500002384186E0);
#112=CARTESIAN_POINT('',(7.279999854714E1,6.550000097603E1,2.3E2));
#113=LINE('',#112,#111);
#114=DIRECTION('',(0.E0,0.E0,1.E0));
#115=VECTOR('',#114,1.8E1);
#116=CARTESIAN_POINT('',(7.279999854714E1,6.299999859184E1,2.12E2));
#117=LINE('',#116,#115);
#118=DIRECTION('',(-1.E0,0.E0,0.E0));
#119=VECTOR('',#118,2.500002495944E0);
#120=CARTESIAN_POINT('',(7.530000104308E1,6.299999859184E1,2.12E2));
#121=LINE('',#120,#119);
#122=DIRECTION('',(0.E0,0.E0,-1.E0));
#123=VECTOR('',#122,1.8E1);
#124=CARTESIAN_POINT('',(7.530000104308E1,6.299999859184E1,2.3E2));
#125=LINE('',#124,#123);
#126=DIRECTION('',(1.E0,0.E0,0.E0));
#127=VECTOR('',#126,2.500002495944E0);
#128=CARTESIAN_POINT('',(7.279999854714E1,6.299999859184E1,2.3E2));
#129=LINE('',#128,#127);
#130=DIRECTION('',(1.588721158961E-8,-1.E0,0.E0));
#131=VECTOR('',#130,2.188509744751E1);
#132=CARTESIAN_POINT('',(8.E1,8.038509834903E1,2.34E2));
#133=LINE('',#132,#131);
#134=DIRECTION('',(7.581307085514E-14,0.E0,-1.E0));
#135=VECTOR('',#134,4.629915494865E1);
#136=CARTESIAN_POINT('',(8.E1,8.038509834903E1,2.802991549486E2));
#137=LINE('',#136,#135);
#138=DIRECTION('',(8.526512829121E-14,-1.E0,0.E0));
#139=VECTOR('',#138,4.E0);
#140=CARTESIAN_POINT('',(8.E1,8.438509834903E1,2.802991549486E2));
#141=LINE('',#140,#139);
#142=DIRECTION('',(-7.599991885305E-14,0.E0,1.E0));
#143=VECTOR('',#142,5.0299E1);
#144=CARTESIAN_POINT('',(8.E1,8.438509834903E1,2.300001549486E2));
#145=LINE('',#144,#143);
#146=DIRECTION('',(-8.949404226940E-8,9.999999998012E-1,1.994140616412E-5));
#147=VECTOR('',#146,3.885098390687E0);
#148=CARTESIAN_POINT('',(8.000000034770E1,8.049999995912E1,2.300000774743E2));
#149=LINE('',#148,#147);
#150=DIRECTION('',(-1.580423714188E-8,9.999999999938E-1,3.521560362430E-6));
#151=VECTOR('',#150,2.199999905773E1);
#152=CARTESIAN_POINT('',(8.000000069539E1,5.850000090152E1,2.3E2));
#153=LINE('',#152,#151);
#154=DIRECTION('',(8.692328989923E-8,0.E0,-1.E0));
#155=VECTOR('',#154,4.E0);
#156=CARTESIAN_POINT('',(8.000000034770E1,5.850000090152E1,2.34E2));
#157=LINE('',#156,#155);
#158=DIRECTION('',(1.E0,0.E0,0.E0));
#159=VECTOR('',#158,3.999999985099E1);
#160=CARTESIAN_POINT('',(4.000000049671E1,5.850000090152E1,2.34E2));
#161=LINE('',#160,#159);
#162=DIRECTION('',(1.E0,2.486899590601E-14,0.E0));
#163=VECTOR('',#162,3.999999975165E1);
#164=CARTESIAN_POINT('',(4.000000024835E1,8.038509834903E1,2.34E2));
#165=LINE('',#164,#163);
#166=CARTESIAN_POINT('',(4.600000005960E1,8.038509834903E1,2.742991544122E2));
#167=DIRECTION('',(-1.776356839400E-14,1.E0,0.E0));
#168=DIRECTION('',(1.306504984389E-13,0.E0,-1.E0));
#169=AXIS2_PLACEMENT_3D('',#166,#167,#168);
#171=CARTESIAN_POINT('',(4.600000005960E1,8.038509834903E1,2.742991544122E2));
#172=DIRECTION('',(-1.776356839400E-14,1.E0,0.E0));
#173=DIRECTION('',(-1.110529236731E-13,0.E0,1.E0));
#174=AXIS2_PLACEMENT_3D('',#171,#172,#173);
#176=CARTESIAN_POINT('',(4.600000005961E1,8.038509834903E1,2.462991544122E2));
#177=DIRECTION('',(-1.776356839400E-14,1.E0,0.E0));
#178=DIRECTION('',(1.306504984389E-13,0.E0,-1.E0));
#179=AXIS2_PLACEMENT_3D('',#176,#177,#178);
#181=CARTESIAN_POINT('',(4.600000005961E1,8.038509834903E1,2.462991544122E2));
#182=DIRECTION('',(-1.776356839400E-14,1.E0,0.E0));
#183=DIRECTION('',(-1.110529236731E-13,0.E0,1.E0));
#184=AXIS2_PLACEMENT_3D('',#181,#182,#183);
#186=CARTESIAN_POINT('',(7.400000005961E1,8.038509834903E1,2.462991544122E2));
#187=DIRECTION('',(-1.776356839400E-14,1.E0,0.E0));
#188=DIRECTION('',(1.306504984389E-13,0.E0,-1.E0));
#189=AXIS2_PLACEMENT_3D('',#186,#187,#188);
#191=CARTESIAN_POINT('',(7.400000005961E1,8.038509834903E1,2.462991544122E2));
#192=DIRECTION('',(-1.776356839400E-14,1.E0,0.E0));
#193=DIRECTION('',(-1.045203987511E-13,0.E0,1.E0));
#194=AXIS2_PLACEMENT_3D('',#191,#192,#193);
#196=CARTESIAN_POINT('',(7.400000005960E1,8.038509834903E1,2.742991544122E2));
#197=DIRECTION('',(-1.776356839400E-14,1.E0,0.E0));
#198=DIRECTION('',(1.306504984389E-13,0.E0,-1.E0));
#199=AXIS2_PLACEMENT_3D('',#196,#197,#198);
#201=CARTESIAN_POINT('',(7.400000005960E1,8.038509834903E1,2.742991544122E2));
#202=DIRECTION('',(-1.776356839400E-14,1.E0,0.E0));
#203=DIRECTION('',(-9.145534890725E-14,0.E0,1.E0));
#204=AXIS2_PLACEMENT_3D('',#201,#202,#203);
#206=DIRECTION('',(7.599991885305E-14,0.E0,-1.E0));
#207=VECTOR('',#206,5.0299E1);
#208=CARTESIAN_POINT('',(4.E1,8.438509834903E1,2.802991549486E2));
#209=LINE('',#208,#207);
#210=DIRECTION('',(-5.364150452065E-9,0.E0,1.E0));
#211=VECTOR('',#210,4.629915494865E1);
#212=CARTESIAN_POINT('',(4.000000024835E1,8.038509834903E1,2.34E2));
#213=LINE('',#212,#211);
#214=DIRECTION('',(-1.134799649742E-8,1.E0,0.E0));
#215=VECTOR('',#214,2.188509744751E1);
#216=CARTESIAN_POINT('',(4.000000049671E1,5.850000090152E1,2.34E2));
#217=LINE('',#216,#215);
#218=DIRECTION('',(-2.842170943040E-14,0.E0,1.E0));
#219=VECTOR('',#218,4.E0);
#220=CARTESIAN_POINT('',(4.000000049671E1,5.850000090152E1,2.3E2));
#221=LINE('',#220,#219);
#222=DIRECTION('',(6.392420826334E-8,-9.999999998012E-1,-1.994140571056E-5));
#223=VECTOR('',#222,3.885098390686E0);
#224=CARTESIAN_POINT('',(4.E1,8.438509834903E1,2.300001549486E2));
#225=LINE('',#224,#223);
#226=DIRECTION('',(-1.E0,-2.415845301584E-14,-8.100187187665E-14));
#227=VECTOR('',#226,4.E1);
#228=CARTESIAN_POINT('',(8.E1,8.438509834903E1,2.300001549486E2));
#229=LINE('',#228,#227);
#230=CARTESIAN_POINT('',(7.400000005960E1,8.438509834903E1,2.742991544122E2));
#231=DIRECTION('',(1.776356839400E-14,-1.E0,0.E0));
#232=DIRECTION('',(1.045203987511E-13,0.E0,-1.E0));
#233=AXIS2_PLACEMENT_3D('',#230,#231,#232);
#235=CARTESIAN_POINT('',(7.400000005960E1,8.438509834903E1,2.742991544122E2));
#236=DIRECTION('',(1.776356839400E-14,-1.E0,0.E0));
#237=DIRECTION('',(-7.839029906336E-14,0.E0,1.E0));
#238=AXIS2_PLACEMENT_3D('',#235,#236,#237);
#240=CARTESIAN_POINT('',(7.400000005961E1,8.438509834903E1,2.462991544122E2));
#241=DIRECTION('',(1.776356839400E-14,-1.E0,0.E0));
#242=DIRECTION('',(1.045203987511E-13,0.E0,-1.E0));
#243=AXIS2_PLACEMENT_3D('',#240,#241,#242);
#245=CARTESIAN_POINT('',(7.400000005961E1,8.438509834903E1,2.462991544122E2));
#246=DIRECTION('',(1.776356839400E-14,-1.E0,0.E0));
#247=DIRECTION('',(-7.839029906335E-14,0.E0,1.E0));
#248=AXIS2_PLACEMENT_3D('',#245,#246,#247);
#250=CARTESIAN_POINT('',(4.600000005961E1,8.438509834903E1,2.462991544122E2));
#251=DIRECTION('',(1.776356839400E-14,-1.E0,0.E0));
#252=DIRECTION('',(1.045203987511E-13,0.E0,-1.E0));
#253=AXIS2_PLACEMENT_3D('',#250,#251,#252);
#255=CARTESIAN_POINT('',(4.600000005961E1,8.438509834903E1,2.462991544122E2));
#256=DIRECTION('',(1.776356839400E-14,-1.E0,0.E0));
#257=DIRECTION('',(-8.492282398530E-14,0.E0,1.E0));
#258=AXIS2_PLACEMENT_3D('',#255,#256,#257);
#260=CARTESIAN_POINT('',(4.600000005960E1,8.438509834903E1,2.742991544122E2));
#261=DIRECTION('',(1.776356839400E-14,-1.E0,0.E0));
#262=DIRECTION('',(1.045203987511E-13,0.E0,-1.E0));
#263=AXIS2_PLACEMENT_3D('',#260,#261,#262);
#265=CARTESIAN_POINT('',(4.600000005960E1,8.438509834903E1,2.742991544122E2));
#266=DIRECTION('',(1.776356839400E-14,-1.E0,0.E0));
#267=DIRECTION('',(-8.492282398530E-14,0.E0,1.E0));
#268=AXIS2_PLACEMENT_3D('',#265,#266,#267);
#270=DIRECTION('',(1.E0,2.486899575160E-14,8.668621376273E-14));
#271=VECTOR('',#270,4.E1);
#272=CARTESIAN_POINT('',(4.E1,8.038509834903E1,2.802991549486E2));
#273=LINE('',#272,#271);
#274=DIRECTION('',(1.953992523340E-14,-1.E0,0.E0));
#275=VECTOR('',#274,4.E0);
#276=CARTESIAN_POINT('',(4.E1,8.438509834903E1,2.802991549486E2));
#277=LINE('',#276,#275);
#278=DIRECTION('',(-1.E0,-2.486899575160E-14,-8.668621376273E-14));
#279=VECTOR('',#278,4.E1);
#280=CARTESIAN_POINT('',(8.E1,8.438509834903E1,2.802991549486E2));
#281=LINE('',#280,#279);
#282=DIRECTION('',(-1.E0,0.E0,-3.694822216776E-14));
#283=VECTOR('',#282,4.000000009934E1);
#284=CARTESIAN_POINT('',(8.000000034770E1,8.049999995912E1,2.300000774743E2));
#285=LINE('',#284,#283);
#286=DIRECTION('',(8.852178249678E-14,0.E0,-1.E0));
#287=VECTOR('',#286,2.4E1);
#288=CARTESIAN_POINT('',(4.400000011921E1,8.038509834903E1,2.722991548890E2));
#289=LINE('',#288,#287);
#290=DIRECTION('',(0.E0,-1.E0,0.E0));
#291=VECTOR('',#290,4.E0);
#292=CARTESIAN_POINT('',(4.400000011921E1,8.438509834903E1,2.722991548890E2));
#293=LINE('',#292,#291);
#294=DIRECTION('',(-8.822572302355E-14,0.E0,1.E0));
#295=VECTOR('',#294,2.4E1);
#296=CARTESIAN_POINT('',(4.400000011921E1,8.438509834903E1,2.482991548890E2));
#297=LINE('',#296,#295);
#298=DIRECTION('',(-1.E0,-2.842170943041E-14,-7.105427357603E-14));
#299=VECTOR('',#298,3.999999999999E0);
#300=CARTESIAN_POINT('',(4.800000011921E1,8.038509834903E1,2.722991548890E2));
#301=LINE('',#300,#299);
#302=DIRECTION('',(2.486899575160E-14,-1.E0,0.E0));
#303=VECTOR('',#302,4.E0);
#304=CARTESIAN_POINT('',(4.800000011921E1,8.438509834903E1,2.722991548890E2));
#305=LINE('',#304,#303);
#306=DIRECTION('',(1.E0,2.486899575161E-14,5.684341886083E-14));
#307=VECTOR('',#306,3.999999999999E0);
#308=CARTESIAN_POINT('',(4.400000011921E1,8.438509834903E1,2.722991548890E2));
#309=LINE('',#308,#307);
#310=DIRECTION('',(2.522426711948E-13,0.E0,-1.E0));
#311=VECTOR('',#310,4.E0);
#312=CARTESIAN_POINT('',(4.800000011921E1,8.038509834903E1,2.762991548890E2));
#313=LINE('',#312,#311);
#314=DIRECTION('',(-2.522426711948E-13,0.E0,1.E0));
#315=VECTOR('',#314,4.E0);
#316=CARTESIAN_POINT('',(4.800000011921E1,8.438509834903E1,2.722991548890E2));
#317=LINE('',#316,#315);
#318=DIRECTION('',(1.421085471520E-14,-1.E0,-5.684341886081E-14));
#319=VECTOR('',#318,4.E0);
#320=CARTESIAN_POINT('',(7.200000047684E1,8.438509834903E1,2.762991548890E2));
#321=LINE('',#320,#319);
#322=DIRECTION('',(1.E0,2.486899538103E-14,8.052817551951E-14));
#323=VECTOR('',#322,2.400000035763E1);
#324=CARTESIAN_POINT('',(4.800000011921E1,8.438509834903E1,2.762991548890E2));
#325=LINE('',#324,#323);
#326=DIRECTION('',(-2.842170943040E-14,1.E0,4.263256414561E-14));
#327=VECTOR('',#326,4.E0);
#328=CARTESIAN_POINT('',(4.800000011921E1,8.038509834903E1,2.762991548890E2));
#329=LINE('',#328,#327);
#330=DIRECTION('',(-1.E0,-2.368475750574E-14,-8.052817551951E-14));
#331=VECTOR('',#330,2.400000035763E1);
#332=CARTESIAN_POINT('',(7.200000047684E1,8.038509834903E1,2.762991548890E2));
#333=LINE('',#332,#331);
#334=DIRECTION('',(8.526512829121E-14,0.E0,-1.E0));
#335=VECTOR('',#334,4.E0);
#336=CARTESIAN_POINT('',(7.200000047684E1,8.438509834903E1,2.762991548890E2));
#337=LINE('',#336,#335);
#338=DIRECTION('',(-8.881784197001E-14,0.E0,1.E0));
#339=VECTOR('',#338,4.E0);
#340=CARTESIAN_POINT('',(7.200000047684E1,8.038509834903E1,2.722991548890E2));
#341=LINE('',#340,#339);
#342=DIRECTION('',(-1.E0,-2.486899167525E-14,0.E0));
#343=VECTOR('',#342,4.000000655652E0);
#344=CARTESIAN_POINT('',(7.600000113249E1,8.038509834903E1,2.722991548890E2));
#345=LINE('',#344,#343);
#346=DIRECTION('',(1.065814103640E-14,-1.E0,0.E0));
#347=VECTOR('',#346,4.E0);
#348=CARTESIAN_POINT('',(7.600000113249E1,8.438509834903E1,2.722991548890E2));
#349=LINE('',#348,#347);
#350=DIRECTION('',(1.E0,2.842170477172E-14,0.E0));
#351=VECTOR('',#350,4.000000655652E0);
#352=CARTESIAN_POINT('',(7.200000047684E1,8.438509834903E1,2.722991548890E2));
#353=LINE('',#352,#351);
#354=DIRECTION('',(-1.776356839400E-14,1.E0,0.E0));
#355=VECTOR('',#354,4.E0);
#356=CARTESIAN_POINT('',(7.200000047684E1,8.038509834903E1,2.722991548890E2));
#357=LINE('',#356,#355);
#358=DIRECTION('',(0.E0,0.E0,1.E0));
#359=VECTOR('',#358,2.4E1);
#360=CARTESIAN_POINT('',(7.600000113249E1,8.038509834903E1,2.482991548890E2));
#361=LINE('',#360,#359);
#362=DIRECTION('',(1.065814103640E-14,-1.E0,0.E0));
#363=VECTOR('',#362,4.E0);
#364=CARTESIAN_POINT('',(7.600000113249E1,8.438509834903E1,2.482991548890E2));
#365=LINE('',#364,#363);
#366=DIRECTION('',(0.E0,0.E0,-1.E0));
#367=VECTOR('',#366,2.4E1);
#368=CARTESIAN_POINT('',(7.600000113249E1,8.438509834903E1,2.722991548890E2));
#369=LINE('',#368,#367);
#370=DIRECTION('',(1.E0,2.842170477173E-14,0.E0));
#371=VECTOR('',#370,4.000000655650E0);
#372=CARTESIAN_POINT('',(7.200000047684E1,8.038509834903E1,2.482991548890E2));
#373=LINE('',#372,#371);
#374=DIRECTION('',(0.E0,-1.E0,0.E0));
#375=VECTOR('',#374,4.E0);
#376=CARTESIAN_POINT('',(7.200000047684E1,8.438509834903E1,2.482991548890E2));
#377=LINE('',#376,#375);
#378=DIRECTION('',(-1.E0,-2.842170477173E-14,0.E0));
#379=VECTOR('',#378,4.000000655650E0);
#380=CARTESIAN_POINT('',(7.600000113249E1,8.438509834903E1,2.482991548890E2));
#381=LINE('',#380,#379);
#382=DIRECTION('',(0.E0,0.E0,1.E0));
#383=VECTOR('',#382,4.000000000002E0);
#384=CARTESIAN_POINT('',(7.200000047684E1,8.038509834903E1,2.442991548890E2));
#385=LINE('',#384,#383);
#386=DIRECTION('',(0.E0,-1.E0,0.E0));
#387=VECTOR('',#386,4.E0);
#388=CARTESIAN_POINT('',(7.200000047684E1,8.438509834903E1,2.442991548890E2));
#389=LINE('',#388,#387);
#390=DIRECTION('',(0.E0,0.E0,-1.E0));
#391=VECTOR('',#390,4.000000000002E0);
#392=CARTESIAN_POINT('',(7.200000047684E1,8.438509834903E1,2.482991548890E2));
#393=LINE('',#392,#391);
#394=DIRECTION('',(1.E0,2.486899538103E-14,0.E0));
#395=VECTOR('',#394,2.400000035763E1);
#396=CARTESIAN_POINT('',(4.800000011921E1,8.038509834903E1,2.442991548890E2));
#397=LINE('',#396,#395);
#398=DIRECTION('',(0.E0,-1.E0,0.E0));
#399=VECTOR('',#398,4.E0);
#400=CARTESIAN_POINT('',(4.800000011921E1,8.438509834903E1,2.442991548890E2));
#401=LINE('',#400,#399);
#402=DIRECTION('',(-1.E0,-2.486899538103E-14,0.E0));
#403=VECTOR('',#402,2.400000035763E1);
#404=CARTESIAN_POINT('',(7.200000047684E1,8.438509834903E1,2.442991548890E2));
#405=LINE('',#404,#403);
#406=DIRECTION('',(0.E0,0.E0,-1.E0));
#407=VECTOR('',#406,4.E0);
#408=CARTESIAN_POINT('',(4.800000011921E1,8.038509834903E1,2.482991548890E2));
#409=LINE('',#408,#407);
#410=DIRECTION('',(0.E0,-1.E0,0.E0));
#411=VECTOR('',#410,4.E0);
#412=CARTESIAN_POINT('',(4.800000011921E1,8.438509834903E1,2.482991548890E2));
#413=LINE('',#412,#411);
#414=DIRECTION('',(0.E0,0.E0,1.E0));
#415=VECTOR('',#414,4.E0);
#416=CARTESIAN_POINT('',(4.800000011921E1,8.438509834903E1,2.442991548890E2));
#417=LINE('',#416,#415);
#418=DIRECTION('',(1.E0,2.486899575162E-14,0.E0));
#419=VECTOR('',#418,3.999999999997E0);
#420=CARTESIAN_POINT('',(4.400000011921E1,8.038509834903E1,2.482991548890E2));
#421=LINE('',#420,#419);
#422=DIRECTION('',(0.E0,-1.E0,0.E0));
#423=VECTOR('',#422,4.E0);
#424=CARTESIAN_POINT('',(4.400000011921E1,8.438509834903E1,2.482991548890E2));
#425=LINE('',#424,#423);
#426=DIRECTION('',(-1.E0,-2.486899575162E-14,0.E0));
#427=VECTOR('',#426,3.999999999998E0);
#428=CARTESIAN_POINT('',(4.800000011921E1,8.438509834903E1,2.482991548890E2));
#429=LINE('',#428,#427);
#430=DIRECTION('',(-1.421085471520E-14,1.E0,0.E0));
#431=VECTOR('',#430,4.E0);
#432=CARTESIAN_POINT('',(7.400000005960E1,8.038509834903E1,2.753868544122E2));
#433=LINE('',#432,#431);
#434=DIRECTION('',(2.131628207280E-14,-1.E0,0.E0));
#435=VECTOR('',#434,4.E0);
#436=CARTESIAN_POINT('',(7.400000005960E1,8.438509834903E1,2.732114544122E2));
#437=LINE('',#436,#435);
#438=DIRECTION('',(-1.421085471520E-14,1.E0,0.E0));
#439=VECTOR('',#438,4.E0);
#440=CARTESIAN_POINT('',(7.400000005961E1,8.038509834903E1,2.473868544122E2));
#441=LINE('',#440,#439);
#442=DIRECTION('',(2.131628207280E-14,-1.E0,0.E0));
#443=VECTOR('',#442,4.E0);
#444=CARTESIAN_POINT('',(7.400000005961E1,8.438509834903E1,2.452114544122E2));
#445=LINE('',#444,#443);
#446=DIRECTION('',(-1.421085471520E-14,1.E0,0.E0));
#447=VECTOR('',#446,4.E0);
#448=CARTESIAN_POINT('',(4.600000005961E1,8.038509834903E1,2.473868544122E2));
#449=LINE('',#448,#447);
#450=DIRECTION('',(2.131628207280E-14,-1.E0,0.E0));
#451=VECTOR('',#450,4.E0);
#452=CARTESIAN_POINT('',(4.600000005961E1,8.438509834903E1,2.452114544122E2));
#453=LINE('',#452,#451);
#454=DIRECTION('',(-1.598721155460E-14,1.E0,0.E0));
#455=VECTOR('',#454,4.E0);
#456=CARTESIAN_POINT('',(4.600000005960E1,8.038509834903E1,2.753868544122E2));
#457=LINE('',#456,#455);
#458=DIRECTION('',(2.131628207280E-14,-1.E0,0.E0));
#459=VECTOR('',#458,4.E0);
#460=CARTESIAN_POINT('',(4.600000005960E1,8.438509834903E1,2.732114544122E2));
#461=LINE('',#460,#459);
#462=CARTESIAN_POINT('',(7.530000104308E1,5.850000090152E1,2.3E2));
#463=CARTESIAN_POINT('',(7.530000104308E1,5.849895968657E1,2.280083514670E2));
#464=VERTEX_POINT('',#462);
#465=VERTEX_POINT('',#463);
#466=CARTESIAN_POINT('',(8.000000069539E1,5.850000090152E1,2.3E2));
#467=VERTEX_POINT('',#466);
#468=CARTESIAN_POINT('',(8.000000034770E1,5.850000090152E1,2.34E2));
#469=VERTEX_POINT('',#468);
#470=CARTESIAN_POINT('',(4.000000049671E1,5.850000090152E1,2.34E2));
#471=VERTEX_POINT('',#470);
#472=CARTESIAN_POINT('',(4.000000049671E1,5.850000090152E1,2.3E2));
#473=VERTEX_POINT('',#472);
#474=CARTESIAN_POINT('',(4.470000074506E1,5.850000090152E1,2.3E2));
#475=VERTEX_POINT('',#474);
#476=CARTESIAN_POINT('',(4.470000074506E1,5.849895968657E1,2.280083514670E2));
#477=VERTEX_POINT('',#476);
#478=CARTESIAN_POINT('',(7.530000104308E1,5.916909436289E1,2.119000866927E2));
#479=VERTEX_POINT('',#478);
#480=CARTESIAN_POINT('',(7.530000104308E1,6.156701373832E1,2.12E2));
#481=VERTEX_POINT('',#480);
#482=CARTESIAN_POINT('',(7.530000104308E1,6.299999859184E1,2.12E2));
#483=VERTEX_POINT('',#482);
#484=CARTESIAN_POINT('',(7.530000104308E1,6.299999859184E1,2.3E2));
#485=VERTEX_POINT('',#484);
#486=CARTESIAN_POINT('',(4.470000074506E1,6.156701373832E1,2.12E2));
#487=VERTEX_POINT('',#486);
#488=CARTESIAN_POINT('',(4.470000074506E1,5.916909436289E1,2.119000866927E2));
#489=VERTEX_POINT('',#488);
#490=CARTESIAN_POINT('',(4.800000011921E1,8.038509834903E1,2.722991548890E2));
#491=CARTESIAN_POINT('',(4.400000011921E1,8.038509834903E1,2.722991548890E2));
#492=VERTEX_POINT('',#490);
#493=VERTEX_POINT('',#491);
#494=CARTESIAN_POINT('',(4.400000011921E1,8.438509834903E1,2.722991548890E2));
#495=VERTEX_POINT('',#494);
#496=CARTESIAN_POINT('',(4.800000011921E1,8.438509834903E1,2.722991548890E2));
#497=VERTEX_POINT('',#496);
#498=CARTESIAN_POINT('',(4.400000011921E1,8.038509834903E1,2.482991548890E2));
#499=VERTEX_POINT('',#498);
#500=CARTESIAN_POINT('',(4.400000011921E1,8.438509834903E1,2.482991548890E2));
#501=VERTEX_POINT('',#500);
#502=CARTESIAN_POINT('',(4.800000011921E1,8.038509834903E1,2.482991548890E2));
#503=VERTEX_POINT('',#502);
#504=CARTESIAN_POINT('',(4.800000011921E1,8.438509834903E1,2.482991548890E2));
#505=VERTEX_POINT('',#504);
#506=CARTESIAN_POINT('',(4.800000011921E1,8.038509834903E1,2.442991548890E2));
#507=VERTEX_POINT('',#506);
#508=CARTESIAN_POINT('',(4.800000011921E1,8.438509834903E1,2.442991548890E2));
#509=VERTEX_POINT('',#508);
#510=CARTESIAN_POINT('',(7.200000047684E1,8.038509834903E1,2.442991548890E2));
#511=VERTEX_POINT('',#510);
#512=CARTESIAN_POINT('',(7.200000047684E1,8.438509834903E1,2.442991548890E2));
#513=VERTEX_POINT('',#512);
#514=CARTESIAN_POINT('',(7.200000047684E1,8.038509834903E1,2.482991548890E2));
#515=VERTEX_POINT('',#514);
#516=CARTESIAN_POINT('',(7.200000047684E1,8.438509834903E1,2.482991548890E2));
#517=VERTEX_POINT('',#516);
#518=CARTESIAN_POINT('',(7.600000113249E1,8.038509834903E1,2.482991548890E2));
#519=VERTEX_POINT('',#518);
#520=CARTESIAN_POINT('',(7.600000113249E1,8.438509834903E1,2.482991548890E2));
#521=VERTEX_POINT('',#520);
#522=CARTESIAN_POINT('',(7.600000113249E1,8.038509834903E1,2.722991548890E2));
#523=VERTEX_POINT('',#522);
#524=CARTESIAN_POINT('',(7.600000113249E1,8.438509834903E1,2.722991548890E2));
#525=VERTEX_POINT('',#524);
#526=CARTESIAN_POINT('',(7.200000047684E1,8.038509834903E1,2.722991548890E2));
#527=VERTEX_POINT('',#526);
#528=CARTESIAN_POINT('',(7.200000047684E1,8.438509834903E1,2.722991548890E2));
#529=VERTEX_POINT('',#528);
#530=CARTESIAN_POINT('',(4.800000011921E1,8.438509834903E1,2.762991548890E2));
#531=VERTEX_POINT('',#530);
#532=CARTESIAN_POINT('',(4.800000011921E1,8.038509834903E1,2.762991548890E2));
#533=VERTEX_POINT('',#532);
#534=CARTESIAN_POINT('',(8.E1,8.438509834903E1,2.300001549486E2));
#535=CARTESIAN_POINT('',(8.E1,8.438509834903E1,2.802991549486E2));
#536=VERTEX_POINT('',#534);
#537=VERTEX_POINT('',#535);
#538=CARTESIAN_POINT('',(4.E1,8.438509834903E1,2.300001549486E2));
#539=VERTEX_POINT('',#538);
#540=CARTESIAN_POINT('',(4.E1,8.438509834903E1,2.802991549486E2));
#541=VERTEX_POINT('',#540);
#542=CARTESIAN_POINT('',(7.200000047684E1,8.438509834903E1,2.762991548890E2));
#543=VERTEX_POINT('',#542);
#544=CARTESIAN_POINT('',(4.000000024835E1,8.049999995912E1,2.300000774743E2));
#545=VERTEX_POINT('',#544);
#546=CARTESIAN_POINT('',(4.000000024835E1,8.038509834903E1,2.34E2));
#547=VERTEX_POINT('',#546);
#548=CARTESIAN_POINT('',(4.E1,8.038509834903E1,2.802991549486E2));
#549=VERTEX_POINT('',#548);
#550=CARTESIAN_POINT('',(8.E1,8.038509834903E1,2.34E2));
#551=VERTEX_POINT('',#550);
#552=CARTESIAN_POINT('',(4.720000074506E1,6.300000090152E1,2.12E2));
#553=CARTESIAN_POINT('',(4.720000074506E1,6.300000090152E1,2.3E2));
#554=VERTEX_POINT('',#552);
#555=VERTEX_POINT('',#553);
#556=CARTESIAN_POINT('',(4.470000074506E1,6.300000090152E1,2.12E2));
#557=VERTEX_POINT('',#556);
#558=CARTESIAN_POINT('',(4.470000074506E1,6.300000090152E1,2.3E2));
#559=VERTEX_POINT('',#558);
#560=CARTESIAN_POINT('',(7.279999854714E1,6.550000097603E1,2.12E2));
#561=CARTESIAN_POINT('',(4.720000074506E1,6.550000097603E1,2.12E2));
#562=VERTEX_POINT('',#560);
#563=VERTEX_POINT('',#561);
#564=CARTESIAN_POINT('',(4.720000074506E1,6.550000097603E1,2.3E2));
#565=VERTEX_POINT('',#564);
#566=CARTESIAN_POINT('',(7.279999854714E1,6.550000097603E1,2.3E2));
#567=VERTEX_POINT('',#566);
#568=CARTESIAN_POINT('',(7.279999854714E1,6.299999859184E1,2.12E2));
#569=VERTEX_POINT('',#568);
#570=CARTESIAN_POINT('',(8.000000034770E1,8.049999995912E1,2.300000774743E2));
#571=VERTEX_POINT('',#570);
#572=CARTESIAN_POINT('',(7.279999854714E1,6.299999859184E1,2.3E2));
#573=VERTEX_POINT('',#572);
#574=CARTESIAN_POINT('',(8.E1,8.038509834903E1,2.802991549486E2));
#575=VERTEX_POINT('',#574);
#576=CARTESIAN_POINT('',(7.200000047684E1,8.038509834903E1,2.762991548890E2));
#577=VERTEX_POINT('',#576);
#578=CARTESIAN_POINT('',(4.600000005960E1,8.038509834903E1,2.753868544122E2));
#579=CARTESIAN_POINT('',(4.600000005960E1,8.438509834903E1,2.753868544122E2));
#580=VERTEX_POINT('',#578);
#581=VERTEX_POINT('',#579);
#582=CARTESIAN_POINT('',(4.600000005960E1,8.438509834903E1,2.732114544122E2));
#583=VERTEX_POINT('',#582);
#584=CARTESIAN_POINT('',(4.600000005960E1,8.038509834903E1,2.732114544122E2));
#585=VERTEX_POINT('',#584);
#586=CARTESIAN_POINT('',(4.600000005961E1,8.038509834903E1,2.473868544122E2));
#587=CARTESIAN_POINT('',(4.600000005961E1,8.438509834903E1,2.473868544122E2));
#588=VERTEX_POINT('',#586);
#589=VERTEX_POINT('',#587);
#590=CARTESIAN_POINT('',(4.600000005961E1,8.438509834903E1,2.452114544122E2));
#591=VERTEX_POINT('',#590);
#592=CARTESIAN_POINT('',(4.600000005961E1,8.038509834903E1,2.452114544122E2));
#593=VERTEX_POINT('',#592);
#594=CARTESIAN_POINT('',(7.400000005961E1,8.038509834903E1,2.473868544122E2));
#595=CARTESIAN_POINT('',(7.400000005961E1,8.438509834903E1,2.473868544122E2));
#596=VERTEX_POINT('',#594);
#597=VERTEX_POINT('',#595);
#598=CARTESIAN_POINT('',(7.400000005961E1,8.438509834903E1,2.452114544122E2));
#599=VERTEX_POINT('',#598);
#600=CARTESIAN_POINT('',(7.400000005961E1,8.038509834903E1,2.452114544122E2));
#601=VERTEX_POINT('',#600);
#602=CARTESIAN_POINT('',(7.400000005960E1,8.038509834903E1,2.753868544122E2));
#603=CARTESIAN_POINT('',(7.400000005960E1,8.438509834903E1,2.753868544122E2));
#604=VERTEX_POINT('',#602);
#605=VERTEX_POINT('',#603);
#606=CARTESIAN_POINT('',(7.400000005960E1,8.438509834903E1,2.732114544122E2));
#607=VERTEX_POINT('',#606);
#608=CARTESIAN_POINT('',(7.400000005960E1,8.038509834903E1,2.732114544122E2));
#609=VERTEX_POINT('',#608);
#610=CARTESIAN_POINT('',(5.000000074506E1,5.850000090152E1,2.3E2));
#611=DIRECTION('',(0.E0,-1.E0,0.E0));
#612=DIRECTION('',(0.E0,0.E0,-1.E0));
#613=AXIS2_PLACEMENT_3D('',#610,#611,#612);
#614=PLANE('',#613);
#616=ORIENTED_EDGE('',*,*,#615,.T.);
#618=ORIENTED_EDGE('',*,*,#617,.T.);
#620=ORIENTED_EDGE('',*,*,#619,.T.);
#622=ORIENTED_EDGE('',*,*,#621,.T.);
#624=ORIENTED_EDGE('',*,*,#623,.T.);
#626=ORIENTED_EDGE('',*,*,#625,.T.);
#628=ORIENTED_EDGE('',*,*,#627,.T.);
#630=ORIENTED_EDGE('',*,*,#629,.T.);
#631=EDGE_LOOP('',(#616,#618,#620,#622,#624,#626,#628,#630));
#632=FACE_OUTER_BOUND('',#631,.F.);
#633=ADVANCED_FACE('',(#632),#614,.T.);
#634=CARTESIAN_POINT('',(6.E1,5.797548229661E1,2.405467762835E2));
#635=DIRECTION('',(0.E0,-9.991330730924E-1,-4.163054471222E-2));
#636=DIRECTION('',(0.E0,4.163054471222E-2,-9.991330730924E-1));
#637=AXIS2_PLACEMENT_3D('',#634,#635,#636);
#638=PLANE('',#637);
#640=ORIENTED_EDGE('',*,*,#639,.T.);
#642=ORIENTED_EDGE('',*,*,#641,.T.);
#643=ORIENTED_EDGE('',*,*,#615,.F.);
#645=ORIENTED_EDGE('',*,*,#644,.T.);
#646=EDGE_LOOP('',(#640,#642,#643,#645));
#647=FACE_OUTER_BOUND('',#646,.F.);
#648=ADVANCED_FACE('',(#647),#638,.T.);
#649=CARTESIAN_POINT('',(4.470000074506E1,6.156701373832E1,2.12E2));
#650=DIRECTION('',(0.E0,4.163054471222E-2,-9.991330730924E-1));
#651=DIRECTION('',(1.E0,0.E0,0.E0));
#652=AXIS2_PLACEMENT_3D('',#649,#650,#651);
#653=PLANE('',#652);
#655=ORIENTED_EDGE('',*,*,#654,.T.);
#657=ORIENTED_EDGE('',*,*,#656,.T.);
#658=ORIENTED_EDGE('',*,*,#639,.F.);
#660=ORIENTED_EDGE('',*,*,#659,.T.);
#661=EDGE_LOOP('',(#655,#657,#658,#660));
#662=FACE_OUTER_BOUND('',#661,.F.);
#663=ADVANCED_FACE('',(#662),#653,.T.);
#664=CARTESIAN_POINT('',(6.000000089407E1,6.300000643755E1,2.12E2));
#665=DIRECTION('',(0.E0,0.E0,-1.E0));
#666=DIRECTION('',(-1.E0,0.E0,0.E0));
#667=AXIS2_PLACEMENT_3D('',#664,#665,#666);
#668=PLANE('',#667);
#669=ORIENTED_EDGE('',*,*,#654,.F.);
#671=ORIENTED_EDGE('',*,*,#670,.F.);
#673=ORIENTED_EDGE('',*,*,#672,.T.);
#675=ORIENTED_EDGE('',*,*,#674,.F.);
#677=ORIENTED_EDGE('',*,*,#676,.T.);
#679=ORIENTED_EDGE('',*,*,#678,.F.);
#681=ORIENTED_EDGE('',*,*,#680,.T.);
#683=ORIENTED_EDGE('',*,*,#682,.F.);
#684=EDGE_LOOP('',(#669,#671,#673,#675,#677,#679,#681,#683));
#685=FACE_OUTER_BOUND('',#684,.F.);
#686=ADVANCED_FACE('',(#685),#668,.T.);
#687=CARTESIAN_POINT('',(7.530000104308E1,6.299999859184E1,2.3E2));
#688=DIRECTION('',(1.E0,0.E0,0.E0));
#689=DIRECTION('',(0.E0,0.E0,-1.E0));
#690=AXIS2_PLACEMENT_3D('',#687,#688,#689);
#691=PLANE('',#690);
#692=ORIENTED_EDGE('',*,*,#644,.F.);
#693=ORIENTED_EDGE('',*,*,#629,.F.);
#695=ORIENTED_EDGE('',*,*,#694,.F.);
#697=ORIENTED_EDGE('',*,*,#696,.T.);
#698=ORIENTED_EDGE('',*,*,#670,.T.);
#699=ORIENTED_EDGE('',*,*,#659,.F.);
#700=EDGE_LOOP('',(#692,#693,#695,#697,#698,#699));
#701=FACE_OUTER_BOUND('',#700,.F.);
#702=ADVANCED_FACE('',(#701),#691,.T.);
#703=CARTESIAN_POINT('',(7.000000104308E1,6.550000097603E1,2.3E2));
#704=DIRECTION('',(0.E0,0.E0,-1.E0));
#705=DIRECTION('',(-1.E0,0.E0,0.E0));
#706=AXIS2_PLACEMENT_3D('',#703,#704,#705);
#707=PLANE('',#706);
#709=ORIENTED_EDGE('',*,*,#708,.T.);
#711=ORIENTED_EDGE('',*,*,#710,.T.);
#713=ORIENTED_EDGE('',*,*,#712,.T.);
#715=ORIENTED_EDGE('',*,*,#714,.T.);
#716=ORIENTED_EDGE('',*,*,#694,.T.);
#717=ORIENTED_EDGE('',*,*,#627,.F.);
#719=ORIENTED_EDGE('',*,*,#718,.T.);
#721=ORIENTED_EDGE('',*,*,#720,.T.);
#723=ORIENTED_EDGE('',*,*,#722,.F.);
#724=ORIENTED_EDGE('',*,*,#619,.F.);
#726=ORIENTED_EDGE('',*,*,#725,.T.);
#728=ORIENTED_EDGE('',*,*,#727,.T.);
#729=EDGE_LOOP('',(#709,#711,#713,#715,#716,#717,#719,#721,#723,#724,#726,
#728));
#730=FACE_OUTER_BOUND('',#729,.F.);
#731=ADVANCED_FACE('',(#730),#707,.T.);
#732=CARTESIAN_POINT('',(4.720000074506E1,6.300000090152E1,2.3E2));
#733=DIRECTION('',(-1.E0,0.E0,0.E0));
#734=DIRECTION('',(0.E0,0.E0,1.E0));
#735=AXIS2_PLACEMENT_3D('',#732,#733,#734);
#736=PLANE('',#735);
#737=ORIENTED_EDGE('',*,*,#708,.F.);
#739=ORIENTED_EDGE('',*,*,#738,.F.);
#740=ORIENTED_EDGE('',*,*,#678,.T.);
#742=ORIENTED_EDGE('',*,*,#741,.T.);
#743=EDGE_LOOP('',(#737,#739,#740,#742));
#744=FACE_OUTER_BOUND('',#743,.F.);
#745=ADVANCED_FACE('',(#744),#736,.T.);
#746=CARTESIAN_POINT('',(5.250000074506E1,6.300000090152E1,2.3E2));
#747=DIRECTION('',(0.E0,1.E0,0.E0));
#748=DIRECTION('',(1.E0,0.E0,0.E0));
#749=AXIS2_PLACEMENT_3D('',#746,#747,#748);
#750=PLANE('',#749);
#751=ORIENTED_EDGE('',*,*,#738,.T.);
#752=ORIENTED_EDGE('',*,*,#727,.F.);
#754=ORIENTED_EDGE('',*,*,#753,.F.);
#755=ORIENTED_EDGE('',*,*,#680,.F.);
#756=EDGE_LOOP('',(#751,#752,#754,#755));
#757=FACE_OUTER_BOUND('',#756,.F.);
#758=ADVANCED_FACE('',(#757),#750,.T.);
#759=CARTESIAN_POINT('',(4.470000074506E1,6.050000090152E1,2.3E2));
#760=DIRECTION('',(-1.E0,0.E0,0.E0));
#761=DIRECTION('',(0.E0,0.E0,1.E0));
#762=AXIS2_PLACEMENT_3D('',#759,#760,#761);
#763=PLANE('',#762);
#764=ORIENTED_EDGE('',*,*,#617,.F.);
#765=ORIENTED_EDGE('',*,*,#641,.F.);
#766=ORIENTED_EDGE('',*,*,#656,.F.);
#767=ORIENTED_EDGE('',*,*,#682,.T.);
#768=ORIENTED_EDGE('',*,*,#753,.T.);
#769=ORIENTED_EDGE('',*,*,#725,.F.);
#770=EDGE_LOOP('',(#764,#765,#766,#767,#768,#769));
#771=FACE_OUTER_BOUND('',#770,.F.);
#772=ADVANCED_FACE('',(#771),#763,.T.);
#773=CARTESIAN_POINT('',(5.500000074506E1,6.550000097603E1,2.3E2));
#774=DIRECTION('',(0.E0,1.E0,0.E0));
#775=DIRECTION('',(1.E0,0.E0,0.E0));
#776=AXIS2_PLACEMENT_3D('',#773,#774,#775);
#777=PLANE('',#776);
#778=ORIENTED_EDGE('',*,*,#676,.F.);
#780=ORIENTED_EDGE('',*,*,#779,.F.);
#781=ORIENTED_EDGE('',*,*,#710,.F.);
#782=ORIENTED_EDGE('',*,*,#741,.F.);
#783=EDGE_LOOP('',(#778,#780,#781,#782));
#784=FACE_OUTER_BOUND('',#783,.F.);
#785=ADVANCED_FACE('',(#784),#777,.T.);
#786=CARTESIAN_POINT('',(7.279999854714E1,6.549999853596E1,2.3E2));
#787=DIRECTION('',(1.E0,0.E0,0.E0));
#788=DIRECTION('',(0.E0,0.E0,-1.E0));
#789=AXIS2_PLACEMENT_3D('',#786,#787,#788);
#790=PLANE('',#789);
#791=ORIENTED_EDGE('',*,*,#712,.F.);
#792=ORIENTED_EDGE('',*,*,#779,.T.);
#793=ORIENTED_EDGE('',*,*,#674,.T.);
#795=ORIENTED_EDGE('',*,*,#794,.T.);
#796=EDGE_LOOP('',(#791,#792,#793,#795));
#797=FACE_OUTER_BOUND('',#796,.F.);
#798=ADVANCED_FACE('',(#797),#790,.T.);
#799=CARTESIAN_POINT('',(6.730000104308E1,6.299999859184E1,2.12E2));
#800=DIRECTION('',(0.E0,1.E0,0.E0));
#801=DIRECTION('',(0.E0,0.E0,1.E0));
#802=AXIS2_PLACEMENT_3D('',#799,#800,#801);
#803=PLANE('',#802);
#804=ORIENTED_EDGE('',*,*,#794,.F.);
#805=ORIENTED_EDGE('',*,*,#672,.F.);
#806=ORIENTED_EDGE('',*,*,#696,.F.);
#807=ORIENTED_EDGE('',*,*,#714,.F.);
#808=EDGE_LOOP('',(#804,#805,#806,#807));
#809=FACE_OUTER_BOUND('',#808,.F.);
#810=ADVANCED_FACE('',(#809),#803,.T.);
#811=CARTESIAN_POINT('',(8.E1,8.338509834903E1,2.702991549487E2));
#812=DIRECTION('',(1.E0,1.776356839400E-14,8.153200337091E-14));
#813=DIRECTION('',(8.153200337091E-14,0.E0,-1.E0));
#814=AXIS2_PLACEMENT_3D('',#811,#812,#813);
#815=PLANE('',#814);
#817=ORIENTED_EDGE('',*,*,#816,.F.);
#819=ORIENTED_EDGE('',*,*,#818,.F.);
#821=ORIENTED_EDGE('',*,*,#820,.F.);
#823=ORIENTED_EDGE('',*,*,#822,.F.);
#825=ORIENTED_EDGE('',*,*,#824,.F.);
#826=ORIENTED_EDGE('',*,*,#718,.F.);
#827=ORIENTED_EDGE('',*,*,#625,.F.);
#828=EDGE_LOOP('',(#817,#819,#821,#823,#825,#826,#827));
#829=FACE_OUTER_BOUND('',#828,.F.);
#830=ADVANCED_FACE('',(#829),#815,.T.);
#831=CARTESIAN_POINT('',(5.000000074506E1,6.550000097603E1,2.34E2));
#832=DIRECTION('',(0.E0,0.E0,1.E0));
#833=DIRECTION('',(1.E0,0.E0,0.E0));
#834=AXIS2_PLACEMENT_3D('',#831,#832,#833);
#835=PLANE('',#834);
#837=ORIENTED_EDGE('',*,*,#836,.T.);
#838=ORIENTED_EDGE('',*,*,#816,.T.);
#839=ORIENTED_EDGE('',*,*,#623,.F.);
#841=ORIENTED_EDGE('',*,*,#840,.T.);
#842=EDGE_LOOP('',(#837,#838,#839,#841));
#843=FACE_OUTER_BOUND('',#842,.F.);
#844=ADVANCED_FACE('',(#843),#835,.T.);
#845=CARTESIAN_POINT('',(6.E1,8.038509834903E1,2.602991549486E2));
#846=DIRECTION('',(2.410571742217E-14,-1.E0,0.E0));
#847=DIRECTION('',(1.E0,2.410571742217E-14,8.153200337091E-14));
#848=AXIS2_PLACEMENT_3D('',#845,#846,#847);
#849=PLANE('',#848);
#850=ORIENTED_EDGE('',*,*,#818,.T.);
#851=ORIENTED_EDGE('',*,*,#836,.F.);
#853=ORIENTED_EDGE('',*,*,#852,.T.);
#855=ORIENTED_EDGE('',*,*,#854,.T.);
#856=EDGE_LOOP('',(#850,#851,#853,#855));
#857=FACE_OUTER_BOUND('',#856,.F.);
#859=ORIENTED_EDGE('',*,*,#858,.T.);
#861=ORIENTED_EDGE('',*,*,#860,.T.);
#863=ORIENTED_EDGE('',*,*,#862,.T.);
#865=ORIENTED_EDGE('',*,*,#864,.T.);
#867=ORIENTED_EDGE('',*,*,#866,.T.);
#869=ORIENTED_EDGE('',*,*,#868,.T.);
#871=ORIENTED_EDGE('',*,*,#870,.T.);
#873=ORIENTED_EDGE('',*,*,#872,.T.);
#875=ORIENTED_EDGE('',*,*,#874,.T.);
#877=ORIENTED_EDGE('',*,*,#876,.T.);
#879=ORIENTED_EDGE('',*,*,#878,.T.);
#881=ORIENTED_EDGE('',*,*,#880,.T.);
#882=EDGE_LOOP('',(#859,#861,#863,#865,#867,#869,#871,#873,#875,#877,#879,
#881));
#883=FACE_BOUND('',#882,.F.);
#885=ORIENTED_EDGE('',*,*,#884,.F.);
#887=ORIENTED_EDGE('',*,*,#886,.F.);
#888=EDGE_LOOP('',(#885,#887));
#889=FACE_BOUND('',#888,.F.);
#891=ORIENTED_EDGE('',*,*,#890,.F.);
#893=ORIENTED_EDGE('',*,*,#892,.F.);
#894=EDGE_LOOP('',(#891,#893));
#895=FACE_BOUND('',#894,.F.);
#897=ORIENTED_EDGE('',*,*,#896,.F.);
#899=ORIENTED_EDGE('',*,*,#898,.F.);
#900=EDGE_LOOP('',(#897,#899));
#901=FACE_BOUND('',#900,.F.);
#903=ORIENTED_EDGE('',*,*,#902,.F.);
#905=ORIENTED_EDGE('',*,*,#904,.F.);
#906=EDGE_LOOP('',(#903,#905));
#907=FACE_BOUND('',#906,.F.);
#908=ADVANCED_FACE('',(#857,#883,#889,#895,#901,#907),#849,.T.);
#909=CARTESIAN_POINT('',(4.E1,8.338509834903E1,2.302991549486E2));
#910=DIRECTION('',(-1.E0,-1.776356839400E-14,-8.153200337091E-14));
#911=DIRECTION('',(-8.153200337091E-14,0.E0,1.E0));
#912=AXIS2_PLACEMENT_3D('',#909,#910,#911);
#913=PLANE('',#912);
#915=ORIENTED_EDGE('',*,*,#914,.F.);
#917=ORIENTED_EDGE('',*,*,#916,.T.);
#918=ORIENTED_EDGE('',*,*,#852,.F.);
#919=ORIENTED_EDGE('',*,*,#840,.F.);
#920=ORIENTED_EDGE('',*,*,#621,.F.);
#921=ORIENTED_EDGE('',*,*,#722,.T.);
#923=ORIENTED_EDGE('',*,*,#922,.F.);
#924=EDGE_LOOP('',(#915,#917,#918,#919,#920,#921,#923));
#925=FACE_OUTER_BOUND('',#924,.F.);
#926=ADVANCED_FACE('',(#925),#913,.T.);
#927=CARTESIAN_POINT('',(6.E1,8.438509834903E1,2.502991549486E2));
#928=DIRECTION('',(2.410571742217E-14,-1.E0,0.E0));
#929=DIRECTION('',(1.E0,2.410571742217E-14,8.153200337091E-14));
#930=AXIS2_PLACEMENT_3D('',#927,#928,#929);
#931=PLANE('',#930);
#932=ORIENTED_EDGE('',*,*,#822,.T.);
#934=ORIENTED_EDGE('',*,*,#933,.T.);
#935=ORIENTED_EDGE('',*,*,#914,.T.);
#937=ORIENTED_EDGE('',*,*,#936,.F.);
#938=EDGE_LOOP('',(#932,#934,#935,#937));
#939=FACE_OUTER_BOUND('',#938,.F.);
#941=ORIENTED_EDGE('',*,*,#940,.T.);
#943=ORIENTED_EDGE('',*,*,#942,.T.);
#945=ORIENTED_EDGE('',*,*,#944,.T.);
#947=ORIENTED_EDGE('',*,*,#946,.T.);
#949=ORIENTED_EDGE('',*,*,#948,.T.);
#951=ORIENTED_EDGE('',*,*,#950,.T.);
#953=ORIENTED_EDGE('',*,*,#952,.T.);
#955=ORIENTED_EDGE('',*,*,#954,.T.);
#957=ORIENTED_EDGE('',*,*,#956,.T.);
#959=ORIENTED_EDGE('',*,*,#958,.T.);
#961=ORIENTED_EDGE('',*,*,#960,.T.);
#963=ORIENTED_EDGE('',*,*,#962,.T.);
#964=EDGE_LOOP('',(#941,#943,#945,#947,#949,#951,#953,#955,#957,#959,#961,
#963));
#965=FACE_BOUND('',#964,.F.);
#967=ORIENTED_EDGE('',*,*,#966,.F.);
#969=ORIENTED_EDGE('',*,*,#968,.F.);
#970=EDGE_LOOP('',(#967,#969));
#971=FACE_BOUND('',#970,.F.);
#973=ORIENTED_EDGE('',*,*,#972,.F.);
#975=ORIENTED_EDGE('',*,*,#974,.F.);
#976=EDGE_LOOP('',(#973,#975));
#977=FACE_BOUND('',#976,.F.);
#979=ORIENTED_EDGE('',*,*,#978,.F.);
#981=ORIENTED_EDGE('',*,*,#980,.F.);
#982=EDGE_LOOP('',(#979,#981));
#983=FACE_BOUND('',#982,.F.);
#985=ORIENTED_EDGE('',*,*,#984,.F.);
#987=ORIENTED_EDGE('',*,*,#986,.F.);
#988=EDGE_LOOP('',(#985,#987));
#989=FACE_BOUND('',#988,.F.);
#990=ADVANCED_FACE('',(#939,#965,#971,#977,#983,#989),#931,.F.);
#991=CARTESIAN_POINT('',(4.E1,8.338509834903E1,2.802991549486E2));
#992=DIRECTION('',(-8.153200337091E-14,0.E0,1.E0));
#993=DIRECTION('',(1.E0,2.410571742217E-14,8.153200337091E-14));
#994=AXIS2_PLACEMENT_3D('',#991,#992,#993);
#995=PLANE('',#994);
#996=ORIENTED_EDGE('',*,*,#820,.T.);
#997=ORIENTED_EDGE('',*,*,#854,.F.);
#998=ORIENTED_EDGE('',*,*,#916,.F.);
#999=ORIENTED_EDGE('',*,*,#933,.F.);
#1000=EDGE_LOOP('',(#996,#997,#998,#999));
#1001=FACE_OUTER_BOUND('',#1000,.F.);
#1002=ADVANCED_FACE('',(#1001),#995,.T.);
#1003=CARTESIAN_POINT('',(8.E1,8.338509834903E1,2.300001549486E2));
#1004=DIRECTION('',(5.940992773914E-14,0.E0,-1.E0));
#1005=DIRECTION('',(-1.E0,0.E0,-5.940992773914E-14));
#1006=AXIS2_PLACEMENT_3D('',#1003,#1004,#1005);
#1007=PLANE('',#1006);
#1008=ORIENTED_EDGE('',*,*,#720,.F.);
#1009=ORIENTED_EDGE('',*,*,#824,.T.);
#1010=ORIENTED_EDGE('',*,*,#936,.T.);
#1011=ORIENTED_EDGE('',*,*,#922,.T.);
#1012=EDGE_LOOP('',(#1008,#1009,#1010,#1011));
#1013=FACE_OUTER_BOUND('',#1012,.F.);
#1014=ADVANCED_FACE('',(#1013),#1007,.T.);
#1015=CARTESIAN_POINT('',(4.400000011921E1,8.038509834903E1,2.482991548890E2));
#1016=DIRECTION('',(-1.E0,0.E0,-8.881784197001E-14));
#1017=DIRECTION('',(-8.881784197001E-14,0.E0,1.E0));
#1018=AXIS2_PLACEMENT_3D('',#1015,#1016,#1017);
#1019=PLANE('',#1018);
#1020=ORIENTED_EDGE('',*,*,#860,.F.);
#1022=ORIENTED_EDGE('',*,*,#1021,.F.);
#1023=ORIENTED_EDGE('',*,*,#940,.F.);
#1025=ORIENTED_EDGE('',*,*,#1024,.T.);
#1026=EDGE_LOOP('',(#1020,#1022,#1023,#1025));
#1027=FACE_OUTER_BOUND('',#1026,.F.);
#1028=ADVANCED_FACE('',(#1027),#1019,.F.);
#1029=CARTESIAN_POINT('',(4.400000011921E1,8.038509834903E1,2.722991548890E2));
#1030=DIRECTION('',(-8.881784197001E-14,0.E0,1.E0));
#1031=DIRECTION('',(1.E0,0.E0,8.881784197001E-14));
#1032=AXIS2_PLACEMENT_3D('',#1029,#1030,#1031);
#1033=PLANE('',#1032);
#1034=ORIENTED_EDGE('',*,*,#858,.F.);
#1036=ORIENTED_EDGE('',*,*,#1035,.F.);
#1037=ORIENTED_EDGE('',*,*,#942,.F.);
#1038=ORIENTED_EDGE('',*,*,#1021,.T.);
#1039=EDGE_LOOP('',(#1034,#1036,#1037,#1038));
#1040=FACE_OUTER_BOUND('',#1039,.F.);
#1041=ADVANCED_FACE('',(#1040),#1033,.F.);
#1042=CARTESIAN_POINT('',(4.800000011921E1,8.338509834903E1,2.682991547698E2));
#1043=DIRECTION('',(1.E0,2.410571742217E-14,8.153200337091E-14));
#1044=DIRECTION('',(-8.153200337091E-14,0.E0,1.E0));
#1045=AXIS2_PLACEMENT_3D('',#1042,#1043,#1044);
#1046=PLANE('',#1045);
#1047=ORIENTED_EDGE('',*,*,#1035,.T.);
#1048=ORIENTED_EDGE('',*,*,#880,.F.);
#1050=ORIENTED_EDGE('',*,*,#1049,.T.);
#1051=ORIENTED_EDGE('',*,*,#944,.F.);
#1052=EDGE_LOOP('',(#1047,#1048,#1050,#1051));
#1053=FACE_OUTER_BOUND('',#1052,.F.);
#1054=ADVANCED_FACE('',(#1053),#1046,.T.);
#1055=CARTESIAN_POINT('',(4.800000011921E1,8.338509834903E1,2.762991548890E2));
#1056=DIRECTION('',(8.153200337091E-14,0.E0,-1.E0));
#1057=DIRECTION('',(1.E0,2.410571742217E-14,8.153200337091E-14));
#1058=AXIS2_PLACEMENT_3D('',#1055,#1056,#1057);
#1059=PLANE('',#1058);
#1061=ORIENTED_EDGE('',*,*,#1060,.F.);
#1062=ORIENTED_EDGE('',*,*,#946,.F.);
#1063=ORIENTED_EDGE('',*,*,#1049,.F.);
#1064=ORIENTED_EDGE('',*,*,#878,.F.);
#1065=EDGE_LOOP('',(#1061,#1062,#1063,#1064));
#1066=FACE_OUTER_BOUND('',#1065,.F.);
#1067=ADVANCED_FACE('',(#1066),#1059,.T.);
#1068=CARTESIAN_POINT('',(7.200000047684E1,8.338509834903E1,2.762991548890E2));
#1069=DIRECTION('',(-1.E0,-2.410571742217E-14,-8.153200337091E-14));
#1070=DIRECTION('',(8.153200337091E-14,0.E0,-1.E0));
#1071=AXIS2_PLACEMENT_3D('',#1068,#1069,#1070);
#1072=PLANE('',#1071);
#1074=ORIENTED_EDGE('',*,*,#1073,.T.);
#1075=ORIENTED_EDGE('',*,*,#948,.F.);
#1076=ORIENTED_EDGE('',*,*,#1060,.T.);
#1077=ORIENTED_EDGE('',*,*,#876,.F.);
#1078=EDGE_LOOP('',(#1074,#1075,#1076,#1077));
#1079=FACE_OUTER_BOUND('',#1078,.F.);
#1080=ADVANCED_FACE('',(#1079),#1072,.T.);
#1081=CARTESIAN_POINT('',(7.200000047684E1,8.038509834903E1,2.722991548890E2));
#1082=DIRECTION('',(0.E0,0.E0,1.E0));
#1083=DIRECTION('',(1.E0,0.E0,0.E0));
#1084=AXIS2_PLACEMENT_3D('',#1081,#1082,#1083);
#1085=PLANE('',#1084);
#1086=ORIENTED_EDGE('',*,*,#874,.F.);
#1088=ORIENTED_EDGE('',*,*,#1087,.F.);
#1089=ORIENTED_EDGE('',*,*,#950,.F.);
#1090=ORIENTED_EDGE('',*,*,#1073,.F.);
#1091=EDGE_LOOP('',(#1086,#1088,#1089,#1090));
#1092=FACE_OUTER_BOUND('',#1091,.F.);
#1093=ADVANCED_FACE('',(#1092),#1085,.F.);
#1094=CARTESIAN_POINT('',(7.600000113249E1,8.038509834903E1,2.722991548890E2));
#1095=DIRECTION('',(1.E0,0.E0,0.E0));
#1096=DIRECTION('',(0.E0,0.E0,-1.E0));
#1097=AXIS2_PLACEMENT_3D('',#1094,#1095,#1096);
#1098=PLANE('',#1097);
#1099=ORIENTED_EDGE('',*,*,#872,.F.);
#1101=ORIENTED_EDGE('',*,*,#1100,.F.);
#1102=ORIENTED_EDGE('',*,*,#952,.F.);
#1103=ORIENTED_EDGE('',*,*,#1087,.T.);
#1104=EDGE_LOOP('',(#1099,#1101,#1102,#1103));
#1105=FACE_OUTER_BOUND('',#1104,.F.);
#1106=ADVANCED_FACE('',(#1105),#1098,.F.);
#1107=CARTESIAN_POINT('',(7.600000113249E1,8.038509834903E1,2.482991548890E2));
#1108=DIRECTION('',(0.E0,0.E0,-1.E0));
#1109=DIRECTION('',(-1.E0,0.E0,0.E0));
#1110=AXIS2_PLACEMENT_3D('',#1107,#1108,#1109);
#1111=PLANE('',#1110);
#1112=ORIENTED_EDGE('',*,*,#870,.F.);
#1114=ORIENTED_EDGE('',*,*,#1113,.F.);
#1115=ORIENTED_EDGE('',*,*,#954,.F.);
#1116=ORIENTED_EDGE('',*,*,#1100,.T.);
#1117=EDGE_LOOP('',(#1112,#1114,#1115,#1116));
#1118=FACE_OUTER_BOUND('',#1117,.F.);
#1119=ADVANCED_FACE('',(#1118),#1111,.F.);
#1120=CARTESIAN_POINT('',(7.200000047684E1,8.038509834903E1,2.482991548890E2));
#1121=DIRECTION('',(1.E0,0.E0,0.E0));
#1122=DIRECTION('',(0.E0,0.E0,-1.E0));
#1123=AXIS2_PLACEMENT_3D('',#1120,#1121,#1122);
#1124=PLANE('',#1123);
#1125=ORIENTED_EDGE('',*,*,#868,.F.);
#1127=ORIENTED_EDGE('',*,*,#1126,.F.);
#1128=ORIENTED_EDGE('',*,*,#956,.F.);
#1129=ORIENTED_EDGE('',*,*,#1113,.T.);
#1130=EDGE_LOOP('',(#1125,#1127,#1128,#1129));
#1131=FACE_OUTER_BOUND('',#1130,.F.);
#1132=ADVANCED_FACE('',(#1131),#1124,.F.);
#1133=CARTESIAN_POINT('',(7.200000047684E1,8.038509834903E1,2.442991548890E2));
#1134=DIRECTION('',(0.E0,0.E0,-1.E0));
#1135=DIRECTION('',(-1.E0,0.E0,0.E0));
#1136=AXIS2_PLACEMENT_3D('',#1133,#1134,#1135);
#1137=PLANE('',#1136);
#1138=ORIENTED_EDGE('',*,*,#866,.F.);
#1140=ORIENTED_EDGE('',*,*,#1139,.F.);
#1141=ORIENTED_EDGE('',*,*,#958,.F.);
#1142=ORIENTED_EDGE('',*,*,#1126,.T.);
#1143=EDGE_LOOP('',(#1138,#1140,#1141,#1142));
#1144=FACE_OUTER_BOUND('',#1143,.F.);
#1145=ADVANCED_FACE('',(#1144),#1137,.F.);
#1146=CARTESIAN_POINT('',(4.800000011921E1,8.038509834903E1,2.442991548890E2));
#1147=DIRECTION('',(-1.E0,0.E0,0.E0));
#1148=DIRECTION('',(0.E0,0.E0,1.E0));
#1149=AXIS2_PLACEMENT_3D('',#1146,#1147,#1148);
#1150=PLANE('',#1149);
#1151=ORIENTED_EDGE('',*,*,#864,.F.);
#1153=ORIENTED_EDGE('',*,*,#1152,.F.);
#1154=ORIENTED_EDGE('',*,*,#960,.F.);
#1155=ORIENTED_EDGE('',*,*,#1139,.T.);
#1156=EDGE_LOOP('',(#1151,#1153,#1154,#1155));
#1157=FACE_OUTER_BOUND('',#1156,.F.);
#1158=ADVANCED_FACE('',(#1157),#1150,.F.);
#1159=CARTESIAN_POINT('',(4.800000011921E1,8.038509834903E1,2.482991548890E2));
#1160=DIRECTION('',(0.E0,0.E0,-1.E0));
#1161=DIRECTION('',(-1.E0,0.E0,0.E0));
#1162=AXIS2_PLACEMENT_3D('',#1159,#1160,#1161);
#1163=PLANE('',#1162);
#1164=ORIENTED_EDGE('',*,*,#862,.F.);
#1165=ORIENTED_EDGE('',*,*,#1024,.F.);
#1166=ORIENTED_EDGE('',*,*,#962,.F.);
#1167=ORIENTED_EDGE('',*,*,#1152,.T.);
#1168=EDGE_LOOP('',(#1164,#1165,#1166,#1167));
#1169=FACE_OUTER_BOUND('',#1168,.F.);
#1170=ADVANCED_FACE('',(#1169),#1163,.F.);
#1171=CARTESIAN_POINT('',(7.400000005960E1,8.338509834903E1,2.742991544122E2));
#1172=DIRECTION('',(-1.776356839400E-14,1.E0,0.E0));
#1173=DIRECTION('',(-8.153200337091E-14,0.E0,1.E0));
#1174=AXIS2_PLACEMENT_3D('',#1171,#1172,#1173);
#1175=CYLINDRICAL_SURFACE('',#1174,1.0877E0);
#1177=ORIENTED_EDGE('',*,*,#1176,.F.);
#1178=ORIENTED_EDGE('',*,*,#904,.T.);
#1180=ORIENTED_EDGE('',*,*,#1179,.F.);
#1181=ORIENTED_EDGE('',*,*,#966,.T.);
#1182=EDGE_LOOP('',(#1177,#1178,#1180,#1181));
#1183=FACE_OUTER_BOUND('',#1182,.F.);
#1184=ADVANCED_FACE('',(#1183),#1175,.F.);
#1185=CARTESIAN_POINT('',(7.400000005960E1,8.338509834903E1,2.742991544122E2));
#1186=DIRECTION('',(-1.776356839400E-14,1.E0,0.E0));
#1187=DIRECTION('',(-8.153200337091E-14,0.E0,1.E0));
#1188=AXIS2_PLACEMENT_3D('',#1185,#1186,#1187);
#1189=CYLINDRICAL_SURFACE('',#1188,1.0877E0);
#1190=ORIENTED_EDGE('',*,*,#1176,.T.);
#1191=ORIENTED_EDGE('',*,*,#968,.T.);
#1192=ORIENTED_EDGE('',*,*,#1179,.T.);
#1193=ORIENTED_EDGE('',*,*,#902,.T.);
#1194=EDGE_LOOP('',(#1190,#1191,#1192,#1193));
#1195=FACE_OUTER_BOUND('',#1194,.F.);
#1196=ADVANCED_FACE('',(#1195),#1189,.F.);
#1197=CARTESIAN_POINT('',(7.400000005961E1,8.338509834903E1,2.462991544122E2));
#1198=DIRECTION('',(-1.776356839400E-14,1.E0,0.E0));
#1199=DIRECTION('',(-8.153200337091E-14,0.E0,1.E0));
#1200=AXIS2_PLACEMENT_3D('',#1197,#1198,#1199);
#1201=CYLINDRICAL_SURFACE('',#1200,1.0877E0);
#1203=ORIENTED_EDGE('',*,*,#1202,.F.);
#1204=ORIENTED_EDGE('',*,*,#898,.T.);
#1206=ORIENTED_EDGE('',*,*,#1205,.F.);
#1207=ORIENTED_EDGE('',*,*,#972,.T.);
#1208=EDGE_LOOP('',(#1203,#1204,#1206,#1207));
#1209=FACE_OUTER_BOUND('',#1208,.F.);
#1210=ADVANCED_FACE('',(#1209),#1201,.F.);
#1211=CARTESIAN_POINT('',(7.400000005961E1,8.338509834903E1,2.462991544122E2));
#1212=DIRECTION('',(-1.776356839400E-14,1.E0,0.E0));
#1213=DIRECTION('',(-8.153200337091E-14,0.E0,1.E0));
#1214=AXIS2_PLACEMENT_3D('',#1211,#1212,#1213);
#1215=CYLINDRICAL_SURFACE('',#1214,1.0877E0);
#1216=ORIENTED_EDGE('',*,*,#1202,.T.);
#1217=ORIENTED_EDGE('',*,*,#974,.T.);
#1218=ORIENTED_EDGE('',*,*,#1205,.T.);
#1219=ORIENTED_EDGE('',*,*,#896,.T.);
#1220=EDGE_LOOP('',(#1216,#1217,#1218,#1219));
#1221=FACE_OUTER_BOUND('',#1220,.F.);
#1222=ADVANCED_FACE('',(#1221),#1215,.F.);
#1223=CARTESIAN_POINT('',(4.600000005961E1,8.338509834903E1,2.462991544122E2));
#1224=DIRECTION('',(-1.776356839400E-14,1.E0,0.E0));
#1225=DIRECTION('',(-8.153200337091E-14,0.E0,1.E0));
#1226=AXIS2_PLACEMENT_3D('',#1223,#1224,#1225);
#1227=CYLINDRICAL_SURFACE('',#1226,1.0877E0);
#1229=ORIENTED_EDGE('',*,*,#1228,.F.);
#1230=ORIENTED_EDGE('',*,*,#892,.T.);
#1232=ORIENTED_EDGE('',*,*,#1231,.F.);
#1233=ORIENTED_EDGE('',*,*,#978,.T.);
#1234=EDGE_LOOP('',(#1229,#1230,#1232,#1233));
#1235=FACE_OUTER_BOUND('',#1234,.F.);
#1236=ADVANCED_FACE('',(#1235),#1227,.F.);
#1237=CARTESIAN_POINT('',(4.600000005961E1,8.338509834903E1,2.462991544122E2));
#1238=DIRECTION('',(-1.776356839400E-14,1.E0,0.E0));
#1239=DIRECTION('',(-8.153200337091E-14,0.E0,1.E0));
#1240=AXIS2_PLACEMENT_3D('',#1237,#1238,#1239);
#1241=CYLINDRICAL_SURFACE('',#1240,1.0877E0);
#1242=ORIENTED_EDGE('',*,*,#1228,.T.);
#1243=ORIENTED_EDGE('',*,*,#980,.T.);
#1244=ORIENTED_EDGE('',*,*,#1231,.T.);
#1245=ORIENTED_EDGE('',*,*,#890,.T.);
#1246=EDGE_LOOP('',(#1242,#1243,#1244,#1245));
#1247=FACE_OUTER_BOUND('',#1246,.F.);
#1248=ADVANCED_FACE('',(#1247),#1241,.F.);
#1249=CARTESIAN_POINT('',(4.600000005960E1,8.338509834903E1,2.742991544122E2));
#1250=DIRECTION('',(-1.776356839400E-14,1.E0,0.E0));
#1251=DIRECTION('',(-8.153200337091E-14,0.E0,1.E0));
#1252=AXIS2_PLACEMENT_3D('',#1249,#1250,#1251);
#1253=CYLINDRICAL_SURFACE('',#1252,1.0877E0);
#1255=ORIENTED_EDGE('',*,*,#1254,.F.);
#1256=ORIENTED_EDGE('',*,*,#886,.T.);
#1258=ORIENTED_EDGE('',*,*,#1257,.F.);
#1259=ORIENTED_EDGE('',*,*,#984,.T.);
#1260=EDGE_LOOP('',(#1255,#1256,#1258,#1259));
#1261=FACE_OUTER_BOUND('',#1260,.F.);
#1262=ADVANCED_FACE('',(#1261),#1253,.F.);
#1263=CARTESIAN_POINT('',(4.600000005960E1,8.338509834903E1,2.742991544122E2));
#1264=DIRECTION('',(-1.776356839400E-14,1.E0,0.E0));
#1265=DIRECTION('',(-8.153200337091E-14,0.E0,1.E0));
#1266=AXIS2_PLACEMENT_3D('',#1263,#1264,#1265);
#1267=CYLINDRICAL_SURFACE('',#1266,1.0877E0);
#1268=ORIENTED_EDGE('',*,*,#1254,.T.);
#1269=ORIENTED_EDGE('',*,*,#986,.T.);
#1270=ORIENTED_EDGE('',*,*,#1257,.T.);
#1271=ORIENTED_EDGE('',*,*,#884,.T.);
#1272=EDGE_LOOP('',(#1268,#1269,#1270,#1271));
#1273=FACE_OUTER_BOUND('',#1272,.F.);
#1274=ADVANCED_FACE('',(#1273),#1267,.F.);
#1278=DIMENSIONAL_EXPONENTS(0.E0,0.E0,0.E0,0.E0,0.E0,0.E0,0.E0);
#1280=PLANE_ANGLE_MEASURE_WITH_UNIT(PLANE_ANGLE_MEASURE(1.745329251994E-2),
#1279);
#1281=(CONVERSION_BASED_UNIT('DEGREE',#1280)NAMED_UNIT(*)PLANE_ANGLE_UNIT());
#1283=UNCERTAINTY_MEASURE_WITH_UNIT(LENGTH_MEASURE(8.335480087287E-3),#1277,
'closure',
'Maximum model space distance between geometric entities at asserted connectivities');
#1284=(GEOMETRIC_REPRESENTATION_CONTEXT(3)GLOBAL_UNCERTAINTY_ASSIGNED_CONTEXT((
#1283))GLOBAL_UNIT_ASSIGNED_CONTEXT((#1277,#1281,#1282))REPRESENTATION_CONTEXT(
'ID1','3'));
#1286=APPLICATION_CONTEXT(
'CONFIGURATION CONTROLLED 3D DESIGNS OF MECHANICAL PARTS AND ASSEMBLIES');
#1287=APPLICATION_PROTOCOL_DEFINITION('international standard',
'config_control_design',1994,#1286);
#1288=DESIGN_CONTEXT('',#1286,'design');
#1289=MECHANICAL_CONTEXT('',#1286,'mechanical');
#1290=PRODUCT('3320001473_40001','3320001473_40001','NOT SPECIFIED',(#1289));
#1291=PRODUCT_DEFINITION_FORMATION_WITH_SPECIFIED_SOURCE('1','LAST_VERSION',
#1290,.MADE.);
#1295=PRODUCT_CATEGORY('part','');
#1296=PRODUCT_RELATED_PRODUCT_CATEGORY('detail','',(#1290));
#1297=PRODUCT_CATEGORY_RELATIONSHIP('','',#1295,#1296);
#1298=SECURITY_CLASSIFICATION_LEVEL('unclassified');
#1299=SECURITY_CLASSIFICATION('','',#1298);
#1300=CC_DESIGN_SECURITY_CLASSIFICATION(#1299,(#1291));
#1301=APPROVAL_STATUS('approved');
#1302=APPROVAL(#1301,'');
#1303=CC_DESIGN_APPROVAL(#1302,(#1299,#1291,#1292));
#1304=CALENDAR_DATE(126,28,7);
#1305=COORDINATED_UNIVERSAL_TIME_OFFSET(8,0,.AHEAD.);
#1306=LOCAL_TIME(13,38,4.1E1,#1305);
#1307=DATE_AND_TIME(#1304,#1306);
#1308=APPROVAL_DATE_TIME(#1307,#1302);
#1309=DATE_TIME_ROLE('creation_date');
#1310=CC_DESIGN_DATE_AND_TIME_ASSIGNMENT(#1307,#1309,(#1292));
#1311=DATE_TIME_ROLE('classification_date');
#1312=CC_DESIGN_DATE_AND_TIME_ASSIGNMENT(#1307,#1311,(#1299));
#1313=PERSON('UNSPECIFIED','UNSPECIFIED',$,$,$,$);
#1314=ORGANIZATION('UNSPECIFIED','UNSPECIFIED','UNSPECIFIED');
#1315=PERSON_AND_ORGANIZATION(#1313,#1314);
#1316=APPROVAL_ROLE('approver');
#1317=APPROVAL_PERSON_ORGANIZATION(#1315,#1302,#1316);
#1318=PERSON_AND_ORGANIZATION_ROLE('creator');
#1319=CC_DESIGN_PERSON_AND_ORGANIZATION_ASSIGNMENT(#1315,#1318,(#1291,#1292));
#1320=PERSON_AND_ORGANIZATION_ROLE('design_supplier');
#1321=CC_DESIGN_PERSON_AND_ORGANIZATION_ASSIGNMENT(#1315,#1320,(#1291));
#1322=PERSON_AND_ORGANIZATION_ROLE('classification_officer');
#1323=CC_DESIGN_PERSON_AND_ORGANIZATION_ASSIGNMENT(#1315,#1322,(#1299));
#1324=PERSON_AND_ORGANIZATION_ROLE('design_owner');
#1325=CC_DESIGN_PERSON_AND_ORGANIZATION_ASSIGNMENT(#1315,#1324,(#1290));
#170=CIRCLE('',#169,1.0877E0);
#175=CIRCLE('',#174,1.0877E0);
#180=CIRCLE('',#179,1.0877E0);
#185=CIRCLE('',#184,1.0877E0);
#190=CIRCLE('',#189,1.0877E0);
#195=CIRCLE('',#194,1.0877E0);
#200=CIRCLE('',#199,1.0877E0);
#205=CIRCLE('',#204,1.0877E0);
#234=CIRCLE('',#233,1.0877E0);
#239=CIRCLE('',#238,1.0877E0);
#244=CIRCLE('',#243,1.0877E0);
#249=CIRCLE('',#248,1.0877E0);
#254=CIRCLE('',#253,1.0877E0);
#259=CIRCLE('',#258,1.0877E0);
#264=CIRCLE('',#263,1.0877E0);
#269=CIRCLE('',#268,1.0877E0);
#615=EDGE_CURVE('',#465,#477,#5,.T.);
#617=EDGE_CURVE('',#477,#475,#81,.T.);
#619=EDGE_CURVE('',#475,#473,#57,.T.);
#621=EDGE_CURVE('',#473,#471,#221,.T.);
#623=EDGE_CURVE('',#471,#469,#161,.T.);
#625=EDGE_CURVE('',#469,#467,#157,.T.);
#627=EDGE_CURVE('',#467,#464,#49,.T.);
#629=EDGE_CURVE('',#464,#465,#37,.T.);
#639=EDGE_CURVE('',#479,#489,#9,.T.);
#641=EDGE_CURVE('',#489,#477,#85,.T.);
#644=EDGE_CURVE('',#465,#479,#33,.T.);
#654=EDGE_CURVE('',#481,#487,#13,.T.);
#656=EDGE_CURVE('',#487,#489,#89,.T.);
#659=EDGE_CURVE('',#479,#481,#45,.T.);
#670=EDGE_CURVE('',#483,#481,#17,.T.);
#672=EDGE_CURVE('',#483,#569,#121,.T.);
#674=EDGE_CURVE('',#562,#569,#21,.T.);
#676=EDGE_CURVE('',#562,#563,#97,.T.);
#678=EDGE_CURVE('',#554,#563,#25,.T.);
#680=EDGE_CURVE('',#554,#557,#77,.T.);
#682=EDGE_CURVE('',#487,#557,#29,.T.);
#694=EDGE_CURVE('',#485,#464,#41,.T.);
#696=EDGE_CURVE('',#485,#483,#125,.T.);
#708=EDGE_CURVE('',#555,#565,#61,.T.);
#710=EDGE_CURVE('',#565,#567,#105,.T.);
#712=EDGE_CURVE('',#567,#573,#113,.T.);
#714=EDGE_CURVE('',#573,#485,#129,.T.);
#718=EDGE_CURVE('',#467,#571,#153,.T.);
#720=EDGE_CURVE('',#571,#545,#285,.T.);
#722=EDGE_CURVE('',#473,#545,#53,.T.);
#725=EDGE_CURVE('',#475,#559,#93,.T.);
#727=EDGE_CURVE('',#559,#555,#69,.T.);
#738=EDGE_CURVE('',#554,#555,#65,.T.);
#741=EDGE_CURVE('',#563,#565,#109,.T.);
#753=EDGE_CURVE('',#557,#559,#73,.T.);
#779=EDGE_CURVE('',#567,#562,#101,.T.);
#794=EDGE_CURVE('',#569,#573,#117,.T.);
#816=EDGE_CURVE('',#551,#469,#133,.T.);
#818=EDGE_CURVE('',#575,#551,#137,.T.);
#820=EDGE_CURVE('',#537,#575,#141,.T.);
#822=EDGE_CURVE('',#536,#537,#145,.T.);
#824=EDGE_CURVE('',#571,#536,#149,.T.);
#836=EDGE_CURVE('',#547,#551,#165,.T.);
#840=EDGE_CURVE('',#471,#547,#217,.T.);
#852=EDGE_CURVE('',#547,#549,#213,.T.);
#854=EDGE_CURVE('',#549,#575,#273,.T.);
#858=EDGE_CURVE('',#492,#493,#301,.T.);
#860=EDGE_CURVE('',#493,#499,#289,.T.);
#862=EDGE_CURVE('',#499,#503,#421,.T.);
#864=EDGE_CURVE('',#503,#507,#409,.T.);
#866=EDGE_CURVE('',#507,#511,#397,.T.);
#868=EDGE_CURVE('',#511,#515,#385,.T.);
#870=EDGE_CURVE('',#515,#519,#373,.T.);
#872=EDGE_CURVE('',#519,#523,#361,.T.);
#874=EDGE_CURVE('',#523,#527,#345,.T.);
#876=EDGE_CURVE('',#527,#577,#341,.T.);
#878=EDGE_CURVE('',#577,#533,#333,.T.);
#880=EDGE_CURVE('',#533,#492,#313,.T.);
#884=EDGE_CURVE('',#585,#580,#170,.T.);
#886=EDGE_CURVE('',#580,#585,#175,.T.);
#890=EDGE_CURVE('',#593,#588,#180,.T.);
#892=EDGE_CURVE('',#588,#593,#185,.T.);
#896=EDGE_CURVE('',#601,#596,#190,.T.);
#898=EDGE_CURVE('',#596,#601,#195,.T.);
#902=EDGE_CURVE('',#609,#604,#200,.T.);
#904=EDGE_CURVE('',#604,#609,#205,.T.);
#914=EDGE_CURVE('',#541,#539,#209,.T.);
#916=EDGE_CURVE('',#541,#549,#277,.T.);
#922=EDGE_CURVE('',#539,#545,#225,.T.);
#933=EDGE_CURVE('',#537,#541,#281,.T.);
#936=EDGE_CURVE('',#536,#539,#229,.T.);
#940=EDGE_CURVE('',#501,#495,#297,.T.);
#942=EDGE_CURVE('',#495,#497,#309,.T.);
#944=EDGE_CURVE('',#497,#531,#317,.T.);
#946=EDGE_CURVE('',#531,#543,#325,.T.);
#948=EDGE_CURVE('',#543,#529,#337,.T.);
#950=EDGE_CURVE('',#529,#525,#353,.T.);
#952=EDGE_CURVE('',#525,#521,#369,.T.);
#954=EDGE_CURVE('',#521,#517,#381,.T.);
#956=EDGE_CURVE('',#517,#513,#393,.T.);
#958=EDGE_CURVE('',#513,#509,#405,.T.);
#960=EDGE_CURVE('',#509,#505,#417,.T.);
#962=EDGE_CURVE('',#505,#501,#429,.T.);
#966=EDGE_CURVE('',#607,#605,#234,.T.);
#968=EDGE_CURVE('',#605,#607,#239,.T.);
#972=EDGE_CURVE('',#599,#597,#244,.T.);
#974=EDGE_CURVE('',#597,#599,#249,.T.);
#978=EDGE_CURVE('',#591,#589,#254,.T.);
#980=EDGE_CURVE('',#589,#591,#259,.T.);
#984=EDGE_CURVE('',#583,#581,#264,.T.);
#986=EDGE_CURVE('',#581,#583,#269,.T.);
#1021=EDGE_CURVE('',#495,#493,#293,.T.);
#1024=EDGE_CURVE('',#501,#499,#425,.T.);
#1035=EDGE_CURVE('',#497,#492,#305,.T.);
#1049=EDGE_CURVE('',#533,#531,#329,.T.);
#1060=EDGE_CURVE('',#543,#577,#321,.T.);
#1073=EDGE_CURVE('',#527,#529,#357,.T.);
#1087=EDGE_CURVE('',#525,#523,#349,.T.);
#1100=EDGE_CURVE('',#521,#519,#365,.T.);
#1113=EDGE_CURVE('',#517,#515,#377,.T.);
#1126=EDGE_CURVE('',#513,#511,#389,.T.);
#1139=EDGE_CURVE('',#509,#507,#401,.T.);
#1152=EDGE_CURVE('',#505,#503,#413,.T.);
#1176=EDGE_CURVE('',#604,#605,#433,.T.);
#1179=EDGE_CURVE('',#607,#609,#437,.T.);
#1202=EDGE_CURVE('',#596,#597,#441,.T.);
#1205=EDGE_CURVE('',#599,#601,#445,.T.);
#1228=EDGE_CURVE('',#588,#589,#449,.T.);
#1231=EDGE_CURVE('',#591,#593,#453,.T.);
#1254=EDGE_CURVE('',#580,#581,#457,.T.);
#1257=EDGE_CURVE('',#583,#585,#461,.T.);
#1275=CLOSED_SHELL('',(#633,#648,#663,#686,#702,#731,#745,#758,#772,#785,#798,
#810,#830,#844,#908,#926,#990,#1002,#1014,#1028,#1041,#1054,#1067,#1080,#1093,
#1106,#1119,#1132,#1145,#1158,#1170,#1184,#1196,#1210,#1222,#1236,#1248,#1262,
#1274));
#1276=MANIFOLD_SOLID_BREP('',#1275);
#1277=(LENGTH_UNIT()NAMED_UNIT(*)SI_UNIT(.MILLI.,.METRE.));
#1279=(NAMED_UNIT(*)PLANE_ANGLE_UNIT()SI_UNIT($,.RADIAN.));
#1282=(NAMED_UNIT(*)SI_UNIT($,.STERADIAN.)SOLID_ANGLE_UNIT());
#1285=ADVANCED_BREP_SHAPE_REPRESENTATION('',(#1276),#1284);
#1292=PRODUCT_DEFINITION('design','',#1291,#1288);
#1293=PRODUCT_DEFINITION_SHAPE('','SHAPE FOR 3320001473_40001.',#1292);
#1294=SHAPE_DEFINITION_REPRESENTATION(#1293,#1285);
ENDSEC;
END-ISO-10303-21;
