ISO-10303-21;
HEADER;
FILE_DESCRIPTION((''),'2;1');
FILE_NAME('332000141200','2026-07-27T19:03:09',('EDY'),(''),
'CREO PARAMETRIC BY PTC INC, 2021284','CREO PARAMETRIC BY PTC INC, 2021284','');
FILE_SCHEMA(('CONFIG_CONTROL_DESIGN'));
ENDSEC;
DATA;
#2=DIRECTION('',(0.E0,0.E0,1.E0));
#3=VECTOR('',#2,1.8E1);
#4=CARTESIAN_POINT('',(7.319991186543E1,1.346604051525E1,4.149849723660E2));
#5=LINE('',#4,#3);
#6=DIRECTION('',(-1.E0,0.E0,0.E0));
#7=VECTOR('',#6,2.5E0);
#8=CARTESIAN_POINT('',(7.569991186543E1,1.346604051525E1,4.149849723660E2));
#9=LINE('',#8,#7);
#10=DIRECTION('',(0.E0,0.E0,-1.E0));
#11=VECTOR('',#10,1.8E1);
#12=CARTESIAN_POINT('',(7.569991186543E1,1.346604051525E1,4.329849723660E2));
#13=LINE('',#12,#11);
#14=DIRECTION('',(1.E0,0.E0,0.E0));
#15=VECTOR('',#14,2.5E0);
#16=CARTESIAN_POINT('',(7.319991186543E1,1.346604051525E1,4.329849723660E2));
#17=LINE('',#16,#15);
#18=DIRECTION('',(0.E0,1.E0,0.E0));
#19=VECTOR('',#18,2.3E0);
#20=CARTESIAN_POINT('',(7.319991186543E1,1.116604051525E1,4.329849723660E2));
#21=LINE('',#20,#19);
#22=DIRECTION('',(0.E0,0.E0,1.E0));
#23=VECTOR('',#22,1.8E1);
#24=CARTESIAN_POINT('',(7.319991186543E1,1.116604051525E1,4.149849723660E2));
#25=LINE('',#24,#23);
#26=DIRECTION('',(0.E0,-1.E0,0.E0));
#27=VECTOR('',#26,2.3E0);
#28=CARTESIAN_POINT('',(7.319991186543E1,1.346604051525E1,4.149849723660E2));
#29=LINE('',#28,#27);
#30=DIRECTION('',(-1.E0,0.E0,0.E0));
#31=VECTOR('',#30,2.3E0);
#32=CARTESIAN_POINT('',(7.799991186543E1,1.804104051525E1,4.329849723660E2));
#33=LINE('',#32,#31);
#34=DIRECTION('',(0.E0,1.E0,0.E0));
#35=VECTOR('',#34,6.875E0);
#36=CARTESIAN_POINT('',(7.799991186543E1,1.116604051525E1,4.329849723660E2));
#37=LINE('',#36,#35);
#38=DIRECTION('',(1.E0,0.E0,0.E0));
#39=VECTOR('',#38,4.8E0);
#40=CARTESIAN_POINT('',(7.319991186543E1,1.116604051525E1,4.329849723660E2));
#41=LINE('',#40,#39);
#42=DIRECTION('',(0.E0,-1.E0,0.E0));
#43=VECTOR('',#42,4.7E0);
#44=CARTESIAN_POINT('',(7.569991186543E1,1.816604051525E1,4.149849723660E2));
#45=LINE('',#44,#43);
#46=DIRECTION('',(0.E0,0.E0,-1.E0));
#47=VECTOR('',#46,2.1E1);
#48=CARTESIAN_POINT('',(7.569991186543E1,1.816604051525E1,4.359849723660E2));
#49=LINE('',#48,#47);
#50=DIRECTION('',(0.E0,4.163054471218E-2,9.991330730924E-1));
#51=VECTOR('',#50,3.002603037366E0);
#52=CARTESIAN_POINT('',(7.569991186543E1,1.804104051525E1,4.329849723660E2));
#53=LINE('',#52,#51);
#54=DIRECTION('',(0.E0,1.E0,0.E0));
#55=VECTOR('',#54,4.575E0);
#56=CARTESIAN_POINT('',(7.569991186543E1,1.346604051525E1,4.329849723660E2));
#57=LINE('',#56,#55);
#58=DIRECTION('',(1.E0,0.E0,0.E0));
#59=VECTOR('',#58,2.639991309030E1);
#60=CARTESIAN_POINT('',(4.679999877512E1,1.116604051525E1,4.149849723660E2));
#61=LINE('',#60,#59);
#62=DIRECTION('',(-1.E0,0.E0,0.E0));
#63=VECTOR('',#62,3.14E1);
#64=CARTESIAN_POINT('',(7.569991186543E1,1.816604051525E1,4.359849723660E2));
#65=LINE('',#64,#63);
#66=DIRECTION('',(1.E0,0.E0,0.E0));
#67=VECTOR('',#66,3.14E1);
#68=CARTESIAN_POINT('',(4.429991186543E1,1.816604051525E1,4.149849723660E2));
#69=LINE('',#68,#67);
#70=DIRECTION('',(-6.646159823768E-2,4.153849889855E-2,9.969239735652E-1));
#71=VECTOR('',#70,1.504628276353E2);
#72=CARTESIAN_POINT('',(1.E2,1.25E1,3.E2));
#73=LINE('',#72,#71);
#74=DIRECTION('',(-1.E0,0.E0,0.E0));
#75=VECTOR('',#74,6.E1);
#76=CARTESIAN_POINT('',(9.E1,1.875E1,4.5E2));
#77=LINE('',#76,#75);
#78=DIRECTION('',(0.E0,-1.E0,0.E0));
#79=VECTOR('',#78,3.25E1);
#80=CARTESIAN_POINT('',(9.E1,5.125E1,4.5E2));
#81=LINE('',#80,#79);
#82=DIRECTION('',(-6.646159823768E-2,-4.153849889855E-2,9.969239735652E-1));
#83=VECTOR('',#82,1.504628276353E2);
#84=CARTESIAN_POINT('',(1.E2,5.75E1,3.E2));
#85=LINE('',#84,#83);
#86=DIRECTION('',(1.E0,0.E0,0.E0));
#87=VECTOR('',#86,6.E1);
#88=CARTESIAN_POINT('',(3.E1,5.125E1,4.5E2));
#89=LINE('',#88,#87);
#90=DIRECTION('',(6.646159823768E-2,-4.153849889855E-2,9.969239735652E-1));
#91=VECTOR('',#90,1.504628276353E2);
#92=CARTESIAN_POINT('',(2.E1,5.75E1,3.E2));
#93=LINE('',#92,#91);
#94=DIRECTION('',(0.E0,1.E0,0.E0));
#95=VECTOR('',#94,3.25E1);
#96=CARTESIAN_POINT('',(3.E1,1.875E1,4.5E2));
#97=LINE('',#96,#95);
#98=DIRECTION('',(6.646159823768E-2,4.153849889855E-2,9.969239735652E-1));
#99=VECTOR('',#98,1.504628276353E2);
#100=CARTESIAN_POINT('',(2.E1,1.25E1,3.E2));
#101=LINE('',#100,#99);
#102=DIRECTION('',(1.E0,0.E0,0.E0));
#103=VECTOR('',#102,8.E1);
#104=CARTESIAN_POINT('',(2.E1,5.75E1,3.E2));
#105=LINE('',#104,#103);
#106=DIRECTION('',(0.E0,1.E0,0.E0));
#107=VECTOR('',#106,4.5E1);
#108=CARTESIAN_POINT('',(2.E1,1.25E1,3.E2));
#109=LINE('',#108,#107);
#110=DIRECTION('',(-1.E0,0.E0,0.E0));
#111=VECTOR('',#110,8.E1);
#112=CARTESIAN_POINT('',(1.E2,1.25E1,3.E2));
#113=LINE('',#112,#111);
#114=DIRECTION('',(0.E0,-1.E0,0.E0));
#115=VECTOR('',#114,4.5E1);
#116=CARTESIAN_POINT('',(1.E2,5.75E1,3.E2));
#117=LINE('',#116,#115);
#118=DIRECTION('',(0.E0,1.E0,0.E0));
#119=VECTOR('',#118,4.120000296272E1);
#120=CARTESIAN_POINT('',(2.189999951050E1,1.439999967813E1,3.E2));
#121=LINE('',#120,#119);
#122=DIRECTION('',(0.E0,0.E0,-1.E0));
#123=VECTOR('',#122,1.5E1);
#124=CARTESIAN_POINT('',(2.189999951050E1,1.439999967813E1,3.15E2));
#125=LINE('',#124,#123);
#126=DIRECTION('',(-1.E0,0.E0,0.E0));
#127=VECTOR('',#126,7.620000514900E1);
#128=CARTESIAN_POINT('',(9.810000465950E1,1.439999967813E1,3.E2));
#129=LINE('',#128,#127);
#130=DIRECTION('',(0.E0,0.E0,-1.E0));
#131=VECTOR('',#130,1.5E1);
#132=CARTESIAN_POINT('',(9.810000465950E1,1.439999967813E1,3.15E2));
#133=LINE('',#132,#131);
#134=DIRECTION('',(0.E0,-1.E0,0.E0));
#135=VECTOR('',#134,4.120000296272E1);
#136=CARTESIAN_POINT('',(9.810000465950E1,5.560000264086E1,3.E2));
#137=LINE('',#136,#135);
#138=DIRECTION('',(0.E0,0.E0,-1.E0));
#139=VECTOR('',#138,1.5E1);
#140=CARTESIAN_POINT('',(9.810000465950E1,5.560000264086E1,3.15E2));
#141=LINE('',#140,#139);
#142=DIRECTION('',(1.E0,0.E0,0.E0));
#143=VECTOR('',#142,7.620000514900E1);
#144=CARTESIAN_POINT('',(2.189999951050E1,5.560000264086E1,3.E2));
#145=LINE('',#144,#143);
#146=DIRECTION('',(0.E0,0.E0,-1.E0));
#147=VECTOR('',#146,1.5E1);
#148=CARTESIAN_POINT('',(2.189999951050E1,5.560000264086E1,3.15E2));
#149=LINE('',#148,#147);
#150=DIRECTION('',(-1.E0,0.E0,0.E0));
#151=VECTOR('',#150,7.620000514900E1);
#152=CARTESIAN_POINT('',(9.810000465950E1,1.439999967813E1,3.15E2));
#153=LINE('',#152,#151);
#154=DIRECTION('',(0.E0,-1.E0,0.E0));
#155=VECTOR('',#154,4.120000296272E1);
#156=CARTESIAN_POINT('',(9.810000465950E1,5.560000264086E1,3.15E2));
#157=LINE('',#156,#155);
#158=DIRECTION('',(1.E0,0.E0,0.E0));
#159=VECTOR('',#158,7.620000514900E1);
#160=CARTESIAN_POINT('',(2.189999951050E1,5.560000264086E1,3.15E2));
#161=LINE('',#160,#159);
#162=DIRECTION('',(0.E0,1.E0,0.E0));
#163=VECTOR('',#162,4.120000296272E1);
#164=CARTESIAN_POINT('',(2.189999951050E1,1.439999967813E1,3.15E2));
#165=LINE('',#164,#163);
#166=DIRECTION('',(1.E0,-8.035984529483E-12,0.E0));
#167=VECTOR('',#166,7.000000040680E1);
#168=CARTESIAN_POINT('',(2.500000038743E1,1.712500078082E1,3.15E2));
#169=LINE('',#168,#167);
#170=DIRECTION('',(0.E0,-1.E0,0.E0));
#171=VECTOR('',#170,3.575E1);
#172=CARTESIAN_POINT('',(2.500000038743E1,5.287500078082E1,3.15E2));
#173=LINE('',#172,#171);
#174=DIRECTION('',(-1.E0,0.E0,0.E0));
#175=VECTOR('',#174,7.000000061020E1);
#176=CARTESIAN_POINT('',(9.500000099763E1,5.287500078082E1,3.15E2));
#177=LINE('',#176,#175);
#178=DIRECTION('',(5.689534909935E-9,1.E0,0.E0));
#179=VECTOR('',#178,3.575000000056E1);
#180=CARTESIAN_POINT('',(9.500000079423E1,1.712500078026E1,3.15E2));
#181=LINE('',#180,#179);
#182=DIRECTION('',(1.E0,0.E0,0.E0));
#183=VECTOR('',#182,5.2E1);
#184=CARTESIAN_POINT('',(3.400000052154E1,2.275000070035E1,4.5E2));
#185=LINE('',#184,#183);
#186=DIRECTION('',(6.646159922530E-2,4.153849830263E-2,9.969239735241E-1));
#187=VECTOR('',#186,1.354165448773E2);
#188=CARTESIAN_POINT('',(2.500000038743E1,1.712500078082E1,3.15E2));
#189=LINE('',#188,#187);
#190=DIRECTION('',(0.E0,1.E0,0.E0));
#191=VECTOR('',#190,2.45E1);
#192=CARTESIAN_POINT('',(8.600000052154E1,2.275000070035E1,4.5E2));
#193=LINE('',#192,#191);
#194=DIRECTION('',(-6.646160024413E-2,4.153849830395E-2,9.969239734562E-1));
#195=VECTOR('',#194,1.354165448865E2);
#196=CARTESIAN_POINT('',(9.500000079423E1,1.712500078026E1,3.15E2));
#197=LINE('',#196,#195);
#198=DIRECTION('',(-1.E0,0.E0,0.E0));
#199=VECTOR('',#198,5.2E1);
#200=CARTESIAN_POINT('',(8.600000052154E1,4.725000070035E1,4.5E2));
#201=LINE('',#200,#199);
#202=DIRECTION('',(-6.646160173627E-2,-4.153849948203E-2,9.969239733076E-1));
#203=VECTOR('',#202,1.354165449067E2);
#204=CARTESIAN_POINT('',(9.500000099763E1,5.287500078082E1,3.15E2));
#205=LINE('',#204,#203);
#206=DIRECTION('',(0.E0,-1.E0,0.E0));
#207=VECTOR('',#206,2.45E1);
#208=CARTESIAN_POINT('',(3.400000052154E1,4.725000070035E1,4.5E2));
#209=LINE('',#208,#207);
#210=DIRECTION('',(6.646159922202E-2,-4.153849948900E-2,9.969239734749E-1));
#211=VECTOR('',#210,1.354165448840E2);
#212=CARTESIAN_POINT('',(2.500000038743E1,5.287500078082E1,3.15E2));
#213=LINE('',#212,#211);
#214=DIRECTION('',(0.E0,0.E0,-1.E0));
#215=VECTOR('',#214,1.5E1);
#216=CARTESIAN_POINT('',(3.400000052154E1,2.275000070035E1,4.65E2));
#217=LINE('',#216,#215);
#218=DIRECTION('',(0.E0,-1.E0,0.E0));
#219=VECTOR('',#218,2.45E1);
#220=CARTESIAN_POINT('',(3.400000052154E1,4.725000070035E1,4.65E2));
#221=LINE('',#220,#219);
#222=DIRECTION('',(0.E0,0.E0,-1.E0));
#223=VECTOR('',#222,1.5E1);
#224=CARTESIAN_POINT('',(8.600000052154E1,2.275000070035E1,4.65E2));
#225=LINE('',#224,#223);
#226=DIRECTION('',(1.E0,0.E0,0.E0));
#227=VECTOR('',#226,5.2E1);
#228=CARTESIAN_POINT('',(3.400000052154E1,2.275000070035E1,4.65E2));
#229=LINE('',#228,#227);
#230=DIRECTION('',(0.E0,0.E0,-1.E0));
#231=VECTOR('',#230,1.5E1);
#232=CARTESIAN_POINT('',(8.600000052154E1,4.725000070035E1,4.65E2));
#233=LINE('',#232,#231);
#234=DIRECTION('',(0.E0,1.E0,0.E0));
#235=VECTOR('',#234,2.45E1);
#236=CARTESIAN_POINT('',(8.600000052154E1,2.275000070035E1,4.65E2));
#237=LINE('',#236,#235);
#238=DIRECTION('',(-1.E0,0.E0,0.E0));
#239=VECTOR('',#238,5.2E1);
#240=CARTESIAN_POINT('',(8.600000052154E1,4.725000070035E1,4.65E2));
#241=LINE('',#240,#239);
#242=DIRECTION('',(0.E0,0.E0,-1.E0));
#243=VECTOR('',#242,1.5E1);
#244=CARTESIAN_POINT('',(3.400000052154E1,4.725000070035E1,4.65E2));
#245=LINE('',#244,#243);
#246=DIRECTION('',(-1.E0,0.E0,0.E0));
#247=VECTOR('',#246,5.6E1);
#248=CARTESIAN_POINT('',(8.8E1,4.925E1,4.5E2));
#249=LINE('',#248,#247);
#250=DIRECTION('',(0.E0,0.E0,-1.E0));
#251=VECTOR('',#250,1.5E1);
#252=CARTESIAN_POINT('',(8.8E1,4.925E1,4.65E2));
#253=LINE('',#252,#251);
#254=DIRECTION('',(1.E0,0.E0,0.E0));
#255=VECTOR('',#254,5.6E1);
#256=CARTESIAN_POINT('',(3.2E1,4.925E1,4.65E2));
#257=LINE('',#256,#255);
#258=DIRECTION('',(0.E0,1.E0,0.E0));
#259=VECTOR('',#258,2.85E1);
#260=CARTESIAN_POINT('',(8.8E1,2.075E1,4.5E2));
#261=LINE('',#260,#259);
#262=DIRECTION('',(0.E0,0.E0,-1.E0));
#263=VECTOR('',#262,1.5E1);
#264=CARTESIAN_POINT('',(8.8E1,2.075E1,4.65E2));
#265=LINE('',#264,#263);
#266=DIRECTION('',(0.E0,-1.E0,0.E0));
#267=VECTOR('',#266,2.85E1);
#268=CARTESIAN_POINT('',(8.8E1,4.925E1,4.65E2));
#269=LINE('',#268,#267);
#270=DIRECTION('',(-1.E0,0.E0,0.E0));
#271=VECTOR('',#270,5.6E1);
#272=CARTESIAN_POINT('',(8.8E1,2.075E1,4.65E2));
#273=LINE('',#272,#271);
#274=DIRECTION('',(1.E0,0.E0,0.E0));
#275=VECTOR('',#274,5.6E1);
#276=CARTESIAN_POINT('',(3.2E1,2.075E1,4.5E2));
#277=LINE('',#276,#275);
#278=DIRECTION('',(0.E0,0.E0,-1.E0));
#279=VECTOR('',#278,1.5E1);
#280=CARTESIAN_POINT('',(3.2E1,2.075E1,4.65E2));
#281=LINE('',#280,#279);
#282=DIRECTION('',(0.E0,-1.E0,0.E0));
#283=VECTOR('',#282,2.85E1);
#284=CARTESIAN_POINT('',(3.2E1,4.925E1,4.5E2));
#285=LINE('',#284,#283);
#286=DIRECTION('',(0.E0,0.E0,-1.E0));
#287=VECTOR('',#286,1.5E1);
#288=CARTESIAN_POINT('',(3.2E1,4.925E1,4.65E2));
#289=LINE('',#288,#287);
#290=DIRECTION('',(0.E0,1.E0,0.E0));
#291=VECTOR('',#290,2.85E1);
#292=CARTESIAN_POINT('',(3.2E1,2.075E1,4.65E2));
#293=LINE('',#292,#291);
#294=DIRECTION('',(0.E0,0.E0,1.E0));
#295=VECTOR('',#294,2.1E1);
#296=CARTESIAN_POINT('',(4.429991186543E1,1.816604051525E1,4.149849723660E2));
#297=LINE('',#296,#295);
#298=DIRECTION('',(0.E0,1.E0,0.E0));
#299=VECTOR('',#298,4.7E0);
#300=CARTESIAN_POINT('',(4.429991186543E1,1.346604051525E1,4.149849723660E2));
#301=LINE('',#300,#299);
#302=DIRECTION('',(0.E0,-1.E0,0.E0));
#303=VECTOR('',#302,4.575E0);
#304=CARTESIAN_POINT('',(4.429991186543E1,1.804104051525E1,4.329849723660E2));
#305=LINE('',#304,#303);
#306=DIRECTION('',(0.E0,-4.163054471218E-2,-9.991330730924E-1));
#307=VECTOR('',#306,3.002603037366E0);
#308=CARTESIAN_POINT('',(4.429991186543E1,1.816604051525E1,4.359849723660E2));
#309=LINE('',#308,#307);
#310=DIRECTION('',(0.E0,0.E0,-1.E0));
#311=VECTOR('',#310,1.8E1);
#312=CARTESIAN_POINT('',(4.679999877512E1,1.346604051525E1,4.329849723660E2));
#313=LINE('',#312,#311);
#314=DIRECTION('',(1.E0,0.E0,0.E0));
#315=VECTOR('',#314,2.500086909699E0);
#316=CARTESIAN_POINT('',(4.429991186543E1,1.346604051525E1,4.329849723660E2));
#317=LINE('',#316,#315);
#318=DIRECTION('',(0.E0,0.E0,1.E0));
#319=VECTOR('',#318,1.8E1);
#320=CARTESIAN_POINT('',(4.429991186543E1,1.346604051525E1,4.149849723660E2));
#321=LINE('',#320,#319);
#322=DIRECTION('',(-1.E0,0.E0,0.E0));
#323=VECTOR('',#322,2.500086909699E0);
#324=CARTESIAN_POINT('',(4.679999877512E1,1.346604051525E1,4.149849723660E2));
#325=LINE('',#324,#323);
#326=DIRECTION('',(0.E0,1.E0,0.E0));
#327=VECTOR('',#326,2.3E0);
#328=CARTESIAN_POINT('',(4.679999877512E1,1.116604051525E1,4.149849723660E2));
#329=LINE('',#328,#327);
#330=DIRECTION('',(0.E0,0.E0,-1.E0));
#331=VECTOR('',#330,1.8E1);
#332=CARTESIAN_POINT('',(4.679999877512E1,1.116604051525E1,4.329849723660E2));
#333=LINE('',#332,#331);
#334=DIRECTION('',(0.E0,-1.E0,0.E0));
#335=VECTOR('',#334,2.3E0);
#336=CARTESIAN_POINT('',(4.679999877512E1,1.346604051525E1,4.329849723660E2));
#337=LINE('',#336,#335);
#338=DIRECTION('',(0.E0,4.163054471218E-2,9.991330730924E-1));
#339=VECTOR('',#338,2.001735358244E1);
#340=CARTESIAN_POINT('',(7.799991186543E1,1.720770718192E1,4.129849723660E2));
#341=LINE('',#340,#339);
#342=DIRECTION('',(0.E0,1.E0,0.E0));
#343=VECTOR('',#342,6.041666666667E0);
#344=CARTESIAN_POINT('',(7.799991186543E1,1.116604051525E1,4.129849723660E2));
#345=LINE('',#344,#343);
#346=DIRECTION('',(0.E0,0.E0,-1.E0));
#347=VECTOR('',#346,2.E1);
#348=CARTESIAN_POINT('',(7.799991186543E1,1.116604051525E1,4.329849723660E2));
#349=LINE('',#348,#347);
#350=DIRECTION('',(1.E0,0.E0,0.E0));
#351=VECTOR('',#350,3.6E1);
#352=CARTESIAN_POINT('',(4.199991186543E1,1.720770718192E1,4.129849723660E2));
#353=LINE('',#352,#351);
#354=DIRECTION('',(0.E0,1.E0,0.E0));
#355=VECTOR('',#354,6.041666666667E0);
#356=CARTESIAN_POINT('',(4.199991186543E1,1.116604051525E1,4.129849723660E2));
#357=LINE('',#356,#355);
#358=DIRECTION('',(-1.E0,0.E0,0.E0));
#359=VECTOR('',#358,3.6E1);
#360=CARTESIAN_POINT('',(7.799991186543E1,1.116604051525E1,4.129849723660E2));
#361=LINE('',#360,#359);
#362=DIRECTION('',(0.E0,-4.163054471218E-2,-9.991330730924E-1));
#363=VECTOR('',#362,2.001735358244E1);
#364=CARTESIAN_POINT('',(4.199991186543E1,1.804104051525E1,4.329849723660E2));
#365=LINE('',#364,#363);
#366=DIRECTION('',(0.E0,1.E0,0.E0));
#367=VECTOR('',#366,6.875E0);
#368=CARTESIAN_POINT('',(4.199991186543E1,1.116604051525E1,4.329849723660E2));
#369=LINE('',#368,#367);
#370=DIRECTION('',(0.E0,0.E0,1.E0));
#371=VECTOR('',#370,2.E1);
#372=CARTESIAN_POINT('',(4.199991186543E1,1.116604051525E1,4.129849723660E2));
#373=LINE('',#372,#371);
#374=DIRECTION('',(1.E0,0.E0,0.E0));
#375=VECTOR('',#374,4.800086909699E0);
#376=CARTESIAN_POINT('',(4.199991186543E1,1.116604051525E1,4.329849723660E2));
#377=LINE('',#376,#375);
#378=DIRECTION('',(-1.E0,0.E0,0.E0));
#379=VECTOR('',#378,2.3E0);
#380=CARTESIAN_POINT('',(4.429991186543E1,1.804104051525E1,4.329849723660E2));
#381=LINE('',#380,#379);
#382=CARTESIAN_POINT('',(7.319991186543E1,1.346604051525E1,4.149849723660E2));
#383=CARTESIAN_POINT('',(7.319991186543E1,1.346604051525E1,4.329849723660E2));
#384=VERTEX_POINT('',#382);
#385=VERTEX_POINT('',#383);
#386=CARTESIAN_POINT('',(7.569991186543E1,1.346604051525E1,4.329849723660E2));
#387=VERTEX_POINT('',#386);
#388=CARTESIAN_POINT('',(7.569991186543E1,1.346604051525E1,4.149849723660E2));
#389=VERTEX_POINT('',#388);
#390=CARTESIAN_POINT('',(7.569991186543E1,1.804104051525E1,4.329849723660E2));
#391=VERTEX_POINT('',#390);
#392=CARTESIAN_POINT('',(7.319991186543E1,1.116604051525E1,4.329849723660E2));
#393=VERTEX_POINT('',#392);
#394=CARTESIAN_POINT('',(7.799991186543E1,1.116604051525E1,4.329849723660E2));
#395=VERTEX_POINT('',#394);
#396=CARTESIAN_POINT('',(7.799991186543E1,1.804104051525E1,4.329849723660E2));
#397=VERTEX_POINT('',#396);
#398=CARTESIAN_POINT('',(7.319991186543E1,1.116604051525E1,4.149849723660E2));
#399=VERTEX_POINT('',#398);
#400=CARTESIAN_POINT('',(4.679999877512E1,1.346604051525E1,4.329849723660E2));
#401=CARTESIAN_POINT('',(4.679999877512E1,1.346604051525E1,4.149849723660E2));
#402=VERTEX_POINT('',#400);
#403=VERTEX_POINT('',#401);
#404=CARTESIAN_POINT('',(4.429991186543E1,1.346604051525E1,4.149849723660E2));
#405=VERTEX_POINT('',#404);
#406=CARTESIAN_POINT('',(4.429991186543E1,1.346604051525E1,4.329849723660E2));
#407=VERTEX_POINT('',#406);
#408=CARTESIAN_POINT('',(4.679999877512E1,1.116604051525E1,4.329849723660E2));
#409=VERTEX_POINT('',#408);
#410=CARTESIAN_POINT('',(4.679999877512E1,1.116604051525E1,4.149849723660E2));
#411=VERTEX_POINT('',#410);
#412=CARTESIAN_POINT('',(4.199991186543E1,1.116604051525E1,4.329849723660E2));
#413=VERTEX_POINT('',#412);
#414=CARTESIAN_POINT('',(4.199991186543E1,1.116604051525E1,4.129849723660E2));
#415=VERTEX_POINT('',#414);
#416=CARTESIAN_POINT('',(7.799991186543E1,1.116604051525E1,4.129849723660E2));
#417=VERTEX_POINT('',#416);
#418=CARTESIAN_POINT('',(4.429991186543E1,1.804104051525E1,4.329849723660E2));
#419=VERTEX_POINT('',#418);
#420=CARTESIAN_POINT('',(4.199991186543E1,1.804104051525E1,4.329849723660E2));
#421=VERTEX_POINT('',#420);
#422=CARTESIAN_POINT('',(4.429991186543E1,1.816604051525E1,4.149849723660E2));
#423=CARTESIAN_POINT('',(4.429991186543E1,1.816604051525E1,4.359849723660E2));
#424=VERTEX_POINT('',#422);
#425=VERTEX_POINT('',#423);
#426=CARTESIAN_POINT('',(1.E2,1.25E1,3.E2));
#427=CARTESIAN_POINT('',(9.E1,1.875E1,4.5E2));
#428=VERTEX_POINT('',#426);
#429=VERTEX_POINT('',#427);
#430=CARTESIAN_POINT('',(3.E1,1.875E1,4.5E2));
#431=VERTEX_POINT('',#430);
#432=CARTESIAN_POINT('',(2.E1,1.25E1,3.E2));
#433=VERTEX_POINT('',#432);
#434=CARTESIAN_POINT('',(7.569991186543E1,1.816604051525E1,4.359849723660E2));
#435=VERTEX_POINT('',#434);
#436=CARTESIAN_POINT('',(7.799991186543E1,1.720770718192E1,4.129849723660E2));
#437=VERTEX_POINT('',#436);
#438=CARTESIAN_POINT('',(4.199991186543E1,1.720770718192E1,4.129849723660E2));
#439=VERTEX_POINT('',#438);
#440=CARTESIAN_POINT('',(7.569991186543E1,1.816604051525E1,4.149849723660E2));
#441=VERTEX_POINT('',#440);
#442=CARTESIAN_POINT('',(2.189999951050E1,1.439999967813E1,3.E2));
#443=CARTESIAN_POINT('',(2.189999951050E1,5.560000264086E1,3.E2));
#444=VERTEX_POINT('',#442);
#445=VERTEX_POINT('',#443);
#446=CARTESIAN_POINT('',(2.189999951050E1,5.560000264086E1,3.15E2));
#447=VERTEX_POINT('',#446);
#448=CARTESIAN_POINT('',(2.189999951050E1,1.439999967813E1,3.15E2));
#449=VERTEX_POINT('',#448);
#450=CARTESIAN_POINT('',(9.810000465950E1,5.560000264086E1,3.E2));
#451=VERTEX_POINT('',#450);
#452=CARTESIAN_POINT('',(9.810000465950E1,5.560000264086E1,3.15E2));
#453=VERTEX_POINT('',#452);
#454=CARTESIAN_POINT('',(9.810000465950E1,1.439999967813E1,3.E2));
#455=VERTEX_POINT('',#454);
#456=CARTESIAN_POINT('',(9.810000465950E1,1.439999967813E1,3.15E2));
#457=VERTEX_POINT('',#456);
#458=CARTESIAN_POINT('',(8.600000052154E1,2.275000070035E1,4.5E2));
#459=CARTESIAN_POINT('',(8.600000052154E1,4.725000070035E1,4.5E2));
#460=VERTEX_POINT('',#458);
#461=VERTEX_POINT('',#459);
#462=CARTESIAN_POINT('',(8.600000052154E1,2.275000070035E1,4.65E2));
#463=VERTEX_POINT('',#462);
#464=CARTESIAN_POINT('',(8.600000052154E1,4.725000070035E1,4.65E2));
#465=VERTEX_POINT('',#464);
#466=CARTESIAN_POINT('',(8.8E1,2.075E1,4.5E2));
#467=CARTESIAN_POINT('',(8.8E1,4.925E1,4.5E2));
#468=VERTEX_POINT('',#466);
#469=VERTEX_POINT('',#467);
#470=CARTESIAN_POINT('',(8.8E1,4.925E1,4.65E2));
#471=VERTEX_POINT('',#470);
#472=CARTESIAN_POINT('',(8.8E1,2.075E1,4.65E2));
#473=VERTEX_POINT('',#472);
#474=CARTESIAN_POINT('',(3.400000052154E1,4.725000070035E1,4.5E2));
#475=CARTESIAN_POINT('',(3.400000052154E1,2.275000070035E1,4.5E2));
#476=VERTEX_POINT('',#474);
#477=VERTEX_POINT('',#475);
#478=CARTESIAN_POINT('',(3.400000052154E1,4.725000070035E1,4.65E2));
#479=VERTEX_POINT('',#478);
#480=CARTESIAN_POINT('',(3.400000052154E1,2.275000070035E1,4.65E2));
#481=VERTEX_POINT('',#480);
#482=CARTESIAN_POINT('',(3.2E1,4.925E1,4.5E2));
#483=VERTEX_POINT('',#482);
#484=CARTESIAN_POINT('',(3.2E1,4.925E1,4.65E2));
#485=VERTEX_POINT('',#484);
#486=CARTESIAN_POINT('',(3.2E1,2.075E1,4.5E2));
#487=VERTEX_POINT('',#486);
#488=CARTESIAN_POINT('',(3.2E1,2.075E1,4.65E2));
#489=VERTEX_POINT('',#488);
#490=CARTESIAN_POINT('',(3.E1,5.125E1,4.5E2));
#491=CARTESIAN_POINT('',(9.E1,5.125E1,4.5E2));
#492=VERTEX_POINT('',#490);
#493=VERTEX_POINT('',#491);
#494=CARTESIAN_POINT('',(2.500000038743E1,1.712500078082E1,3.15E2));
#495=CARTESIAN_POINT('',(9.500000079423E1,1.712500078026E1,3.15E2));
#496=VERTEX_POINT('',#494);
#497=VERTEX_POINT('',#495);
#498=CARTESIAN_POINT('',(9.500000099763E1,5.287500078082E1,3.15E2));
#499=VERTEX_POINT('',#498);
#500=CARTESIAN_POINT('',(2.500000038743E1,5.287500078082E1,3.15E2));
#501=VERTEX_POINT('',#500);
#502=CARTESIAN_POINT('',(2.E1,5.75E1,3.E2));
#503=CARTESIAN_POINT('',(1.E2,5.75E1,3.E2));
#504=VERTEX_POINT('',#502);
#505=VERTEX_POINT('',#503);
#506=CARTESIAN_POINT('',(6.769991186543E1,1.346604051525E1,4.329849723660E2));
#507=DIRECTION('',(0.E0,-1.E0,0.E0));
#508=DIRECTION('',(0.E0,0.E0,-1.E0));
#509=AXIS2_PLACEMENT_3D('',#506,#507,#508);
#510=PLANE('',#509);
#512=ORIENTED_EDGE('',*,*,#511,.F.);
#514=ORIENTED_EDGE('',*,*,#513,.F.);
#516=ORIENTED_EDGE('',*,*,#515,.F.);
#518=ORIENTED_EDGE('',*,*,#517,.F.);
#519=EDGE_LOOP('',(#512,#514,#516,#518));
#520=FACE_OUTER_BOUND('',#519,.F.);
#521=ADVANCED_FACE('',(#520),#510,.F.);
#522=CARTESIAN_POINT('',(7.319991186543E1,1.546604051525E1,4.329849723660E2));
#523=DIRECTION('',(1.E0,0.E0,0.E0));
#524=DIRECTION('',(0.E0,0.E0,-1.E0));
#525=AXIS2_PLACEMENT_3D('',#522,#523,#524);
#526=PLANE('',#525);
#527=ORIENTED_EDGE('',*,*,#511,.T.);
#529=ORIENTED_EDGE('',*,*,#528,.F.);
#531=ORIENTED_EDGE('',*,*,#530,.F.);
#533=ORIENTED_EDGE('',*,*,#532,.F.);
#534=EDGE_LOOP('',(#527,#529,#531,#533));
#535=FACE_OUTER_BOUND('',#534,.F.);
#536=ADVANCED_FACE('',(#535),#526,.F.);
#537=CARTESIAN_POINT('',(5.999991186543E1,1.566604051525E1,4.329849723660E2));
#538=DIRECTION('',(0.E0,0.E0,1.E0));
#539=DIRECTION('',(-1.E0,0.E0,0.E0));
#540=AXIS2_PLACEMENT_3D('',#537,#538,#539);
#541=PLANE('',#540);
#543=ORIENTED_EDGE('',*,*,#542,.T.);
#545=ORIENTED_EDGE('',*,*,#544,.F.);
#547=ORIENTED_EDGE('',*,*,#546,.F.);
#549=ORIENTED_EDGE('',*,*,#548,.F.);
#550=ORIENTED_EDGE('',*,*,#528,.T.);
#551=ORIENTED_EDGE('',*,*,#517,.T.);
#552=EDGE_LOOP('',(#543,#545,#547,#549,#550,#551));
#553=FACE_OUTER_BOUND('',#552,.F.);
#554=ADVANCED_FACE('',(#553),#541,.T.);
#555=CARTESIAN_POINT('',(7.569991186543E1,1.816604051525E1,4.359849723660E2));
#556=DIRECTION('',(1.E0,0.E0,0.E0));
#557=DIRECTION('',(0.E0,0.E0,-1.E0));
#558=AXIS2_PLACEMENT_3D('',#555,#556,#557);
#559=PLANE('',#558);
#561=ORIENTED_EDGE('',*,*,#560,.F.);
#563=ORIENTED_EDGE('',*,*,#562,.F.);
#565=ORIENTED_EDGE('',*,*,#564,.F.);
#566=ORIENTED_EDGE('',*,*,#542,.F.);
#567=ORIENTED_EDGE('',*,*,#515,.T.);
#568=EDGE_LOOP('',(#561,#563,#565,#566,#567));
#569=FACE_OUTER_BOUND('',#568,.F.);
#570=ADVANCED_FACE('',(#569),#559,.F.);
#571=CARTESIAN_POINT('',(6.E1,3.5E1,4.149849723660E2));
#572=DIRECTION('',(0.E0,0.E0,1.E0));
#573=DIRECTION('',(1.E0,0.E0,0.E0));
#574=AXIS2_PLACEMENT_3D('',#571,#572,#573);
#575=PLANE('',#574);
#577=ORIENTED_EDGE('',*,*,#576,.T.);
#578=ORIENTED_EDGE('',*,*,#560,.T.);
#579=ORIENTED_EDGE('',*,*,#513,.T.);
#580=ORIENTED_EDGE('',*,*,#532,.T.);
#582=ORIENTED_EDGE('',*,*,#581,.F.);
#584=ORIENTED_EDGE('',*,*,#583,.T.);
#586=ORIENTED_EDGE('',*,*,#585,.T.);
#588=ORIENTED_EDGE('',*,*,#587,.T.);
#589=EDGE_LOOP('',(#577,#578,#579,#580,#582,#584,#586,#588));
#590=FACE_OUTER_BOUND('',#589,.F.);
#591=ADVANCED_FACE('',(#590),#575,.T.);
#592=CARTESIAN_POINT('',(5.229991186543E1,1.816604051525E1,4.359849723660E2));
#593=DIRECTION('',(0.E0,1.E0,0.E0));
#594=DIRECTION('',(1.E0,0.E0,0.E0));
#595=AXIS2_PLACEMENT_3D('',#592,#593,#594);
#596=PLANE('',#595);
#598=ORIENTED_EDGE('',*,*,#597,.F.);
#599=ORIENTED_EDGE('',*,*,#562,.T.);
#600=ORIENTED_EDGE('',*,*,#576,.F.);
#602=ORIENTED_EDGE('',*,*,#601,.T.);
#603=EDGE_LOOP('',(#598,#599,#600,#602));
#604=FACE_OUTER_BOUND('',#603,.F.);
#605=ADVANCED_FACE('',(#604),#596,.F.);
#606=CARTESIAN_POINT('',(3.E1,1.875E1,4.5E2));
#607=DIRECTION('',(0.E0,9.991330730924E-1,-4.163054471218E-2));
#608=DIRECTION('',(0.E0,4.163054471218E-2,9.991330730924E-1));
#609=AXIS2_PLACEMENT_3D('',#606,#607,#608);
#610=PLANE('',#609);
#612=ORIENTED_EDGE('',*,*,#611,.F.);
#614=ORIENTED_EDGE('',*,*,#613,.T.);
#616=ORIENTED_EDGE('',*,*,#615,.T.);
#618=ORIENTED_EDGE('',*,*,#617,.F.);
#619=EDGE_LOOP('',(#612,#614,#616,#618));
#620=FACE_OUTER_BOUND('',#619,.F.);
#622=ORIENTED_EDGE('',*,*,#621,.T.);
#624=ORIENTED_EDGE('',*,*,#623,.T.);
#626=ORIENTED_EDGE('',*,*,#625,.T.);
#628=ORIENTED_EDGE('',*,*,#627,.T.);
#630=ORIENTED_EDGE('',*,*,#629,.T.);
#631=ORIENTED_EDGE('',*,*,#544,.T.);
#632=ORIENTED_EDGE('',*,*,#564,.T.);
#633=ORIENTED_EDGE('',*,*,#597,.T.);
#634=EDGE_LOOP('',(#622,#624,#626,#628,#630,#631,#632,#633));
#635=FACE_BOUND('',#634,.F.);
#636=ADVANCED_FACE('',(#620,#635),#610,.F.);
#637=CARTESIAN_POINT('',(9.E1,1.875E1,4.5E2));
#638=DIRECTION('',(-9.977851578566E-1,0.E0,-6.651901052377E-2));
#639=DIRECTION('',(-6.651901052377E-2,0.E0,9.977851578566E-1));
#640=AXIS2_PLACEMENT_3D('',#637,#638,#639);
#641=PLANE('',#640);
#642=ORIENTED_EDGE('',*,*,#611,.T.);
#644=ORIENTED_EDGE('',*,*,#643,.F.);
#646=ORIENTED_EDGE('',*,*,#645,.F.);
#648=ORIENTED_EDGE('',*,*,#647,.T.);
#649=EDGE_LOOP('',(#642,#644,#646,#648));
#650=FACE_OUTER_BOUND('',#649,.F.);
#651=ADVANCED_FACE('',(#650),#641,.F.);
#652=CARTESIAN_POINT('',(6.E1,3.5E1,4.5E2));
#653=DIRECTION('',(0.E0,0.E0,1.E0));
#654=DIRECTION('',(1.E0,0.E0,0.E0));
#655=AXIS2_PLACEMENT_3D('',#652,#653,#654);
#656=PLANE('',#655);
#658=ORIENTED_EDGE('',*,*,#657,.T.);
#659=ORIENTED_EDGE('',*,*,#643,.T.);
#660=ORIENTED_EDGE('',*,*,#617,.T.);
#662=ORIENTED_EDGE('',*,*,#661,.T.);
#663=EDGE_LOOP('',(#658,#659,#660,#662));
#664=FACE_OUTER_BOUND('',#663,.F.);
#666=ORIENTED_EDGE('',*,*,#665,.T.);
#668=ORIENTED_EDGE('',*,*,#667,.T.);
#670=ORIENTED_EDGE('',*,*,#669,.T.);
#672=ORIENTED_EDGE('',*,*,#671,.T.);
#673=EDGE_LOOP('',(#666,#668,#670,#672));
#674=FACE_BOUND('',#673,.F.);
#675=ADVANCED_FACE('',(#664,#674),#656,.T.);
#676=CARTESIAN_POINT('',(9.E1,5.125E1,4.5E2));
#677=DIRECTION('',(0.E0,-9.991330730924E-1,-4.163054471218E-2));
#678=DIRECTION('',(0.E0,4.163054471218E-2,-9.991330730924E-1));
#679=AXIS2_PLACEMENT_3D('',#676,#677,#678);
#680=PLANE('',#679);
#681=ORIENTED_EDGE('',*,*,#645,.T.);
#682=ORIENTED_EDGE('',*,*,#657,.F.);
#684=ORIENTED_EDGE('',*,*,#683,.F.);
#686=ORIENTED_EDGE('',*,*,#685,.T.);
#687=EDGE_LOOP('',(#681,#682,#684,#686));
#688=FACE_OUTER_BOUND('',#687,.F.);
#689=ADVANCED_FACE('',(#688),#680,.F.);
#690=CARTESIAN_POINT('',(3.E1,5.125E1,4.5E2));
#691=DIRECTION('',(9.977851578566E-1,0.E0,-6.651901052377E-2));
#692=DIRECTION('',(-6.651901052377E-2,0.E0,-9.977851578566E-1));
#693=AXIS2_PLACEMENT_3D('',#690,#691,#692);
#694=PLANE('',#693);
#695=ORIENTED_EDGE('',*,*,#683,.T.);
#696=ORIENTED_EDGE('',*,*,#661,.F.);
#697=ORIENTED_EDGE('',*,*,#615,.F.);
#699=ORIENTED_EDGE('',*,*,#698,.T.);
#700=EDGE_LOOP('',(#695,#696,#697,#699));
#701=FACE_OUTER_BOUND('',#700,.F.);
#702=ADVANCED_FACE('',(#701),#694,.F.);
#703=CARTESIAN_POINT('',(6.E1,3.5E1,3.E2));
#704=DIRECTION('',(0.E0,0.E0,1.E0));
#705=DIRECTION('',(1.E0,0.E0,0.E0));
#706=AXIS2_PLACEMENT_3D('',#703,#704,#705);
#707=PLANE('',#706);
#708=ORIENTED_EDGE('',*,*,#685,.F.);
#709=ORIENTED_EDGE('',*,*,#698,.F.);
#710=ORIENTED_EDGE('',*,*,#613,.F.);
#711=ORIENTED_EDGE('',*,*,#647,.F.);
#712=EDGE_LOOP('',(#708,#709,#710,#711));
#713=FACE_OUTER_BOUND('',#712,.F.);
#715=ORIENTED_EDGE('',*,*,#714,.T.);
#717=ORIENTED_EDGE('',*,*,#716,.T.);
#719=ORIENTED_EDGE('',*,*,#718,.T.);
#721=ORIENTED_EDGE('',*,*,#720,.T.);
#722=EDGE_LOOP('',(#715,#717,#719,#721));
#723=FACE_BOUND('',#722,.F.);
#724=ADVANCED_FACE('',(#713,#723),#707,.F.);
#725=CARTESIAN_POINT('',(2.189999951050E1,5.560000264086E1,3.E2));
#726=DIRECTION('',(-1.E0,0.E0,0.E0));
#727=DIRECTION('',(0.E0,-1.E0,0.E0));
#728=AXIS2_PLACEMENT_3D('',#725,#726,#727);
#729=PLANE('',#728);
#730=ORIENTED_EDGE('',*,*,#714,.F.);
#732=ORIENTED_EDGE('',*,*,#731,.F.);
#734=ORIENTED_EDGE('',*,*,#733,.T.);
#736=ORIENTED_EDGE('',*,*,#735,.T.);
#737=EDGE_LOOP('',(#730,#732,#734,#736));
#738=FACE_OUTER_BOUND('',#737,.F.);
#739=ADVANCED_FACE('',(#738),#729,.F.);
#740=CARTESIAN_POINT('',(2.189999951050E1,1.439999967813E1,3.E2));
#741=DIRECTION('',(0.E0,-1.E0,0.E0));
#742=DIRECTION('',(1.E0,0.E0,0.E0));
#743=AXIS2_PLACEMENT_3D('',#740,#741,#742);
#744=PLANE('',#743);
#745=ORIENTED_EDGE('',*,*,#720,.F.);
#747=ORIENTED_EDGE('',*,*,#746,.F.);
#749=ORIENTED_EDGE('',*,*,#748,.T.);
#750=ORIENTED_EDGE('',*,*,#731,.T.);
#751=EDGE_LOOP('',(#745,#747,#749,#750));
#752=FACE_OUTER_BOUND('',#751,.F.);
#753=ADVANCED_FACE('',(#752),#744,.F.);
#754=CARTESIAN_POINT('',(9.810000465950E1,1.439999967813E1,3.E2));
#755=DIRECTION('',(1.E0,0.E0,0.E0));
#756=DIRECTION('',(0.E0,1.E0,0.E0));
#757=AXIS2_PLACEMENT_3D('',#754,#755,#756);
#758=PLANE('',#757);
#759=ORIENTED_EDGE('',*,*,#718,.F.);
#761=ORIENTED_EDGE('',*,*,#760,.F.);
#763=ORIENTED_EDGE('',*,*,#762,.T.);
#764=ORIENTED_EDGE('',*,*,#746,.T.);
#765=EDGE_LOOP('',(#759,#761,#763,#764));
#766=FACE_OUTER_BOUND('',#765,.F.);
#767=ADVANCED_FACE('',(#766),#758,.F.);
#768=CARTESIAN_POINT('',(9.810000465950E1,5.560000264086E1,3.E2));
#769=DIRECTION('',(0.E0,1.E0,0.E0));
#770=DIRECTION('',(-1.E0,0.E0,0.E0));
#771=AXIS2_PLACEMENT_3D('',#768,#769,#770);
#772=PLANE('',#771);
#773=ORIENTED_EDGE('',*,*,#716,.F.);
#774=ORIENTED_EDGE('',*,*,#735,.F.);
#776=ORIENTED_EDGE('',*,*,#775,.T.);
#777=ORIENTED_EDGE('',*,*,#760,.T.);
#778=EDGE_LOOP('',(#773,#774,#776,#777));
#779=FACE_OUTER_BOUND('',#778,.F.);
#780=ADVANCED_FACE('',(#779),#772,.F.);
#781=CARTESIAN_POINT('',(6.E1,3.5E1,3.15E2));
#782=DIRECTION('',(0.E0,0.E0,1.E0));
#783=DIRECTION('',(1.E0,0.E0,0.E0));
#784=AXIS2_PLACEMENT_3D('',#781,#782,#783);
#785=PLANE('',#784);
#786=ORIENTED_EDGE('',*,*,#748,.F.);
#787=ORIENTED_EDGE('',*,*,#762,.F.);
#788=ORIENTED_EDGE('',*,*,#775,.F.);
#789=ORIENTED_EDGE('',*,*,#733,.F.);
#790=EDGE_LOOP('',(#786,#787,#788,#789));
#791=FACE_OUTER_BOUND('',#790,.F.);
#793=ORIENTED_EDGE('',*,*,#792,.F.);
#795=ORIENTED_EDGE('',*,*,#794,.F.);
#797=ORIENTED_EDGE('',*,*,#796,.F.);
#799=ORIENTED_EDGE('',*,*,#798,.F.);
#800=EDGE_LOOP('',(#793,#795,#797,#799));
#801=FACE_BOUND('',#800,.F.);
#802=ADVANCED_FACE('',(#791,#801),#785,.F.);
#803=CARTESIAN_POINT('',(8.600000052154E1,2.275000070035E1,4.5E2));
#804=DIRECTION('',(0.E0,-9.991330731171E-1,4.163054411768E-2));
#805=DIRECTION('',(0.E0,-4.163054411768E-2,-9.991330731171E-1));
#806=AXIS2_PLACEMENT_3D('',#803,#804,#805);
#807=PLANE('',#806);
#809=ORIENTED_EDGE('',*,*,#808,.T.);
#811=ORIENTED_EDGE('',*,*,#810,.F.);
#813=ORIENTED_EDGE('',*,*,#812,.F.);
#814=ORIENTED_EDGE('',*,*,#792,.T.);
#815=EDGE_LOOP('',(#809,#811,#813,#814));
#816=FACE_OUTER_BOUND('',#815,.F.);
#817=ADVANCED_FACE('',(#816),#807,.F.);
#818=CARTESIAN_POINT('',(8.600000052154E1,4.725000070035E1,4.5E2));
#819=DIRECTION('',(9.977851576231E-1,0.E0,6.651901402700E-2));
#820=DIRECTION('',(6.651901402700E-2,0.E0,-9.977851576231E-1));
#821=AXIS2_PLACEMENT_3D('',#818,#819,#820);
#822=PLANE('',#821);
#824=ORIENTED_EDGE('',*,*,#823,.T.);
#826=ORIENTED_EDGE('',*,*,#825,.F.);
#827=ORIENTED_EDGE('',*,*,#808,.F.);
#828=ORIENTED_EDGE('',*,*,#798,.T.);
#829=EDGE_LOOP('',(#824,#826,#827,#828));
#830=FACE_OUTER_BOUND('',#829,.F.);
#831=ADVANCED_FACE('',(#830),#822,.F.);
#832=CARTESIAN_POINT('',(3.400000052154E1,4.725000070035E1,4.5E2));
#833=DIRECTION('',(0.E0,9.991330730676E-1,4.163054530668E-2));
#834=DIRECTION('',(0.E0,-4.163054530668E-2,9.991330730676E-1));
#835=AXIS2_PLACEMENT_3D('',#832,#833,#834);
#836=PLANE('',#835);
#838=ORIENTED_EDGE('',*,*,#837,.T.);
#840=ORIENTED_EDGE('',*,*,#839,.F.);
#841=ORIENTED_EDGE('',*,*,#823,.F.);
#842=ORIENTED_EDGE('',*,*,#796,.T.);
#843=EDGE_LOOP('',(#838,#840,#841,#842));
#844=FACE_OUTER_BOUND('',#843,.F.);
#845=ADVANCED_FACE('',(#844),#836,.F.);
#846=CARTESIAN_POINT('',(3.400000052154E1,2.275000070035E1,4.5E2));
#847=DIRECTION('',(-9.977851577908E-1,0.E0,6.651901151060E-2));
#848=DIRECTION('',(6.651901151060E-2,0.E0,9.977851577908E-1));
#849=AXIS2_PLACEMENT_3D('',#846,#847,#848);
#850=PLANE('',#849);
#851=ORIENTED_EDGE('',*,*,#812,.T.);
#853=ORIENTED_EDGE('',*,*,#852,.F.);
#854=ORIENTED_EDGE('',*,*,#837,.F.);
#855=ORIENTED_EDGE('',*,*,#794,.T.);
#856=EDGE_LOOP('',(#851,#853,#854,#855));
#857=FACE_OUTER_BOUND('',#856,.F.);
#858=ADVANCED_FACE('',(#857),#850,.F.);
#859=CARTESIAN_POINT('',(3.400000052154E1,2.275000070035E1,4.5E2));
#860=DIRECTION('',(1.E0,0.E0,0.E0));
#861=DIRECTION('',(0.E0,1.E0,0.E0));
#862=AXIS2_PLACEMENT_3D('',#859,#860,#861);
#863=PLANE('',#862);
#864=ORIENTED_EDGE('',*,*,#852,.T.);
#866=ORIENTED_EDGE('',*,*,#865,.F.);
#868=ORIENTED_EDGE('',*,*,#867,.F.);
#870=ORIENTED_EDGE('',*,*,#869,.T.);
#871=EDGE_LOOP('',(#864,#866,#868,#870));
#872=FACE_OUTER_BOUND('',#871,.F.);
#873=ADVANCED_FACE('',(#872),#863,.T.);
#874=CARTESIAN_POINT('',(8.600000052154E1,2.275000070035E1,4.5E2));
#875=DIRECTION('',(0.E0,1.E0,0.E0));
#876=DIRECTION('',(-1.E0,0.E0,0.E0));
#877=AXIS2_PLACEMENT_3D('',#874,#875,#876);
#878=PLANE('',#877);
#879=ORIENTED_EDGE('',*,*,#810,.T.);
#881=ORIENTED_EDGE('',*,*,#880,.F.);
#883=ORIENTED_EDGE('',*,*,#882,.F.);
#884=ORIENTED_EDGE('',*,*,#865,.T.);
#885=EDGE_LOOP('',(#879,#881,#883,#884));
#886=FACE_OUTER_BOUND('',#885,.F.);
#887=ADVANCED_FACE('',(#886),#878,.T.);
#888=CARTESIAN_POINT('',(8.600000052154E1,4.725000070035E1,4.5E2));
#889=DIRECTION('',(-1.E0,0.E0,0.E0));
#890=DIRECTION('',(0.E0,-1.E0,0.E0));
#891=AXIS2_PLACEMENT_3D('',#888,#889,#890);
#892=PLANE('',#891);
#893=ORIENTED_EDGE('',*,*,#825,.T.);
#895=ORIENTED_EDGE('',*,*,#894,.F.);
#897=ORIENTED_EDGE('',*,*,#896,.F.);
#898=ORIENTED_EDGE('',*,*,#880,.T.);
#899=EDGE_LOOP('',(#893,#895,#897,#898));
#900=FACE_OUTER_BOUND('',#899,.F.);
#901=ADVANCED_FACE('',(#900),#892,.T.);
#902=CARTESIAN_POINT('',(3.400000052154E1,4.725000070035E1,4.5E2));
#903=DIRECTION('',(0.E0,-1.E0,0.E0));
#904=DIRECTION('',(1.E0,0.E0,0.E0));
#905=AXIS2_PLACEMENT_3D('',#902,#903,#904);
#906=PLANE('',#905);
#908=ORIENTED_EDGE('',*,*,#907,.F.);
#909=ORIENTED_EDGE('',*,*,#894,.T.);
#910=ORIENTED_EDGE('',*,*,#839,.T.);
#911=ORIENTED_EDGE('',*,*,#869,.F.);
#912=EDGE_LOOP('',(#908,#909,#910,#911));
#913=FACE_OUTER_BOUND('',#912,.F.);
#914=ADVANCED_FACE('',(#913),#906,.T.);
#915=CARTESIAN_POINT('',(6.E1,3.5E1,4.65E2));
#916=DIRECTION('',(0.E0,0.E0,1.E0));
#917=DIRECTION('',(1.E0,0.E0,0.E0));
#918=AXIS2_PLACEMENT_3D('',#915,#916,#917);
#919=PLANE('',#918);
#921=ORIENTED_EDGE('',*,*,#920,.T.);
#923=ORIENTED_EDGE('',*,*,#922,.T.);
#925=ORIENTED_EDGE('',*,*,#924,.T.);
#927=ORIENTED_EDGE('',*,*,#926,.T.);
#928=EDGE_LOOP('',(#921,#923,#925,#927));
#929=FACE_OUTER_BOUND('',#928,.F.);
#930=ORIENTED_EDGE('',*,*,#907,.T.);
#931=ORIENTED_EDGE('',*,*,#867,.T.);
#932=ORIENTED_EDGE('',*,*,#882,.T.);
#933=ORIENTED_EDGE('',*,*,#896,.T.);
#934=EDGE_LOOP('',(#930,#931,#932,#933));
#935=FACE_BOUND('',#934,.F.);
#936=ADVANCED_FACE('',(#929,#935),#919,.T.);
#937=CARTESIAN_POINT('',(8.8E1,4.925E1,4.5E2));
#938=DIRECTION('',(0.E0,1.E0,0.E0));
#939=DIRECTION('',(-1.E0,0.E0,0.E0));
#940=AXIS2_PLACEMENT_3D('',#937,#938,#939);
#941=PLANE('',#940);
#942=ORIENTED_EDGE('',*,*,#665,.F.);
#944=ORIENTED_EDGE('',*,*,#943,.F.);
#945=ORIENTED_EDGE('',*,*,#920,.F.);
#947=ORIENTED_EDGE('',*,*,#946,.T.);
#948=EDGE_LOOP('',(#942,#944,#945,#947));
#949=FACE_OUTER_BOUND('',#948,.F.);
#950=ADVANCED_FACE('',(#949),#941,.T.);
#951=CARTESIAN_POINT('',(8.8E1,2.075E1,4.5E2));
#952=DIRECTION('',(1.E0,0.E0,0.E0));
#953=DIRECTION('',(0.E0,1.E0,0.E0));
#954=AXIS2_PLACEMENT_3D('',#951,#952,#953);
#955=PLANE('',#954);
#956=ORIENTED_EDGE('',*,*,#671,.F.);
#958=ORIENTED_EDGE('',*,*,#957,.F.);
#959=ORIENTED_EDGE('',*,*,#922,.F.);
#960=ORIENTED_EDGE('',*,*,#943,.T.);
#961=EDGE_LOOP('',(#956,#958,#959,#960));
#962=FACE_OUTER_BOUND('',#961,.F.);
#963=ADVANCED_FACE('',(#962),#955,.T.);
#964=CARTESIAN_POINT('',(3.2E1,2.075E1,4.5E2));
#965=DIRECTION('',(0.E0,-1.E0,0.E0));
#966=DIRECTION('',(1.E0,0.E0,0.E0));
#967=AXIS2_PLACEMENT_3D('',#964,#965,#966);
#968=PLANE('',#967);
#969=ORIENTED_EDGE('',*,*,#924,.F.);
#970=ORIENTED_EDGE('',*,*,#957,.T.);
#971=ORIENTED_EDGE('',*,*,#669,.F.);
#973=ORIENTED_EDGE('',*,*,#972,.F.);
#974=EDGE_LOOP('',(#969,#970,#971,#973));
#975=FACE_OUTER_BOUND('',#974,.F.);
#976=ADVANCED_FACE('',(#975),#968,.T.);
#977=CARTESIAN_POINT('',(3.2E1,4.925E1,4.5E2));
#978=DIRECTION('',(-1.E0,0.E0,0.E0));
#979=DIRECTION('',(0.E0,-1.E0,0.E0));
#980=AXIS2_PLACEMENT_3D('',#977,#978,#979);
#981=PLANE('',#980);
#982=ORIENTED_EDGE('',*,*,#667,.F.);
#983=ORIENTED_EDGE('',*,*,#946,.F.);
#984=ORIENTED_EDGE('',*,*,#926,.F.);
#985=ORIENTED_EDGE('',*,*,#972,.T.);
#986=EDGE_LOOP('',(#982,#983,#984,#985));
#987=FACE_OUTER_BOUND('',#986,.F.);
#988=ADVANCED_FACE('',(#987),#981,.T.);
#989=CARTESIAN_POINT('',(4.429991186543E1,1.546604051525E1,4.359849723660E2));
#990=DIRECTION('',(-1.E0,0.E0,0.E0));
#991=DIRECTION('',(0.E0,0.E0,1.E0));
#992=AXIS2_PLACEMENT_3D('',#989,#990,#991);
#993=PLANE('',#992);
#994=ORIENTED_EDGE('',*,*,#601,.F.);
#995=ORIENTED_EDGE('',*,*,#587,.F.);
#997=ORIENTED_EDGE('',*,*,#996,.T.);
#999=ORIENTED_EDGE('',*,*,#998,.F.);
#1000=ORIENTED_EDGE('',*,*,#621,.F.);
#1001=EDGE_LOOP('',(#994,#995,#997,#999,#1000));
#1002=FACE_OUTER_BOUND('',#1001,.F.);
#1003=ADVANCED_FACE('',(#1002),#993,.F.);
#1004=CARTESIAN_POINT('',(5.479999877512E1,1.346604051525E1,4.329849723660E2));
#1005=DIRECTION('',(0.E0,-1.E0,0.E0));
#1006=DIRECTION('',(0.E0,0.E0,-1.E0));
#1007=AXIS2_PLACEMENT_3D('',#1004,#1005,#1006);
#1008=PLANE('',#1007);
#1010=ORIENTED_EDGE('',*,*,#1009,.F.);
#1012=ORIENTED_EDGE('',*,*,#1011,.F.);
#1013=ORIENTED_EDGE('',*,*,#996,.F.);
#1014=ORIENTED_EDGE('',*,*,#585,.F.);
#1015=EDGE_LOOP('',(#1010,#1012,#1013,#1014));
#1016=FACE_OUTER_BOUND('',#1015,.F.);
#1017=ADVANCED_FACE('',(#1016),#1008,.F.);
#1018=CARTESIAN_POINT('',(4.679999877512E1,1.316604051525E1,4.329849723660E2));
#1019=DIRECTION('',(-1.E0,0.E0,0.E0));
#1020=DIRECTION('',(0.E0,0.E0,1.E0));
#1021=AXIS2_PLACEMENT_3D('',#1018,#1019,#1020);
#1022=PLANE('',#1021);
#1023=ORIENTED_EDGE('',*,*,#1009,.T.);
#1024=ORIENTED_EDGE('',*,*,#583,.F.);
#1026=ORIENTED_EDGE('',*,*,#1025,.F.);
#1028=ORIENTED_EDGE('',*,*,#1027,.F.);
#1029=EDGE_LOOP('',(#1023,#1024,#1026,#1028));
#1030=FACE_OUTER_BOUND('',#1029,.F.);
#1031=ADVANCED_FACE('',(#1030),#1022,.F.);
#1032=CARTESIAN_POINT('',(6.999991186543E1,1.116604051525E1,4.329849723660E2));
#1033=DIRECTION('',(0.E0,-1.E0,0.E0));
#1034=DIRECTION('',(0.E0,0.E0,-1.E0));
#1035=AXIS2_PLACEMENT_3D('',#1032,#1033,#1034);
#1036=PLANE('',#1035);
#1037=ORIENTED_EDGE('',*,*,#1025,.T.);
#1038=ORIENTED_EDGE('',*,*,#581,.T.);
#1039=ORIENTED_EDGE('',*,*,#530,.T.);
#1040=ORIENTED_EDGE('',*,*,#548,.T.);
#1042=ORIENTED_EDGE('',*,*,#1041,.T.);
#1044=ORIENTED_EDGE('',*,*,#1043,.T.);
#1046=ORIENTED_EDGE('',*,*,#1045,.T.);
#1048=ORIENTED_EDGE('',*,*,#1047,.T.);
#1049=EDGE_LOOP('',(#1037,#1038,#1039,#1040,#1042,#1044,#1046,#1048));
#1050=FACE_OUTER_BOUND('',#1049,.F.);
#1051=ADVANCED_FACE('',(#1050),#1036,.T.);
#1052=CARTESIAN_POINT('',(7.799991186543E1,1.816604051525E1,4.329849723660E2));
#1053=DIRECTION('',(1.E0,0.E0,0.E0));
#1054=DIRECTION('',(0.E0,0.E0,-1.E0));
#1055=AXIS2_PLACEMENT_3D('',#1052,#1053,#1054);
#1056=PLANE('',#1055);
#1057=ORIENTED_EDGE('',*,*,#629,.F.);
#1059=ORIENTED_EDGE('',*,*,#1058,.F.);
#1060=ORIENTED_EDGE('',*,*,#1041,.F.);
#1061=ORIENTED_EDGE('',*,*,#546,.T.);
#1062=EDGE_LOOP('',(#1057,#1059,#1060,#1061));
#1063=FACE_OUTER_BOUND('',#1062,.F.);
#1064=ADVANCED_FACE('',(#1063),#1056,.T.);
#1065=CARTESIAN_POINT('',(5.999991186543E1,1.566604051525E1,4.129849723660E2));
#1066=DIRECTION('',(0.E0,0.E0,-1.E0));
#1067=DIRECTION('',(-1.E0,0.E0,0.E0));
#1068=AXIS2_PLACEMENT_3D('',#1065,#1066,#1067);
#1069=PLANE('',#1068);
#1070=ORIENTED_EDGE('',*,*,#627,.F.);
#1072=ORIENTED_EDGE('',*,*,#1071,.F.);
#1073=ORIENTED_EDGE('',*,*,#1043,.F.);
#1074=ORIENTED_EDGE('',*,*,#1058,.T.);
#1075=EDGE_LOOP('',(#1070,#1072,#1073,#1074));
#1076=FACE_OUTER_BOUND('',#1075,.F.);
#1077=ADVANCED_FACE('',(#1076),#1069,.T.);
#1078=CARTESIAN_POINT('',(4.199991186543E1,1.316604051525E1,4.329849723660E2));
#1079=DIRECTION('',(-1.E0,0.E0,0.E0));
#1080=DIRECTION('',(0.E0,0.E0,1.E0));
#1081=AXIS2_PLACEMENT_3D('',#1078,#1079,#1080);
#1082=PLANE('',#1081);
#1083=ORIENTED_EDGE('',*,*,#625,.F.);
#1085=ORIENTED_EDGE('',*,*,#1084,.F.);
#1086=ORIENTED_EDGE('',*,*,#1045,.F.);
#1087=ORIENTED_EDGE('',*,*,#1071,.T.);
#1088=EDGE_LOOP('',(#1083,#1085,#1086,#1087));
#1089=FACE_OUTER_BOUND('',#1088,.F.);
#1090=ADVANCED_FACE('',(#1089),#1082,.T.);
#1091=CARTESIAN_POINT('',(5.999991186543E1,1.566604051525E1,4.329849723660E2));
#1092=DIRECTION('',(0.E0,0.E0,1.E0));
#1093=DIRECTION('',(-1.E0,0.E0,0.E0));
#1094=AXIS2_PLACEMENT_3D('',#1091,#1092,#1093);
#1095=PLANE('',#1094);
#1096=ORIENTED_EDGE('',*,*,#998,.T.);
#1097=ORIENTED_EDGE('',*,*,#1011,.T.);
#1098=ORIENTED_EDGE('',*,*,#1027,.T.);
#1099=ORIENTED_EDGE('',*,*,#1047,.F.);
#1100=ORIENTED_EDGE('',*,*,#1084,.T.);
#1101=ORIENTED_EDGE('',*,*,#623,.F.);
#1102=EDGE_LOOP('',(#1096,#1097,#1098,#1099,#1100,#1101));
#1103=FACE_OUTER_BOUND('',#1102,.F.);
#1104=ADVANCED_FACE('',(#1103),#1095,.T.);
#1108=DIMENSIONAL_EXPONENTS(0.E0,0.E0,0.E0,0.E0,0.E0,0.E0,0.E0);
#1110=PLANE_ANGLE_MEASURE_WITH_UNIT(PLANE_ANGLE_MEASURE(1.745329251994E-2),
#1109);
#1111=(CONVERSION_BASED_UNIT('DEGREE',#1110)NAMED_UNIT(*)PLANE_ANGLE_UNIT());
#1113=UNCERTAINTY_MEASURE_WITH_UNIT(LENGTH_MEASURE(1.891268730559E-2),#1107,
'closure',
'Maximum model space distance between geometric entities at asserted connectivities');
#1114=(GEOMETRIC_REPRESENTATION_CONTEXT(3)GLOBAL_UNCERTAINTY_ASSIGNED_CONTEXT((
#1113))GLOBAL_UNIT_ASSIGNED_CONTEXT((#1107,#1111,#1112))REPRESENTATION_CONTEXT(
'ID1','3'));
#1116=APPLICATION_CONTEXT(
'CONFIGURATION CONTROLLED 3D DESIGNS OF MECHANICAL PARTS AND ASSEMBLIES');
#1117=APPLICATION_PROTOCOL_DEFINITION('international standard',
'config_control_design',1994,#1116);
#1118=DESIGN_CONTEXT('',#1116,'design');
#1119=MECHANICAL_CONTEXT('',#1116,'mechanical');
#1120=PRODUCT('332000141200','332000141200','NOT SPECIFIED',(#1119));
#1121=PRODUCT_DEFINITION_FORMATION_WITH_SPECIFIED_SOURCE('1','LAST_VERSION',
#1120,.MADE.);
#1125=PRODUCT_CATEGORY('part','');
#1126=PRODUCT_RELATED_PRODUCT_CATEGORY('detail','',(#1120));
#1127=PRODUCT_CATEGORY_RELATIONSHIP('','',#1125,#1126);
#1128=SECURITY_CLASSIFICATION_LEVEL('unclassified');
#1129=SECURITY_CLASSIFICATION('','',#1128);
#1130=CC_DESIGN_SECURITY_CLASSIFICATION(#1129,(#1121));
#1131=APPROVAL_STATUS('approved');
#1132=APPROVAL(#1131,'');
#1133=CC_DESIGN_APPROVAL(#1132,(#1129,#1121,#1122));
#1134=CALENDAR_DATE(126,27,7);
#1135=COORDINATED_UNIVERSAL_TIME_OFFSET(8,0,.AHEAD.);
#1136=LOCAL_TIME(19,3,9.E0,#1135);
#1137=DATE_AND_TIME(#1134,#1136);
#1138=APPROVAL_DATE_TIME(#1137,#1132);
#1139=DATE_TIME_ROLE('creation_date');
#1140=CC_DESIGN_DATE_AND_TIME_ASSIGNMENT(#1137,#1139,(#1122));
#1141=DATE_TIME_ROLE('classification_date');
#1142=CC_DESIGN_DATE_AND_TIME_ASSIGNMENT(#1137,#1141,(#1129));
#1143=PERSON('UNSPECIFIED','UNSPECIFIED',$,$,$,$);
#1144=ORGANIZATION('UNSPECIFIED','UNSPECIFIED','UNSPECIFIED');
#1145=PERSON_AND_ORGANIZATION(#1143,#1144);
#1146=APPROVAL_ROLE('approver');
#1147=APPROVAL_PERSON_ORGANIZATION(#1145,#1132,#1146);
#1148=PERSON_AND_ORGANIZATION_ROLE('creator');
#1149=CC_DESIGN_PERSON_AND_ORGANIZATION_ASSIGNMENT(#1145,#1148,(#1121,#1122));
#1150=PERSON_AND_ORGANIZATION_ROLE('design_supplier');
#1151=CC_DESIGN_PERSON_AND_ORGANIZATION_ASSIGNMENT(#1145,#1150,(#1121));
#1152=PERSON_AND_ORGANIZATION_ROLE('classification_officer');
#1153=CC_DESIGN_PERSON_AND_ORGANIZATION_ASSIGNMENT(#1145,#1152,(#1129));
#1154=PERSON_AND_ORGANIZATION_ROLE('design_owner');
#1155=CC_DESIGN_PERSON_AND_ORGANIZATION_ASSIGNMENT(#1145,#1154,(#1120));
#511=EDGE_CURVE('',#384,#385,#5,.T.);
#513=EDGE_CURVE('',#389,#384,#9,.T.);
#515=EDGE_CURVE('',#387,#389,#13,.T.);
#517=EDGE_CURVE('',#385,#387,#17,.T.);
#528=EDGE_CURVE('',#393,#385,#21,.T.);
#530=EDGE_CURVE('',#399,#393,#25,.T.);
#532=EDGE_CURVE('',#384,#399,#29,.T.);
#542=EDGE_CURVE('',#387,#391,#57,.T.);
#544=EDGE_CURVE('',#397,#391,#33,.T.);
#546=EDGE_CURVE('',#395,#397,#37,.T.);
#548=EDGE_CURVE('',#393,#395,#41,.T.);
#560=EDGE_CURVE('',#441,#389,#45,.T.);
#562=EDGE_CURVE('',#435,#441,#49,.T.);
#564=EDGE_CURVE('',#391,#435,#53,.T.);
#576=EDGE_CURVE('',#424,#441,#69,.T.);
#581=EDGE_CURVE('',#411,#399,#61,.T.);
#583=EDGE_CURVE('',#411,#403,#329,.T.);
#585=EDGE_CURVE('',#403,#405,#325,.T.);
#587=EDGE_CURVE('',#405,#424,#301,.T.);
#597=EDGE_CURVE('',#435,#425,#65,.T.);
#601=EDGE_CURVE('',#424,#425,#297,.T.);
#611=EDGE_CURVE('',#428,#429,#73,.T.);
#613=EDGE_CURVE('',#428,#433,#113,.T.);
#615=EDGE_CURVE('',#433,#431,#101,.T.);
#617=EDGE_CURVE('',#429,#431,#77,.T.);
#621=EDGE_CURVE('',#425,#419,#309,.T.);
#623=EDGE_CURVE('',#419,#421,#381,.T.);
#625=EDGE_CURVE('',#421,#439,#365,.T.);
#627=EDGE_CURVE('',#439,#437,#353,.T.);
#629=EDGE_CURVE('',#437,#397,#341,.T.);
#643=EDGE_CURVE('',#493,#429,#81,.T.);
#645=EDGE_CURVE('',#505,#493,#85,.T.);
#647=EDGE_CURVE('',#505,#428,#117,.T.);
#657=EDGE_CURVE('',#492,#493,#89,.T.);
#661=EDGE_CURVE('',#431,#492,#97,.T.);
#665=EDGE_CURVE('',#469,#483,#249,.T.);
#667=EDGE_CURVE('',#483,#487,#285,.T.);
#669=EDGE_CURVE('',#487,#468,#277,.T.);
#671=EDGE_CURVE('',#468,#469,#261,.T.);
#683=EDGE_CURVE('',#504,#492,#93,.T.);
#685=EDGE_CURVE('',#504,#505,#105,.T.);
#698=EDGE_CURVE('',#433,#504,#109,.T.);
#714=EDGE_CURVE('',#444,#445,#121,.T.);
#716=EDGE_CURVE('',#445,#451,#145,.T.);
#718=EDGE_CURVE('',#451,#455,#137,.T.);
#720=EDGE_CURVE('',#455,#444,#129,.T.);
#731=EDGE_CURVE('',#449,#444,#125,.T.);
#733=EDGE_CURVE('',#449,#447,#165,.T.);
#735=EDGE_CURVE('',#447,#445,#149,.T.);
#746=EDGE_CURVE('',#457,#455,#133,.T.);
#748=EDGE_CURVE('',#457,#449,#153,.T.);
#760=EDGE_CURVE('',#453,#451,#141,.T.);
#762=EDGE_CURVE('',#453,#457,#157,.T.);
#775=EDGE_CURVE('',#447,#453,#161,.T.);
#792=EDGE_CURVE('',#496,#497,#169,.T.);
#794=EDGE_CURVE('',#501,#496,#173,.T.);
#796=EDGE_CURVE('',#499,#501,#177,.T.);
#798=EDGE_CURVE('',#497,#499,#181,.T.);
#808=EDGE_CURVE('',#497,#460,#197,.T.);
#810=EDGE_CURVE('',#477,#460,#185,.T.);
#812=EDGE_CURVE('',#496,#477,#189,.T.);
#823=EDGE_CURVE('',#499,#461,#205,.T.);
#825=EDGE_CURVE('',#460,#461,#193,.T.);
#837=EDGE_CURVE('',#501,#476,#213,.T.);
#839=EDGE_CURVE('',#461,#476,#201,.T.);
#852=EDGE_CURVE('',#476,#477,#209,.T.);
#865=EDGE_CURVE('',#481,#477,#217,.T.);
#867=EDGE_CURVE('',#479,#481,#221,.T.);
#869=EDGE_CURVE('',#479,#476,#245,.T.);
#880=EDGE_CURVE('',#463,#460,#225,.T.);
#882=EDGE_CURVE('',#481,#463,#229,.T.);
#894=EDGE_CURVE('',#465,#461,#233,.T.);
#896=EDGE_CURVE('',#463,#465,#237,.T.);
#907=EDGE_CURVE('',#465,#479,#241,.T.);
#920=EDGE_CURVE('',#485,#471,#257,.T.);
#922=EDGE_CURVE('',#471,#473,#269,.T.);
#924=EDGE_CURVE('',#473,#489,#273,.T.);
#926=EDGE_CURVE('',#489,#485,#293,.T.);
#943=EDGE_CURVE('',#471,#469,#253,.T.);
#946=EDGE_CURVE('',#485,#483,#289,.T.);
#957=EDGE_CURVE('',#473,#468,#265,.T.);
#972=EDGE_CURVE('',#489,#487,#281,.T.);
#996=EDGE_CURVE('',#405,#407,#321,.T.);
#998=EDGE_CURVE('',#419,#407,#305,.T.);
#1009=EDGE_CURVE('',#402,#403,#313,.T.);
#1011=EDGE_CURVE('',#407,#402,#317,.T.);
#1025=EDGE_CURVE('',#409,#411,#333,.T.);
#1027=EDGE_CURVE('',#402,#409,#337,.T.);
#1041=EDGE_CURVE('',#395,#417,#349,.T.);
#1043=EDGE_CURVE('',#417,#415,#361,.T.);
#1045=EDGE_CURVE('',#415,#413,#373,.T.);
#1047=EDGE_CURVE('',#413,#409,#377,.T.);
#1058=EDGE_CURVE('',#417,#437,#345,.T.);
#1071=EDGE_CURVE('',#415,#439,#357,.T.);
#1084=EDGE_CURVE('',#413,#421,#369,.T.);
#1105=CLOSED_SHELL('',(#521,#536,#554,#570,#591,#605,#636,#651,#675,#689,#702,
#724,#739,#753,#767,#780,#802,#817,#831,#845,#858,#873,#887,#901,#914,#936,#950,
#963,#976,#988,#1003,#1017,#1031,#1051,#1064,#1077,#1090,#1104));
#1106=MANIFOLD_SOLID_BREP('',#1105);
#1107=(LENGTH_UNIT()NAMED_UNIT(*)SI_UNIT(.MILLI.,.METRE.));
#1109=(NAMED_UNIT(*)PLANE_ANGLE_UNIT()SI_UNIT($,.RADIAN.));
#1112=(NAMED_UNIT(*)SI_UNIT($,.STERADIAN.)SOLID_ANGLE_UNIT());
#1115=ADVANCED_BREP_SHAPE_REPRESENTATION('',(#1106),#1114);
#1122=PRODUCT_DEFINITION('design','',#1121,#1118);
#1123=PRODUCT_DEFINITION_SHAPE('','SHAPE FOR 332000141200.',#1122);
#1124=SHAPE_DEFINITION_REPRESENTATION(#1123,#1115);
ENDSEC;
END-ISO-10303-21;
