ISO-10303-21;
HEADER;
FILE_DESCRIPTION((''),'2;1');
FILE_NAME('332000143400','2026-07-27T19:58:13',('EDY'),(''),
'CREO PARAMETRIC BY PTC INC, 2021284','CREO PARAMETRIC BY PTC INC, 2021284','');
FILE_SCHEMA(('CONFIG_CONTROL_DESIGN'));
ENDSEC;
DATA;
#2=DIRECTION('',(0.E0,0.E0,1.E0));
#3=VECTOR('',#2,1.8E1);
#4=CARTESIAN_POINT('',(7.32E1,5.105E1,1.22E2));
#5=LINE('',#4,#3);
#6=DIRECTION('',(-1.E0,0.E0,0.E0));
#7=VECTOR('',#6,2.5E0);
#8=CARTESIAN_POINT('',(7.57E1,5.105E1,1.22E2));
#9=LINE('',#8,#7);
#10=DIRECTION('',(0.E0,0.E0,-1.E0));
#11=VECTOR('',#10,1.8E1);
#12=CARTESIAN_POINT('',(7.57E1,5.105E1,1.4E2));
#13=LINE('',#12,#11);
#14=DIRECTION('',(1.E0,0.E0,0.E0));
#15=VECTOR('',#14,2.5E0);
#16=CARTESIAN_POINT('',(7.32E1,5.105E1,1.4E2));
#17=LINE('',#16,#15);
#18=DIRECTION('',(0.E0,1.E0,0.E0));
#19=VECTOR('',#18,2.3E0);
#20=CARTESIAN_POINT('',(7.32E1,4.875E1,1.4E2));
#21=LINE('',#20,#19);
#22=DIRECTION('',(0.E0,0.E0,1.E0));
#23=VECTOR('',#22,1.8E1);
#24=CARTESIAN_POINT('',(7.32E1,4.875E1,1.22E2));
#25=LINE('',#24,#23);
#26=DIRECTION('',(0.E0,-1.E0,0.E0));
#27=VECTOR('',#26,2.3E0);
#28=CARTESIAN_POINT('',(7.32E1,5.105E1,1.22E2));
#29=LINE('',#28,#27);
#30=DIRECTION('',(-1.E0,0.E0,0.E0));
#31=VECTOR('',#30,2.3E0);
#32=CARTESIAN_POINT('',(7.8E1,5.575E1,1.4E2));
#33=LINE('',#32,#31);
#34=DIRECTION('',(0.E0,1.E0,0.E0));
#35=VECTOR('',#34,7.E0);
#36=CARTESIAN_POINT('',(7.8E1,4.875E1,1.4E2));
#37=LINE('',#36,#35);
#38=DIRECTION('',(1.E0,0.E0,0.E0));
#39=VECTOR('',#38,4.8E0);
#40=CARTESIAN_POINT('',(7.32E1,4.875E1,1.4E2));
#41=LINE('',#40,#39);
#42=DIRECTION('',(0.E0,-4.163054471218E-2,-9.991330730924E-1));
#43=VECTOR('',#42,1.601388286595E1);
#44=CARTESIAN_POINT('',(7.57E1,5.575E1,1.38E2));
#45=LINE('',#44,#43);
#46=DIRECTION('',(0.E0,0.E0,-1.E0));
#47=VECTOR('',#46,2.E0);
#48=CARTESIAN_POINT('',(7.57E1,5.575E1,1.4E2));
#49=LINE('',#48,#47);
#50=DIRECTION('',(0.E0,1.E0,0.E0));
#51=VECTOR('',#50,4.7E0);
#52=CARTESIAN_POINT('',(7.57E1,5.105E1,1.4E2));
#53=LINE('',#52,#51);
#54=DIRECTION('',(0.E0,-1.E0,1.057005722618E-14));
#55=VECTOR('',#54,4.033333333333E0);
#56=CARTESIAN_POINT('',(7.57E1,5.508333333333E1,1.22E2));
#57=LINE('',#56,#55);
#58=DIRECTION('',(-6.646159823768E-2,4.153849889855E-2,9.969239735652E-1));
#59=VECTOR('',#58,1.504628276353E2);
#60=CARTESIAN_POINT('',(1.2E2,5.E1,3.789561257387E-14));
#61=LINE('',#60,#59);
#62=DIRECTION('',(1.E0,0.E0,0.E0));
#63=VECTOR('',#62,1.2E2);
#64=CARTESIAN_POINT('',(3.789561257387E-14,5.E1,3.789561257387E-14));
#65=LINE('',#64,#63);
#66=DIRECTION('',(0.E0,1.E0,0.E0));
#67=VECTOR('',#66,5.75E1);
#68=CARTESIAN_POINT('',(1.1E2,5.625E1,1.5E2));
#69=LINE('',#68,#67);
#70=DIRECTION('',(1.E0,0.E0,0.E0));
#71=VECTOR('',#70,1.E2);
#72=CARTESIAN_POINT('',(1.E1,5.625E1,1.5E2));
#73=LINE('',#72,#71);
#74=DIRECTION('',(0.E0,-1.E0,0.E0));
#75=VECTOR('',#74,5.75E1);
#76=CARTESIAN_POINT('',(1.E1,1.1375E2,1.5E2));
#77=LINE('',#76,#75);
#78=DIRECTION('',(-1.E0,0.E0,0.E0));
#79=VECTOR('',#78,1.E2);
#80=CARTESIAN_POINT('',(1.1E2,1.1375E2,1.5E2));
#81=LINE('',#80,#79);
#82=DIRECTION('',(-6.646159823768E-2,-4.153849889855E-2,9.969239735652E-1));
#83=VECTOR('',#82,1.504628276353E2);
#84=CARTESIAN_POINT('',(1.2E2,1.2E2,3.789561257387E-14));
#85=LINE('',#84,#83);
#86=DIRECTION('',(0.E0,1.E0,0.E0));
#87=VECTOR('',#86,7.E1);
#88=CARTESIAN_POINT('',(1.2E2,5.E1,3.789561257387E-14));
#89=LINE('',#88,#87);
#90=DIRECTION('',(6.646159823768E-2,-4.153849889855E-2,9.969239735652E-1));
#91=VECTOR('',#90,1.504628276353E2);
#92=CARTESIAN_POINT('',(4.263256414561E-14,1.2E2,3.789561257387E-14));
#93=LINE('',#92,#91);
#94=DIRECTION('',(-1.E0,0.E0,0.E0));
#95=VECTOR('',#94,1.2E2);
#96=CARTESIAN_POINT('',(1.2E2,1.2E2,3.789561257387E-14));
#97=LINE('',#96,#95);
#98=DIRECTION('',(6.646159823768E-2,4.153849889855E-2,9.969239735652E-1));
#99=VECTOR('',#98,1.504628276353E2);
#100=CARTESIAN_POINT('',(3.789561257387E-14,5.E1,3.789561257387E-14));
#101=LINE('',#100,#99);
#102=DIRECTION('',(0.E0,-1.E0,0.E0));
#103=VECTOR('',#102,7.E1);
#104=CARTESIAN_POINT('',(4.263256414561E-14,1.2E2,3.789561257387E-14));
#105=LINE('',#104,#103);
#106=DIRECTION('',(-1.E0,0.E0,0.E0));
#107=VECTOR('',#106,1.1E2);
#108=CARTESIAN_POINT('',(1.150000000745E2,5.462500096858E1,0.E0));
#109=LINE('',#108,#107);
#110=DIRECTION('',(6.646657119755E-2,-3.969531393948E-2,-9.969987346855E-1));
#111=VECTOR('',#110,1.354063905032E2);
#112=CARTESIAN_POINT('',(1.060000015795E2,6.000000014901E1,1.35E2));
#113=LINE('',#112,#111);
#114=DIRECTION('',(1.E0,0.E0,0.E0));
#115=VECTOR('',#114,9.200000135601E1);
#116=CARTESIAN_POINT('',(1.400000022352E1,6.000000014901E1,1.35E2));
#117=LINE('',#116,#115);
#118=DIRECTION('',(0.E0,-1.E0,0.E0));
#119=VECTOR('',#118,6.075E1);
#120=CARTESIAN_POINT('',(1.150000000745E2,1.153750009686E2,0.E0));
#121=LINE('',#120,#119);
#122=DIRECTION('',(6.646158717096E-2,4.153849958832E-2,-9.969239742742E-1));
#123=VECTOR('',#122,1.354165447754E2);
#124=CARTESIAN_POINT('',(1.060000015795E2,1.097500008792E2,1.35E2));
#125=LINE('',#124,#123);
#126=DIRECTION('',(0.E0,1.E0,0.E0));
#127=VECTOR('',#126,4.975000073016E1);
#128=CARTESIAN_POINT('',(1.060000015795E2,6.000000014901E1,1.35E2));
#129=LINE('',#128,#127);
#130=DIRECTION('',(1.E0,0.E0,0.E0));
#131=VECTOR('',#130,1.1E2);
#132=CARTESIAN_POINT('',(5.000000074506E0,1.153750009686E2,0.E0));
#133=LINE('',#132,#131);
#134=DIRECTION('',(-6.646159933139E-2,4.153849955460E-2,-9.969239734649E-1));
#135=VECTOR('',#134,1.354165448854E2);
#136=CARTESIAN_POINT('',(1.400000022352E1,1.097500008792E2,1.35E2));
#137=LINE('',#136,#135);
#138=DIRECTION('',(-1.E0,0.E0,0.E0));
#139=VECTOR('',#138,9.200000135601E1);
#140=CARTESIAN_POINT('',(1.060000015795E2,1.097500008792E2,1.35E2));
#141=LINE('',#140,#139);
#142=DIRECTION('',(0.E0,1.E0,0.E0));
#143=VECTOR('',#142,6.075E1);
#144=CARTESIAN_POINT('',(5.000000074506E0,5.462500096858E1,0.E0));
#145=LINE('',#144,#143);
#146=DIRECTION('',(-6.646658335888E-2,-3.969531390726E-2,-9.969987338760E-1));
#147=VECTOR('',#146,1.354063906131E2);
#148=CARTESIAN_POINT('',(1.400000022352E1,6.000000014901E1,1.35E2));
#149=LINE('',#148,#147);
#150=DIRECTION('',(0.E0,-1.E0,0.E0));
#151=VECTOR('',#150,4.975000073016E1);
#152=CARTESIAN_POINT('',(1.400000022352E1,1.097500008792E2,1.35E2));
#153=LINE('',#152,#151);
#154=DIRECTION('',(0.E0,0.E0,-1.E0));
#155=VECTOR('',#154,3.E1);
#156=CARTESIAN_POINT('',(1.400000022352E1,6.000000014901E1,1.65E2));
#157=LINE('',#156,#155);
#158=DIRECTION('',(0.E0,-1.E0,0.E0));
#159=VECTOR('',#158,4.975000073016E1);
#160=CARTESIAN_POINT('',(1.400000022352E1,1.097500008792E2,1.65E2));
#161=LINE('',#160,#159);
#162=DIRECTION('',(1.E0,0.E0,0.E0));
#163=VECTOR('',#162,9.200000135601E1);
#164=CARTESIAN_POINT('',(1.400000022352E1,6.000000014901E1,1.65E2));
#165=LINE('',#164,#163);
#166=DIRECTION('',(0.E0,-1.657933050107E-14,-1.E0));
#167=VECTOR('',#166,3.E1);
#168=CARTESIAN_POINT('',(1.060000015795E2,1.097500008792E2,1.65E2));
#169=LINE('',#168,#167);
#170=DIRECTION('',(0.E0,1.E0,0.E0));
#171=VECTOR('',#170,4.975000073016E1);
#172=CARTESIAN_POINT('',(1.060000015795E2,6.000000014901E1,1.65E2));
#173=LINE('',#172,#171);
#174=DIRECTION('',(0.E0,0.E0,1.E0));
#175=VECTOR('',#174,3.E1);
#176=CARTESIAN_POINT('',(1.060000015795E2,6.000000014901E1,1.35E2));
#177=LINE('',#176,#175);
#178=DIRECTION('',(0.E0,-1.515824502955E-14,-1.E0));
#179=VECTOR('',#178,3.E1);
#180=CARTESIAN_POINT('',(1.400000022352E1,1.097500008792E2,1.65E2));
#181=LINE('',#180,#179);
#182=DIRECTION('',(-1.E0,0.E0,0.E0));
#183=VECTOR('',#182,9.200000135601E1);
#184=CARTESIAN_POINT('',(1.060000015795E2,1.097500008792E2,1.65E2));
#185=LINE('',#184,#183);
#186=DIRECTION('',(0.E0,-1.E0,0.E0));
#187=VECTOR('',#186,5.35E1);
#188=CARTESIAN_POINT('',(1.2E1,1.1175E2,1.5E2));
#189=LINE('',#188,#187);
#190=DIRECTION('',(0.E0,0.E0,-1.E0));
#191=VECTOR('',#190,1.5E1);
#192=CARTESIAN_POINT('',(1.2E1,1.1175E2,1.65E2));
#193=LINE('',#192,#191);
#194=DIRECTION('',(0.E0,1.E0,0.E0));
#195=VECTOR('',#194,5.35E1);
#196=CARTESIAN_POINT('',(1.2E1,5.825E1,1.65E2));
#197=LINE('',#196,#195);
#198=DIRECTION('',(-1.E0,0.E0,0.E0));
#199=VECTOR('',#198,9.6E1);
#200=CARTESIAN_POINT('',(1.08E2,1.1175E2,1.5E2));
#201=LINE('',#200,#199);
#202=DIRECTION('',(0.E0,0.E0,-1.E0));
#203=VECTOR('',#202,1.5E1);
#204=CARTESIAN_POINT('',(1.08E2,1.1175E2,1.65E2));
#205=LINE('',#204,#203);
#206=DIRECTION('',(1.E0,0.E0,0.E0));
#207=VECTOR('',#206,9.6E1);
#208=CARTESIAN_POINT('',(1.2E1,1.1175E2,1.65E2));
#209=LINE('',#208,#207);
#210=DIRECTION('',(0.E0,1.E0,0.E0));
#211=VECTOR('',#210,5.35E1);
#212=CARTESIAN_POINT('',(1.08E2,5.825E1,1.5E2));
#213=LINE('',#212,#211);
#214=DIRECTION('',(0.E0,0.E0,-1.E0));
#215=VECTOR('',#214,1.5E1);
#216=CARTESIAN_POINT('',(1.08E2,5.825E1,1.65E2));
#217=LINE('',#216,#215);
#218=DIRECTION('',(0.E0,-1.E0,0.E0));
#219=VECTOR('',#218,5.35E1);
#220=CARTESIAN_POINT('',(1.08E2,1.1175E2,1.65E2));
#221=LINE('',#220,#219);
#222=DIRECTION('',(1.E0,0.E0,0.E0));
#223=VECTOR('',#222,9.6E1);
#224=CARTESIAN_POINT('',(1.2E1,5.825E1,1.5E2));
#225=LINE('',#224,#223);
#226=DIRECTION('',(0.E0,0.E0,-1.E0));
#227=VECTOR('',#226,1.5E1);
#228=CARTESIAN_POINT('',(1.2E1,5.825E1,1.65E2));
#229=LINE('',#228,#227);
#230=DIRECTION('',(-1.E0,0.E0,0.E0));
#231=VECTOR('',#230,9.6E1);
#232=CARTESIAN_POINT('',(1.08E2,5.825E1,1.65E2));
#233=LINE('',#232,#231);
#234=DIRECTION('',(1.E0,0.E0,0.E0));
#235=VECTOR('',#234,2.3E0);
#236=CARTESIAN_POINT('',(4.2E1,5.575E1,1.4E2));
#237=LINE('',#236,#235);
#238=DIRECTION('',(0.E0,0.E0,1.E0));
#239=VECTOR('',#238,2.E0);
#240=CARTESIAN_POINT('',(4.2E1,5.575E1,1.38E2));
#241=LINE('',#240,#239);
#242=DIRECTION('',(-1.E0,0.E0,-1.235726496974E-14));
#243=VECTOR('',#242,2.3E0);
#244=CARTESIAN_POINT('',(4.43E1,5.575E1,1.38E2));
#245=LINE('',#244,#243);
#246=DIRECTION('',(0.E0,4.163054471218E-2,9.991330730924E-1));
#247=VECTOR('',#246,1.601388286595E1);
#248=CARTESIAN_POINT('',(4.43E1,5.508333333333E1,1.22E2));
#249=LINE('',#248,#247);
#250=DIRECTION('',(0.E0,1.E0,-1.057005722618E-14));
#251=VECTOR('',#250,4.033333333333E0);
#252=CARTESIAN_POINT('',(4.43E1,5.105E1,1.22E2));
#253=LINE('',#252,#251);
#254=DIRECTION('',(0.E0,-1.E0,0.E0));
#255=VECTOR('',#254,4.7E0);
#256=CARTESIAN_POINT('',(4.43E1,5.575E1,1.4E2));
#257=LINE('',#256,#255);
#258=DIRECTION('',(0.E0,0.E0,1.E0));
#259=VECTOR('',#258,2.E0);
#260=CARTESIAN_POINT('',(4.43E1,5.575E1,1.38E2));
#261=LINE('',#260,#259);
#262=DIRECTION('',(-1.E0,0.E0,0.E0));
#263=VECTOR('',#262,3.14E1);
#264=CARTESIAN_POINT('',(7.57E1,5.508333333333E1,1.22E2));
#265=LINE('',#264,#263);
#266=DIRECTION('',(1.E0,0.E0,0.E0));
#267=VECTOR('',#266,2.64E1);
#268=CARTESIAN_POINT('',(4.68E1,4.875E1,1.22E2));
#269=LINE('',#268,#267);
#270=DIRECTION('',(0.E0,4.163054471218E-2,9.991330730924E-1));
#271=VECTOR('',#270,1.801561822420E1);
#272=CARTESIAN_POINT('',(7.8E1,5.5E1,1.2E2));
#273=LINE('',#272,#271);
#274=DIRECTION('',(0.E0,1.E0,0.E0));
#275=VECTOR('',#274,6.25E0);
#276=CARTESIAN_POINT('',(7.8E1,4.875E1,1.2E2));
#277=LINE('',#276,#275);
#278=DIRECTION('',(0.E0,0.E0,-1.E0));
#279=VECTOR('',#278,2.E1);
#280=CARTESIAN_POINT('',(7.8E1,4.875E1,1.4E2));
#281=LINE('',#280,#279);
#282=DIRECTION('',(1.E0,0.E0,0.E0));
#283=VECTOR('',#282,3.6E1);
#284=CARTESIAN_POINT('',(4.2E1,5.5E1,1.2E2));
#285=LINE('',#284,#283);
#286=DIRECTION('',(0.E0,1.E0,0.E0));
#287=VECTOR('',#286,6.25E0);
#288=CARTESIAN_POINT('',(4.2E1,4.875E1,1.2E2));
#289=LINE('',#288,#287);
#290=DIRECTION('',(-1.E0,0.E0,0.E0));
#291=VECTOR('',#290,3.6E1);
#292=CARTESIAN_POINT('',(7.8E1,4.875E1,1.2E2));
#293=LINE('',#292,#291);
#294=DIRECTION('',(0.E0,-4.163054471218E-2,-9.991330730924E-1));
#295=VECTOR('',#294,1.801561822420E1);
#296=CARTESIAN_POINT('',(4.2E1,5.575E1,1.38E2));
#297=LINE('',#296,#295);
#298=DIRECTION('',(0.E0,1.E0,0.E0));
#299=VECTOR('',#298,7.E0);
#300=CARTESIAN_POINT('',(4.2E1,4.875E1,1.4E2));
#301=LINE('',#300,#299);
#302=DIRECTION('',(0.E0,0.E0,1.E0));
#303=VECTOR('',#302,2.E1);
#304=CARTESIAN_POINT('',(4.2E1,4.875E1,1.2E2));
#305=LINE('',#304,#303);
#306=DIRECTION('',(1.E0,0.E0,0.E0));
#307=VECTOR('',#306,4.8E0);
#308=CARTESIAN_POINT('',(4.2E1,4.875E1,1.4E2));
#309=LINE('',#308,#307);
#310=DIRECTION('',(0.E0,0.E0,-1.E0));
#311=VECTOR('',#310,1.8E1);
#312=CARTESIAN_POINT('',(4.68E1,5.105E1,1.4E2));
#313=LINE('',#312,#311);
#314=DIRECTION('',(1.E0,0.E0,0.E0));
#315=VECTOR('',#314,2.5E0);
#316=CARTESIAN_POINT('',(4.43E1,5.105E1,1.4E2));
#317=LINE('',#316,#315);
#318=DIRECTION('',(0.E0,0.E0,1.E0));
#319=VECTOR('',#318,1.8E1);
#320=CARTESIAN_POINT('',(4.43E1,5.105E1,1.22E2));
#321=LINE('',#320,#319);
#322=DIRECTION('',(-1.E0,0.E0,0.E0));
#323=VECTOR('',#322,2.5E0);
#324=CARTESIAN_POINT('',(4.68E1,5.105E1,1.22E2));
#325=LINE('',#324,#323);
#326=DIRECTION('',(0.E0,1.E0,0.E0));
#327=VECTOR('',#326,2.3E0);
#328=CARTESIAN_POINT('',(4.68E1,4.875E1,1.22E2));
#329=LINE('',#328,#327);
#330=DIRECTION('',(0.E0,0.E0,-1.E0));
#331=VECTOR('',#330,1.8E1);
#332=CARTESIAN_POINT('',(4.68E1,4.875E1,1.4E2));
#333=LINE('',#332,#331);
#334=DIRECTION('',(0.E0,-1.E0,0.E0));
#335=VECTOR('',#334,2.3E0);
#336=CARTESIAN_POINT('',(4.68E1,5.105E1,1.4E2));
#337=LINE('',#336,#335);
#338=DIRECTION('',(-1.E0,0.E0,-1.235726496974E-14));
#339=VECTOR('',#338,2.3E0);
#340=CARTESIAN_POINT('',(7.8E1,5.575E1,1.38E2));
#341=LINE('',#340,#339);
#342=DIRECTION('',(0.E0,0.E0,-1.E0));
#343=VECTOR('',#342,2.E0);
#344=CARTESIAN_POINT('',(7.8E1,5.575E1,1.4E2));
#345=LINE('',#344,#343);
#346=CARTESIAN_POINT('',(7.32E1,5.105E1,1.22E2));
#347=CARTESIAN_POINT('',(7.32E1,5.105E1,1.4E2));
#348=VERTEX_POINT('',#346);
#349=VERTEX_POINT('',#347);
#350=CARTESIAN_POINT('',(7.57E1,5.105E1,1.4E2));
#351=VERTEX_POINT('',#350);
#352=CARTESIAN_POINT('',(7.57E1,5.105E1,1.22E2));
#353=VERTEX_POINT('',#352);
#354=CARTESIAN_POINT('',(7.57E1,5.575E1,1.4E2));
#355=VERTEX_POINT('',#354);
#356=CARTESIAN_POINT('',(7.32E1,4.875E1,1.4E2));
#357=VERTEX_POINT('',#356);
#358=CARTESIAN_POINT('',(7.8E1,4.875E1,1.4E2));
#359=VERTEX_POINT('',#358);
#360=CARTESIAN_POINT('',(7.8E1,5.575E1,1.4E2));
#361=VERTEX_POINT('',#360);
#362=CARTESIAN_POINT('',(7.32E1,4.875E1,1.22E2));
#363=VERTEX_POINT('',#362);
#364=CARTESIAN_POINT('',(4.68E1,5.105E1,1.4E2));
#365=CARTESIAN_POINT('',(4.68E1,5.105E1,1.22E2));
#366=VERTEX_POINT('',#364);
#367=VERTEX_POINT('',#365);
#368=CARTESIAN_POINT('',(4.43E1,5.105E1,1.22E2));
#369=VERTEX_POINT('',#368);
#370=CARTESIAN_POINT('',(4.43E1,5.105E1,1.4E2));
#371=VERTEX_POINT('',#370);
#372=CARTESIAN_POINT('',(4.68E1,4.875E1,1.4E2));
#373=VERTEX_POINT('',#372);
#374=CARTESIAN_POINT('',(4.68E1,4.875E1,1.22E2));
#375=VERTEX_POINT('',#374);
#376=CARTESIAN_POINT('',(4.2E1,4.875E1,1.4E2));
#377=VERTEX_POINT('',#376);
#378=CARTESIAN_POINT('',(4.2E1,4.875E1,1.2E2));
#379=VERTEX_POINT('',#378);
#380=CARTESIAN_POINT('',(7.8E1,4.875E1,1.2E2));
#381=VERTEX_POINT('',#380);
#382=CARTESIAN_POINT('',(4.43E1,5.575E1,1.4E2));
#383=VERTEX_POINT('',#382);
#384=CARTESIAN_POINT('',(4.2E1,5.575E1,1.4E2));
#385=VERTEX_POINT('',#384);
#386=CARTESIAN_POINT('',(4.43E1,5.508333333333E1,1.22E2));
#387=CARTESIAN_POINT('',(4.43E1,5.575E1,1.38E2));
#388=VERTEX_POINT('',#386);
#389=VERTEX_POINT('',#387);
#390=CARTESIAN_POINT('',(4.2E1,5.575E1,1.38E2));
#391=VERTEX_POINT('',#390);
#392=CARTESIAN_POINT('',(7.57E1,5.575E1,1.38E2));
#393=CARTESIAN_POINT('',(7.57E1,5.508333333333E1,1.22E2));
#394=VERTEX_POINT('',#392);
#395=VERTEX_POINT('',#393);
#396=CARTESIAN_POINT('',(4.2E1,5.5E1,1.2E2));
#397=VERTEX_POINT('',#396);
#398=CARTESIAN_POINT('',(7.8E1,5.5E1,1.2E2));
#399=CARTESIAN_POINT('',(7.8E1,5.575E1,1.38E2));
#400=VERTEX_POINT('',#398);
#401=VERTEX_POINT('',#399);
#402=CARTESIAN_POINT('',(1.E1,5.625E1,1.5E2));
#403=CARTESIAN_POINT('',(1.1E2,5.625E1,1.5E2));
#404=VERTEX_POINT('',#402);
#405=VERTEX_POINT('',#403);
#406=CARTESIAN_POINT('',(3.789561257387E-14,5.E1,3.789561257387E-14));
#407=VERTEX_POINT('',#406);
#408=CARTESIAN_POINT('',(1.2E2,5.E1,3.789561257387E-14));
#409=VERTEX_POINT('',#408);
#410=CARTESIAN_POINT('',(1.08E2,1.1175E2,1.5E2));
#411=CARTESIAN_POINT('',(1.2E1,1.1175E2,1.5E2));
#412=VERTEX_POINT('',#410);
#413=VERTEX_POINT('',#411);
#414=CARTESIAN_POINT('',(1.2E1,1.1175E2,1.65E2));
#415=VERTEX_POINT('',#414);
#416=CARTESIAN_POINT('',(1.08E2,1.1175E2,1.65E2));
#417=VERTEX_POINT('',#416);
#418=CARTESIAN_POINT('',(1.08E2,5.825E1,1.5E2));
#419=VERTEX_POINT('',#418);
#420=CARTESIAN_POINT('',(1.08E2,5.825E1,1.65E2));
#421=VERTEX_POINT('',#420);
#422=CARTESIAN_POINT('',(1.2E1,5.825E1,1.5E2));
#423=VERTEX_POINT('',#422);
#424=CARTESIAN_POINT('',(1.2E1,5.825E1,1.65E2));
#425=VERTEX_POINT('',#424);
#426=CARTESIAN_POINT('',(1.400000022352E1,6.000000014901E1,1.65E2));
#427=CARTESIAN_POINT('',(1.060000015795E2,6.000000014901E1,1.65E2));
#428=VERTEX_POINT('',#426);
#429=VERTEX_POINT('',#427);
#430=CARTESIAN_POINT('',(1.400000022352E1,1.097500008792E2,1.65E2));
#431=VERTEX_POINT('',#430);
#432=CARTESIAN_POINT('',(1.060000015795E2,1.097500008792E2,1.65E2));
#433=VERTEX_POINT('',#432);
#434=CARTESIAN_POINT('',(1.400000022352E1,6.000000014901E1,1.35E2));
#435=VERTEX_POINT('',#434);
#436=CARTESIAN_POINT('',(1.400000022352E1,1.097500008792E2,1.35E2));
#437=VERTEX_POINT('',#436);
#438=CARTESIAN_POINT('',(1.060000015795E2,1.097500008792E2,1.35E2));
#439=VERTEX_POINT('',#438);
#440=CARTESIAN_POINT('',(1.060000015795E2,6.000000014901E1,1.35E2));
#441=VERTEX_POINT('',#440);
#442=CARTESIAN_POINT('',(1.1E2,1.1375E2,1.5E2));
#443=VERTEX_POINT('',#442);
#444=CARTESIAN_POINT('',(1.E1,1.1375E2,1.5E2));
#445=VERTEX_POINT('',#444);
#446=CARTESIAN_POINT('',(4.263256414561E-14,1.2E2,3.789561257387E-14));
#447=VERTEX_POINT('',#446);
#448=CARTESIAN_POINT('',(1.2E2,1.2E2,3.789561257387E-14));
#449=VERTEX_POINT('',#448);
#450=CARTESIAN_POINT('',(1.150000000745E2,5.462500096858E1,0.E0));
#451=CARTESIAN_POINT('',(5.000000074506E0,5.462500096858E1,0.E0));
#452=VERTEX_POINT('',#450);
#453=VERTEX_POINT('',#451);
#454=CARTESIAN_POINT('',(1.150000000745E2,1.153750009686E2,0.E0));
#455=VERTEX_POINT('',#454);
#456=CARTESIAN_POINT('',(5.000000074506E0,1.153750009686E2,0.E0));
#457=VERTEX_POINT('',#456);
#458=CARTESIAN_POINT('',(6.77E1,5.105E1,1.4E2));
#459=DIRECTION('',(0.E0,-1.E0,0.E0));
#460=DIRECTION('',(0.E0,0.E0,-1.E0));
#461=AXIS2_PLACEMENT_3D('',#458,#459,#460);
#462=PLANE('',#461);
#464=ORIENTED_EDGE('',*,*,#463,.F.);
#466=ORIENTED_EDGE('',*,*,#465,.F.);
#468=ORIENTED_EDGE('',*,*,#467,.F.);
#470=ORIENTED_EDGE('',*,*,#469,.F.);
#471=EDGE_LOOP('',(#464,#466,#468,#470));
#472=FACE_OUTER_BOUND('',#471,.F.);
#473=ADVANCED_FACE('',(#472),#462,.F.);
#474=CARTESIAN_POINT('',(7.32E1,5.305E1,1.4E2));
#475=DIRECTION('',(1.E0,0.E0,0.E0));
#476=DIRECTION('',(0.E0,0.E0,-1.E0));
#477=AXIS2_PLACEMENT_3D('',#474,#475,#476);
#478=PLANE('',#477);
#479=ORIENTED_EDGE('',*,*,#463,.T.);
#481=ORIENTED_EDGE('',*,*,#480,.F.);
#483=ORIENTED_EDGE('',*,*,#482,.F.);
#485=ORIENTED_EDGE('',*,*,#484,.F.);
#486=EDGE_LOOP('',(#479,#481,#483,#485));
#487=FACE_OUTER_BOUND('',#486,.F.);
#488=ADVANCED_FACE('',(#487),#478,.F.);
#489=CARTESIAN_POINT('',(6.E1,5.325E1,1.4E2));
#490=DIRECTION('',(0.E0,0.E0,1.E0));
#491=DIRECTION('',(-1.E0,0.E0,0.E0));
#492=AXIS2_PLACEMENT_3D('',#489,#490,#491);
#493=PLANE('',#492);
#495=ORIENTED_EDGE('',*,*,#494,.T.);
#497=ORIENTED_EDGE('',*,*,#496,.F.);
#499=ORIENTED_EDGE('',*,*,#498,.F.);
#501=ORIENTED_EDGE('',*,*,#500,.F.);
#502=ORIENTED_EDGE('',*,*,#480,.T.);
#503=ORIENTED_EDGE('',*,*,#469,.T.);
#504=EDGE_LOOP('',(#495,#497,#499,#501,#502,#503));
#505=FACE_OUTER_BOUND('',#504,.F.);
#506=ADVANCED_FACE('',(#505),#493,.T.);
#507=CARTESIAN_POINT('',(7.57E1,5.575E1,1.4E2));
#508=DIRECTION('',(1.E0,0.E0,0.E0));
#509=DIRECTION('',(0.E0,0.E0,-1.E0));
#510=AXIS2_PLACEMENT_3D('',#507,#508,#509);
#511=PLANE('',#510);
#513=ORIENTED_EDGE('',*,*,#512,.F.);
#515=ORIENTED_EDGE('',*,*,#514,.F.);
#516=ORIENTED_EDGE('',*,*,#494,.F.);
#517=ORIENTED_EDGE('',*,*,#467,.T.);
#519=ORIENTED_EDGE('',*,*,#518,.F.);
#520=EDGE_LOOP('',(#513,#515,#516,#517,#519));
#521=FACE_OUTER_BOUND('',#520,.F.);
#522=ADVANCED_FACE('',(#521),#511,.F.);
#523=CARTESIAN_POINT('',(8.E1,7.5E1,6.E2));
#524=DIRECTION('',(0.E0,-9.991330730924E-1,4.163054471218E-2));
#525=DIRECTION('',(0.E0,-4.163054471218E-2,-9.991330730924E-1));
#526=AXIS2_PLACEMENT_3D('',#523,#524,#525);
#527=PLANE('',#526);
#529=ORIENTED_EDGE('',*,*,#528,.T.);
#531=ORIENTED_EDGE('',*,*,#530,.F.);
#533=ORIENTED_EDGE('',*,*,#532,.F.);
#535=ORIENTED_EDGE('',*,*,#534,.T.);
#536=EDGE_LOOP('',(#529,#531,#533,#535));
#537=FACE_OUTER_BOUND('',#536,.F.);
#539=ORIENTED_EDGE('',*,*,#538,.T.);
#541=ORIENTED_EDGE('',*,*,#540,.T.);
#543=ORIENTED_EDGE('',*,*,#542,.T.);
#545=ORIENTED_EDGE('',*,*,#544,.T.);
#547=ORIENTED_EDGE('',*,*,#546,.T.);
#548=ORIENTED_EDGE('',*,*,#512,.T.);
#550=ORIENTED_EDGE('',*,*,#549,.T.);
#552=ORIENTED_EDGE('',*,*,#551,.T.);
#553=EDGE_LOOP('',(#539,#541,#543,#545,#547,#548,#550,#552));
#554=FACE_BOUND('',#553,.F.);
#555=ADVANCED_FACE('',(#537,#554),#527,.T.);
#556=CARTESIAN_POINT('',(6.E1,8.5E1,1.5E2));
#557=DIRECTION('',(0.E0,0.E0,-1.E0));
#558=DIRECTION('',(-1.E0,0.E0,0.E0));
#559=AXIS2_PLACEMENT_3D('',#556,#557,#558);
#560=PLANE('',#559);
#562=ORIENTED_EDGE('',*,*,#561,.F.);
#563=ORIENTED_EDGE('',*,*,#528,.F.);
#565=ORIENTED_EDGE('',*,*,#564,.F.);
#567=ORIENTED_EDGE('',*,*,#566,.F.);
#568=EDGE_LOOP('',(#562,#563,#565,#567));
#569=FACE_OUTER_BOUND('',#568,.F.);
#571=ORIENTED_EDGE('',*,*,#570,.T.);
#573=ORIENTED_EDGE('',*,*,#572,.T.);
#575=ORIENTED_EDGE('',*,*,#574,.T.);
#577=ORIENTED_EDGE('',*,*,#576,.T.);
#578=EDGE_LOOP('',(#571,#573,#575,#577));
#579=FACE_BOUND('',#578,.F.);
#580=ADVANCED_FACE('',(#569,#579),#560,.F.);
#581=CARTESIAN_POINT('',(8.E1,9.5E1,6.E2));
#582=DIRECTION('',(9.977851578566E-1,0.E0,6.651901052377E-2));
#583=DIRECTION('',(6.651901052377E-2,0.E0,-9.977851578566E-1));
#584=AXIS2_PLACEMENT_3D('',#581,#582,#583);
#585=PLANE('',#584);
#586=ORIENTED_EDGE('',*,*,#561,.T.);
#588=ORIENTED_EDGE('',*,*,#587,.F.);
#590=ORIENTED_EDGE('',*,*,#589,.F.);
#591=ORIENTED_EDGE('',*,*,#530,.T.);
#592=EDGE_LOOP('',(#586,#588,#590,#591));
#593=FACE_OUTER_BOUND('',#592,.F.);
#594=ADVANCED_FACE('',(#593),#585,.T.);
#595=CARTESIAN_POINT('',(4.E1,9.5E1,6.E2));
#596=DIRECTION('',(0.E0,9.991330730924E-1,4.163054471218E-2));
#597=DIRECTION('',(0.E0,-4.163054471218E-2,9.991330730924E-1));
#598=AXIS2_PLACEMENT_3D('',#595,#596,#597);
#599=PLANE('',#598);
#600=ORIENTED_EDGE('',*,*,#566,.T.);
#602=ORIENTED_EDGE('',*,*,#601,.F.);
#604=ORIENTED_EDGE('',*,*,#603,.F.);
#605=ORIENTED_EDGE('',*,*,#587,.T.);
#606=EDGE_LOOP('',(#600,#602,#604,#605));
#607=FACE_OUTER_BOUND('',#606,.F.);
#608=ADVANCED_FACE('',(#607),#599,.T.);
#609=CARTESIAN_POINT('',(4.E1,7.5E1,6.E2));
#610=DIRECTION('',(-9.977851578566E-1,0.E0,6.651901052377E-2));
#611=DIRECTION('',(6.651901052377E-2,0.E0,9.977851578566E-1));
#612=AXIS2_PLACEMENT_3D('',#609,#610,#611);
#613=PLANE('',#612);
#614=ORIENTED_EDGE('',*,*,#564,.T.);
#615=ORIENTED_EDGE('',*,*,#534,.F.);
#617=ORIENTED_EDGE('',*,*,#616,.F.);
#618=ORIENTED_EDGE('',*,*,#601,.T.);
#619=EDGE_LOOP('',(#614,#615,#617,#618));
#620=FACE_OUTER_BOUND('',#619,.F.);
#621=ADVANCED_FACE('',(#620),#613,.T.);
#622=CARTESIAN_POINT('',(6.000000007451E1,8.500000096858E1,0.E0));
#623=DIRECTION('',(0.E0,0.E0,1.E0));
#624=DIRECTION('',(1.E0,0.E0,0.E0));
#625=AXIS2_PLACEMENT_3D('',#622,#623,#624);
#626=PLANE('',#625);
#627=ORIENTED_EDGE('',*,*,#616,.T.);
#628=ORIENTED_EDGE('',*,*,#532,.T.);
#629=ORIENTED_EDGE('',*,*,#589,.T.);
#630=ORIENTED_EDGE('',*,*,#603,.T.);
#631=EDGE_LOOP('',(#627,#628,#629,#630));
#632=FACE_OUTER_BOUND('',#631,.F.);
#634=ORIENTED_EDGE('',*,*,#633,.T.);
#636=ORIENTED_EDGE('',*,*,#635,.T.);
#638=ORIENTED_EDGE('',*,*,#637,.T.);
#640=ORIENTED_EDGE('',*,*,#639,.T.);
#641=EDGE_LOOP('',(#634,#636,#638,#640));
#642=FACE_BOUND('',#641,.F.);
#643=ADVANCED_FACE('',(#632,#642),#626,.F.);
#644=CARTESIAN_POINT('',(5.000000074506E0,5.462500096858E1,0.E0));
#645=DIRECTION('',(0.E0,-9.992083316039E-1,3.978328861819E-2));
#646=DIRECTION('',(0.E0,-3.978328861819E-2,-9.992083316039E-1));
#647=AXIS2_PLACEMENT_3D('',#644,#645,#646);
#648=PLANE('',#647);
#649=ORIENTED_EDGE('',*,*,#633,.F.);
#651=ORIENTED_EDGE('',*,*,#650,.F.);
#653=ORIENTED_EDGE('',*,*,#652,.F.);
#655=ORIENTED_EDGE('',*,*,#654,.T.);
#656=EDGE_LOOP('',(#649,#651,#653,#655));
#657=FACE_OUTER_BOUND('',#656,.F.);
#658=ADVANCED_FACE('',(#657),#648,.F.);
#659=CARTESIAN_POINT('',(1.150000000745E2,5.462500096858E1,0.E0));
#660=DIRECTION('',(9.977851585949E-1,0.E0,6.651899944941E-2));
#661=DIRECTION('',(6.651899944941E-2,0.E0,-9.977851585949E-1));
#662=AXIS2_PLACEMENT_3D('',#659,#660,#661);
#663=PLANE('',#662);
#664=ORIENTED_EDGE('',*,*,#639,.F.);
#666=ORIENTED_EDGE('',*,*,#665,.F.);
#668=ORIENTED_EDGE('',*,*,#667,.F.);
#669=ORIENTED_EDGE('',*,*,#650,.T.);
#670=EDGE_LOOP('',(#664,#666,#668,#669));
#671=FACE_OUTER_BOUND('',#670,.F.);
#672=ADVANCED_FACE('',(#671),#663,.F.);
#673=CARTESIAN_POINT('',(1.150000000745E2,1.153750009686E2,0.E0));
#674=DIRECTION('',(0.E0,9.991330730648E-1,4.163054537273E-2));
#675=DIRECTION('',(0.E0,-4.163054537273E-2,9.991330730648E-1));
#676=AXIS2_PLACEMENT_3D('',#673,#674,#675);
#677=PLANE('',#676);
#678=ORIENTED_EDGE('',*,*,#637,.F.);
#680=ORIENTED_EDGE('',*,*,#679,.F.);
#682=ORIENTED_EDGE('',*,*,#681,.F.);
#683=ORIENTED_EDGE('',*,*,#665,.T.);
#684=EDGE_LOOP('',(#678,#680,#682,#683));
#685=FACE_OUTER_BOUND('',#684,.F.);
#686=ADVANCED_FACE('',(#685),#677,.F.);
#687=CARTESIAN_POINT('',(5.000000074506E0,1.153750009686E2,0.E0));
#688=DIRECTION('',(-9.977851577835E-1,0.E0,6.651901162025E-2));
#689=DIRECTION('',(6.651901162025E-2,0.E0,9.977851577835E-1));
#690=AXIS2_PLACEMENT_3D('',#687,#688,#689);
#691=PLANE('',#690);
#692=ORIENTED_EDGE('',*,*,#635,.F.);
#693=ORIENTED_EDGE('',*,*,#654,.F.);
#695=ORIENTED_EDGE('',*,*,#694,.F.);
#696=ORIENTED_EDGE('',*,*,#679,.T.);
#697=EDGE_LOOP('',(#692,#693,#695,#696));
#698=FACE_OUTER_BOUND('',#697,.F.);
#699=ADVANCED_FACE('',(#698),#691,.F.);
#700=CARTESIAN_POINT('',(1.400000022352E1,1.097500008792E2,1.5E2));
#701=DIRECTION('',(1.E0,0.E0,0.E0));
#702=DIRECTION('',(0.E0,-1.E0,0.E0));
#703=AXIS2_PLACEMENT_3D('',#700,#701,#702);
#704=PLANE('',#703);
#706=ORIENTED_EDGE('',*,*,#705,.F.);
#708=ORIENTED_EDGE('',*,*,#707,.F.);
#710=ORIENTED_EDGE('',*,*,#709,.T.);
#711=ORIENTED_EDGE('',*,*,#694,.T.);
#712=EDGE_LOOP('',(#706,#708,#710,#711));
#713=FACE_OUTER_BOUND('',#712,.F.);
#714=ADVANCED_FACE('',(#713),#704,.T.);
#715=CARTESIAN_POINT('',(1.400000022352E1,6.000000014901E1,1.5E2));
#716=DIRECTION('',(0.E0,1.E0,0.E0));
#717=DIRECTION('',(1.E0,0.E0,0.E0));
#718=AXIS2_PLACEMENT_3D('',#715,#716,#717);
#719=PLANE('',#718);
#721=ORIENTED_EDGE('',*,*,#720,.T.);
#723=ORIENTED_EDGE('',*,*,#722,.F.);
#724=ORIENTED_EDGE('',*,*,#705,.T.);
#725=ORIENTED_EDGE('',*,*,#652,.T.);
#726=EDGE_LOOP('',(#721,#723,#724,#725));
#727=FACE_OUTER_BOUND('',#726,.F.);
#728=ADVANCED_FACE('',(#727),#719,.T.);
#729=CARTESIAN_POINT('',(1.060000015795E2,6.000000014901E1,1.5E2));
#730=DIRECTION('',(-1.E0,0.E0,0.E0));
#731=DIRECTION('',(0.E0,1.E0,0.E0));
#732=AXIS2_PLACEMENT_3D('',#729,#730,#731);
#733=PLANE('',#732);
#735=ORIENTED_EDGE('',*,*,#734,.F.);
#737=ORIENTED_EDGE('',*,*,#736,.F.);
#738=ORIENTED_EDGE('',*,*,#720,.F.);
#739=ORIENTED_EDGE('',*,*,#667,.T.);
#740=EDGE_LOOP('',(#735,#737,#738,#739));
#741=FACE_OUTER_BOUND('',#740,.F.);
#742=ADVANCED_FACE('',(#741),#733,.T.);
#743=CARTESIAN_POINT('',(1.060000015795E2,1.097500008792E2,1.5E2));
#744=DIRECTION('',(0.E0,-1.E0,0.E0));
#745=DIRECTION('',(-1.E0,0.E0,0.E0));
#746=AXIS2_PLACEMENT_3D('',#743,#744,#745);
#747=PLANE('',#746);
#748=ORIENTED_EDGE('',*,*,#709,.F.);
#750=ORIENTED_EDGE('',*,*,#749,.F.);
#751=ORIENTED_EDGE('',*,*,#734,.T.);
#752=ORIENTED_EDGE('',*,*,#681,.T.);
#753=EDGE_LOOP('',(#748,#750,#751,#752));
#754=FACE_OUTER_BOUND('',#753,.F.);
#755=ADVANCED_FACE('',(#754),#747,.T.);
#756=CARTESIAN_POINT('',(6.E1,8.5E1,1.65E2));
#757=DIRECTION('',(0.E0,0.E0,1.E0));
#758=DIRECTION('',(1.E0,0.E0,0.E0));
#759=AXIS2_PLACEMENT_3D('',#756,#757,#758);
#760=PLANE('',#759);
#762=ORIENTED_EDGE('',*,*,#761,.T.);
#764=ORIENTED_EDGE('',*,*,#763,.T.);
#766=ORIENTED_EDGE('',*,*,#765,.T.);
#768=ORIENTED_EDGE('',*,*,#767,.T.);
#769=EDGE_LOOP('',(#762,#764,#766,#768));
#770=FACE_OUTER_BOUND('',#769,.F.);
#771=ORIENTED_EDGE('',*,*,#722,.T.);
#772=ORIENTED_EDGE('',*,*,#736,.T.);
#773=ORIENTED_EDGE('',*,*,#749,.T.);
#774=ORIENTED_EDGE('',*,*,#707,.T.);
#775=EDGE_LOOP('',(#771,#772,#773,#774));
#776=FACE_BOUND('',#775,.F.);
#777=ADVANCED_FACE('',(#770,#776),#760,.T.);
#778=CARTESIAN_POINT('',(1.2E1,1.1175E2,1.5E2));
#779=DIRECTION('',(-1.E0,0.E0,0.E0));
#780=DIRECTION('',(0.E0,-1.E0,0.E0));
#781=AXIS2_PLACEMENT_3D('',#778,#779,#780);
#782=PLANE('',#781);
#783=ORIENTED_EDGE('',*,*,#572,.F.);
#785=ORIENTED_EDGE('',*,*,#784,.F.);
#786=ORIENTED_EDGE('',*,*,#761,.F.);
#788=ORIENTED_EDGE('',*,*,#787,.T.);
#789=EDGE_LOOP('',(#783,#785,#786,#788));
#790=FACE_OUTER_BOUND('',#789,.F.);
#791=ADVANCED_FACE('',(#790),#782,.T.);
#792=CARTESIAN_POINT('',(1.08E2,1.1175E2,1.5E2));
#793=DIRECTION('',(0.E0,1.E0,0.E0));
#794=DIRECTION('',(-1.E0,0.E0,0.E0));
#795=AXIS2_PLACEMENT_3D('',#792,#793,#794);
#796=PLANE('',#795);
#797=ORIENTED_EDGE('',*,*,#570,.F.);
#799=ORIENTED_EDGE('',*,*,#798,.F.);
#800=ORIENTED_EDGE('',*,*,#763,.F.);
#801=ORIENTED_EDGE('',*,*,#784,.T.);
#802=EDGE_LOOP('',(#797,#799,#800,#801));
#803=FACE_OUTER_BOUND('',#802,.F.);
#804=ADVANCED_FACE('',(#803),#796,.T.);
#805=CARTESIAN_POINT('',(1.08E2,5.825E1,1.5E2));
#806=DIRECTION('',(1.E0,0.E0,0.E0));
#807=DIRECTION('',(0.E0,1.E0,0.E0));
#808=AXIS2_PLACEMENT_3D('',#805,#806,#807);
#809=PLANE('',#808);
#810=ORIENTED_EDGE('',*,*,#576,.F.);
#812=ORIENTED_EDGE('',*,*,#811,.F.);
#813=ORIENTED_EDGE('',*,*,#765,.F.);
#814=ORIENTED_EDGE('',*,*,#798,.T.);
#815=EDGE_LOOP('',(#810,#812,#813,#814));
#816=FACE_OUTER_BOUND('',#815,.F.);
#817=ADVANCED_FACE('',(#816),#809,.T.);
#818=CARTESIAN_POINT('',(1.2E1,5.825E1,1.5E2));
#819=DIRECTION('',(0.E0,-1.E0,0.E0));
#820=DIRECTION('',(1.E0,0.E0,0.E0));
#821=AXIS2_PLACEMENT_3D('',#818,#819,#820);
#822=PLANE('',#821);
#823=ORIENTED_EDGE('',*,*,#574,.F.);
#824=ORIENTED_EDGE('',*,*,#787,.F.);
#825=ORIENTED_EDGE('',*,*,#767,.F.);
#826=ORIENTED_EDGE('',*,*,#811,.T.);
#827=EDGE_LOOP('',(#823,#824,#825,#826));
#828=FACE_OUTER_BOUND('',#827,.F.);
#829=ADVANCED_FACE('',(#828),#822,.T.);
#830=CARTESIAN_POINT('',(5.E1,5.575E1,1.4E2));
#831=DIRECTION('',(0.E0,1.E0,0.E0));
#832=DIRECTION('',(1.E0,0.E0,0.E0));
#833=AXIS2_PLACEMENT_3D('',#830,#831,#832);
#834=PLANE('',#833);
#836=ORIENTED_EDGE('',*,*,#835,.T.);
#838=ORIENTED_EDGE('',*,*,#837,.F.);
#840=ORIENTED_EDGE('',*,*,#839,.F.);
#841=ORIENTED_EDGE('',*,*,#538,.F.);
#842=EDGE_LOOP('',(#836,#838,#840,#841));
#843=FACE_OUTER_BOUND('',#842,.F.);
#844=ADVANCED_FACE('',(#843),#834,.T.);
#845=CARTESIAN_POINT('',(4.43E1,5.305E1,1.4E2));
#846=DIRECTION('',(-1.E0,0.E0,0.E0));
#847=DIRECTION('',(0.E0,0.E0,1.E0));
#848=AXIS2_PLACEMENT_3D('',#845,#846,#847);
#849=PLANE('',#848);
#850=ORIENTED_EDGE('',*,*,#551,.F.);
#852=ORIENTED_EDGE('',*,*,#851,.F.);
#854=ORIENTED_EDGE('',*,*,#853,.T.);
#856=ORIENTED_EDGE('',*,*,#855,.F.);
#857=ORIENTED_EDGE('',*,*,#835,.F.);
#858=EDGE_LOOP('',(#850,#852,#854,#856,#857));
#859=FACE_OUTER_BOUND('',#858,.F.);
#860=ADVANCED_FACE('',(#859),#849,.F.);
#861=CARTESIAN_POINT('',(6.E1,5.325E1,1.22E2));
#862=DIRECTION('',(0.E0,0.E0,-1.E0));
#863=DIRECTION('',(-1.E0,0.E0,0.E0));
#864=AXIS2_PLACEMENT_3D('',#861,#862,#863);
#865=PLANE('',#864);
#866=ORIENTED_EDGE('',*,*,#549,.F.);
#867=ORIENTED_EDGE('',*,*,#518,.T.);
#868=ORIENTED_EDGE('',*,*,#465,.T.);
#869=ORIENTED_EDGE('',*,*,#484,.T.);
#871=ORIENTED_EDGE('',*,*,#870,.F.);
#873=ORIENTED_EDGE('',*,*,#872,.T.);
#875=ORIENTED_EDGE('',*,*,#874,.T.);
#876=ORIENTED_EDGE('',*,*,#851,.T.);
#877=EDGE_LOOP('',(#866,#867,#868,#869,#871,#873,#875,#876));
#878=FACE_OUTER_BOUND('',#877,.F.);
#879=ADVANCED_FACE('',(#878),#865,.F.);
#880=CARTESIAN_POINT('',(7.E1,4.875E1,1.4E2));
#881=DIRECTION('',(0.E0,-1.E0,0.E0));
#882=DIRECTION('',(0.E0,0.E0,-1.E0));
#883=AXIS2_PLACEMENT_3D('',#880,#881,#882);
#884=PLANE('',#883);
#885=ORIENTED_EDGE('',*,*,#870,.T.);
#886=ORIENTED_EDGE('',*,*,#482,.T.);
#887=ORIENTED_EDGE('',*,*,#500,.T.);
#889=ORIENTED_EDGE('',*,*,#888,.T.);
#891=ORIENTED_EDGE('',*,*,#890,.T.);
#893=ORIENTED_EDGE('',*,*,#892,.T.);
#895=ORIENTED_EDGE('',*,*,#894,.T.);
#897=ORIENTED_EDGE('',*,*,#896,.T.);
#898=EDGE_LOOP('',(#885,#886,#887,#889,#891,#893,#895,#897));
#899=FACE_OUTER_BOUND('',#898,.F.);
#900=ADVANCED_FACE('',(#899),#884,.T.);
#901=CARTESIAN_POINT('',(7.8E1,5.575E1,1.4E2));
#902=DIRECTION('',(1.E0,0.E0,0.E0));
#903=DIRECTION('',(0.E0,0.E0,-1.E0));
#904=AXIS2_PLACEMENT_3D('',#901,#902,#903);
#905=PLANE('',#904);
#906=ORIENTED_EDGE('',*,*,#544,.F.);
#908=ORIENTED_EDGE('',*,*,#907,.F.);
#909=ORIENTED_EDGE('',*,*,#888,.F.);
#910=ORIENTED_EDGE('',*,*,#498,.T.);
#912=ORIENTED_EDGE('',*,*,#911,.T.);
#913=EDGE_LOOP('',(#906,#908,#909,#910,#912));
#914=FACE_OUTER_BOUND('',#913,.F.);
#915=ADVANCED_FACE('',(#914),#905,.T.);
#916=CARTESIAN_POINT('',(6.E1,5.325E1,1.2E2));
#917=DIRECTION('',(0.E0,0.E0,-1.E0));
#918=DIRECTION('',(-1.E0,0.E0,0.E0));
#919=AXIS2_PLACEMENT_3D('',#916,#917,#918);
#920=PLANE('',#919);
#921=ORIENTED_EDGE('',*,*,#542,.F.);
#923=ORIENTED_EDGE('',*,*,#922,.F.);
#924=ORIENTED_EDGE('',*,*,#890,.F.);
#925=ORIENTED_EDGE('',*,*,#907,.T.);
#926=EDGE_LOOP('',(#921,#923,#924,#925));
#927=FACE_OUTER_BOUND('',#926,.F.);
#928=ADVANCED_FACE('',(#927),#920,.T.);
#929=CARTESIAN_POINT('',(4.2E1,5.075E1,1.4E2));
#930=DIRECTION('',(-1.E0,0.E0,0.E0));
#931=DIRECTION('',(0.E0,0.E0,1.E0));
#932=AXIS2_PLACEMENT_3D('',#929,#930,#931);
#933=PLANE('',#932);
#934=ORIENTED_EDGE('',*,*,#540,.F.);
#935=ORIENTED_EDGE('',*,*,#839,.T.);
#937=ORIENTED_EDGE('',*,*,#936,.F.);
#938=ORIENTED_EDGE('',*,*,#892,.F.);
#939=ORIENTED_EDGE('',*,*,#922,.T.);
#940=EDGE_LOOP('',(#934,#935,#937,#938,#939));
#941=FACE_OUTER_BOUND('',#940,.F.);
#942=ADVANCED_FACE('',(#941),#933,.T.);
#943=CARTESIAN_POINT('',(6.E1,5.325E1,1.4E2));
#944=DIRECTION('',(0.E0,0.E0,1.E0));
#945=DIRECTION('',(-1.E0,0.E0,0.E0));
#946=AXIS2_PLACEMENT_3D('',#943,#944,#945);
#947=PLANE('',#946);
#948=ORIENTED_EDGE('',*,*,#855,.T.);
#950=ORIENTED_EDGE('',*,*,#949,.T.);
#952=ORIENTED_EDGE('',*,*,#951,.T.);
#953=ORIENTED_EDGE('',*,*,#894,.F.);
#954=ORIENTED_EDGE('',*,*,#936,.T.);
#955=ORIENTED_EDGE('',*,*,#837,.T.);
#956=EDGE_LOOP('',(#948,#950,#952,#953,#954,#955));
#957=FACE_OUTER_BOUND('',#956,.F.);
#958=ADVANCED_FACE('',(#957),#947,.T.);
#959=CARTESIAN_POINT('',(5.48E1,5.105E1,1.4E2));
#960=DIRECTION('',(0.E0,-1.E0,0.E0));
#961=DIRECTION('',(0.E0,0.E0,-1.E0));
#962=AXIS2_PLACEMENT_3D('',#959,#960,#961);
#963=PLANE('',#962);
#965=ORIENTED_EDGE('',*,*,#964,.F.);
#966=ORIENTED_EDGE('',*,*,#949,.F.);
#967=ORIENTED_EDGE('',*,*,#853,.F.);
#968=ORIENTED_EDGE('',*,*,#874,.F.);
#969=EDGE_LOOP('',(#965,#966,#967,#968));
#970=FACE_OUTER_BOUND('',#969,.F.);
#971=ADVANCED_FACE('',(#970),#963,.F.);
#972=CARTESIAN_POINT('',(4.68E1,5.075E1,1.4E2));
#973=DIRECTION('',(-1.E0,0.E0,0.E0));
#974=DIRECTION('',(0.E0,0.E0,1.E0));
#975=AXIS2_PLACEMENT_3D('',#972,#973,#974);
#976=PLANE('',#975);
#977=ORIENTED_EDGE('',*,*,#964,.T.);
#978=ORIENTED_EDGE('',*,*,#872,.F.);
#979=ORIENTED_EDGE('',*,*,#896,.F.);
#980=ORIENTED_EDGE('',*,*,#951,.F.);
#981=EDGE_LOOP('',(#977,#978,#979,#980));
#982=FACE_OUTER_BOUND('',#981,.F.);
#983=ADVANCED_FACE('',(#982),#976,.F.);
#984=CARTESIAN_POINT('',(5.E1,5.575E1,1.4E2));
#985=DIRECTION('',(0.E0,1.E0,0.E0));
#986=DIRECTION('',(1.E0,0.E0,0.E0));
#987=AXIS2_PLACEMENT_3D('',#984,#985,#986);
#988=PLANE('',#987);
#989=ORIENTED_EDGE('',*,*,#514,.T.);
#990=ORIENTED_EDGE('',*,*,#546,.F.);
#991=ORIENTED_EDGE('',*,*,#911,.F.);
#992=ORIENTED_EDGE('',*,*,#496,.T.);
#993=EDGE_LOOP('',(#989,#990,#991,#992));
#994=FACE_OUTER_BOUND('',#993,.F.);
#995=ADVANCED_FACE('',(#994),#988,.T.);
#999=DIMENSIONAL_EXPONENTS(0.E0,0.E0,0.E0,0.E0,0.E0,0.E0,0.E0);
#1001=PLANE_ANGLE_MEASURE_WITH_UNIT(PLANE_ANGLE_MEASURE(1.745329251994E-2),
#1000);
#1002=(CONVERSION_BASED_UNIT('DEGREE',#1001)NAMED_UNIT(*)PLANE_ANGLE_UNIT());
#1004=UNCERTAINTY_MEASURE_WITH_UNIT(LENGTH_MEASURE(2.160967987956E-2),#998,
'closure',
'Maximum model space distance between geometric entities at asserted connectivities');
#1005=(GEOMETRIC_REPRESENTATION_CONTEXT(3)GLOBAL_UNCERTAINTY_ASSIGNED_CONTEXT((
#1004))GLOBAL_UNIT_ASSIGNED_CONTEXT((#998,#1002,#1003))REPRESENTATION_CONTEXT(
'ID1','3'));
#1007=APPLICATION_CONTEXT(
'CONFIGURATION CONTROLLED 3D DESIGNS OF MECHANICAL PARTS AND ASSEMBLIES');
#1008=APPLICATION_PROTOCOL_DEFINITION('international standard',
'config_control_design',1994,#1007);
#1009=DESIGN_CONTEXT('',#1007,'design');
#1010=MECHANICAL_CONTEXT('',#1007,'mechanical');
#1011=PRODUCT('332000143400','332000143400','NOT SPECIFIED',(#1010));
#1012=PRODUCT_DEFINITION_FORMATION_WITH_SPECIFIED_SOURCE('1','LAST_VERSION',
#1011,.MADE.);
#1016=PRODUCT_CATEGORY('part','');
#1017=PRODUCT_RELATED_PRODUCT_CATEGORY('detail','',(#1011));
#1018=PRODUCT_CATEGORY_RELATIONSHIP('','',#1016,#1017);
#1019=SECURITY_CLASSIFICATION_LEVEL('unclassified');
#1020=SECURITY_CLASSIFICATION('','',#1019);
#1021=CC_DESIGN_SECURITY_CLASSIFICATION(#1020,(#1012));
#1022=APPROVAL_STATUS('approved');
#1023=APPROVAL(#1022,'');
#1024=CC_DESIGN_APPROVAL(#1023,(#1020,#1012,#1013));
#1025=CALENDAR_DATE(126,27,7);
#1026=COORDINATED_UNIVERSAL_TIME_OFFSET(8,0,.AHEAD.);
#1027=LOCAL_TIME(19,58,1.3E1,#1026);
#1028=DATE_AND_TIME(#1025,#1027);
#1029=APPROVAL_DATE_TIME(#1028,#1023);
#1030=DATE_TIME_ROLE('creation_date');
#1031=CC_DESIGN_DATE_AND_TIME_ASSIGNMENT(#1028,#1030,(#1013));
#1032=DATE_TIME_ROLE('classification_date');
#1033=CC_DESIGN_DATE_AND_TIME_ASSIGNMENT(#1028,#1032,(#1020));
#1034=PERSON('UNSPECIFIED','UNSPECIFIED',$,$,$,$);
#1035=ORGANIZATION('UNSPECIFIED','UNSPECIFIED','UNSPECIFIED');
#1036=PERSON_AND_ORGANIZATION(#1034,#1035);
#1037=APPROVAL_ROLE('approver');
#1038=APPROVAL_PERSON_ORGANIZATION(#1036,#1023,#1037);
#1039=PERSON_AND_ORGANIZATION_ROLE('creator');
#1040=CC_DESIGN_PERSON_AND_ORGANIZATION_ASSIGNMENT(#1036,#1039,(#1012,#1013));
#1041=PERSON_AND_ORGANIZATION_ROLE('design_supplier');
#1042=CC_DESIGN_PERSON_AND_ORGANIZATION_ASSIGNMENT(#1036,#1041,(#1012));
#1043=PERSON_AND_ORGANIZATION_ROLE('classification_officer');
#1044=CC_DESIGN_PERSON_AND_ORGANIZATION_ASSIGNMENT(#1036,#1043,(#1020));
#1045=PERSON_AND_ORGANIZATION_ROLE('design_owner');
#1046=CC_DESIGN_PERSON_AND_ORGANIZATION_ASSIGNMENT(#1036,#1045,(#1011));
#463=EDGE_CURVE('',#348,#349,#5,.T.);
#465=EDGE_CURVE('',#353,#348,#9,.T.);
#467=EDGE_CURVE('',#351,#353,#13,.T.);
#469=EDGE_CURVE('',#349,#351,#17,.T.);
#480=EDGE_CURVE('',#357,#349,#21,.T.);
#482=EDGE_CURVE('',#363,#357,#25,.T.);
#484=EDGE_CURVE('',#348,#363,#29,.T.);
#494=EDGE_CURVE('',#351,#355,#53,.T.);
#496=EDGE_CURVE('',#361,#355,#33,.T.);
#498=EDGE_CURVE('',#359,#361,#37,.T.);
#500=EDGE_CURVE('',#357,#359,#41,.T.);
#512=EDGE_CURVE('',#394,#395,#45,.T.);
#514=EDGE_CURVE('',#355,#394,#49,.T.);
#518=EDGE_CURVE('',#395,#353,#57,.T.);
#528=EDGE_CURVE('',#404,#405,#73,.T.);
#530=EDGE_CURVE('',#409,#405,#61,.T.);
#532=EDGE_CURVE('',#407,#409,#65,.T.);
#534=EDGE_CURVE('',#407,#404,#101,.T.);
#538=EDGE_CURVE('',#389,#391,#245,.T.);
#540=EDGE_CURVE('',#391,#397,#297,.T.);
#542=EDGE_CURVE('',#397,#400,#285,.T.);
#544=EDGE_CURVE('',#400,#401,#273,.T.);
#546=EDGE_CURVE('',#401,#394,#341,.T.);
#549=EDGE_CURVE('',#395,#388,#265,.T.);
#551=EDGE_CURVE('',#388,#389,#249,.T.);
#561=EDGE_CURVE('',#405,#443,#69,.T.);
#564=EDGE_CURVE('',#445,#404,#77,.T.);
#566=EDGE_CURVE('',#443,#445,#81,.T.);
#570=EDGE_CURVE('',#412,#413,#201,.T.);
#572=EDGE_CURVE('',#413,#423,#189,.T.);
#574=EDGE_CURVE('',#423,#419,#225,.T.);
#576=EDGE_CURVE('',#419,#412,#213,.T.);
#587=EDGE_CURVE('',#449,#443,#85,.T.);
#589=EDGE_CURVE('',#409,#449,#89,.T.);
#601=EDGE_CURVE('',#447,#445,#93,.T.);
#603=EDGE_CURVE('',#449,#447,#97,.T.);
#616=EDGE_CURVE('',#447,#407,#105,.T.);
#633=EDGE_CURVE('',#452,#453,#109,.T.);
#635=EDGE_CURVE('',#453,#457,#145,.T.);
#637=EDGE_CURVE('',#457,#455,#133,.T.);
#639=EDGE_CURVE('',#455,#452,#121,.T.);
#650=EDGE_CURVE('',#441,#452,#113,.T.);
#652=EDGE_CURVE('',#435,#441,#117,.T.);
#654=EDGE_CURVE('',#435,#453,#149,.T.);
#665=EDGE_CURVE('',#439,#455,#125,.T.);
#667=EDGE_CURVE('',#441,#439,#129,.T.);
#679=EDGE_CURVE('',#437,#457,#137,.T.);
#681=EDGE_CURVE('',#439,#437,#141,.T.);
#694=EDGE_CURVE('',#437,#435,#153,.T.);
#705=EDGE_CURVE('',#428,#435,#157,.T.);
#707=EDGE_CURVE('',#431,#428,#161,.T.);
#709=EDGE_CURVE('',#431,#437,#181,.T.);
#720=EDGE_CURVE('',#441,#429,#177,.T.);
#722=EDGE_CURVE('',#428,#429,#165,.T.);
#734=EDGE_CURVE('',#433,#439,#169,.T.);
#736=EDGE_CURVE('',#429,#433,#173,.T.);
#749=EDGE_CURVE('',#433,#431,#185,.T.);
#761=EDGE_CURVE('',#425,#415,#197,.T.);
#763=EDGE_CURVE('',#415,#417,#209,.T.);
#765=EDGE_CURVE('',#417,#421,#221,.T.);
#767=EDGE_CURVE('',#421,#425,#233,.T.);
#784=EDGE_CURVE('',#415,#413,#193,.T.);
#787=EDGE_CURVE('',#425,#423,#229,.T.);
#798=EDGE_CURVE('',#417,#412,#205,.T.);
#811=EDGE_CURVE('',#421,#419,#217,.T.);
#835=EDGE_CURVE('',#389,#383,#261,.T.);
#837=EDGE_CURVE('',#385,#383,#237,.T.);
#839=EDGE_CURVE('',#391,#385,#241,.T.);
#851=EDGE_CURVE('',#369,#388,#253,.T.);
#853=EDGE_CURVE('',#369,#371,#321,.T.);
#855=EDGE_CURVE('',#383,#371,#257,.T.);
#870=EDGE_CURVE('',#375,#363,#269,.T.);
#872=EDGE_CURVE('',#375,#367,#329,.T.);
#874=EDGE_CURVE('',#367,#369,#325,.T.);
#888=EDGE_CURVE('',#359,#381,#281,.T.);
#890=EDGE_CURVE('',#381,#379,#293,.T.);
#892=EDGE_CURVE('',#379,#377,#305,.T.);
#894=EDGE_CURVE('',#377,#373,#309,.T.);
#896=EDGE_CURVE('',#373,#375,#333,.T.);
#907=EDGE_CURVE('',#381,#400,#277,.T.);
#911=EDGE_CURVE('',#361,#401,#345,.T.);
#922=EDGE_CURVE('',#379,#397,#289,.T.);
#936=EDGE_CURVE('',#377,#385,#301,.T.);
#949=EDGE_CURVE('',#371,#366,#317,.T.);
#951=EDGE_CURVE('',#366,#373,#337,.T.);
#964=EDGE_CURVE('',#366,#367,#313,.T.);
#996=CLOSED_SHELL('',(#473,#488,#506,#522,#555,#580,#594,#608,#621,#643,#658,
#672,#686,#699,#714,#728,#742,#755,#777,#791,#804,#817,#829,#844,#860,#879,#900,
#915,#928,#942,#958,#971,#983,#995));
#997=MANIFOLD_SOLID_BREP('',#996);
#998=(LENGTH_UNIT()NAMED_UNIT(*)SI_UNIT(.MILLI.,.METRE.));
#1000=(NAMED_UNIT(*)PLANE_ANGLE_UNIT()SI_UNIT($,.RADIAN.));
#1003=(NAMED_UNIT(*)SI_UNIT($,.STERADIAN.)SOLID_ANGLE_UNIT());
#1006=ADVANCED_BREP_SHAPE_REPRESENTATION('',(#997),#1005);
#1013=PRODUCT_DEFINITION('design','',#1012,#1009);
#1014=PRODUCT_DEFINITION_SHAPE('','SHAPE FOR 332000143400.',#1013);
#1015=SHAPE_DEFINITION_REPRESENTATION(#1014,#1006);
ENDSEC;
END-ISO-10303-21;
